<svg xmlns="http://www.w3.org/2000/svg">
<defs>
<font id="UTMAvo-BoldItalic" horiz-adv-x="1552" >
  <font-face 
    font-family="UTM Avo"
    font-weight="700"
    font-style="italic"
    font-stretch="normal"
    units-per-em="2048"
    panose-1="2 4 6 3 5 5 6 9 2 4"
    ascent="1638"
    descent="-410"
    x-height="1137"
    cap-height="1516"
    bbox="-77 -541 4956 2460"
    underline-thickness="109"
    underline-position="-359"
    slope="-12"
    unicode-range="U+0020-2026"
  />
<missing-glyph horiz-adv-x="5040" 
d="M3785 2045h10q35 -10 26 -52q-2 -12 -44 -57h-28q5 24 40 54l4 10q-2 13 -7 15h-9q-8 0 -14 -19h-30q16 49 52 49zM2447 2016l23 -31q-4 -16 -47 -30h-19l-56 12l-14 -12l-22 25q17 29 49 29h11l39 -11h2q10 0 34 18zM889 1980h142l-13 -60h-94l-16 -75h89l-13 -59h-89
l-27 -129l-6 -5h-49l69 323zM1576 1980h43l5 -5l-17 -78h30l-11 -52h-30l-40 -188l-7 -5h-49l41 193h-25l11 52h25l17 78zM2042 1980h42l3 -5l-20 -94h3q28 24 59 24h2q58 0 68 -71l-7 -39l-30 -143h-52l24 115q17 80 -25 80h-7q-43 0 -61 -86l-23 -109h-51l69 323z
M2621 1980h49l4 -5l-48 -222q0 -51 35 -51q45 7 56 59l46 214l6 5h49l-46 -216q-18 -85 -90 -112q-17 -8 -37 -8q-47 0 -70 55q-9 24 -2 57zM2856 1980h159l-13 -60h-56l-57 -268h-53l57 268h-55l12 55zM3042 1980h71q6 -4 29 -251h2l134 251h73l-70 -328h-54l51 242h-2
l-125 -242h-44q-4 0 -19 182l-7 60h-3l-51 -242h-55zM4181 1980h52l-70 -328h-45l-4 5l2 11l4 2v14q-38 -40 -87 -40q-67 0 -80 91l3 39l1 3q19 94 118 125l24 3q35 0 56 -32h3zM2467 1928h36l2 -6l-10 -49h-45l-47 -221h-48l5 23q-30 -31 -66 -31q-86 14 -68 97l33 156h51
l-22 -104q-17 -79 8 -86l17 -5h6q26 0 46 36l9 26l28 133h53l5 25zM3886 1928l-12 -55h-31l-47 -221h-47l5 25h-2q-22 -33 -64 -33q-68 0 -69 78l3 29l31 146h52l-25 -120q-11 -50 4 -68l20 -7h9q42 0 56 69l27 126h27q4 0 10 28l4 3h49zM1163 1905q68 0 86 -77q6 -18 1 -54
q-19 -88 -117 -127l-33 -3q-63 0 -85 73q-8 22 -1 52l2 10q20 94 128 126h19zM1416 1905h3q74 0 61 -101l-32 -152h-51l25 119q16 76 -26 76h-5q-44 0 -60 -76l-25 -119h-52l52 245h46l-4 -21q36 29 68 29zM1871 1905h7q72 0 86 -89h-60q-10 31 -36 31h-17q-56 -14 -66 -61

<glyph glyph-name=".notdef" horiz-adv-x="5040" 
d="M3785 2045h10q35 -10 26 -52q-2 -12 -44 -57h-28q5 24 40 54l4 10q-2 13 -7 15h-9q-8 0 -14 -19h-30q16 49 52 49zM2447 2016l23 -31q-4 -16 -47 -30h-19l-56 12l-14 -12l-22 25q17 29 49 29h11l39 -11h2q10 0 34 18zM889 1980h142l-13 -60h-94l-16 -75h89l-13 -59h-89
l-27 -129l-6 -5h-49l69 323zM1576 1980h43l5 -5l-17 -78h30l-11 -52h-30l-40 -188l-7 -5h-49l41 193h-25l11 52h25l17 78zM2042 1980h42l3 -5l-20 -94h3q28 24 59 24h2q58 0 68 -71l-7 -39l-30 -143h-52l24 115q17 80 -25 80h-7q-43 0 -61 -86l-23 -109h-51l69 323z
M2621 1980h49l4 -5l-48 -222q0 -51 35 -51q45 7 56 59l46 214l6 5h49l-46 -216q-18 -85 -90 -112q-17 -8 -37 -8q-47 0 -70 55q-9 24 -2 57zM2856 1980h159l-13 -60h-56l-57 -268h-53l57 268h-55l12 55zM3042 1980h71q6 -4 29 -251h2l134 251h73l-70 -328h-54l51 242h-2
l-125 -242h-44q-4 0 -19 182l-7 60h-3l-51 -242h-55zM4181 1980h52l-70 -328h-45l-4 5l2 11l4 2v14q-38 -40 -87 -40q-67 0 -80 91l3 39l1 3q19 94 118 125l24 3q35 0 56 -32h3zM2467 1928h36l2 -6l-10 -49h-45l-47 -221h-48l5 23q-30 -31 -66 -31q-86 14 -68 97l33 156h51
l-22 -104q-17 -79 8 -86l17 -5h6q26 0 46 36l9 26l28 133h53l5 25zM3886 1928l-12 -55h-31l-47 -221h-47l5 25h-2q-22 -33 -64 -33q-68 0 -69 78l3 29l31 146h52l-25 -120q-11 -50 4 -68l20 -7h9q42 0 56 69l27 126h27q4 0 10 28l4 3h49zM1163 1905q68 0 86 -77q6 -18 1 -54
q-19 -88 -117 -127l-33 -3q-63 0 -85 73q-8 22 -1 52l2 10q20 94 128 126h19zM1416 1905h3q74 0 61 -101l-32 -152h-51l25 119q16 76 -26 76h-5q-44 0 -60 -76l-25 -119h-52l52 245h46l-4 -21q36 29 68 29zM1871 1905h7q72 0 86 -89h-60q-10 31 -36 31h-17q-56 -14 -66 -61
l-6 -15q-2 -69 47 -69h9q22 0 52 27h40l3 3h3l1 -3l3 3l2 -3l3 3v-7q-50 -81 -127 -81q-76 0 -90 94l4 36l1 3q18 85 102 120q17 8 39 8zM3546 1905h2q49 0 57 -60l-3 -14h-52q3 16 -13 16h-4q-14 0 -21 -13l-3 -13q-2 -9 60 -35q26 -19 18 -59q-12 -58 -78 -80l-24 -3
q-73 12 -58 83h54q-4 -20 22 -25h4q19 0 28 23q5 22 -58 44q-28 27 -22 59q14 66 91 77zM4608 1905q55 0 63 -63q3 -18 -6 -65l-27 -125h-52l24 112q17 83 -23 83h-11q-33 0 -51 -54l-30 -141h-52l1 5h-2l2 2l51 238h47l-4 -21q31 29 70 29zM4837 1905h5q40 0 60 -40l4 18
l-2 3l5 11h47l-44 -208q-21 -97 -113 -132l-34 -4h-7q-70 0 -87 80h59q19 -22 40 -23h13q22 0 48 22q17 13 33 52h-3q-41 -40 -82 -40q-57 0 -81 70q-6 18 0 63q18 88 113 125zM4254 1897h53l-29 -136q-6 -59 28 -59h7q46 0 65 93l22 102h51l-52 -245h-47l-1 10h3l-2 3l1 5
l3 2l1 3h-4q-5 -23 -64 -31h-3q-59 0 -68 75l16 85zM1066 1771q-4 -69 49 -69h7q62 14 72 65l4 15q0 65 -46 65h-5q-58 0 -81 -76zM4007 1774q-2 -72 46 -72h5q58 0 82 75q10 49 -37 70h-22q-37 0 -68 -57zM4751 1774q-7 -72 50 -72h5q61 12 74 72q13 61 -44 73h-14
q-59 -16 -69 -62zM4272 1620h52l-12 -57h-52zM1352 1402q40 -11 32 -49v-4q-4 -17 -45 -60h-28q5 25 43 57l1 7q3 12 -3 15h-12q-11 -4 -14 -19h-28l1 6q7 32 42 44zM3633 1339q92 0 117 -99h-60q-28 42 -71 42q-55 0 -101 -68q-15 -22 -20 -47q-17 -78 57 -110l18 -1
q36 0 84 39h61q-65 -97 -159 -97q-93 0 -117 112q-4 31 3 62q21 97 122 152q32 15 66 15zM3948 1339q57 0 93 -47q36 -51 22 -115l-4 -20q-19 -89 -122 -146q-36 -13 -66 -13q-89 0 -117 101q-6 33 0 60l4 18q21 98 130 151q31 11 60 11zM2545 1337h2l45 -11h3q11 0 28 11
l10 -36q-22 -19 -39 -19h-3l-52 10l-21 -7l-12 36q21 16 39 16zM999 1334h19q118 0 124 -26q19 -26 12 -62q-22 -57 -42 -57l-2 -6q42 -23 33 -66l-4 -18q-13 -63 -87 -88l-55 -5h-67zM2833 1334h53l-46 -217q-7 -61 32 -61q29 0 53 39l9 30l43 203l5 6h45l4 -6l-36 -171
q-25 -118 -69 -133q-29 -26 -69 -26q-55 0 -75 76l8 54zM3088 1334h59q4 0 72 -237h4l50 237h50l3 -6l-68 -322h-58q-19 48 -75 238h-3l-50 -238h-53zM3384 1334h54l-69 -328h-54zM4142 1334h8q155 0 166 -40q21 -11 31 -75l-4 -36l-2 -11l2 -2q-19 -94 -113 -149
q-38 -15 -102 -15h-55zM4424 1334h153l-12 -60h-103l-16 -75h101l-12 -57h-101l-16 -74l3 -5h99l-12 -57h-157l68 322zM3813 1175l-3 -10q-16 -76 56 -108l19 -1q68 0 115 86l7 20l3 15q13 61 -40 94q-10 8 -37 11q-66 0 -113 -83zM1041 1274l-15 -67h9q54 0 60 28l6 14
q-5 25 -23 25h-37zM4183 1274l-44 -206l1 -3v-2q104 0 138 76l5 15l6 29q7 34 -17 68q-20 23 -73 23h-16zM1308 1259h5q38 0 63 -40l7 32h49l-52 -245h-49l6 32q-44 -40 -88 -40q-75 0 -80 97l2 36q19 89 112 125zM1581 1259h3q74 0 62 -102l-32 -151h-51l27 128
q14 67 -28 67h-10q-34 0 -52 -62l-28 -133h-52l52 245h47l-5 -21q34 29 67 29zM1810 1259h5q45 0 63 -40l7 32h47l-47 -219q-20 -95 -131 -126h-16q-74 0 -90 82h59q20 -25 38 -25h14q52 0 81 77q-42 -42 -85 -42q-60 0 -84 81l2 44l4 16q17 79 110 117zM2179 1259h2
q43 0 54 -37h2q39 37 76 37h4q57 0 68 -55q2 -25 -2 -45l-32 -153h-52l29 138q9 44 -11 55l-12 2h-15q-32 0 -50 -65l-27 -130h-52l29 136q12 59 -31 59h-8q-32 0 -48 -57l-29 -138h-54l52 245h50l-5 -21h2q11 24 60 29zM2549 1259q47 0 66 -42l8 34h47l-52 -245h-47l6 32
q-44 -40 -86 -40q-74 0 -83 92l3 41q19 90 112 125zM1222 1117q-10 -48 48 -61h4q45 0 72 46l6 15l5 22q1 62 -44 62h-14q-41 0 -71 -57zM1727 1128q-11 -48 28 -68l17 -4h5q47 0 75 57l5 23q3 65 -44 65h-12q-50 0 -74 -73zM2465 1131l-3 -14q2 -61 44 -61h14q61 12 72 64
l2 11q10 45 -23 65l-17 5h-10q-66 -8 -79 -70zM1014 1150l-17 -82q-1 -5 6 -5q77 0 86 45q8 34 -38 42h-37zM3126 753l18 -28l-63 -55q-15 12 -21 26zM1678 727l74 -54q-3 -15 -30 -42l-76 54q27 41 32 42zM2997 693h38l42 -60h-54l-15 26l-29 -26h-54q67 60 72 60z
M3569 693h40l43 -60h-54l-18 26h-1q-1 -5 -25 -26h-54zM767 685h52q8 -4 18 -137l11 -110q11 8 55 100l79 147h54v-2l-181 -326h-44zM1304 685h51l-11 -54h-51zM1499 685h46l5 -5l-68 -323h-52zM2462 685h45l3 -5l-16 -78h31l-11 -52h-31l-41 -193h-53l41 193h-26l11 52h26
l16 78zM2570 685h52l-20 -98h2q27 23 58 23h3q57 0 66 -71l-5 -38l-30 -144h-52l24 115q17 81 -22 81h-10q-42 0 -60 -87l-23 -109h-52zM2809 685h52l-11 -54h-52zM3173 685h44l5 -5l-16 -78h29l-11 -52h-29l-41 -193h-54l41 193h-27l11 52h27l16 78zM3379 685h52l-69 -328
h-52zM4102 685h52l-69 -328h-52zM4461 685h51l-11 -54h-51zM1684 610h5q83 0 89 -102l-2 -23l-2 -11q-18 -83 -111 -120l-36 -5q-76 0 -90 97l2 32q21 97 121 130zM1940 610h4q53 0 66 -60q1 -25 -11 -81l-23 -112h-54l31 146q3 50 -27 50h-10q-38 0 -54 -57l-29 -139h-54
l52 245h49l-5 -21q32 29 65 29zM2175 610h4q45 0 55 -39h3l7 31h49l-44 -206q-22 -102 -118 -135l-28 -3h-5q-73 0 -89 81h52l33 -20l14 -3h14q50 0 76 72q-41 -39 -81 -39q-62 0 -82 76q-6 23 1 60q18 85 112 123zM2995 610h2q82 0 89 -104l-3 -25l-8 -27h-172
q6 -45 36 -45l13 -3q29 0 54 22h57l-1 -3q-51 -76 -124 -76q-77 0 -90 97l5 28l1 8q11 49 51 89q42 39 90 39zM3558 610h5q41 0 62 -39h2l7 31h47l-52 -245h-47l6 31h-2q-43 -39 -85 -39q-71 0 -82 89l3 36l3 14q18 86 109 120zM3840 610h7q88 0 80 -128l-2 -1l-3 -15
q-14 -65 -89 -106q-23 -11 -48 -11q-34 0 -57 32l-21 -99l-6 -5h-49l69 325h49l-6 -28q38 36 76 36zM4280 610q44 0 67 -39l7 31h49l-52 -245h-49l6 31q-43 -39 -85 -39q-92 0 -80 132q18 84 99 121q16 8 38 8zM1050 602h50l-29 -136q-10 -60 29 -60h5q44 0 63 87l23 109h52
l-52 -245h-47l5 24h-5q-5 -23 -63 -32h-3q-55 0 -68 68q4 35 17 99l18 81zM1287 602h51l-52 -245h-51zM2792 602h52l-52 -245h-52zM4444 602h51l-52 -245h-51zM1596 488l-4 -16q-1 -66 45 -66h4q59 0 82 76q2 71 -44 71h-11q-62 -16 -72 -65zM2087 472q1 -66 45 -66h11
q48 0 75 75v1q2 71 -44 71h-14q-39 0 -68 -57zM2912 506h122l1 2q-7 45 -50 45h-7q-35 0 -66 -47zM3474 474q-2 -68 46 -68h5q52 0 78 63l3 12q5 72 -42 72h-16q-59 -14 -69 -63zM3743 478q-3 -72 46 -72h3q50 0 78 60l5 22q9 43 -36 65h-22q-47 0 -73 -72zM4195 472
q-4 -66 52 -66q43 0 71 48l5 15l4 16q11 54 -38 68h-18q-42 0 -71 -60zM3484 321h51l-11 -52h-51zM4205 321h51l-11 -52h-51zM2761 133h4q35 0 32 -50v-2q-3 -16 -33 -41l-13 -17h-28q5 25 40 56l3 2v2q1 19 -5 19h-10q-8 0 -13 -19h-30q17 50 53 50zM1570 116l40 -60
l-30 -19l-41 52zM369 79h4q64 -48 72 -60l-28 -37q-78 49 -76 58zM3507 79l73 -58l-26 -39q-10 0 -79 55q22 36 32 42zM4594 76l10 -42l-102 -52l-12 39l105 58zM1215 53h51l-4 -19l4 -5h14l-8 -36h-14l-6 -5l-59 -279h-46l7 31q-43 -40 -90 -40q-72 0 -80 105l3 26
q22 102 129 131h14q33 0 59 -33l12 59l-5 5h-43l8 36h49zM1489 45h40l43 -61h-53l-17 27l-29 -27h-53zM2650 45h33q12 0 50 -61h-54l-17 27q-23 -21 -25 -27h-58l1 4zM57 37h160l-13 -60h-56l-57 -268h-50l-3 5l52 245l3 3v2l-1 2l2 3l-1 2l2 3l-1 3h-54l11 54zM707 37h47
l-16 -73l2 -2l-3 -3l-1 -3l2 -2l-3 -3v-3l1 -2v-2l-3 -3l2 -3h3q22 24 56 24h3q53 0 64 -58q4 -17 -2 -42l-32 -153h-52l27 127q14 68 -26 68h-8q-43 0 -61 -86l-23 -109h-52l68 322zM1305 37h47l3 -6l-10 -49h-52zM1995 37h52l-42 -198l94 115h62l-103 -118l63 -125v-2h-70
q-5 22 -50 115l-24 -115h-52zM2279 37l-21 -99q29 24 58 24q57 0 68 -56q6 -19 -7 -77l-25 -120h-54l28 133q13 62 -28 62h-11q-31 0 -48 -55l-30 -140h-53l67 314l-1 3l1 3l1 2v3l2 3h53zM2466 37h51l-12 -55h-51zM3156 37h51l-23 -108q34 33 75 33h3q75 0 85 -94l-3 -37
q-16 -75 -90 -120q-32 -11 -51 -11q-41 0 -63 40l-7 -31h-47zM4283 37h52l-21 -99h2q28 24 59 24h3q60 0 66 -74l-7 -41l-29 -138h-52l24 111q17 82 -15 82l-10 2h-12q-37 0 -54 -80l-24 -115h-52zM321 -38h3l-13 -58h-5q-42 0 -54 -57l-29 -138h-53l52 245h47l-4 -21
q24 29 56 29zM556 -38q71 0 67 -87l-35 -166h-51l29 136q6 59 -29 59h-6q-45 0 -62 -84l-24 -111h-52l52 245h50l-4 -21q31 29 65 29zM1496 -38q72 0 85 -94l-4 -39q-7 -24 -12 -24h-169q7 -47 52 -47q24 0 53 21h57q-50 -79 -125 -79q-82 0 -91 105l8 37q17 81 114 117z
M2649 -38h5q77 0 86 -97l-2 -26l-5 -21l-6 -13h-170q8 -47 43 -47h12q21 0 47 21h59q-51 -79 -122 -79q-84 0 -93 102l4 29q20 93 118 128zM2907 -38h4q54 0 65 -60q2 -25 -10 -82l-24 -111h-54l29 138q10 48 -23 57h-11q-38 0 -55 -57l-29 -138h-54l52 245h50l-4 -21
q31 29 64 29zM3500 -38h6q40 0 61 -40h2l7 32h47l-52 -245h-47l7 31h-2q-43 -40 -87 -40q-71 0 -82 90l4 37l3 12q17 82 101 117q13 6 32 6zM3773 -38h4q62 0 65 -78l-15 -84l-19 -91h-54l29 138q10 48 -26 57h-9q-38 0 -53 -52l-30 -143h-54l52 245h49l-4 -21q32 29 65 29z
M4125 -38h1q74 0 84 -93l-5 -40q-18 -88 -110 -126l-26 -3q-41 0 -61 34l-22 -106h-52l69 326h47l-6 -29q38 37 81 37zM4706 -38h5q34 0 55 -37q35 37 77 37h6q56 0 65 -66l-5 -51l-29 -136h-52l26 122q15 73 -24 73h-7q-35 0 -51 -50l-30 -140l-6 -5h-48l30 140
q9 42 -20 55h-17q-40 0 -56 -77l-25 -118h-51l52 245h47l-4 -21q28 29 62 29zM349 -46h49l4 -6l-50 -234l-6 -5h-49zM1287 -46h52l-52 -245h-52zM1639 -46h52l-29 -136q-9 -60 30 -60h4q44 0 62 81l24 115h52l-52 -245h-47l5 24h-5q-19 -33 -66 -33q-52 0 -66 63q-2 12 3 34
zM2448 -46h51l-52 -245h-51zM4505 -46h51l-52 -245h-51zM1041 -169q-11 -53 35 -73h12q54 0 80 66l3 10q11 53 -40 70h-17q-38 0 -70 -57zM1407 -143h122q-8 47 -43 47h-7q-43 0 -71 -44zM2568 -143h122q-11 47 -44 47h-7q-46 0 -71 -47zM3162 -158l-2 -11q-6 -73 45 -73h5
q66 8 79 71l2 5q9 45 -25 65l-17 5h-14q-63 -14 -73 -62zM3415 -173q-1 -69 47 -69h11q41 0 72 60l3 13q7 73 -41 73h-17q-47 0 -74 -73zM4028 -158l-4 -22q-10 -47 45 -62h9q50 0 78 76q1 70 -44 70h-15q-59 -17 -69 -62z" />
    <glyph glyph-name=".null" horiz-adv-x="0" 
 />
    <glyph glyph-name="nonmarkingreturn" horiz-adv-x="571" 
 />
    <glyph glyph-name="space" unicode=" " horiz-adv-x="632" 
 />
    <glyph glyph-name="exclam" unicode="!" horiz-adv-x="681" 
d="M271 500l216 1016h350l-216 -1016h-350zM165 0l74 348h350l-74 -348h-350z" />
    <glyph glyph-name="quotedbl" unicode="&#x22;" horiz-adv-x="948" 
d="M1001 907h-219l62 609h356zM549 907h-219l61 609h356z" />
    <glyph glyph-name="numbersign" unicode="#" horiz-adv-x="1265" 
d="M1348 825h-229l-53 -149h227l-78 -227h-230l-125 -357h-231l125 357h-160l-125 -357h-233l125 357h-203l79 227h205l52 149h-205l79 228h205l114 323h233l-114 -323h160l114 323h233l-114 -323h228zM727 825l-52 -149h160l52 149h-160z" />
    <glyph glyph-name="dollar" unicode="$" horiz-adv-x="860" 
d="M1056 215q-110 -108 -265 -156l-45 -215h-276l44 207q-159 36 -221 139q-66 112 -33 269h350q-22 -146 90 -146q117 0 143 121q17 82 -61 135q-29 20 -83 44l-97 43q-57 27 -94 53q-48 34 -77 74q-69 99 -35 257q69 324 416 414l44 207h276l-44 -207q275 -67 204 -379
l-2 -10h-317q20 129 -85 129q-111 0 -136 -115q-17 -81 74 -139q31 -20 82 -41l76 -31q126 -53 184 -149q64 -104 34 -244q-31 -147 -146 -260z" />
    <glyph glyph-name="percent" unicode="%" horiz-adv-x="1757" 
d="M1590 79q-131 -110 -283 -110q-154 0 -239 109q-86 108 -53 262t165 262q131 109 285 109q153 0 237 -110q85 -108 53 -261q-32 -152 -165 -261zM677 0h-235l948 1516h238zM896 915q-131 -108 -283 -108t-238 108q-85 108 -52 261q32 152 163 261t284 109t238 -108
q84 -109 52 -262q-33 -153 -164 -261zM1416 483q-143 0 -173 -143q-31 -143 112 -143q141 0 172 143q30 143 -111 143zM722 1319q-142 0 -172 -143q-31 -142 111 -142q141 0 172 144q30 141 -111 141z" />
    <glyph glyph-name="ampersand" unicode="&#x26;" 
d="M1505 610q-74 -116 -157 -200l161 -213l-279 -228l-140 185q-124 -91 -237 -136q-125 -49 -254 -49q-200 0 -323 118q-131 127 -89 323q29 137 135 244q45 46 109 91q51 37 125 80q-113 147 -74 328q36 170 186 282q145 109 317 109q165 0 257 -103q95 -107 60 -270
q-23 -111 -100 -201q-66 -76 -183 -147l141 -180l163 248h359zM928 1270q-92 0 -113 -101q-9 -44 8 -89q12 -33 43 -74q27 22 43 36q22 20 38 38q39 46 49 94q20 96 -68 96zM721 621q-65 -44 -95 -75q-48 -48 -59 -102q-32 -149 142 -149q114 0 202 82z" />
    <glyph glyph-name="quotesingle" unicode="'" horiz-adv-x="643" 
d="M730 1085q-23 -104 -88 -172q-73 -75 -174 -75h-147l39 182l50 -1q33 1 55 6q61 14 73 73l15 69h-162l74 349h356z" />
    <glyph glyph-name="parenleft" unicode="(" horiz-adv-x="968" 
d="M766 -541q-316 130 -458 403q-145 281 -69 640q77 360 342 640q257 273 628 402l-76 -356q-191 -95 -336 -296q-136 -189 -180 -394q-43 -204 13 -392q60 -199 211 -292z" />
    <glyph glyph-name="parenright" unicode=")" horiz-adv-x="968" 
d="M601 -140q-258 -273 -628 -401l75 355q190 94 336 296q136 188 180 394q43 204 -13 391q-60 200 -210 293l75 356q315 -129 457 -403q146 -281 69 -641q-76 -360 -341 -640z" />
    <glyph glyph-name="asterisk" unicode="*" horiz-adv-x="1372" 
d="M1085 1020l122 -225l-221 -144l-118 236l-211 -236l-161 144l224 225l-250 84l121 223l242 -98l55 287h243l-75 -287l284 98l31 -223z" />
    <glyph glyph-name="plus" unicode="+" horiz-adv-x="1228" 
d="M853 354l-75 -354h-328l75 354h-352l70 328h352l75 354h328l-75 -354h352l-70 -328h-352z" />
    <glyph glyph-name="comma" unicode="," horiz-adv-x="643" 
d="M482 -82q-22 -102 -89 -171q-74 -77 -173 -77h-145l39 183l51 -1q32 0 53 6q60 14 72 72l15 70h-160l74 348h354z" />
    <glyph glyph-name="hyphen" unicode="-" horiz-adv-x="575" 
d="M90 424l71 334h575l-71 -334h-575z" />
    <glyph glyph-name="hyphen" unicode="&#x2010;" horiz-adv-x="575" 
d="M90 424l71 334h575l-71 -334h-575z" />
    <glyph glyph-name="period" unicode="." horiz-adv-x="643" 
d="M145 0l74 348h354l-74 -348h-354z" />
    <glyph glyph-name="slash" unicode="/" horiz-adv-x="1214" 
d="M482 -205h-379l909 1721h377z" />
    <glyph glyph-name="zero" unicode="0" horiz-adv-x="1265" 
d="M1313 547q-38 -177 -140 -309q-109 -140 -279 -211q-128 -56 -262 -56q-118 0 -221 47q-310 143 -228 529l90 422q83 393 454 530q126 45 239 45q117 0 222 -49q296 -143 215 -526zM1018 979q21 101 -3 157q-30 68 -127 68q-92 0 -154 -69q-52 -59 -72 -156l-94 -442
q-21 -98 6 -157q31 -69 124 -69q97 0 156 68q48 57 70 158z" />
    <glyph glyph-name="one" unicode="1" horiz-adv-x="1265" 
d="M460 0l253 1190h-248l69 326h635l-322 -1516h-387z" />
    <glyph glyph-name="two" unicode="2" horiz-adv-x="1265" 
d="M104 0l64 301q85 49 143 83q75 45 137 86q147 97 261 200q47 41 88 82q49 50 88 97q96 117 116 208q31 147 -112 147q-94 0 -153 -77q-45 -57 -72 -162h-369q26 110 59 181q39 90 105 167q98 114 240 175q132 56 276 56q156 0 266 -64q120 -70 155 -202q20 -88 2 -174
q-25 -117 -97 -232q-62 -102 -163 -206q-84 -86 -201 -181q-47 -38 -105 -82q-41 -32 -104 -77h514l-69 -326h-1069z" />
    <glyph glyph-name="three" unicode="3" horiz-adv-x="1265" 
d="M1026 99q-193 -128 -408 -128q-139 0 -252 52q-129 57 -176 161q-26 59 -31 129q-4 57 5 140h391q1 -142 145 -142q164 0 201 170q24 116 -95 145q-41 10 -108 10l-105 -1l61 285h43q25 0 44 1q51 4 87 16q92 32 114 134q28 133 -78 133q-116 0 -147 -131h-381
q50 219 229 349q169 122 390 122q191 0 304 -109q122 -118 83 -305q-45 -209 -268 -317q264 -97 206 -367q-44 -208 -254 -347z" />
    <glyph glyph-name="four" unicode="4" horiz-adv-x="1265" 
d="M1125 266l-57 -266h-370l57 266h-668l60 283l884 967h360l-202 -947h168l-64 -303h-168zM944 1044h-4l-400 -475h303z" />
    <glyph glyph-name="five" unicode="5" horiz-adv-x="1265" 
d="M1233 307q-218 -338 -608 -338q-216 0 -349 112q-141 119 -136 325h389q48 -95 158 -95q84 0 156 59q74 59 91 142q43 199 -164 199q-142 0 -226 -131l-298 77l314 859h838l-70 -326h-541l-76 -207q92 45 214 45q338 0 400 -305q20 -98 -2 -203q-23 -110 -90 -213z" />
    <glyph glyph-name="six" unicode="6" horiz-adv-x="1265" 
d="M1088 135q-203 -164 -453 -164q-260 0 -394 162q-135 164 -80 424q23 105 85 213q55 96 141 193l494 553h449l-431 -457l3 -4q16 5 38 7l38 1q210 0 313 -153q100 -148 55 -361q-53 -249 -258 -414zM921 665q-48 58 -138 58q-87 0 -159 -57q-71 -58 -89 -144
q-19 -88 26 -149q46 -62 134 -62t162 58q76 59 95 147q19 90 -31 149z" />
    <glyph glyph-name="seven" unicode="7" horiz-adv-x="1265" 
d="M588 0h-426l812 1190h-588l69 326h987l-63 -297z" />
    <glyph glyph-name="eight" unicode="8" horiz-adv-x="1265" 
d="M1033 100q-189 -129 -405 -129q-217 0 -353 129q-145 139 -100 351q60 281 319 383q-124 112 -87 284q40 190 205 311q156 115 348 115q190 0 299 -114q115 -120 75 -308q-37 -172 -210 -288q217 -101 157 -383q-45 -212 -248 -351zM896 1231q-141 0 -171 -139
q-29 -140 108 -140q141 0 171 144q29 135 -108 135zM772 657q-166 0 -203 -172q-37 -174 135 -174q67 0 127 53q55 51 70 119q37 174 -129 174z" />
    <glyph glyph-name="nine" unicode="9" horiz-adv-x="1265" 
d="M1352 754q-55 -95 -147 -199l-495 -555h-449l432 459l-4 4q-16 -6 -38 -7q-8 -1 -19 -1h-18q-102 0 -191 49q-247 136 -177 465q53 250 257 413q202 162 453 162q302 0 435 -198q96 -144 48 -371q-24 -113 -87 -221zM1028 1144q-47 60 -136 60q-87 0 -159 -57
q-75 -59 -93 -146q-19 -88 28 -147q48 -59 137 -59q88 0 159 55q74 58 92 145q19 89 -28 149z" />
    <glyph glyph-name="colon" unicode=":" horiz-adv-x="643" 
d="M312 788l75 349h354l-75 -349h-354zM145 0l74 348h354l-74 -348h-354z" />
    <glyph glyph-name="semicolon" unicode=";" horiz-adv-x="643" 
d="M313 788l74 349h354l-74 -349h-354zM482 -82q-22 -102 -89 -171q-74 -77 -173 -77h-145l39 183l51 -1q32 0 53 6q60 14 72 72l15 70h-160l74 348h354z" />
    <glyph glyph-name="less" unicode="&#x3c;" horiz-adv-x="1228" 
d="M171 360l67 316l1133 438l-76 -358l-746 -236l-1 -4l646 -235l-76 -359z" />
    <glyph glyph-name="equal" unicode="=" horiz-adv-x="1228" 
d="M231 625l69 327h1032l-69 -327h-1032zM116 84l70 328h1032l-70 -328h-1032z" />
    <glyph glyph-name="greater" unicode="&#x3e;" horiz-adv-x="1228" 
d="M77 -78l76 359l746 235l1 4l-646 236l76 358l947 -438l-67 -316z" />
    <glyph glyph-name="question" unicode="?" horiz-adv-x="1212" 
d="M1262 901q-33 -40 -78 -81q-34 -31 -85 -70l-83 -65q-47 -37 -76 -64q-78 -72 -99 -140h-356q22 95 95 184q31 36 73 75q31 28 79 67l78 64q42 35 68 62q70 70 84 134q27 127 -92 127q-84 0 -130 -61q-31 -42 -53 -136h-375q1 9 2 19l4 18q48 226 236 370
q182 140 411 140q312 0 390 -246q30 -91 9 -188q-24 -112 -102 -209zM383 0l74 348h356l-74 -348h-356z" />
    <glyph glyph-name="at" unicode="@" horiz-adv-x="1531" 
d="M1624 655q-73 -132 -183 -223q-126 -106 -252 -106q-149 0 -169 147q-120 -147 -275 -147q-141 0 -207 113q-62 104 -31 249q37 174 177 312q150 147 319 147q158 0 178 -121h4l36 96h213l-191 -498q-11 -31 -16 -53q-11 -53 44 -53q53 0 117 80q23 30 46 68q19 31 30 57
q34 74 50 151q47 219 -78 356q-121 132 -342 132q-254 0 -468 -183q-211 -180 -266 -436q-24 -115 -6 -225q27 -184 156 -277q122 -87 325 -87q229 0 448 75l3 -188q-115 -38 -246 -57q-118 -17 -244 -17q-263 0 -431 120q-177 124 -219 362q-26 146 7 299q71 337 352 569
q283 231 621 231q302 0 470 -183q175 -191 112 -488q-24 -114 -84 -222zM989 954q-91 0 -170 -86q-71 -77 -92 -172q-37 -178 116 -178q94 0 165 93q60 76 81 177q35 166 -100 166z" />
    <glyph glyph-name="A" unicode="A" 
d="M1114 0l-27 219h-526l-127 -219h-416l930 1516h305l281 -1516h-420zM1004 1044h-6l-266 -518h318z" />
    <glyph glyph-name="B" unicode="B" horiz-adv-x="1325" 
d="M1142 131q-124 -90 -258 -115q-55 -11 -127 -14q-29 -1 -67 -2h-553l322 1516h467q88 0 134 -3q72 -4 124 -17q129 -31 196 -128q69 -99 37 -250q-44 -206 -241 -305q232 -86 175 -352q-45 -212 -209 -330zM1008 1154q-31 22 -101 22h-149l-50 -236h147q154 0 180 121
q14 66 -27 93zM952 592q-39 24 -119 24h-194l-59 -276h192q82 0 134 30q63 37 79 115q16 75 -33 107z" />
    <glyph glyph-name="C" unicode="C" horiz-adv-x="1703" 
d="M1761 567q-123 -267 -371 -432q-246 -164 -522 -164q-332 0 -517 228q-185 229 -114 561q70 331 350 559q279 225 611 225q432 0 592 -356q55 -123 50 -248h-406q-45 264 -310 264q-179 0 -323 -133q-139 -128 -177 -309q-39 -183 44 -313q88 -138 268 -138
q248 0 419 256h406z" />
    <glyph glyph-name="D" unicode="D" horiz-adv-x="1519" 
d="M646 0h-530l322 1516h502q112 0 194 -11q95 -13 168 -42q163 -64 247 -230q99 -194 40 -471q-162 -762 -943 -762zM1176 1056q-70 120 -255 120h-168l-178 -836h166q190 0 309 116q109 106 151 300q40 191 -25 300z" />
    <glyph glyph-name="E" unicode="E" horiz-adv-x="1081" 
d="M137 0l322 1516h842l-72 -340h-471l-50 -236h456l-72 -340h-456l-56 -260h471l-72 -340h-842z" />
    <glyph glyph-name="F" unicode="F" horiz-adv-x="1036" 
d="M758 1176l-55 -258h440l-72 -340h-440l-123 -578h-371l322 1516h827l-72 -340h-456z" />
    <glyph glyph-name="G" unicode="G" horiz-adv-x="1748" 
d="M1851 782q-74 -349 -353 -581q-281 -232 -629 -232q-336 0 -521 229q-186 231 -115 566q72 336 358 561q281 219 619 219q252 0 436 -147q190 -152 208 -389h-434q-68 196 -292 196q-182 0 -328 -130q-141 -126 -180 -310q-41 -192 43 -320q88 -135 276 -135
q131 0 239 59q116 64 175 185h-452l66 309h899q-3 -18 -6 -40z" />
    <glyph glyph-name="H" unicode="H" horiz-adv-x="1544" 
d="M1020 0l129 606h-496l-129 -606h-387l322 1516h387l-121 -570h496l121 570h387l-322 -1516h-387z" />
    <glyph glyph-name="I" unicode="I" horiz-adv-x="661" 
d="M137 0l322 1516h387l-322 -1516h-387z" />
    <glyph glyph-name="J" unicode="J" horiz-adv-x="1183" 
d="M1172 600q-16 -74 -25 -112q-16 -63 -35 -113q-47 -126 -126 -205q-202 -199 -470 -199q-110 0 -197 37q-143 56 -194 186q-46 120 -9 293h412q-12 -76 -2 -116q15 -60 80 -60q74 0 114 65q26 41 44 128l215 1012h387z" />
    <glyph glyph-name="K" unicode="K" horiz-adv-x="1447" 
d="M983 0l-275 655h-4l-139 -655h-387l322 1516h387l-145 -682h4l573 682h406l-662 -756l372 -760h-452z" />
    <glyph glyph-name="L" unicode="L" horiz-adv-x="997" 
d="M147 0l322 1516h387l-250 -1176h449l-72 -340h-836z" />
    <glyph glyph-name="M" unicode="M" horiz-adv-x="1873" 
d="M1380 0l253 1135l-3 4l-565 -1139h-256l-82 1139l-5 -4l-229 -1135h-356l322 1516h498l89 -998h4l509 998h499l-322 -1516h-356z" />
    <glyph glyph-name="N" unicode="N" horiz-adv-x="1554" 
d="M1079 0l-381 922l-5 -2l-185 -920h-371l322 1516h334l384 -953l5 4l184 949h371l-322 -1516h-336z" />
    <glyph glyph-name="O" unicode="O" horiz-adv-x="1742" 
d="M1477 196q-281 -225 -616 -225q-326 0 -512 221q-190 224 -121 547q36 172 128 324q48 81 135 170q302 311 707 311q334 0 518 -226q185 -227 115 -560q-71 -334 -354 -562zM1398 1068q-91 136 -271 136q-182 0 -328 -132q-141 -127 -179 -310q-40 -187 47 -316
q91 -135 275 -135q177 0 324 136q139 129 177 309q39 183 -45 312z" />
    <glyph glyph-name="P" unicode="P" horiz-adv-x="1302" 
d="M1405 788q-68 -114 -158 -182q-108 -79 -230 -108q-94 -23 -240 -23h-168l-101 -475h-371l322 1516h496q72 0 121 -3q67 -4 121 -14q133 -24 202 -94q146 -151 92 -401q-23 -111 -86 -216zM1071 1146q-52 30 -170 30h-143l-77 -361h157q112 0 176 34q83 43 105 148
q23 107 -48 149z" />
    <glyph glyph-name="Q" unicode="Q" horiz-adv-x="1773" 
d="M1745 -27q-66 -4 -97 -4q-102 0 -185 26q-100 31 -146 93q-216 -119 -451 -119q-329 0 -515 225q-190 228 -120 556q70 333 352 564q279 230 613 230q329 0 520 -221q194 -226 125 -553q-54 -252 -218 -438q61 -70 187 -51zM1402 1082q-93 122 -276 122q-166 0 -300 -111
q-126 -103 -191 -272q69 27 113 37q56 14 113 14q159 0 295 -96q116 -83 200 -223q71 89 99 223q39 184 -53 306zM1053 442q-36 47 -75 77q-90 71 -218 71q-64 0 -141 -25q54 -256 315 -256q104 0 184 39q-36 57 -65 94z" />
    <glyph glyph-name="R" unicode="R" horiz-adv-x="1337" 
d="M862 0l-246 489h-4l-104 -489h-371l322 1516h479q76 0 122 -3q67 -3 119 -13q131 -23 203 -93q155 -150 99 -414q-38 -181 -165 -311q-132 -138 -313 -166l301 -516h-442zM1064 1129q-55 47 -165 47h-141l-90 -422h137q254 0 300 217q23 105 -41 158z" />
    <glyph glyph-name="S" unicode="S" horiz-adv-x="1173" 
d="M993 85q-165 -114 -401 -114q-241 0 -362 120q-132 128 -82 362l10 49h385q-18 -84 7 -141q28 -66 107 -66q147 0 178 145q14 66 -28 107q-17 16 -45 32l-27 14l-149 71q-75 34 -127 69q-61 41 -99 89q-87 113 -52 276q43 201 238 329q179 117 387 117q117 0 215 -42
q106 -46 158 -130q69 -116 37 -299h-383q9 148 -108 148q-133 0 -158 -119q-9 -42 0 -64q15 -39 119 -96l144 -72q76 -38 125 -73q59 -42 93 -89q79 -108 44 -272q-48 -228 -226 -351z" />
    <glyph glyph-name="T" unicode="T" horiz-adv-x="1021" 
d="M956 1176l-250 -1176h-387l250 1176h-299l72 340h983l-72 -340h-297z" />
    <glyph glyph-name="U" unicode="U" horiz-adv-x="1429" 
d="M1423 600q-33 -155 -79 -251q-61 -123 -171 -214q-195 -164 -458 -164q-128 0 -229 37q-113 42 -173 125q-74 101 -82 216q-3 52 5 117q7 52 24 134l195 916h387l-195 -916q-12 -60 -16 -103q-3 -55 8 -93q26 -93 144 -93q122 0 183 91q25 37 44 92q12 40 26 106l195 916
h387z" />
    <glyph glyph-name="V" unicode="V" horiz-adv-x="1478" 
d="M937 0h-399l-184 1516h397l79 -1063h5l533 1063h399z" />
    <glyph glyph-name="W" unicode="W" horiz-adv-x="2009" 
d="M1572 0h-340l-19 981h-4l-436 -981h-350l-69 1516h393l-7 -986h4l433 986h297l9 -990h4l417 990h392z" />
    <glyph glyph-name="X" unicode="X" horiz-adv-x="1554" 
d="M1093 0l-214 537l-425 -537h-432l702 807l-319 709h439l168 -433l344 433h436l-615 -717l354 -799h-438z" />
    <glyph glyph-name="Y" unicode="Y" horiz-adv-x="1325" 
d="M975 551l-117 -551h-387l117 551l-248 965h420l96 -609l356 609h416z" />
    <glyph glyph-name="Z" unicode="Z" horiz-adv-x="1021" 
d="M32 0l54 254l718 922h-522l72 340h956l-67 -314l-666 -862h483l-72 -340h-956z" />
    <glyph glyph-name="bracketleft" unicode="[" horiz-adv-x="968" 
d="M705 -541q-221 13 -355 123q-109 91 -133 231q-20 117 17 291l169 795q37 175 107 291q83 138 231 231q98 61 201 91q91 26 206 32l-76 -356q-128 -6 -196 -81q-57 -63 -85 -194l-175 -823q-28 -131 3 -194q36 -75 162 -80z" />
    <glyph glyph-name="backslash" unicode="\" horiz-adv-x="1214" 
d="M644 -205l-175 1721h377l177 -1721h-379z" />
    <glyph glyph-name="bracketright" unicode="]" horiz-adv-x="968" 
d="M777 104q-37 -174 -107 -291q-83 -137 -231 -231q-98 -61 -201 -90q-91 -26 -206 -33l76 357q128 5 196 80q57 63 85 194l175 823q28 131 -3 194q-36 75 -161 81l75 356q221 -13 355 -123q109 -90 133 -230q20 -117 -17 -292z" />
    <glyph glyph-name="asciicircum" unicode="^" horiz-adv-x="1228" 
d="M935 768l-59 457h-4l-254 -457h-367l515 748h340l198 -748h-369z" />
    <glyph glyph-name="underscore" unicode="_" horiz-adv-x="1024" 
d="M-54 -256l22 102h1024l-22 -102h-1024z" />
    <glyph glyph-name="grave" unicode="`" horiz-adv-x="643" 
d="M321 838l91 430q22 102 89 171q74 77 173 77h147l-39 -183l-51 1q-31 -1 -53 -6q-59 -14 -71 -73l-15 -69h159l-74 -348h-356z" />
    <glyph glyph-name="a" unicode="a" horiz-adv-x="1441" 
d="M976 0l26 123h-4q-60 -82 -169 -125q-94 -37 -197 -37q-257 0 -380 177q-117 172 -62 431q54 255 248 428q201 179 452 179q102 0 180 -38q87 -42 118 -122h4l26 121h340l-242 -1137h-340zM1060 776q-64 82 -188 82q-123 0 -221 -86q-95 -83 -122 -207q-25 -119 38 -202
q65 -84 184 -84q123 0 222 83q98 83 124 207q27 125 -37 207z" />
    <glyph glyph-name="b" unicode="b" horiz-adv-x="1419" 
d="M1227 140q-198 -179 -458 -179q-97 0 -176 38q-91 44 -115 122h-4l-26 -121h-326l322 1516h340l-99 -469q148 129 357 129q119 0 227 -56q144 -74 195 -222q48 -139 9 -323q-56 -263 -246 -435zM1095 772q-63 86 -181 86q-120 0 -219 -83q-98 -83 -124 -204
q-26 -123 32 -207q60 -85 182 -85t222 84q99 84 125 206q25 119 -37 203z" />
    <glyph glyph-name="c" unicode="c" horiz-adv-x="1335" 
d="M1363 432q-94 -208 -287 -339q-193 -130 -409 -130q-255 0 -393 177q-140 176 -86 431q54 253 264 428q212 177 465 177q221 0 360 -131q142 -132 140 -347h-344q-40 160 -220 160q-119 0 -210 -87q-88 -82 -113 -202q-26 -123 29 -204q59 -84 180 -84q167 0 278 151h346
z" />
    <glyph glyph-name="d" unicode="d" horiz-adv-x="1429" 
d="M982 0l27 123h-4q-68 -85 -174 -125q-89 -35 -200 -35q-255 0 -378 178q-117 172 -62 430q54 254 243 426q198 179 448 179q202 0 306 -136l101 476h340l-323 -1516h-324zM1069 777q-65 81 -188 81q-124 0 -223 -80q-100 -81 -127 -205q-27 -126 35 -208q62 -84 188 -84
q127 0 227 83q98 83 125 209q26 123 -37 204z" />
    <glyph glyph-name="e" unicode="e" horiz-adv-x="1323" 
d="M1348 465h-852q-14 -215 220 -215q122 0 230 106h348q-114 -177 -278 -282q-175 -111 -361 -111q-249 0 -387 177q-140 176 -87 425q53 250 264 429q214 182 462 182q258 0 392 -182q131 -179 76 -439q-11 -49 -27 -90zM1064 694q0 195 -216 195t-300 -195h516z" />
    <glyph glyph-name="f" unicode="f" horiz-adv-x="643" 
d="M662 879l-187 -879h-340l187 879h-127l55 258h127l12 59q41 193 187 278q121 70 321 70h49l-54 -256q-91 0 -123 -28q-32 -27 -52 -123h143l-55 -258h-143z" />
    <glyph glyph-name="g" unicode="g" horiz-adv-x="1419" 
d="M1319 89q-6 -26 -11 -48q-14 -54 -29 -97q-37 -106 -97 -182q-108 -133 -296 -205q-164 -63 -336 -63q-156 0 -269 50q-127 57 -182 173q-40 84 -32 177h394q26 -113 174 -113q277 0 342 309l8 35h-4q-60 -79 -159 -122q-91 -40 -188 -40q-251 0 -376 175
q-123 170 -69 423q54 257 248 432q202 181 455 181q97 0 169 -33q84 -38 114 -111h4l23 107h340zM1049 771q-60 85 -184 85q-116 0 -214 -84q-95 -82 -120 -199q-26 -121 32 -205q58 -87 178 -87q123 0 218 79q95 80 121 203q27 126 -31 208z" />
    <glyph glyph-name="h" unicode="h" horiz-adv-x="1294" 
d="M835 0l131 618q23 107 -1 165q-29 73 -131 73q-103 0 -164 -64q-51 -55 -74 -161l-134 -631h-340l322 1516h340l-103 -484h4q58 75 150 112q79 32 174 32q202 0 282 -125q56 -84 53 -197q-1 -45 -12 -106q-4 -24 -10 -56l-147 -692h-340z" />
    <glyph glyph-name="i" unicode="i" horiz-adv-x="585" 
d="M389 1257l55 259h340l-55 -259h-340zM122 0l242 1137h340l-242 -1137h-340z" />
    <glyph glyph-name="j" unicode="j" horiz-adv-x="657" 
d="M445 1257l55 259h340l-55 -259h-340zM523 25q-51 -243 -159 -339q-115 -104 -357 -104h-84l55 258h45q77 0 114 52q25 35 43 120l240 1125h340z" />
    <glyph glyph-name="k" unicode="k" horiz-adv-x="1210" 
d="M905 637l281 -637h-385l-206 547h-4l-116 -547h-340l322 1516h340l-168 -791h4l403 412h404z" />
    <glyph glyph-name="l" unicode="l" horiz-adv-x="585" 
d="M122 0l322 1516h340l-322 -1516h-340z" />
    <glyph glyph-name="m" unicode="m" horiz-adv-x="1984" 
d="M1527 0l128 604q25 117 9 173q-23 79 -129 79q-105 0 -166 -69q-50 -57 -73 -166l-132 -621h-340l131 618q23 106 4 163q-25 75 -123 75q-108 0 -171 -76q-50 -60 -75 -176l-128 -604h-340l242 1137h317l-26 -121h5q64 83 158 123q85 37 189 37q218 0 285 -203
q171 203 403 203q187 0 275 -115q67 -88 66 -204q-1 -48 -12 -113q-4 -25 -12 -60l-145 -684h-340z" />
    <glyph glyph-name="n" unicode="n" horiz-adv-x="1294" 
d="M835 0l132 621q24 111 3 165q-26 70 -131 70q-111 0 -172 -68q-49 -56 -74 -170l-131 -618h-340l242 1137h317l-26 -121h5q132 160 343 160q173 0 270 -99q61 -62 70 -167q8 -82 -17 -199l-151 -711h-340z" />
    <glyph glyph-name="o" unicode="o" horiz-adv-x="1363" 
d="M1147 137q-211 -172 -473 -172t-400 172q-139 172 -84 432q56 261 268 433q211 172 473 172t400 -172q140 -172 84 -433q-55 -260 -268 -432zM1041 770q-61 86 -178 86q-116 0 -213 -86q-95 -83 -120 -201q-25 -117 35 -201q60 -85 176 -85q117 0 215 85q94 84 119 201
q25 118 -34 201z" />
    <glyph glyph-name="p" unicode="p" horiz-adv-x="1427" 
d="M1234 140q-197 -179 -439 -179q-212 0 -312 141l-102 -481h-340l322 1516h319l-26 -125h7q165 164 389 164q255 0 370 -186q108 -174 53 -433q-52 -245 -241 -417zM1100 773q-64 85 -186 85t-221 -85q-99 -83 -125 -206q-25 -120 38 -204q65 -84 185 -84q121 0 221 84
t125 204q26 123 -37 206z" />
    <glyph glyph-name="q" unicode="q" horiz-adv-x="1429" 
d="M885 -379l105 496h-4q-75 -82 -177 -120q-90 -34 -199 -34q-241 0 -360 173q-117 167 -65 411q56 265 245 442q200 187 460 187q105 0 182 -39q88 -43 119 -125h4l26 125h326l-322 -1516h-340zM1061 774q-64 84 -187 84q-125 0 -224 -87q-95 -84 -122 -210
q-25 -118 42 -199q66 -81 185 -81q118 0 218 84t125 202q26 124 -37 207z" />
    <glyph glyph-name="r" unicode="r" horiz-adv-x="743" 
d="M905 834q-132 -4 -198 -40q-88 -48 -114 -169l-133 -625h-340l242 1137h319l-26 -121h5q115 160 318 160z" />
    <glyph glyph-name="s" unicode="s" horiz-adv-x="1021" 
d="M842 59q-152 -98 -339 -98q-186 0 -290 95q-112 101 -93 282h338q-7 -105 107 -105q44 0 84 22q45 25 54 67q11 53 -35 87l-45 24l-182 71q-110 43 -163 107q-68 80 -45 190q36 169 197 276q148 99 324 99q179 0 276 -89q104 -95 83 -270h-334q16 86 -87 86
q-97 0 -114 -76q-12 -57 71 -93q27 -13 84 -31q5 -1 12 -3l86 -29q57 -20 96 -42q49 -27 78 -62q73 -83 44 -219q-39 -181 -207 -289z" />
    <glyph glyph-name="t" unicode="t" horiz-adv-x="718" 
d="M717 879l-187 -879h-340l187 879h-168l55 258h168l80 379h340l-80 -379h164l-55 -258h-164z" />
    <glyph glyph-name="u" unicode="u" horiz-adv-x="1298" 
d="M853 0l26 121h-4q-60 -87 -148 -125q-76 -33 -180 -33q-217 0 -304 143q-47 80 -50 166q-3 65 23 185l144 680h340l-134 -629q-23 -110 0 -162q28 -65 134 -65q195 0 244 231l133 625h340l-242 -1137h-322z" />
    <glyph glyph-name="v" unicode="v" horiz-adv-x="1212" 
d="M767 0h-325l-166 1137h352l66 -709h4l369 709h352z" />
    <glyph glyph-name="w" unicode="w" horiz-adv-x="1740" 
d="M1378 0h-315l-34 735h-4l-347 -735h-316l-106 1137h352l20 -707h4l337 707h286l39 -707h4l320 707h350z" />
    <glyph glyph-name="x" unicode="x" horiz-adv-x="1290" 
d="M870 0l-152 352l-306 -352h-410l561 608l-270 529h408l120 -299l246 299h404l-496 -529l311 -608h-416z" />
    <glyph glyph-name="y" unicode="y" horiz-adv-x="1175" 
d="M523 -379h-360l273 436l-193 1080h362l88 -660h4l357 660h360z" />
    <glyph glyph-name="z" unicode="z" horiz-adv-x="909" 
d="M30 0l50 233l616 646h-479l55 258h846l-55 -258l-577 -621h445l-55 -258h-846z" />
    <glyph glyph-name="braceleft" unicode="{" horiz-adv-x="1134" 
d="M612 -541q-136 0 -206 73q-75 76 -47 210l92 434q15 68 -48 100q-47 25 -124 25l75 352q78 0 138 30q75 36 90 108l94 442q28 133 136 210q101 73 237 73h262l-55 -259l-87 2q-47 0 -76 -9q-74 -22 -96 -126l-91 -428q-42 -198 -267 -215l-1 -8q89 -5 141 -50
q58 -51 40 -138l-93 -435q-22 -103 43 -125q25 -9 72 -9l88 1l-55 -258h-262z" />
    <glyph glyph-name="bar" unicode="|" horiz-adv-x="1136" 
d="M336 -205l366 1721h375l-366 -1721h-375z" />
    <glyph glyph-name="braceright" unicode="}" horiz-adv-x="1134" 
d="M983 301q-76 0 -134 -25q-77 -32 -92 -100l-92 -434q-28 -134 -135 -210q-102 -73 -238 -73h-262l55 258l88 -1q47 0 76 9q73 22 95 125l93 435q18 87 99 138q69 45 163 50l1 8q-218 17 -176 215l91 428q22 104 -42 126q-25 9 -72 9l-89 -2l55 259h262q136 0 207 -73
q74 -77 46 -210l-94 -442q-15 -72 45 -108q47 -30 125 -30z" />
    <glyph glyph-name="asciitilde" unicode="~" horiz-adv-x="1228" 
d="M1187 449q-11 -12 -16 -17l-49 -50q-38 -35 -69 -57q-81 -57 -165 -57q-54 0 -107 22q-21 9 -46 22l-45 26q-57 34 -95 48q-58 22 -121 22q-60 0 -116 -45q-42 -33 -90 -97l-6 320q66 86 132 130q78 52 167 52q51 0 112 -22q41 -14 107 -48l51 -25q29 -14 49 -23
q52 -21 87 -21q55 0 117 48q24 19 52 47l47 48z" />
    <glyph glyph-name="dieresis" unicode="&#xa8;" horiz-adv-x="1024" 
 />
    <glyph glyph-name="copyright" unicode="&#xa9;" horiz-adv-x="1638" 
d="M1417 202q-279 -231 -603 -231t-505 231t-112 556q69 326 349 557q280 229 606 229q322 0 502 -233q179 -231 110 -553q-69 -325 -347 -556zM1512 1200q-139 186 -395 186q-259 0 -478 -185q-217 -183 -272 -443q-55 -257 84 -442q140 -187 396 -187q258 0 476 186
q216 184 271 443q55 257 -82 442zM1042 330q-6 22 2 100l8 60q2 18 4 27q1 13 2 22q11 127 -128 127h-86l-72 -336h-217l185 872h368q134 0 208 -54q87 -65 60 -192q-31 -146 -187 -211q58 -26 77 -76q15 -40 9 -105q-3 -23 -9 -59l-5 -30q-3 -17 -4 -30q-11 -71 -4 -115
h-211zM1042 1053h-116l-53 -246h112q142 0 171 133q24 113 -114 113z" />
    <glyph glyph-name="registered" unicode="&#xae;" horiz-adv-x="1638" 
d="M1417 202q-279 -231 -603 -231t-505 231t-112 556q69 326 349 557q280 229 606 229q322 0 502 -233q179 -231 110 -553q-69 -325 -347 -556zM1512 1200q-139 186 -395 186q-259 0 -478 -185q-217 -183 -272 -443q-55 -257 84 -442q140 -187 396 -187q258 0 476 186
q216 184 271 443q55 257 -82 442zM1042 330q-6 22 2 100l8 60q2 18 4 27q1 13 2 22q11 127 -128 127h-86l-72 -336h-217l185 872h368q134 0 208 -54q87 -65 60 -192q-31 -146 -187 -211q58 -26 77 -76q15 -40 9 -105q-3 -23 -9 -59l-5 -30q-3 -17 -4 -30q-11 -71 -4 -115
h-211zM1042 1053h-116l-53 -246h112q142 0 171 133q24 113 -114 113z" />
    <glyph glyph-name="acute" unicode="&#xb4;" horiz-adv-x="1024" 
 />
    <glyph glyph-name="paragraph" unicode="&#xb6;" horiz-adv-x="1024" 
d="M1234 1435l-15 -70h-127l-290 -1365h-82l290 1365h-166l-290 -1365h-84l157 738q-172 8 -253.5 102.5t-49.5 245.5q33 157 161 253t306 96h443z" />
    <glyph glyph-name="onequarter" unicode="&#xbc;" horiz-adv-x="1298" 
 />
    <glyph glyph-name="onehalf" unicode="&#xbd;" horiz-adv-x="1320" 
 />
    <glyph glyph-name="threequarters" unicode="&#xbe;" horiz-adv-x="1288" 
 />
    <glyph glyph-name="Agrave" unicode="&#xc0;" 
d="M1114 0l-27 219h-526l-127 -219h-416l930 1516h305l281 -1516h-420zM1004 1044h-6l-266 -518h318zM1280 1589l-459 221l155 240l440 -262z" />
    <glyph glyph-name="Aacute" unicode="&#xc1;" 
d="M1114 0l-27 219h-526l-127 -219h-416l930 1516h305l281 -1516h-420zM1004 1044h-6l-266 -518h318zM952 1589l-54 201l548 264l57 -242z" />
    <glyph glyph-name="Acircumflex" unicode="&#xc2;" 
d="M1114 0l-27 219h-526l-127 -219h-416l930 1516h305l281 -1516h-420zM1004 1044h-6l-266 -518h318zM1223 1649l-69 118l-119 -118h-332l391 340h221l236 -340h-328z" />
    <glyph glyph-name="Atilde" unicode="&#xc3;" 
d="M1114 0l-27 219h-526l-127 -219h-416l930 1516h305l281 -1516h-420zM1004 1044h-6l-266 -518h318zM1562 1739q-138 -76 -249 -76q-34 0 -78 8l-161 37q-44 8 -77 8q-36 0 -78 -12l-78 -27l-84 181q64 32 119 50q66 21 121 21q38 0 82 -8q18 -3 40 -8l78 -19q22 -5 40 -8
q44 -8 81 -8q67 0 158 35z" />
    <glyph glyph-name="Egrave" unicode="&#xc8;" horiz-adv-x="1081" 
d="M137 0l322 1516h842l-72 -340h-471l-50 -236h456l-72 -340h-456l-56 -260h471l-72 -340h-842zM1044 1589l-459 221l156 240l440 -262z" />
    <glyph glyph-name="Eacute" unicode="&#xc9;" horiz-adv-x="1081" 
d="M137 0l322 1516h842l-72 -340h-471l-50 -236h456l-72 -340h-456l-56 -260h471l-72 -340h-842zM717 1589l-55 201l549 264l56 -242z" />
    <glyph glyph-name="Ecircumflex" unicode="&#xca;" horiz-adv-x="1081" 
d="M136 0l322 1516h842l-72 -340h-471l-50 -236h457l-72 -340h-457l-56 -260h471l-72 -340h-842zM997 1649l-69 118l-119 -118h-332l391 340h222l235 -340h-328z" />
    <glyph glyph-name="Igrave" unicode="&#xcc;" horiz-adv-x="661" 
d="M138 0l322 1516h387l-322 -1516h-387zM783 1589l-459 221l155 240l440 -262z" />
    <glyph glyph-name="Iacute" unicode="&#xcd;" horiz-adv-x="661" 
d="M136 0l322 1516h387l-322 -1516h-387zM556 1589l-54 201l549 264l56 -242z" />
    <glyph glyph-name="Ograve" unicode="&#xd2;" horiz-adv-x="1742" 
d="M1477 196q-281 -225 -616 -225q-326 0 -512 221q-190 224 -121 547q36 172 128 324q48 81 135 170q302 311 707 311q334 0 518 -226q185 -227 115 -560q-71 -334 -354 -562zM1398 1068q-91 136 -271 136q-182 0 -328 -132q-141 -127 -179 -310q-40 -187 47 -316
q91 -135 275 -135q177 0 324 136q139 129 177 309q39 183 -45 312zM1373 1589l-459 221l155 240l441 -262z" />
    <glyph glyph-name="Oacute" unicode="&#xd3;" horiz-adv-x="1742" 
d="M1477 196q-281 -225 -616 -225q-326 0 -512 221q-190 224 -121 547q36 172 128 324q48 81 135 170q302 311 707 311q334 0 518 -226q185 -227 115 -560q-71 -334 -354 -562zM1398 1068q-91 136 -271 136q-182 0 -328 -132q-141 -127 -179 -310q-40 -187 47 -316
q91 -135 275 -135q177 0 324 136q139 129 177 309q39 183 -45 312zM1045 1589l-53 201l547 264l58 -242z" />
    <glyph glyph-name="Ocircumflex" unicode="&#xd4;" horiz-adv-x="1742" 
d="M1477 196q-281 -225 -616 -225q-326 0 -512 221q-190 224 -121 547q36 172 128 324q48 81 135 170q302 311 707 311q334 0 518 -226q185 -227 115 -560q-71 -334 -354 -562zM1398 1068q-91 136 -271 136q-182 0 -328 -132q-141 -127 -179 -310q-40 -187 47 -316
q91 -135 275 -135q177 0 324 136q139 129 177 309q39 183 -45 312zM1316 1649l-69 118l-119 -118h-332l391 340h221l236 -340h-328z" />
    <glyph glyph-name="Otilde" unicode="&#xd5;" horiz-adv-x="1742" 
d="M1477 196q-281 -225 -616 -225q-326 0 -512 221q-190 224 -121 547q36 172 128 324q48 81 135 170q302 311 707 311q334 0 518 -226q185 -227 115 -560q-71 -334 -354 -562zM1398 1068q-91 136 -271 136q-182 0 -328 -132q-141 -127 -179 -310q-40 -187 47 -316
q91 -135 275 -135q177 0 324 136q139 129 177 309q39 183 -45 312zM1654 1739q-136 -76 -247 -76q-34 0 -79 8l-160 37q-45 8 -78 8q-36 0 -77 -12l-78 -27l-84 181q63 32 118 50q67 21 122 21q38 0 82 -8q17 -3 39 -8l78 -19q22 -5 40 -8q45 -8 82 -8q67 0 157 35z" />
    <glyph glyph-name="Ugrave" unicode="&#xd9;" horiz-adv-x="1429" 
d="M1423 600q-33 -155 -79 -251q-61 -123 -171 -214q-195 -164 -458 -164q-128 0 -229 37q-113 42 -173 125q-74 101 -82 216q-3 52 5 117q7 52 24 134l195 916h387l-195 -916q-12 -60 -16 -103q-3 -55 8 -93q26 -93 144 -93q122 0 183 91q25 37 44 92q12 40 26 106l195 916
h387zM1147 1589l-460 221l156 240l440 -262z" />
    <glyph glyph-name="Uacute" unicode="&#xda;" horiz-adv-x="1429" 
d="M1423 600q-33 -155 -79 -251q-61 -123 -171 -214q-195 -164 -458 -164q-128 0 -229 37q-113 42 -173 125q-74 101 -82 216q-3 52 5 117q7 52 24 134l195 916h387l-195 -916q-12 -60 -16 -103q-3 -55 8 -93q26 -93 144 -93q122 0 183 91q25 37 44 92q12 40 26 106l195 916
h387zM963 1589l-55 201l548 264l57 -242z" />
    <glyph glyph-name="Yacute" unicode="&#xdd;" horiz-adv-x="1325" 
d="M975 551l-117 -551h-387l117 551l-248 965h420l96 -609l356 609h416zM962 1589l-54 201l547 264l58 -242z" />
    <glyph glyph-name="agrave" unicode="&#xe0;" horiz-adv-x="1441" 
d="M976 0l26 123h-4q-60 -82 -169 -125q-94 -37 -197 -37q-257 0 -380 177q-117 172 -62 431q54 255 248 428q201 179 452 179q102 0 180 -38q87 -42 118 -122h4l26 121h340l-242 -1137h-340zM1060 776q-64 82 -188 82q-123 0 -221 -86q-95 -83 -122 -207q-25 -119 38 -202
q65 -84 184 -84q123 0 222 83q98 83 124 207q27 125 -37 207zM1153 1257l-459 222l156 239l440 -262z" />
    <glyph glyph-name="aacute" unicode="&#xe1;" horiz-adv-x="1441" 
d="M976 0l26 123h-4q-60 -82 -169 -125q-94 -37 -197 -37q-257 0 -380 177q-117 172 -62 431q54 255 248 428q201 179 452 179q102 0 180 -38q87 -42 118 -122h4l26 121h340l-242 -1137h-340zM1060 776q-64 82 -188 82q-123 0 -221 -86q-95 -83 -122 -207q-25 -119 38 -202
q65 -84 184 -84q123 0 222 83q98 83 124 207q27 125 -37 207zM828 1272l-53 201l548 264l57 -242z" />
    <glyph glyph-name="acircumflex" unicode="&#xe2;" horiz-adv-x="1441" 
d="M976 0l26 123h-4q-60 -82 -169 -125q-94 -37 -197 -37q-257 0 -380 177q-117 172 -62 431q54 255 248 428q201 179 452 179q102 0 180 -38q87 -42 118 -122h4l26 121h340l-242 -1137h-340zM1060 776q-64 82 -188 82q-123 0 -221 -86q-95 -83 -122 -207q-25 -119 38 -202
q65 -84 184 -84q123 0 222 83q98 83 124 207q27 125 -37 207zM1096 1311l-70 119l-119 -119h-332l392 340h221l235 -340h-327z" />
    <glyph glyph-name="atilde" unicode="&#xe3;" horiz-adv-x="1441" 
d="M976 0l26 123h-4q-60 -82 -169 -125q-94 -37 -197 -37q-257 0 -380 177q-117 172 -62 431q54 255 248 428q201 179 452 179q102 0 180 -38q87 -42 118 -122h4l26 121h340l-242 -1137h-340zM1060 776q-64 82 -188 82q-123 0 -221 -86q-95 -83 -122 -207q-25 -119 38 -202
q65 -84 184 -84q123 0 222 83q98 83 124 207q27 125 -37 207zM1436 1409q-138 -76 -248 -76q-35 0 -79 9l-161 36q-43 8 -76 8q-37 0 -78 -11l-78 -27l-84 180q64 33 119 50q65 21 121 21q37 0 81 -8q19 -3 41 -8l78 -19q21 -5 39 -8q44 -8 82 -8q67 0 157 35z" />
    <glyph glyph-name="egrave" unicode="&#xe8;" horiz-adv-x="1323" 
d="M1348 465h-852q-14 -215 220 -215q122 0 230 106h348q-114 -177 -278 -282q-175 -111 -361 -111q-249 0 -387 177q-140 176 -87 425q53 250 264 429q214 182 462 182q258 0 392 -182q131 -179 76 -439q-11 -49 -27 -90zM1064 694q0 195 -216 195t-300 -195h516z
M1094 1257l-459 222l156 239l439 -262z" />
    <glyph glyph-name="eacute" unicode="&#xe9;" horiz-adv-x="1323" 
d="M1348 465h-852q-14 -215 220 -215q122 0 230 106h348q-114 -177 -278 -282q-175 -111 -361 -111q-249 0 -387 177q-140 176 -87 425q53 250 264 429q214 182 462 182q258 0 392 -182q131 -179 76 -439q-11 -49 -27 -90zM1064 694q0 195 -216 195t-300 -195h516zM769 1272
l-53 201l548 264l57 -242z" />
    <glyph glyph-name="ecircumflex" unicode="&#xea;" horiz-adv-x="1323" 
d="M1348 465h-852q-14 -215 220 -215q122 0 230 106h348q-114 -177 -278 -282q-175 -111 -361 -111q-249 0 -387 177q-140 176 -87 425q53 250 264 429q214 182 462 182q258 0 392 -182q131 -179 76 -439q-11 -49 -27 -90zM1064 694q0 195 -216 195t-300 -195h516z
M1035 1311l-68 119l-120 -119h-332l393 340h221l234 -340h-328z" />
    <glyph glyph-name="igrave" unicode="&#xec;" horiz-adv-x="585" 
d="M123 0l242 1137h340l-242 -1137h-340zM675 1257l-459 222l155 239l440 -262z" />
    <glyph glyph-name="iacute" unicode="&#xed;" horiz-adv-x="585" 
d="M123 0l242 1137h340l-242 -1137h-340zM452 1272l-53 201l548 264l57 -242z" />
    <glyph glyph-name="ograve" unicode="&#xf2;" horiz-adv-x="1363" 
d="M1147 137q-211 -172 -473 -172t-400 172q-139 172 -84 432q56 261 268 433q211 172 473 172t400 -172q140 -172 84 -433q-55 -260 -268 -432zM1041 770q-61 86 -178 86q-116 0 -213 -86q-95 -83 -120 -201q-25 -117 35 -201q60 -85 176 -85q117 0 215 85q94 84 119 201
q25 118 -34 201zM1115 1257l-459 222l155 239l440 -262z" />
    <glyph glyph-name="oacute" unicode="&#xf3;" horiz-adv-x="1363" 
d="M1147 137q-211 -172 -473 -172t-400 172q-139 172 -84 432q56 261 268 433q211 172 473 172t400 -172q140 -172 84 -433q-55 -260 -268 -432zM1041 770q-61 86 -178 86q-116 0 -213 -86q-95 -83 -120 -201q-25 -117 35 -201q60 -85 176 -85q117 0 215 85q94 84 119 201
q25 118 -34 201zM791 1272l-55 201l549 264l56 -242z" />
    <glyph glyph-name="ocircumflex" unicode="&#xf4;" horiz-adv-x="1363" 
d="M1147 137q-211 -172 -473 -172t-400 172q-139 172 -84 432q56 261 268 433q211 172 473 172t400 -172q140 -172 84 -433q-55 -260 -268 -432zM1041 770q-61 86 -178 86q-116 0 -213 -86q-95 -83 -120 -201q-25 -117 35 -201q60 -85 176 -85q117 0 215 85q94 84 119 201
q25 118 -34 201zM1057 1311l-70 119l-119 -119h-332l392 340h221l235 -340h-327z" />
    <glyph glyph-name="otilde" unicode="&#xf5;" horiz-adv-x="1363" 
d="M1147 137q-211 -172 -473 -172t-400 172q-139 172 -84 432q56 261 268 433q211 172 473 172t400 -172q140 -172 84 -433q-55 -260 -268 -432zM1041 770q-61 86 -178 86q-116 0 -213 -86q-95 -83 -120 -201q-25 -117 35 -201q60 -85 176 -85q117 0 215 85q94 84 119 201
q25 118 -34 201zM1397 1409q-136 -76 -247 -76q-35 0 -79 9l-162 36q-43 8 -76 8q-37 0 -77 -11l-78 -27l-85 180q64 33 119 50q65 21 121 21q37 0 81 -8q19 -3 41 -8l78 -19q22 -5 39 -8q44 -8 82 -8q67 0 157 35z" />
    <glyph glyph-name="divide" unicode="&#xf7;" horiz-adv-x="1706" 
 />
    <glyph glyph-name="glyph216" unicode="&#xf9;" horiz-adv-x="1298" 
d="M853 0l26 121h-4q-60 -87 -148 -125q-76 -33 -180 -33q-217 0 -304 143q-47 80 -50 166q-3 65 23 185l144 680h340l-134 -629q-23 -110 0 -162q28 -65 134 -65q195 0 244 231l133 625h340l-242 -1137h-322zM1011 1257l-459 222l155 239l440 -262z" />
    <glyph glyph-name="glyph217" unicode="&#xfa;" horiz-adv-x="1298" 
d="M853 0l26 121h-4q-60 -87 -148 -125q-76 -33 -180 -33q-217 0 -304 143q-47 80 -50 166q-3 65 23 185l144 680h340l-134 -629q-23 -110 0 -162q28 -65 134 -65q195 0 244 231l133 625h340l-242 -1137h-322zM829 1272l-54 201l549 264l56 -242z" />
    <glyph glyph-name="glyph234" unicode="&#xfd;" horiz-adv-x="1175" 
d="M523 -379h-360l273 436l-193 1080h362l88 -660h4l357 660h360zM768 1272l-54 201l548 264l56 -242z" />
    <glyph glyph-name="Abreve" unicode="&#x102;" 
d="M1114 0l-27 219h-526l-127 -219h-416l930 1516h305l281 -1516h-420zM1004 1044h-6l-266 -518h318zM1608 1927q-43 -155 -194 -232q-124 -63 -291 -63q-170 0 -266 63q-115 77 -93 232h231q27 -45 78 -60q35 -12 107 -12q59 0 103 14q58 18 93 58h232z" />
    <glyph glyph-name="abreve" unicode="&#x103;" horiz-adv-x="1441" 
d="M976 0l26 123h-4q-60 -82 -169 -125q-94 -37 -197 -37q-257 0 -380 177q-117 172 -62 431q54 255 248 428q201 179 452 179q102 0 180 -38q87 -42 118 -122h4l26 121h340l-242 -1137h-340zM1060 776q-64 82 -188 82q-123 0 -221 -86q-95 -83 -122 -207q-25 -119 38 -202
q65 -84 184 -84q123 0 222 83q98 83 124 207q27 125 -37 207zM1537 1594q-43 -155 -193 -232q-124 -63 -292 -63q-169 0 -264 63q-116 77 -95 232h232q26 -45 77 -60q37 -12 108 -12q59 0 104 14q56 18 92 58h231z" />
    <glyph glyph-name="Ccaron" unicode="&#x10c;" horiz-adv-x="1274" 
 />
    <glyph glyph-name="ccaron" unicode="&#x10d;" horiz-adv-x="922" 
 />
    <glyph glyph-name="Dslash" unicode="&#x110;" horiz-adv-x="1581" 
d="M1359 210q-245 -210 -589 -210h-572l129 606h-137l72 340h137l121 570h510q111 0 193 -12q94 -12 165 -41q158 -65 244 -230q98 -193 39 -471q-73 -346 -312 -552zM1259 1056q-70 120 -256 120h-168l-49 -230h221l-72 -340h-221l-57 -266h166q190 0 310 116
q109 106 150 300q40 191 -24 300z" />
    <glyph glyph-name="dcroat" unicode="&#x111;" horiz-adv-x="1429" 
d="M1069 777q-65 81 -188 81q-124 0 -223 -80q-100 -81 -127 -205q-27 -126 35 -208q62 -84 188 -84q127 0 227 83q98 83 125 209q26 123 -37 204zM1566 1219l-260 -1219h-324l27 123h-4q-68 -85 -174 -125q-89 -35 -200 -35q-255 0 -378 178q-117 172 -62 430
q54 254 243 426q198 179 448 179q202 0 306 -136l38 179h-224l42 201h224l21 96h340l-21 -96h97l-42 -201h-97z" />
    <glyph glyph-name="Itilde" unicode="&#x128;" horiz-adv-x="661" 
d="M137 0l322 1516h387l-322 -1516h-387zM1134 1739q-137 -76 -248 -76q-34 0 -79 8l-160 37q-44 8 -77 8q-36 0 -78 -12l-78 -27l-84 181q64 32 119 50q66 21 121 21q38 0 82 -8q18 -3 40 -8l78 -19q22 -5 40 -8q44 -8 81 -8q67 0 158 35z" />
    <glyph glyph-name="itilde" unicode="&#x129;" horiz-adv-x="585" 
d="M122 0l242 1137h340l-242 -1137h-340zM991 1317q-136 -76 -247 -76q-34 0 -79 9l-161 36q-44 8 -77 8q-36 0 -77 -11l-78 -27l-85 180q64 33 119 50q66 21 121 21q38 0 83 -8q17 -3 39 -8l78 -19q22 -5 40 -8q44 -8 81 -8q67 0 158 35z" />
    <glyph glyph-name="Utilde" unicode="&#x168;" horiz-adv-x="1429" 
d="M1423 600q-33 -155 -79 -251q-61 -123 -171 -214q-195 -164 -458 -164q-128 0 -229 37q-113 42 -173 125q-74 101 -82 216q-3 52 5 117q7 52 24 134l195 916h387l-195 -916q-12 -60 -16 -103q-3 -55 8 -93q26 -93 144 -93q122 0 183 91q25 37 44 92q12 40 26 106l195 916
h387zM1479 1739q-137 -76 -247 -76q-35 0 -79 8l-161 37q-43 8 -76 8q-37 0 -78 -12l-79 -27l-83 181q63 32 118 50q66 21 122 21q37 0 81 -8q18 -3 40 -8l78 -19q22 -5 40 -8q44 -8 82 -8q67 0 156 35z" />
    <glyph glyph-name="utilde" unicode="&#x169;" horiz-adv-x="1298" 
d="M853 0l26 121h-4q-60 -87 -148 -125q-76 -33 -180 -33q-217 0 -304 143q-47 80 -50 166q-3 65 23 185l144 680h340l-134 -629q-23 -110 0 -162q28 -65 134 -65q195 0 244 231l133 625h340l-242 -1137h-322zM1397 1409q-137 -76 -247 -76q-35 0 -79 9l-162 36q-43 8 -76 8
q-37 0 -77 -11l-79 -27l-84 180q64 33 119 50q65 21 121 21q37 0 82 -8q18 -3 40 -8l78 -19q22 -5 39 -8q44 -8 82 -8q67 0 157 35z" />
    <glyph glyph-name="Ohorn" unicode="&#x1a0;" horiz-adv-x="1742" 
d="M1397 1068q-90 136 -271 136t-327 -132q-141 -127 -179 -310q-40 -187 46 -316q91 -135 276 -135q177 0 324 136q139 129 177 309q39 183 -46 312zM1748 1274q147 -215 83 -516q-71 -334 -355 -562q-280 -225 -616 -225q-325 0 -511 221q-190 224 -121 547
q36 172 128 324q48 81 134 170q303 311 707 311q282 0 458 -161q10 4 22 8q115 51 136 149h-80l48 228h229l-50 -235q-44 -145 -140 -216q-36 -25 -72 -43z" />
    <glyph glyph-name="ohorn" unicode="&#x1a1;" horiz-adv-x="1363" 
d="M1040 770q-61 86 -177 86t-213 -86q-95 -83 -120 -201q-25 -117 35 -201q60 -85 176 -85t214 85q94 84 119 201q25 118 -34 201zM1378 931q81 -152 36 -362q-55 -260 -267 -432q-211 -172 -473 -172t-401 172q-138 172 -83 432q56 261 267 433q212 172 474 172
q231 0 366 -133q85 49 103 132h-80l48 228h229l-50 -235q-45 -145 -141 -216q-14 -10 -28 -19z" />
    <glyph glyph-name="Uhorn" unicode="&#x1af;" horiz-adv-x="1429" 
d="M1423 600q-33 -155 -79 -251q-61 -123 -171 -214q-195 -164 -458 -164q-128 0 -229 37q-113 42 -173 125q-74 101 -82 216q-3 52 5 117q7 52 24 134l195 916h387l-195 -916q-12 -60 -16 -103q-3 -55 8 -93q26 -93 144 -93q122 0 183 91q25 37 44 92q12 40 26 106l195 916
h387zM1633 1768h229l-50 -235q-45 -145 -141.5 -216t-202.5 -83l-101 -8l38 144l39 -1q24 1 84 22q115 51 136 149h-80z" />
    <glyph glyph-name="uhorn" unicode="&#x1b0;" horiz-adv-x="1298" 
d="M853 0l26 121h-4q-60 -87 -148 -125q-76 -33 -180 -33q-217 0 -304 143q-47 80 -50 166q-3 65 23 185l144 680h340l-134 -629q-23 -110 0 -162q28 -65 134 -65q195 0 244 231l133 625h340l-242 -1137h-322zM1470 1401h229l-50 -235q-45 -145 -141.5 -216t-201.5 -83
l-101 -8l38 144l38 -1q25 1 85 22q115 51 136 149h-80z" />
    <glyph glyph-name="uni1EA0" unicode="&#x1ea0;" 
d="M1114 0l-27 219h-526l-127 -219h-416l930 1516h305l281 -1516h-420zM1004 1044h-6l-266 -518h318zM509 -491l65 309h326l-65 -309h-326z" />
    <glyph glyph-name="uni1EA1" unicode="&#x1ea1;" horiz-adv-x="1441" 
d="M976 0l26 123h-4q-60 -82 -169 -125q-94 -37 -197 -37q-257 0 -380 177q-117 172 -62 431q54 255 248 428q201 179 452 179q102 0 180 -38q87 -42 118 -122h4l26 121h340l-242 -1137h-340zM1060 776q-64 82 -188 82q-123 0 -221 -86q-95 -83 -122 -207q-25 -119 38 -202
q65 -84 184 -84q123 0 222 83q98 83 124 207q27 125 -37 207zM484 -491l65 309h326l-65 -309h-326z" />
    <glyph glyph-name="uni1EA2" unicode="&#x1ea2;" 
d="M1114 0l-27 219h-526l-127 -219h-416l930 1516h305l281 -1516h-420zM1004 1044h-6l-266 -518h318zM1409 1821q-16 -19 -37 -39q-18 -16 -42 -35l-40 -32q-24 -18 -38 -31q-38 -35 -48 -68h-174q10 46 47 90q14 17 35 36q15 14 38 33l39 31q21 18 33 31q35 34 41 65
q13 62 -45 62q-42 0 -63 -30q-16 -20 -26 -66h-183q0 4 1 9l2 9q23 110 114 181q90 68 202 68q152 0 190 -120q15 -45 5 -92q-12 -55 -51 -102z" />
    <glyph glyph-name="uni1EA3" unicode="&#x1ea3;" horiz-adv-x="1441" 
d="M976 0l26 123h-4q-60 -82 -169 -125q-94 -37 -197 -37q-257 0 -380 177q-117 172 -62 431q54 255 248 428q201 179 452 179q102 0 180 -38q87 -42 118 -122h4l26 121h340l-242 -1137h-340zM1060 776q-64 82 -188 82q-123 0 -221 -86q-95 -83 -122 -207q-25 -119 38 -202
q65 -84 184 -84q123 0 222 83q98 83 124 207q27 125 -37 207zM1244 1487q-16 -19 -37 -39q-18 -16 -42 -35l-41 -32q-23 -18 -37 -31q-38 -35 -48 -68h-174q10 46 47 90q14 17 35 36q15 14 38 33l38 31q21 18 35 31q33 34 39 65q14 62 -44 62q-41 0 -64 -30q-15 -20 -26 -66
h-183q1 4 1 9l2 9q23 110 115 181q90 68 201 68q153 0 190 -120q15 -45 5 -92q-12 -55 -50 -102z" />
    <glyph glyph-name="uni1EA4" unicode="&#x1ea4;" 
d="M1114 0l-27 219h-526l-127 -219h-416l930 1516h305l281 -1516h-420zM1004 1044h-6l-266 -518h318zM1508 1849l-53 201l547 264l57 -242zM1223 1649l-69 118l-119 -118h-332l391 340h221l236 -340h-328z" />
    <glyph glyph-name="uni1EA5" unicode="&#x1ea5;" horiz-adv-x="1441" 
d="M976 0l26 123h-4q-60 -82 -169 -125q-94 -37 -197 -37q-257 0 -380 177q-117 172 -62 431q54 255 248 428q201 179 452 179q102 0 180 -38q87 -42 118 -122h4l26 121h340l-242 -1137h-340zM1060 776q-64 82 -188 82q-123 0 -221 -86q-95 -83 -122 -207q-25 -119 38 -202
q65 -84 184 -84q123 0 222 83q98 83 124 207q27 125 -37 207zM828 1272l-53 201l548 264l57 -242z" />
    <glyph glyph-name="uni1EA6" unicode="&#x1ea6;" 
d="M1114 0l-27 219h-526l-127 -219h-416l930 1516h305l281 -1516h-420zM1004 1044h-6l-266 -518h318zM1513 1950l-459 221l155 240l441 -262zM1223 1649l-69 118l-119 -118h-332l391 340h221l236 -340h-328z" />
    <glyph glyph-name="uni1EA7" unicode="&#x1ea7;" horiz-adv-x="1441" 
d="M976 0l26 123h-4q-60 -82 -169 -125q-94 -37 -197 -37q-257 0 -380 177q-117 172 -62 431q54 255 248 428q201 179 452 179q102 0 180 -38q87 -42 118 -122h4l26 121h340l-242 -1137h-340zM1060 776q-64 82 -188 82q-123 0 -221 -86q-95 -83 -122 -207q-25 -119 38 -202
q65 -84 184 -84q123 0 222 83q98 83 124 207q27 125 -37 207zM1153 1257l-459 222l156 239l440 -262z" />
    <glyph glyph-name="uni1EA8" unicode="&#x1ea8;" 
d="M1114 0l-27 219h-526l-127 -219h-416l930 1516h305l281 -1516h-420zM1004 1044h-6l-266 -518h318zM1775 2146q-16 -19 -37 -39q-18 -16 -42 -35l-40 -32q-24 -18 -38 -31q-38 -35 -47 -68h-174q9 46 46 90q14 17 35 36q15 14 38 33l39 31q21 18 34 31q34 34 40 65
q14 62 -44 62q-42 0 -64 -30q-16 -20 -26 -66h-183q0 4 1 9l2 9q23 110 114 181q90 68 202 68q152 0 190 -120q15 -45 5 -92q-12 -55 -51 -102zM1223 1649l-69 118l-119 -118h-332l391 340h221l236 -340h-328z" />
    <glyph glyph-name="uni1EA9" unicode="&#x1ea9;" horiz-adv-x="1441" 
d="M976 0l26 123h-4q-60 -82 -169 -125q-94 -37 -197 -37q-257 0 -380 177q-117 172 -62 431q54 255 248 428q201 179 452 179q102 0 180 -38q87 -42 118 -122h4l26 121h340l-242 -1137h-340zM1060 776q-64 82 -188 82q-123 0 -221 -86q-95 -83 -122 -207q-25 -119 38 -202
q65 -84 184 -84q123 0 222 83q98 83 124 207q27 125 -37 207zM1272 1487q-16 -19 -37 -39q-18 -16 -42 -35l-41 -32q-23 -18 -37 -31q-38 -35 -48 -68h-174q10 46 47 90q14 17 35 36q15 14 38 33l38 31q21 18 35 31q33 34 39 65q14 62 -44 62q-41 0 -64 -30q-15 -20 -26 -66
h-183q1 4 1 9l2 9q23 110 115 181q90 68 201 68q153 0 190 -120q15 -45 5 -92q-12 -55 -50 -102z" />
    <glyph glyph-name="uni1EAA" unicode="&#x1eaa;" 
d="M1114 0l-27 219h-526l-127 -219h-416l930 1516h305l281 -1516h-420zM1004 1044h-6l-266 -518h318zM1697 2119q-137 -76 -248 -76q-34 0 -78 8l-161 37q-44 8 -77 8q-36 0 -78 -12l-78 -27l-84 181q64 32 118 50q67 21 122 21q38 0 82 -8q17 -3 39 -8l78 -19q22 -5 41 -8
q44 -8 81 -8q67 0 157 35zM1223 1649l-69 118l-119 -118h-332l391 340h221l236 -340h-328z" />
    <glyph glyph-name="uni1EAB" unicode="&#x1eab;" horiz-adv-x="1441" 
d="M976 0l26 123h-4q-60 -82 -169 -125q-94 -37 -197 -37q-257 0 -380 177q-117 172 -62 431q54 255 248 428q201 179 452 179q102 0 180 -38q87 -42 118 -122h4l26 121h340l-242 -1137h-340zM1060 776q-64 82 -188 82q-123 0 -221 -86q-95 -83 -122 -207q-25 -119 38 -202
q65 -84 184 -84q123 0 222 83q98 83 124 207q27 125 -37 207zM1436 1409q-138 -76 -248 -76q-35 0 -79 9l-161 36q-43 8 -76 8q-37 0 -78 -11l-78 -27l-84 180q64 33 119 50q65 21 121 21q37 0 81 -8q19 -3 41 -8l78 -19q21 -5 39 -8q44 -8 82 -8q67 0 157 35z" />
    <glyph glyph-name="uni1EAC" unicode="&#x1eac;" 
d="M1114 0l-27 219h-526l-127 -219h-416l930 1516h305l281 -1516h-420zM1004 1044h-6l-266 -518h318zM509 -491l65 309h326l-65 -309h-326zM1223 1649l-69 118l-119 -118h-332l391 340h221l236 -340h-328z" />
    <glyph glyph-name="uni1EAD" unicode="&#x1ead;" horiz-adv-x="1441" 
d="M976 0l26 123h-4q-60 -82 -169 -125q-94 -37 -197 -37q-257 0 -380 177q-117 172 -62 431q54 255 248 428q201 179 452 179q102 0 180 -38q87 -42 118 -122h4l26 121h340l-242 -1137h-340zM1060 776q-64 82 -188 82q-123 0 -221 -86q-95 -83 -122 -207q-25 -119 38 -202
q65 -84 184 -84q123 0 222 83q98 83 124 207q27 125 -37 207zM484 -491l65 309h326l-65 -309h-326z" />
    <glyph glyph-name="uni1EAE" unicode="&#x1eae;" 
d="M1114 0l-27 219h-526l-127 -219h-416l930 1516h305l281 -1516h-420zM1004 1044h-6l-266 -518h318zM1143 1924l-53 201l547 264l57 -242zM1608 1927q-43 -155 -194 -232q-123 -63 -291 -63q-169 0 -265 63q-115 77 -94 232h232q26 -45 77 -60q36 -12 107 -12q59 0 104 14
q57 18 93 58h231z" />
    <glyph glyph-name="uni1EAF" unicode="&#x1eaf;" horiz-adv-x="1441" 
d="M976 0l26 123h-4q-60 -82 -169 -125q-94 -37 -197 -37q-257 0 -380 177q-117 172 -62 431q54 255 248 428q201 179 452 179q102 0 180 -38q87 -42 118 -122h4l26 121h340l-242 -1137h-340zM1060 776q-64 82 -188 82q-123 0 -221 -86q-95 -83 -122 -207q-25 -119 38 -202
q65 -84 184 -84q123 0 222 83q98 83 124 207q27 125 -37 207zM1108 1588l-54 201l548 264l57 -242zM1537 1594q-43 -155 -193 -232q-124 -63 -292 -63q-169 0 -264 63q-116 77 -95 232h232q26 -45 77 -60q37 -12 108 -12q59 0 104 14q56 18 92 58h231z" />
    <glyph glyph-name="uni1EB0" unicode="&#x1eb0;" 
d="M1114 0l-27 219h-526l-127 -219h-416l930 1516h305l281 -1516h-420zM1004 1044h-6l-266 -518h318zM1291 1950l-459 221l155 240l441 -262zM1608 1927q-43 -155 -194 -232q-123 -63 -291 -63q-169 0 -265 63q-115 77 -94 232h232q26 -45 77 -60q36 -12 107 -12
q59 0 104 14q57 18 93 58h231z" />
    <glyph glyph-name="uni1EB1" unicode="&#x1eb1;" horiz-adv-x="1441" 
d="M976 0l26 123h-4q-60 -82 -169 -125q-94 -37 -197 -37q-257 0 -380 177q-117 172 -62 431q54 255 248 428q201 179 452 179q102 0 180 -38q87 -42 118 -122h4l26 121h340l-242 -1137h-340zM1060 776q-64 82 -188 82q-123 0 -221 -86q-95 -83 -122 -207q-25 -119 38 -202
q65 -84 184 -84q123 0 222 83q98 83 124 207q27 125 -37 207zM1184 1581l-459 222l156 239l439 -262zM1537 1594q-43 -155 -193 -232q-124 -63 -292 -63q-169 0 -264 63q-116 77 -95 232h232q26 -45 77 -60q37 -12 108 -12q59 0 104 14q56 18 92 58h231z" />
    <glyph glyph-name="uni1EB2" unicode="&#x1eb2;" 
d="M1114 0l-27 219h-526l-127 -219h-416l930 1516h305l281 -1516h-420zM1004 1044h-6l-266 -518h318zM1488 2146q-16 -19 -37 -39q-18 -16 -42 -35l-40 -32q-24 -18 -38 -31q-38 -35 -47 -68h-174q9 46 46 90q14 17 35 36q15 14 38 33l39 31q21 18 34 31q34 34 40 65
q14 62 -44 62q-42 0 -64 -30q-16 -20 -26 -66h-183q0 4 1 9l2 9q23 110 114 181q90 68 202 68q152 0 190 -120q15 -45 5 -92q-12 -55 -51 -102zM1608 1927q-43 -155 -194 -232q-123 -63 -291 -63q-169 0 -265 63q-115 77 -94 232h232q26 -45 77 -60q36 -12 107 -12
q59 0 104 14q57 18 93 58h231z" />
    <glyph glyph-name="uni1EB3" unicode="&#x1eb3;" horiz-adv-x="1441" 
d="M976 0l26 123h-4q-60 -82 -169 -125q-94 -37 -197 -37q-257 0 -380 177q-117 172 -62 431q54 255 248 428q201 179 452 179q102 0 180 -38q87 -42 118 -122h4l26 121h340l-242 -1137h-340zM1060 776q-64 82 -188 82q-123 0 -221 -86q-95 -83 -122 -207q-25 -119 38 -202
q65 -84 184 -84q123 0 222 83q98 83 124 207q27 125 -37 207zM1415 1812q-16 -19 -37 -39q-17 -16 -41 -35l-42 -32q-23 -18 -37 -31q-38 -35 -48 -68h-174q10 46 47 90q14 17 35 36q15 14 38 33l38 31q21 18 35 31q33 34 39 65q14 62 -44 62q-41 0 -64 -30q-15 -20 -26 -66
h-183q1 4 1 9l2 9q23 110 116 181q89 68 200 68q153 0 190 -120q15 -45 5 -92q-12 -55 -50 -102zM1537 1594q-43 -155 -193 -232q-124 -63 -292 -63q-169 0 -264 63q-116 77 -95 232h232q26 -45 77 -60q37 -12 108 -12q59 0 104 14q56 18 92 58h231z" />
    <glyph glyph-name="uni1EB4" unicode="&#x1eb4;" 
d="M1114 0l-27 219h-526l-127 -219h-416l930 1516h305l281 -1516h-420zM1004 1044h-6l-266 -518h318zM1697 2119q-137 -76 -248 -76q-34 0 -78 8l-161 37q-44 8 -77 8q-36 0 -78 -12l-78 -27l-84 181q64 32 118 50q67 21 122 21q38 0 82 -8q17 -3 39 -8l78 -19q22 -5 41 -8
q44 -8 81 -8q67 0 157 35zM1608 1927q-43 -155 -194 -232q-123 -63 -291 -63q-169 0 -265 63q-115 77 -94 232h232q26 -45 77 -60q36 -12 107 -12q59 0 104 14q57 18 93 58h231z" />
    <glyph glyph-name="uni1EB5" unicode="&#x1eb5;" horiz-adv-x="1441" 
d="M976 0l26 123h-4q-60 -82 -169 -125q-94 -37 -197 -37q-257 0 -380 177q-117 172 -62 431q54 255 248 428q201 179 452 179q102 0 180 -38q87 -42 118 -122h4l26 121h340l-242 -1137h-340zM1060 776q-64 82 -188 82q-123 0 -221 -86q-95 -83 -122 -207q-25 -119 38 -202
q65 -84 184 -84q123 0 222 83q98 83 124 207q27 125 -37 207zM1550 1724q-138 -76 -248 -76q-35 0 -79 9l-161 36q-43 8 -76 8q-37 0 -78 -11l-78 -27l-84 180q64 33 118 50q66 21 122 21q37 0 81 -8q19 -3 41 -8l78 -19q21 -5 39 -8q44 -8 82 -8q67 0 157 35zM1537 1594
q-43 -155 -193 -232q-124 -63 -292 -63q-169 0 -264 63q-116 77 -95 232h232q26 -45 77 -60q37 -12 108 -12q59 0 104 14q56 18 92 58h231z" />
    <glyph glyph-name="uni1EB6" unicode="&#x1eb6;" 
d="M1114 0l-27 219h-526l-127 -219h-416l930 1516h305l281 -1516h-420zM1004 1044h-6l-266 -518h318zM509 -491l65 309h326l-65 -309h-326zM1608 1927q-43 -155 -194 -232q-123 -63 -291 -63q-169 0 -265 63q-115 77 -94 232h232q26 -45 77 -60q36 -12 107 -12q59 0 104 14
q57 18 93 58h231z" />
    <glyph glyph-name="uni1EB7" unicode="&#x1eb7;" horiz-adv-x="1441" 
d="M976 0l26 123h-4q-60 -82 -169 -125q-94 -37 -197 -37q-257 0 -380 177q-117 172 -62 431q54 255 248 428q201 179 452 179q102 0 180 -38q87 -42 118 -122h4l26 121h340l-242 -1137h-340zM1060 776q-64 82 -188 82q-123 0 -221 -86q-95 -83 -122 -207q-25 -119 38 -202
q65 -84 184 -84q123 0 222 83q98 83 124 207q27 125 -37 207zM484 -491l65 309h326l-65 -309h-326zM1537 1594q-43 -155 -193 -232q-124 -63 -292 -63q-169 0 -264 63q-116 77 -95 232h232q26 -45 77 -60q37 -12 108 -12q59 0 104 14q56 18 92 58h231z" />
    <glyph glyph-name="uni1EB8" unicode="&#x1eb8;" horiz-adv-x="1081" 
d="M137 0l322 1516h842l-72 -340h-471l-50 -236h456l-72 -340h-456l-56 -260h471l-72 -340h-842zM291 -491l65 309h326l-65 -309h-326z" />
    <glyph glyph-name="uni1EB9" unicode="&#x1eb9;" horiz-adv-x="1323" 
d="M1348 465h-852q-14 -215 220 -215q122 0 230 106h348q-114 -177 -278 -282q-175 -111 -361 -111q-249 0 -387 177q-140 176 -87 425q53 250 264 429q214 182 462 182q258 0 392 -182q131 -179 76 -439q-11 -49 -27 -90zM1064 694q0 195 -216 195t-300 -195h516zM391 -491
l66 309h326l-66 -309h-326z" />
    <glyph glyph-name="uni1EBA" unicode="&#x1eba;" horiz-adv-x="1081" 
d="M137 0l322 1516h842l-72 -340h-471l-50 -236h456l-72 -340h-456l-56 -260h471l-72 -340h-842zM1186 1821q-16 -19 -37 -39q-18 -16 -42 -35l-41 -32q-23 -18 -37 -31q-38 -35 -49 -68h-174q11 46 48 90q14 17 35 36q15 14 38 33l38 31q22 18 34 31q34 34 40 65
q13 62 -45 62q-41 0 -63 -30q-15 -20 -26 -66h-183q1 4 1 9l2 9q23 110 115 181q90 68 201 68q153 0 190 -120q15 -45 5 -92q-12 -55 -50 -102z" />
    <glyph glyph-name="uni1EBB" unicode="&#x1ebb;" horiz-adv-x="1323" 
d="M1348 465h-852q-14 -215 220 -215q122 0 230 106h348q-114 -177 -278 -282q-175 -111 -361 -111q-249 0 -387 177q-140 176 -87 425q53 250 264 429q214 182 462 182q258 0 392 -182q131 -179 76 -439q-11 -49 -27 -90zM1064 694q0 195 -216 195t-300 -195h516z
M1198 1487q-16 -19 -37 -39q-18 -16 -42 -35l-41 -32q-23 -18 -37 -31q-39 -35 -48 -68h-174q10 46 46 90q15 17 36 36q15 14 38 33l39 31q21 18 33 31q35 34 41 65q13 62 -45 62q-42 0 -63 -30q-16 -20 -26 -66h-183q0 4 1 9l2 9q23 110 114 181q90 68 202 68
q152 0 190 -120q15 -45 5 -92q-12 -55 -51 -102z" />
    <glyph glyph-name="uni1EBC" unicode="&#x1ebc;" horiz-adv-x="1081" 
d="M137 0l322 1516h842l-72 -340h-471l-50 -236h456l-72 -340h-456l-56 -260h471l-72 -340h-842zM1338 1739q-137 -76 -248 -76q-34 0 -79 8l-161 37q-43 8 -76 8q-36 0 -78 -12l-78 -27l-84 181q64 32 119 50q66 21 121 21q38 0 82 -8q18 -3 40 -8l78 -19q22 -5 39 -8
q44 -8 82 -8q67 0 157 35z" />
    <glyph glyph-name="uni1EBD" unicode="&#x1ebd;" horiz-adv-x="1323" 
d="M1348 465h-852q-14 -215 220 -215q122 0 230 106h348q-114 -177 -278 -282q-175 -111 -361 -111q-249 0 -387 177q-140 176 -87 425q53 250 264 429q214 182 462 182q258 0 392 -182q131 -179 76 -439q-11 -49 -27 -90zM1064 694q0 195 -216 195t-300 -195h516z
M1373 1409q-137 -76 -248 -76q-34 0 -78 9l-161 36q-45 8 -77 8q-37 0 -78 -11l-78 -27l-84 180q64 33 118 50q67 21 123 21q37 0 81 -8q17 -3 39 -8l79 -19q21 -5 40 -8q44 -8 81 -8q68 0 157 35z" />
    <glyph glyph-name="uni1EBE" unicode="&#x1ebe;" horiz-adv-x="1081" 
d="M137 0l322 1516h842l-72 -340h-471l-50 -236h457l-72 -340h-457l-56 -260h471l-72 -340h-842zM1313 1821l-53 201l547 264l57 -242zM998 1649l-69 118l-119 -118h-332l391 340h222l235 -340h-328z" />
    <glyph glyph-name="uni1EBF" unicode="&#x1ebf;" horiz-adv-x="1323" 
d="M1348 465h-852q-14 -215 220 -215q122 0 230 106h348q-114 -177 -278 -282q-175 -111 -361 -111q-249 0 -387 177q-140 176 -87 425q53 250 264 429q214 182 462 182q258 0 392 -182q131 -179 76 -439q-11 -49 -27 -90zM1064 694q0 195 -216 195t-300 -195h516z
M1323 1476l-54 201l548 264l57 -242zM1035 1311l-68 119l-120 -119h-332l393 340h221l234 -340h-328z" />
    <glyph glyph-name="uni1EC0" unicode="&#x1ec0;" horiz-adv-x="1081" 
d="M137 0l322 1516h842l-72 -340h-471l-50 -236h457l-72 -340h-457l-56 -260h471l-72 -340h-842zM1319 1960l-459 221l155 240l440 -262zM998 1649l-69 118l-119 -118h-332l391 340h222l235 -340h-328z" />
    <glyph glyph-name="uni1EC1" unicode="&#x1ec1;" horiz-adv-x="1323" 
d="M1348 465h-852q-14 -215 220 -215q122 0 230 106h348q-114 -177 -278 -282q-175 -111 -361 -111q-249 0 -387 177q-140 176 -87 425q53 250 264 429q214 182 462 182q258 0 392 -182q131 -179 76 -439q-11 -49 -27 -90zM1064 694q0 195 -216 195t-300 -195h516z
M1341 1591l-459 222l156 239l439 -262zM1035 1311l-68 119l-120 -119h-332l393 340h221l234 -340h-328z" />
    <glyph glyph-name="uni1EC2" unicode="&#x1ec2;" horiz-adv-x="1081" 
d="M137 0l322 1516h842l-72 -340h-471l-50 -236h457l-72 -340h-457l-56 -260h471l-72 -340h-842zM1569 2137q-15 -19 -37 -39q-16 -16 -41 -35l-41 -32q-23 -18 -38 -31q-37 -35 -47 -68h-174q10 46 47 90q14 17 34 36q15 14 39 33l38 31q21 18 34 31q34 34 40 65
q14 62 -44 62q-41 0 -64 -30q-15 -20 -26 -66h-183q0 4 1 9l2 9q23 110 116 181q88 68 200 68q152 0 190 -120q15 -45 5 -92q-12 -55 -51 -102zM998 1649l-69 118l-119 -118h-332l391 340h222l235 -340h-328z" />
    <glyph glyph-name="uni1EC3" unicode="&#x1ec3;" horiz-adv-x="1323" 
d="M1348 465h-852q-14 -215 220 -215q122 0 230 106h348q-114 -177 -278 -282q-175 -111 -361 -111q-249 0 -387 177q-140 176 -87 425q53 250 264 429q214 182 462 182q258 0 392 -182q131 -179 76 -439q-11 -49 -27 -90zM1064 694q0 195 -216 195t-300 -195h516z
M1608 1803q-16 -19 -37 -39q-18 -16 -42 -35l-40 -32q-24 -18 -38 -31q-38 -35 -48 -68h-174q10 46 47 90q14 17 35 36q15 14 38 33l39 31q21 18 33 31q35 34 41 65q13 62 -45 62q-42 0 -63 -30q-16 -20 -26 -66h-183q0 4 1 9l2 9q23 110 114 181q90 68 202 68
q152 0 190 -120q15 -45 5 -92q-12 -55 -51 -102zM1035 1311l-68 119l-120 -119h-332l393 340h221l234 -340h-328z" />
    <glyph glyph-name="uni1EC4" unicode="&#x1ec4;" horiz-adv-x="1081" 
d="M137 0l322 1516h842l-72 -340h-471l-50 -236h457l-72 -340h-457l-56 -260h471l-72 -340h-842zM1510 2110q-137 -76 -248 -76q-34 0 -78 8l-161 37q-44 8 -76 8q-37 0 -79 -12l-78 -27l-84 181q64 32 118 50q67 21 123 21q37 0 81 -8q19 -3 39 -8l79 -19q21 -5 40 -8
q44 -8 81 -8q68 0 157 35zM998 1649l-69 118l-119 -118h-332l391 340h222l235 -340h-328z" />
    <glyph glyph-name="uni1EC5" unicode="&#x1ec5;" horiz-adv-x="1323" 
d="M1348 465h-852q-14 -215 220 -215q122 0 230 106h348q-114 -177 -278 -282q-175 -111 -361 -111q-249 0 -387 177q-140 176 -87 425q53 250 264 429q214 182 462 182q258 0 392 -182q131 -179 76 -439q-11 -49 -27 -90zM1064 694q0 195 -216 195t-300 -195h516z
M1502 1752q-137 -76 -248 -76q-34 0 -78 9l-161 36q-45 8 -77 8q-37 0 -78 -11l-78 -27l-84 180q64 33 118 50q67 21 123 21q37 0 81 -8q17 -3 39 -8l79 -19q21 -5 39 -8q45 -8 82 -8q68 0 157 35zM1035 1311l-68 119l-120 -119h-332l393 340h221l234 -340h-328z" />
    <glyph glyph-name="uni1EC6" unicode="&#x1ec6;" horiz-adv-x="1081" 
d="M137 0l322 1516h842l-72 -340h-471l-50 -236h457l-72 -340h-457l-56 -260h471l-72 -340h-842zM292 -491l65 309h325l-65 -309h-325zM998 1649l-69 118l-119 -118h-332l391 340h222l235 -340h-328z" />
    <glyph glyph-name="uni1EC7" unicode="&#x1ec7;" horiz-adv-x="1323" 
d="M1348 465h-852q-14 -215 220 -215q122 0 230 106h348q-114 -177 -278 -282q-175 -111 -361 -111q-249 0 -387 177q-140 176 -87 425q53 250 264 429q214 182 462 182q258 0 392 -182q131 -179 76 -439q-11 -49 -27 -90zM1064 694q0 195 -216 195t-300 -195h516zM391 -491
l66 309h326l-66 -309h-326zM1035 1311l-68 119l-120 -119h-332l393 340h221l234 -340h-328z" />
    <glyph glyph-name="uni1EC8" unicode="&#x1ec8;" horiz-adv-x="661" 
d="M138 0l322 1516h387l-322 -1516h-387zM963 1821q-16 -19 -38 -39q-17 -16 -42 -35l-40 -32q-23 -18 -38 -31q-37 -35 -48 -68h-174q11 46 48 90q14 17 34 36q15 14 39 33l38 31q21 18 33 31q35 34 41 65q13 62 -45 62q-41 0 -63 -30q-15 -20 -26 -66h-183q0 4 1 9l2 9
q23 110 115 181q89 68 201 68q152 0 190 -120q15 -45 5 -92q-12 -55 -50 -102z" />
    <glyph glyph-name="uni1EC9" unicode="&#x1ec9;" horiz-adv-x="585" 
d="M122 0l242 1137h340l-242 -1137h-340zM854 1487q-16 -19 -38 -39q-17 -16 -42 -35l-40 -32q-23 -18 -38 -31q-37 -35 -48 -68h-174q11 46 48 90q14 17 34 36q15 14 39 33l38 31q21 18 33 31q35 34 41 65q13 62 -45 62q-41 0 -63 -30q-15 -20 -26 -66h-183q0 4 1 9l2 9
q23 110 115 181q89 68 201 68q152 0 190 -120q15 -45 5 -92q-12 -55 -50 -102z" />
    <glyph glyph-name="uni1ECA" unicode="&#x1eca;" horiz-adv-x="661" 
d="M137 0l323 1516h387l-323 -1516h-387zM64 -491l66 309h325l-66 -309h-325z" />
    <glyph glyph-name="uni1ECB" unicode="&#x1ecb;" horiz-adv-x="585" 
d="M390 1257l55 259h340l-55 -259h-340zM122 0l242 1137h340l-242 -1137h-340zM25 -491l66 309h326l-66 -309h-326z" />
    <glyph glyph-name="uni1ECC" unicode="&#x1ecc;" horiz-adv-x="1742" 
d="M1477 196q-281 -225 -616 -225q-326 0 -512 221q-190 224 -121 547q36 172 128 324q48 81 135 170q302 311 707 311q334 0 518 -226q185 -227 115 -560q-71 -334 -354 -562zM1398 1068q-91 136 -271 136q-182 0 -328 -132q-141 -127 -179 -310q-40 -187 47 -316
q91 -135 275 -135q177 0 324 136q139 129 177 309q39 183 -45 312zM603 -491l66 309h326l-66 -309h-326z" />
    <glyph glyph-name="uni1ECD" unicode="&#x1ecd;" horiz-adv-x="1363" 
d="M1147 137q-211 -172 -473 -172t-400 172q-139 172 -84 432q56 261 268 433q211 172 473 172t400 -172q140 -172 84 -433q-55 -260 -268 -432zM1041 770q-61 86 -178 86q-116 0 -213 -86q-95 -83 -120 -201q-25 -117 35 -201q60 -85 176 -85q117 0 215 85q94 84 119 201
q25 118 -34 201zM415 -491l66 309h325l-66 -309h-325z" />
    <glyph glyph-name="uni1ECE" unicode="&#x1ece;" horiz-adv-x="1742" 
d="M1477 196q-281 -225 -616 -225q-326 0 -512 221q-190 224 -121 547q36 172 128 324q48 81 135 170q302 311 707 311q334 0 518 -226q185 -227 115 -560q-71 -334 -354 -562zM1398 1068q-91 136 -271 136q-182 0 -328 -132q-141 -127 -179 -310q-40 -187 47 -316
q91 -135 275 -135q177 0 324 136q139 129 177 309q39 183 -45 312zM1481 1821q-16 -19 -39 -39q-16 -16 -40 -35l-42 -32q-23 -18 -36 -31q-39 -35 -49 -68h-174q11 46 47 90q15 17 36 36q15 14 38 33l37 31q21 18 35 31q33 34 40 65q13 62 -45 62q-41 0 -63 -30
q-16 -20 -26 -66h-183q0 4 1 9l1 9q24 110 116 181q89 68 200 68q153 0 191 -120q14 -45 4 -92q-11 -55 -49 -102z" />
    <glyph glyph-name="uni1ECF" unicode="&#x1ecf;" horiz-adv-x="1363" 
d="M1147 137q-211 -172 -473 -172t-400 172q-139 172 -84 432q56 261 268 433q211 172 473 172t400 -172q140 -172 84 -433q-55 -260 -268 -432zM1041 770q-61 86 -178 86q-116 0 -213 -86q-95 -83 -120 -201q-25 -117 35 -201q60 -85 176 -85q117 0 215 85q94 84 119 201
q25 118 -34 201zM1220 1487q-15 -19 -37 -39q-16 -16 -41 -35l-41 -32q-23 -18 -38 -31q-37 -35 -47 -68h-174q11 46 47 90q15 17 35 36q15 14 39 33l37 31q21 18 34 31q34 34 41 65q13 62 -45 62q-41 0 -64 -30q-15 -20 -26 -66h-183q0 4 1 9l2 9q24 110 116 181
q88 68 200 68q152 0 191 -120q14 -45 4 -92q-12 -55 -51 -102z" />
    <glyph glyph-name="uni1ED0" unicode="&#x1ed0;" horiz-adv-x="1742" 
d="M1477 196q-281 -225 -616 -225q-326 0 -512 221q-190 224 -121 547q36 172 128 324q48 81 135 170q302 311 707 311q334 0 518 -226q185 -227 115 -560q-71 -334 -354 -562zM1398 1068q-91 136 -271 136q-182 0 -328 -132q-141 -127 -179 -310q-40 -187 47 -316
q91 -135 275 -135q177 0 324 136q139 129 177 309q39 183 -45 312zM1614 1821l-54 201l547 264l58 -242zM1316 1649l-69 118l-119 -118h-332l391 340h221l236 -340h-328z" />
    <glyph glyph-name="uni1ED1" unicode="&#x1ed1;" horiz-adv-x="1363" 
d="M1147 137q-211 -172 -473 -172t-400 172q-139 172 -84 432q56 261 268 433q211 172 473 172t400 -172q140 -172 84 -433q-55 -260 -268 -432zM1041 770q-61 86 -178 86q-116 0 -213 -86q-95 -83 -120 -201q-25 -117 35 -201q60 -85 176 -85q117 0 215 85q94 84 119 201
q25 118 -34 201zM1352 1476l-54 201l548 264l56 -242zM1057 1311l-70 119l-119 -119h-332l392 340h221l235 -340h-327z" />
    <glyph glyph-name="uni1ED2" unicode="&#x1ed2;" horiz-adv-x="1742" 
d="M1477 196q-281 -225 -616 -225q-326 0 -512 221q-190 224 -121 547q36 172 128 324q48 81 135 170q302 311 707 311q334 0 518 -226q185 -227 115 -560q-71 -334 -354 -562zM1398 1068q-91 136 -271 136q-182 0 -328 -132q-141 -127 -179 -310q-40 -187 47 -316
q91 -135 275 -135q177 0 324 136q139 129 177 309q39 183 -45 312zM1638 1960l-459 221l155 240l440 -262zM1316 1649l-69 118l-119 -118h-332l391 340h221l236 -340h-328z" />
    <glyph glyph-name="uni1ED3" unicode="&#x1ed3;" horiz-adv-x="1363" 
d="M1147 137q-211 -172 -473 -172t-400 172q-139 172 -84 432q56 261 268 433q211 172 473 172t400 -172q140 -172 84 -433q-55 -260 -268 -432zM1041 770q-61 86 -178 86q-116 0 -213 -86q-95 -83 -120 -201q-25 -117 35 -201q60 -85 176 -85q117 0 215 85q94 84 119 201
q25 118 -34 201zM1350 1627l-459 222l156 239l439 -262zM1057 1311l-70 119l-119 -119h-332l392 340h221l235 -340h-327z" />
    <glyph glyph-name="uni1ED4" unicode="&#x1ed4;" horiz-adv-x="1742" 
d="M1477 196q-281 -225 -616 -225q-326 0 -512 221q-190 224 -121 547q36 172 128 324q48 81 135 170q302 311 707 311q334 0 518 -226q185 -227 115 -560q-71 -334 -354 -562zM1398 1068q-91 136 -271 136q-182 0 -328 -132q-141 -127 -179 -310q-40 -187 47 -316
q91 -135 275 -135q177 0 324 136q139 129 177 309q39 183 -45 312zM1901 2145q-17 -19 -39 -39q-16 -16 -40 -35l-42 -32q-23 -18 -37 -31q-38 -35 -48 -68h-174q11 46 47 90q15 17 36 36q15 14 38 33l37 31q21 18 35 31q33 34 40 65q13 62 -45 62q-41 0 -63 -30
q-16 -20 -26 -66h-183v9l2 9q24 110 116 181q89 68 200 68q153 0 191 -120q14 -45 4 -92q-11 -55 -49 -102zM1316 1649l-69 118l-119 -118h-332l391 340h221l236 -340h-328z" />
    <glyph glyph-name="uni1ED5" unicode="&#x1ed5;" horiz-adv-x="1363" 
d="M1147 137q-211 -172 -473 -172t-400 172q-139 172 -84 432q56 261 268 433q211 172 473 172t400 -172q140 -172 84 -433q-55 -260 -268 -432zM1041 770q-61 86 -178 86q-116 0 -213 -86q-95 -83 -120 -201q-25 -117 35 -201q60 -85 176 -85q117 0 215 85q94 84 119 201
q25 118 -34 201zM1627 1784q-16 -19 -38 -39q-16 -16 -41 -35l-41 -32q-23 -18 -38 -31q-37 -35 -47 -68h-174q11 46 47 90q15 17 35 36q15 14 39 33l37 31q21 18 34 31q34 34 41 65q13 62 -45 62q-41 0 -63 -30q-16 -20 -26 -66h-183q-1 4 0 9l2 9q24 110 116 181
q88 68 200 68q152 0 191 -120q14 -45 4 -92q-11 -55 -50 -102zM1057 1311l-70 119l-119 -119h-332l392 340h221l235 -340h-327z" />
    <glyph glyph-name="uni1ED6" unicode="&#x1ed6;" horiz-adv-x="1742" 
d="M1477 196q-281 -225 -616 -225q-326 0 -512 221q-190 224 -121 547q36 172 128 324q48 81 135 170q302 311 707 311q334 0 518 -226q185 -227 115 -560q-71 -334 -354 -562zM1398 1068q-91 136 -271 136q-182 0 -328 -132q-141 -127 -179 -310q-40 -187 47 -316
q91 -135 275 -135q177 0 324 136q139 129 177 309q39 183 -45 312zM1831 2091q-136 -76 -247 -76q-34 0 -79 8l-161 37q-44 8 -77 8q-36 0 -77 -12l-78 -27l-85 181q64 32 119 50q66 21 121 21q38 0 83 -8q17 -3 39 -8l78 -19q22 -5 40 -8q45 -8 82 -8q67 0 157 35z
M1316 1649l-69 118l-119 -118h-332l391 340h221l236 -340h-328z" />
    <glyph glyph-name="uni1ED7" unicode="&#x1ed7;" horiz-adv-x="1363" 
d="M1147 137q-211 -172 -473 -172t-400 172q-139 172 -84 432q56 261 268 433q211 172 473 172t400 -172q140 -172 84 -433q-55 -260 -268 -432zM1041 770q-61 86 -178 86q-116 0 -213 -86q-95 -83 -120 -201q-25 -117 35 -201q60 -85 176 -85q117 0 215 85q94 84 119 201
q25 118 -34 201zM1553 1753q-136 -76 -247 -76q-35 0 -79 9l-162 36q-43 8 -76 8q-37 0 -77 -11l-78 -27l-85 180q64 33 119 50q65 21 121 21q37 0 82 -8q18 -3 40 -8l78 -19q22 -5 39 -8q44 -8 82 -8q67 0 157 35zM1057 1311l-70 119l-119 -119h-332l392 340h221l235 -340
h-327z" />
    <glyph glyph-name="uni1ED8" unicode="&#x1ed8;" horiz-adv-x="1742" 
d="M1477 196q-281 -225 -616 -225q-326 0 -512 221q-190 224 -121 547q36 172 128 324q48 81 135 170q302 311 707 311q334 0 518 -226q185 -227 115 -560q-71 -334 -354 -562zM1398 1068q-91 136 -271 136q-182 0 -328 -132q-141 -127 -179 -310q-40 -187 47 -316
q91 -135 275 -135q177 0 324 136q139 129 177 309q39 183 -45 312zM603 -491l66 309h326l-66 -309h-326zM1316 1649l-69 118l-119 -118h-332l391 340h221l236 -340h-328z" />
    <glyph glyph-name="uni1ED9" unicode="&#x1ed9;" horiz-adv-x="1363" 
d="M1147 137q-211 -172 -473 -172t-400 172q-139 172 -84 432q56 261 268 433q211 172 473 172t400 -172q140 -172 84 -433q-55 -260 -268 -432zM1041 770q-61 86 -178 86q-116 0 -213 -86q-95 -83 -120 -201q-25 -117 35 -201q60 -85 176 -85q117 0 215 85q94 84 119 201
q25 118 -34 201zM415 -491l66 309h325l-66 -309h-325zM1057 1311l-70 119l-119 -119h-332l392 340h221l235 -340h-327z" />
    <glyph glyph-name="uni1EDA" unicode="&#x1eda;" horiz-adv-x="1742" 
d="M1397 1068q-90 136 -271 136t-327 -132q-141 -127 -179 -310q-40 -187 46 -316q91 -135 276 -135q177 0 324 136q139 129 177 309q39 183 -46 312zM1045 1589l-54 201l548 264l57 -242zM1748 1274q147 -215 83 -516q-71 -334 -355 -562q-280 -225 -616 -225
q-325 0 -511 221q-190 224 -121 547q36 172 128 324q48 81 134 170q303 311 707 311q282 0 458 -161q10 4 22 8q115 51 136 149h-80l48 228h229l-50 -235q-44 -145 -140 -216q-36 -25 -72 -43z" />
    <glyph glyph-name="uni1EDB" unicode="&#x1edb;" horiz-adv-x="1363" 
d="M1040 770q-61 86 -177 86t-213 -86q-95 -83 -120 -201q-25 -117 35 -201q60 -85 176 -85t214 85q94 84 119 201q25 118 -34 201zM790 1272l-54 201l548 264l57 -242zM1378 931q81 -152 36 -362q-55 -260 -267 -432q-211 -172 -473 -172t-401 172q-138 172 -83 432
q56 261 267 433q212 172 474 172q231 0 366 -133q85 49 103 132h-80l48 228h229l-50 -235q-45 -145 -141 -216q-14 -10 -28 -19z" />
    <glyph glyph-name="uni1EDC" unicode="&#x1edc;" horiz-adv-x="1742" 
d="M1397 1068q-90 136 -271 136t-327 -132q-141 -127 -179 -310q-40 -187 46 -316q91 -135 276 -135q177 0 324 136q139 129 177 309q39 183 -46 312zM1372 1589l-459 221l156 240l440 -262zM1748 1274q147 -215 83 -516q-71 -334 -355 -562q-280 -225 -616 -225
q-325 0 -511 221q-190 224 -121 547q36 172 128 324q48 81 134 170q303 311 707 311q282 0 458 -161q10 4 22 8q115 51 136 149h-80l48 228h229l-50 -235q-44 -145 -140 -216q-36 -25 -72 -43z" />
    <glyph glyph-name="uni1EDD" unicode="&#x1edd;" horiz-adv-x="1363" 
d="M1040 770q-61 86 -177 86t-213 -86q-95 -83 -120 -201q-25 -117 35 -201q60 -85 176 -85t214 85q94 84 119 201q25 118 -34 201zM1115 1257l-459 222l154 239l441 -262zM1378 931q81 -152 36 -362q-55 -260 -267 -432q-211 -172 -473 -172t-401 172q-138 172 -83 432
q56 261 267 433q212 172 474 172q231 0 366 -133q85 49 103 132h-80l48 228h229l-50 -235q-45 -145 -141 -216q-14 -10 -28 -19z" />
    <glyph glyph-name="uni1EDE" unicode="&#x1ede;" horiz-adv-x="1742" 
d="M1397 1068q-90 136 -271 136t-327 -132q-141 -127 -179 -310q-40 -187 46 -316q91 -135 276 -135q177 0 324 136q139 129 177 309q39 183 -46 312zM1481 1821q-16 -19 -39 -39q-16 -16 -41 -35l-41 -32q-23 -18 -37 -31q-38 -35 -48 -68h-174q11 46 47 90q15 17 35 36
q15 14 39 33l37 31q21 18 34 31q34 34 41 65q13 62 -45 62q-41 0 -63 -30q-16 -20 -26 -66h-183q-1 4 1 9l1 9q24 110 116 181q88 68 200 68q152 0 191 -120q14 -45 4 -92q-11 -55 -49 -102zM1748 1274q147 -215 83 -516q-71 -334 -355 -562q-280 -225 -616 -225
q-325 0 -511 221q-190 224 -121 547q36 172 128 324q48 81 134 170q303 311 707 311q282 0 458 -161q10 4 22 8q115 51 136 149h-80l48 228h229l-50 -235q-44 -145 -140 -216q-36 -25 -72 -43z" />
    <glyph glyph-name="uni1EDF" unicode="&#x1edf;" horiz-adv-x="1363" 
d="M1040 770q-61 86 -177 86t-213 -86q-95 -83 -120 -201q-25 -117 35 -201q60 -85 176 -85t214 85q94 84 119 201q25 118 -34 201zM1220 1487q-16 -19 -37 -39q-17 -16 -41 -35l-41 -32q-24 -18 -38 -31q-38 -35 -48 -68h-174q11 46 47 90q15 17 36 36q15 14 38 33l38 31
q21 18 34 31q33 34 40 65q13 62 -45 62q-41 0 -64 -30q-15 -20 -26 -66h-183q1 4 2 9l1 9q24 110 116 181q89 68 200 68q153 0 191 -120q14 -45 4 -92q-12 -55 -50 -102zM1378 931q81 -152 36 -362q-55 -260 -267 -432q-211 -172 -473 -172t-401 172q-138 172 -83 432
q56 261 267 433q212 172 474 172q231 0 366 -133q85 49 103 132h-80l48 228h229l-50 -235q-45 -145 -141 -216q-14 -10 -28 -19z" />
    <glyph glyph-name="uni1EE0" unicode="&#x1ee0;" horiz-adv-x="1742" 
d="M1477 196q-281 -225 -616 -225q-326 0 -512 221q-190 224 -121 547q36 172 128 324q48 81 135 170q302 311 707 311q334 0 518 -226q185 -227 115 -560q-71 -334 -354 -562zM1398 1068q-91 136 -271 136q-182 0 -328 -132q-141 -127 -179 -310q-40 -187 47 -316
q91 -135 275 -135q177 0 324 136q139 129 177 309q39 183 -45 312zM1654 1739q-136 -76 -247 -76q-34 0 -79 8l-160 37q-45 8 -78 8q-36 0 -77 -12l-78 -27l-84 181q63 32 118 50q67 21 122 21q38 0 82 -8q17 -3 39 -8l78 -19q22 -5 40 -8q45 -8 82 -8q67 0 157 35z
M1781 1768h229l-50 -235q-44 -145 -141 -216t-202 -83l-101 -8l38 144l39 -1q24 1 84 22q115 51 136 149h-80z" />
    <glyph glyph-name="uni1EE1" unicode="&#x1ee1;" horiz-adv-x="1363" 
d="M1040 770q-61 86 -177 86t-213 -86q-95 -83 -120 -201q-25 -117 35 -201q60 -85 176 -85t214 85q94 84 119 201q25 118 -34 201zM1502 1511q-137 -76 -248 -76q-34 0 -78 9l-161 36q-44 8 -76 8q-37 0 -79 -11l-77 -27l-85 180q64 33 118 50q67 21 123 21q37 0 81 -8
q18 -3 39 -8l79 -19q21 -5 40 -8q44 -8 81 -8q68 0 157 35zM1378 931q81 -152 36 -362q-55 -260 -267 -432q-211 -172 -473 -172t-401 172q-138 172 -83 432q56 261 267 433q212 172 474 172q231 0 366 -133q85 49 103 132h-80l48 228h229l-50 -235q-45 -145 -141 -216
q-14 -10 -28 -19z" />
    <glyph glyph-name="uni1EE2" unicode="&#x1ee2;" horiz-adv-x="1742" 
d="M1397 1068q-90 136 -271 136t-327 -132q-141 -127 -179 -310q-40 -187 46 -316q91 -135 276 -135q177 0 324 136q139 129 177 309q39 183 -46 312zM603 -491l66 309h325l-66 -309h-325zM1748 1274q147 -215 83 -516q-71 -334 -355 -562q-280 -225 -616 -225
q-325 0 -511 221q-190 224 -121 547q36 172 128 324q48 81 134 170q303 311 707 311q282 0 458 -161q10 4 22 8q115 51 136 149h-80l48 228h229l-50 -235q-44 -145 -140 -216q-36 -25 -72 -43z" />
    <glyph glyph-name="uni1EE3" unicode="&#x1ee3;" horiz-adv-x="1363" 
d="M1040 770q-61 86 -177 86t-213 -86q-95 -83 -120 -201q-25 -117 35 -201q60 -85 176 -85t214 85q94 84 119 201q25 118 -34 201zM414 -491l66 309h326l-66 -309h-326zM1378 931q81 -152 36 -362q-55 -260 -267 -432q-211 -172 -473 -172t-401 172q-138 172 -83 432
q56 261 267 433q212 172 474 172q231 0 366 -133q85 49 103 132h-80l48 228h229l-50 -235q-45 -145 -141 -216q-14 -10 -28 -19z" />
    <glyph glyph-name="uni1EE4" unicode="&#x1ee4;" horiz-adv-x="1429" 
d="M1423 600q-33 -155 -79 -251q-61 -123 -171 -214q-195 -164 -458 -164q-128 0 -229 37q-113 42 -173 125q-74 101 -82 216q-3 52 5 117q7 52 24 134l195 916h387l-195 -916q-12 -60 -16 -103q-3 -55 8 -93q26 -93 144 -93q122 0 183 91q25 37 44 92q12 40 26 106l195 916
h387zM447 -491l66 309h325l-66 -309h-325z" />
    <glyph glyph-name="uni1EE5" unicode="&#x1ee5;" horiz-adv-x="1298" 
d="M853 0l26 121h-4q-60 -87 -148 -125q-76 -33 -180 -33q-217 0 -304 143q-47 80 -50 166q-3 65 23 185l144 680h340l-134 -629q-23 -110 0 -162q28 -65 134 -65q195 0 244 231l133 625h340l-242 -1137h-322zM414 -491l66 309h326l-66 -309h-326z" />
    <glyph glyph-name="uni1EE6" unicode="&#x1ee6;" horiz-adv-x="1429" 
d="M1423 600q-33 -155 -79 -251q-61 -123 -171 -214q-195 -164 -458 -164q-128 0 -229 37q-113 42 -173 125q-74 101 -82 216q-3 52 5 117q7 52 24 134l195 916h387l-195 -916q-12 -60 -16 -103q-3 -55 8 -93q26 -93 144 -93q122 0 183 91q25 37 44 92q12 40 26 106l195 916
h387zM1343 1821q-15 -19 -37 -39q-17 -16 -42 -35l-41 -32q-23 -18 -37 -31q-38 -35 -48 -68h-174q10 46 47 90q15 17 35 36q15 14 39 33l38 31q20 18 33 31q34 34 41 65q13 62 -45 62q-41 0 -63 -30q-15 -20 -26 -66h-183q0 4 1 9l2 9q23 110 115 181q89 68 201 68
q152 0 190 -120q15 -45 5 -92q-12 -55 -51 -102z" />
    <glyph glyph-name="uni1EE7" unicode="&#x1ee7;" horiz-adv-x="1298" 
d="M853 0l26 121h-4q-60 -87 -148 -125q-76 -33 -180 -33q-217 0 -304 143q-47 80 -50 166q-3 65 23 185l144 680h340l-134 -629q-23 -110 0 -162q28 -65 134 -65q195 0 244 231l133 625h340l-242 -1137h-322zM1220 1487q-15 -19 -37 -39q-17 -16 -41 -35l-41 -32
q-24 -18 -38 -31q-37 -35 -47 -68h-174q10 46 46 90q15 17 36 36q15 14 38 33l38 31q21 18 34 31q34 34 41 65q13 62 -45 62q-42 0 -64 -30q-15 -20 -26 -66h-183q0 4 1 9l2 9q24 110 115 181q89 68 201 68q152 0 191 -120q14 -45 4 -92q-12 -55 -51 -102z" />
    <glyph glyph-name="uni1EE8" unicode="&#x1ee8;" horiz-adv-x="1429" 
d="M963 1589l-55 201l548 264l57 -242zM1563 1257l-140 -657q-33 -155 -79 -251q-61 -123 -171 -214q-195 -164 -458 -164q-127 0 -229 37q-113 42 -173 125q-74 101 -82 216q-3 52 6 117q6 52 23 134l195 916h387l-195 -916q-12 -60 -16 -103q-3 -55 8 -93q26 -93 144 -93
q122 0 183 91q26 37 44 92q12 40 26 106l195 916h387l-17 -81q50 43 63 105h-80l49 228h229l-50 -235q-45 -145 -141 -216q-53 -38 -108 -60z" />
    <glyph glyph-name="uni1EE9" unicode="&#x1ee9;" horiz-adv-x="1298" 
d="M829 1272l-54 201l548 264l57 -242zM1362 878l-187 -878h-322l26 121h-4q-60 -87 -148 -125q-76 -33 -180 -33q-217 0 -304 143q-47 80 -51 166q-2 65 24 185l144 680h340l-134 -629q-23 -110 -1 -162q29 -65 135 -65q195 0 244 231l133 625h340l-21 -98q88 50 106 134
h-80l48 228h229l-50 -235q-45 -145 -141 -216q-71 -52 -146 -72z" />
    <glyph glyph-name="uni1EEA" unicode="&#x1eea;" horiz-adv-x="1429" 
d="M1147 1589l-460 221l157 240l439 -262zM1563 1257l-140 -657q-33 -155 -79 -251q-61 -123 -171 -214q-195 -164 -458 -164q-127 0 -229 37q-113 42 -173 125q-74 101 -82 216q-3 52 6 117q6 52 23 134l195 916h387l-195 -916q-12 -60 -16 -103q-3 -55 8 -93
q26 -93 144 -93q122 0 183 91q26 37 44 92q12 40 26 106l195 916h387l-17 -81q50 43 63 105h-80l49 228h229l-50 -235q-45 -145 -141 -216q-53 -38 -108 -60z" />
    <glyph glyph-name="uni1EEB" unicode="&#x1eeb;" horiz-adv-x="1298" 
d="M1010 1257l-458 222l155 239l440 -262zM1362 878l-187 -878h-322l26 121h-4q-60 -87 -148 -125q-76 -33 -180 -33q-217 0 -304 143q-47 80 -51 166q-2 65 24 185l144 680h340l-134 -629q-23 -110 -1 -162q29 -65 135 -65q195 0 244 231l133 625h340l-21 -98
q88 50 106 134h-80l48 228h229l-50 -235q-45 -145 -141 -216q-71 -52 -146 -72z" />
    <glyph glyph-name="uni1EEC" unicode="&#x1eec;" horiz-adv-x="1429" 
d="M1344 1821q-16 -19 -38 -39q-17 -16 -42 -35l-41 -32q-23 -18 -37 -31q-38 -35 -48 -68h-174q11 46 47 90q15 17 35 36q15 14 39 33l38 31q20 18 33 31q34 34 41 65q13 62 -45 62q-41 0 -63 -30q-15 -20 -26 -66h-183q0 4 1 9l2 9q23 110 115 181q89 68 201 68
q152 0 190 -120q15 -45 5 -92q-12 -55 -50 -102zM1563 1257l-140 -657q-33 -155 -79 -251q-61 -123 -171 -214q-195 -164 -458 -164q-127 0 -229 37q-113 42 -173 125q-74 101 -82 216q-3 52 6 117q6 52 23 134l195 916h387l-195 -916q-12 -60 -16 -103q-3 -55 8 -93
q26 -93 144 -93q122 0 183 91q26 37 44 92q12 40 26 106l195 916h387l-17 -81q50 43 63 105h-80l49 228h229l-50 -235q-45 -145 -141 -216q-53 -38 -108 -60z" />
    <glyph glyph-name="uni1EED" unicode="&#x1eed;" horiz-adv-x="1298" 
d="M1220 1487q-16 -19 -37 -39q-17 -16 -41 -35l-41 -32q-24 -18 -38 -31q-38 -35 -48 -68h-174q11 46 47 90q15 17 36 36q15 14 38 33l38 31q21 18 34 31q33 34 40 65q13 62 -45 62q-41 0 -64 -30q-15 -20 -26 -66h-183q1 4 2 9l1 9q24 110 116 181q89 68 200 68
q153 0 191 -120q14 -45 4 -92q-12 -55 -50 -102zM1362 878l-187 -878h-322l26 121h-4q-60 -87 -148 -125q-76 -33 -180 -33q-217 0 -304 143q-47 80 -51 166q-2 65 24 185l144 680h340l-134 -629q-23 -110 -1 -162q29 -65 135 -65q195 0 244 231l133 625h340l-21 -98
q88 50 106 134h-80l48 228h229l-50 -235q-45 -145 -141 -216q-71 -52 -146 -72z" />
    <glyph glyph-name="uni1EEE" unicode="&#x1eee;" horiz-adv-x="1429" 
d="M1479 1739q-136 -76 -247 -76q-34 0 -79 8l-161 37q-43 8 -76 8q-37 0 -78 -12l-78 -27l-84 181q63 32 118 50q66 21 122 21q38 0 82 -8q17 -3 39 -8l78 -19q22 -5 40 -8q44 -8 82 -8q67 0 156 35zM1563 1257l-140 -657q-33 -155 -79 -251q-61 -123 -171 -214
q-195 -164 -458 -164q-127 0 -229 37q-113 42 -173 125q-74 101 -82 216q-3 52 6 117q6 52 23 134l195 916h387l-195 -916q-12 -60 -16 -103q-3 -55 8 -93q26 -93 144 -93q122 0 183 91q26 37 44 92q12 40 26 106l195 916h387l-17 -81q50 43 63 105h-80l49 228h229l-50 -235
q-45 -145 -141 -216q-53 -38 -108 -60z" />
    <glyph glyph-name="uni1EEF" unicode="&#x1eef;" horiz-adv-x="1298" 
d="M1397 1409q-137 -76 -248 -76q-34 0 -78 9l-162 36q-44 8 -76 8q-37 0 -78 -11l-78 -27l-85 180q64 33 119 50q66 21 122 21q37 0 82 -8q17 -3 39 -8l79 -19q21 -5 39 -8q44 -8 81 -8q68 0 158 35zM1362 878l-187 -878h-322l26 121h-4q-60 -87 -148 -125
q-76 -33 -180 -33q-217 0 -304 143q-47 80 -51 166q-2 65 24 185l144 680h340l-134 -629q-23 -110 -1 -162q29 -65 135 -65q195 0 244 231l133 625h340l-21 -98q88 50 106 134h-80l48 228h229l-50 -235q-45 -145 -141 -216q-71 -52 -146 -72z" />
    <glyph glyph-name="uni1EF0" unicode="&#x1ef0;" horiz-adv-x="1429" 
d="M447 -491l66 309h326l-66 -309h-326zM1563 1257l-140 -657q-33 -155 -79 -251q-61 -123 -171 -214q-195 -164 -458 -164q-127 0 -229 37q-113 42 -173 125q-74 101 -82 216q-3 52 6 117q6 52 23 134l195 916h387l-195 -916q-12 -60 -16 -103q-3 -55 8 -93q26 -93 144 -93
q122 0 183 91q26 37 44 92q12 40 26 106l195 916h387l-17 -81q50 43 63 105h-80l49 228h229l-50 -235q-45 -145 -141 -216q-53 -38 -108 -60z" />
    <glyph glyph-name="uni1EF1" unicode="&#x1ef1;" horiz-adv-x="1298" 
d="M414 -491l66 309h326l-66 -309h-326zM1362 878l-187 -878h-322l26 121h-4q-60 -87 -148 -125q-76 -33 -180 -33q-217 0 -304 143q-47 80 -51 166q-2 65 24 185l144 680h340l-134 -629q-23 -110 -1 -162q29 -65 135 -65q195 0 244 231l133 625h340l-21 -98q88 50 106 134
h-80l48 228h229l-50 -235q-45 -145 -141 -216q-71 -52 -146 -72z" />
    <glyph glyph-name="Ygrave" unicode="&#x1ef2;" horiz-adv-x="1325" 
d="M975 551l-117 -551h-387l117 551l-248 965h420l96 -609l356 609h416zM1147 1589l-460 221l156 240l440 -262z" />
    <glyph glyph-name="ygrave" unicode="&#x1ef3;" horiz-adv-x="1175" 
d="M523 -379h-360l273 436l-193 1080h362l88 -660h4l357 660h360zM570 1495l161 242l435 -264l-139 -201z" />
    <glyph glyph-name="uni1EF4" unicode="&#x1ef4;" horiz-adv-x="1325" 
d="M975 551l-117 -551h-387l117 551l-248 965h420l96 -609l356 609h416zM399 -491l66 309h326l-66 -309h-326z" />
    <glyph glyph-name="uni1EF5" unicode="&#x1ef5;" horiz-adv-x="1175" 
d="M523 -379h-360l273 436l-193 1080h362l88 -660h4l357 660h360zM608 -491l66 309h326l-66 -309h-326z" />
    <glyph glyph-name="uni1EF6" unicode="&#x1ef6;" horiz-adv-x="1325" 
d="M975 551l-117 -551h-387l117 551l-248 965h420l96 -609l356 609h416zM1296 1821q-16 -19 -37 -39q-18 -16 -42 -35l-41 -32q-24 -18 -37 -31q-39 -35 -49 -68h-174q11 46 47 90q15 17 36 36q15 14 38 33l39 31q20 18 33 31q33 34 40 65q13 62 -45 62q-41 0 -63 -30
q-15 -20 -26 -66h-183q1 4 2 9l1 9q23 110 115 181q90 68 201 68q153 0 190 -120q15 -45 5 -92q-12 -55 -50 -102z" />
    <glyph glyph-name="uni1EF7" unicode="&#x1ef7;" horiz-adv-x="1175" 
d="M523 -379h-360l273 436l-193 1080h362l88 -660h4l357 660h360zM1184 1487q-16 -19 -38 -39q-17 -16 -41 -35l-41 -32q-24 -18 -37 -31q-39 -35 -49 -68h-174q11 46 47 90q15 17 36 36q15 14 38 33l38 31q21 18 34 31q33 34 40 65q13 62 -45 62q-41 0 -63 -30
q-16 -20 -26 -66h-183q0 4 2 9v9q24 110 116 181q89 68 200 68q153 0 191 -120q14 -45 4 -92q-11 -55 -49 -102z" />
    <glyph glyph-name="uni1EF8" unicode="&#x1ef8;" horiz-adv-x="1325" 
d="M975 551l-117 -551h-387l117 551l-248 965h420l96 -609l356 609h416zM1479 1739q-137 -76 -248 -76q-34 0 -78 8l-161 37q-44 8 -76 8q-37 0 -79 -12l-78 -27l-84 181q63 32 118 50q67 21 123 21q37 0 81 -8q17 -3 39 -8l79 -19q21 -5 40 -8q44 -8 81 -8q68 0 157 35z
" />
    <glyph glyph-name="uni1EF9" unicode="&#x1ef9;" horiz-adv-x="1175" 
d="M523 -379h-360l273 436l-193 1080h362l88 -660h4l357 660h360zM1332 1409q-137 -76 -248 -76q-34 0 -78 9l-162 36q-44 8 -76 8q-37 0 -78 -11l-78 -27l-85 180q64 33 119 50q66 21 122 21q37 0 82 -8q17 -3 39 -8l79 -19q21 -5 39 -8q45 -8 82 -8q68 0 157 35z" />
    <glyph glyph-name="quoteleft" unicode="&#x2018;" horiz-adv-x="631" 
d="M315 838l91 430q22 102 89 171q74 77 173 77h147l-39 -185l-50 1q-32 -1 -54 -6q-61 -14 -73 -71l-15 -69h161l-74 -348h-356z" />
    <glyph glyph-name="quoteright" unicode="&#x2019;" horiz-adv-x="612" 
d="M724 1085q-23 -104 -88 -172q-73 -75 -174 -75h-147l39 182l50 -1q33 1 55 6q61 14 73 73l15 69h-162l74 349h356z" />
    <glyph glyph-name="quotedblleft" unicode="&#x201c;" horiz-adv-x="1136" 
d="M821 838l91 430q22 102 89 171q74 77 173 77h147l-39 -185l-50 1q-32 -1 -54 -6q-62 -14 -74 -71l-15 -69h162l-74 -348h-356zM315 838l91 430q22 102 89 171q74 77 173 77h147l-39 -185l-50 1q-32 -1 -54 -6q-61 -14 -73 -71l-15 -69h161l-74 -348h-356z" />
    <glyph glyph-name="quotedblright" unicode="&#x201d;" horiz-adv-x="1136" 
d="M1230 1085q-23 -104 -88 -172q-73 -75 -174 -75h-147l39 182l50 -1q32 1 54 6q60 14 72 73l15 69h-160l74 349h356zM724 1085q-23 -104 -88 -172q-73 -75 -174 -75h-147l39 182l50 -1q33 1 55 6q61 14 73 73l15 69h-162l74 349h356z" />
    <glyph glyph-name="ellipsis" unicode="&#x2026;" horiz-adv-x="2048" 
d="M1529 0l74 348h354l-74 -348h-354zM847 0l74 348h354l-74 -348h-354zM165 0l74 348h354l-74 -348h-354z" />
    <glyph glyph-name="ugrave" horiz-adv-x="582" 
 />
    <glyph glyph-name="uacute" horiz-adv-x="580" 
 />
    <glyph glyph-name="yacute" horiz-adv-x="629" 
 />
    </font>
</defs>
</svg>
