<?xml version="1.0" encoding="UTF-8"?>
<svg width="10px" height="19px" viewBox="0 0 10 19" version="1.1" xmlns="http://www.w3.org/2000/svg" xmlns:xlink="http://www.w3.org/1999/xlink">
    <!-- Generator: Sketch 63.1 (92452) - https://sketch.com -->
    <title>Path</title>
    <desc>Created with Sketch.</desc>
    <g id="Page-1" stroke="none" stroke-width="1" fill="none" fill-rule="evenodd">
        <g id="Mobile---TUYỂN-SINH-landing-page" transform="translate(-143.000000, -10771.000000)" fill="#000000">
            <g id="Group-10" transform="translate(0.000000, 805.000000)">
                <g id="Group-8" transform="translate(0.000000, 9509.000000)">
                    <g id="Group-12-Copy" transform="translate(143.000000, 457.000000)">
                        <path d="M9.62342935,0.00395326821 L7.22488407,0 C4.5302007,0 2.78877793,1.83530477 2.78877793,4.67592564 L2.78877793,6.83184045 L0.377147915,6.83184045 C0.16875445,6.83184045 0,7.00538893 0,7.2194584 L0,10.3431333 C0,10.5572028 0.168946872,10.7305536 0.377147915,10.7305536 L2.78877793,10.7305536 L2.78877793,18.6125797 C2.78877793,18.8266492 2.95753238,19 3.16592584,19 L6.31241702,19 C6.52081048,19 6.68956493,18.8264515 6.68956493,18.6125797 L6.68956493,10.7305536 L9.50932287,10.7305536 C9.71771633,10.7305536 9.88647078,10.5572028 9.88647078,10.3431333 L9.88762532,7.2194584 C9.88762532,7.11667343 9.84779388,7.01823705 9.77717485,6.94549692 C9.70655583,6.87275678 9.61034463,6.83184045 9.51028498,6.83184045 L6.68956493,6.83184045 L6.68956493,5.00424456 C6.68956493,4.12582837 6.89334026,3.67989971 8.00727357,3.67989971 L9.62304451,3.67930672 C9.83124555,3.67930672 10,3.50575825 10,3.29188644 L10,0.391373553 C10,0.177699406 9.83143797,0.00434859503 9.62342935,0.00395326821 Z" id="Path"></path>
                    </g>
                </g>
            </g>
        </g>
    </g>
</svg>