<?xml version="1.0" encoding="UTF-8"?>
<svg width="26px" height="37px" viewBox="0 0 26 37" version="1.1" xmlns="http://www.w3.org/2000/svg" xmlns:xlink="http://www.w3.org/1999/xlink">
    <!-- Generator: Sketch 64 (93537) - https://sketch.com -->
    <title>1126709</title>
    <desc>Created with Sketch.</desc>
    <g id="Page-1" stroke="none" stroke-width="1" fill="none" fill-rule="evenodd">
        <g id="04_CT-TIÊU-CHUẨN---tiền-tiểu-học" transform="translate(-355.000000, -6405.000000)">
            <g id="Group-5" transform="translate(330.000000, 6383.000000)">
                <rect id="Rectangle-Copy-18" fill="#F8F0FF" x="0" y="0" width="393" height="80"></rect>
                <g id="1126709" transform="translate(25.000000, 22.000000)" fill="#3C2270">
                    <path d="M25.3425313,36.9308274 L0.617013387,36.9308274 C0.276679978,36.9308274 0.00141451588,36.6575116 0.00141451588,36.3189597 L0.00141451588,0.686663996 C0.00141451588,0.34839344 0.276679978,0.0747963278 0.617013387,0.0747963278 L19.7730022,0.0747963278 C19.9396326,0.0747963278 20.091835,0.139751016 20.2075426,0.254757381 L25.7697162,5.78321834 C25.8857068,5.89850588 25.9509187,6.05681542 25.9509187,6.21512496 L25.9509187,36.31193 C25.9581302,36.6575116 25.6828647,36.9308274 25.3425313,36.9308274 Z M1.23996781,35.7000623 L24.7269325,35.7000623 L24.7269325,6.47438137 L19.5268759,1.30584266 L1.23996781,1.30584266 L1.23996781,35.7000623 Z" id="Shape" fill-rule="nonzero"></path>
                    <path d="M25.3425313,6.83430354 L19.7803578,6.83430354 C19.4400244,6.83430354 19.1647589,6.56070647 19.1647589,6.22243584 L19.1647589,0.686663996 C19.1647589,0.442029426 19.3166783,0.211735451 19.5486595,0.118099465 C19.7803578,0.0244634786 20.0482677,0.0747963278 20.2219708,0.254757381 L25.7841443,5.78321834 C25.9581302,5.95614972 26.0158426,6.22243584 25.9219185,6.45272982 C25.8132834,6.68302379 25.5886577,6.83430354 25.3425313,6.83430354 L25.3425313,6.83430354 Z M20.3959567,5.60325725 L23.8504961,5.60325725 L20.3959567,2.16965589 L20.3959567,5.60325725 Z" id="Shape" fill-rule="nonzero"></path>
                    <path d="M25.3425313,36.9308274 L0.617013387,36.9308274 C0.276679978,36.9308274 0.00141451588,36.6575116 0.00141451588,36.3189597 L0.00141451588,25.2623191 C0.00141451588,24.9240486 0.276679978,24.6504514 0.617013387,24.6504514 L25.3351758,24.6504514 C25.6755092,24.6504514 25.9509187,24.9240486 25.9509187,25.2623191 L25.9509187,36.3189597 C25.9581302,36.6575116 25.6828647,36.9308274 25.3425313,36.9308274 Z M1.23996781,35.7000623 L24.7269325,35.7000623 L24.7269325,25.8741868 L1.23996781,25.8741868 L1.23996781,35.7000623 Z" id="Shape" fill-rule="nonzero"></path>
                    <path d="M4.32503482,34.4763269 C3.98470141,34.4763269 3.70943593,34.2027298 3.70943593,33.8644592 L3.70943593,27.7168196 C3.70943593,27.3785491 3.98470141,27.1049519 4.32503482,27.1049519 C4.66565111,27.1049519 4.9406337,27.3785491 4.9406337,27.7168196 L4.9406337,33.8571483 C4.94798917,34.1954189 4.66565111,34.4763269 4.32503482,34.4763269 Z" id="Path"></path>
                    <path d="M21.634227,28.3286873 L17.9262056,28.3286873 C17.5858722,28.3286873 17.3106067,28.0553715 17.3106067,27.7168196 C17.3106067,27.3785491 17.5858722,27.1049519 17.9262056,27.1049519 L21.634227,27.1049519 C21.9748433,27.1049519 22.2498259,27.3785491 22.2498259,27.7168196 C22.2498259,28.0553715 21.9748433,28.3286873 21.634227,28.3286873 Z" id="Path"></path>
                    <path d="M21.634227,31.4026478 L17.9262056,31.4026478 C17.5858722,31.4026478 17.3106067,31.1290506 17.3106067,30.7907801 C17.3106067,30.4522282 17.5858722,30.1789124 17.9262056,30.1789124 L21.634227,30.1789124 C21.9748433,30.1789124 22.2498259,30.4522282 22.2498259,30.7907801 C22.2498259,31.1290506 21.9748433,31.4026478 21.634227,31.4026478 Z" id="Path"></path>
                    <path d="M17.9262056,34.4763269 C17.5858722,34.4763269 17.3106067,34.2027298 17.3106067,33.8644592 L17.3106067,27.7168196 C17.3106067,27.3785491 17.5858722,27.1049519 17.9262056,27.1049519 C18.266539,27.1049519 18.5418045,27.3785491 18.5418045,27.7168196 L18.5418045,33.8571483 C18.5418045,34.1954189 18.266539,34.4763269 17.9262056,34.4763269 L17.9262056,34.4763269 Z" id="Path"></path>
                    <path d="M20.2873216,15.9906676 C20.0482677,15.5371094 19.4615251,15.3141264 18.4985202,15.3141264 C17.9335611,15.3141264 17.2381833,15.3861108 16.4270978,15.5300797 C15.2971797,14.3566771 14.1239772,12.6433913 13.2911081,10.959068 C13.4215268,10.4191847 13.54459,9.87199052 13.638797,9.32479629 C13.7474321,8.68424732 13.8778508,7.9500623 13.7400766,7.30220238 C13.6823642,7.04294597 13.5301619,6.81265199 13.3564589,6.61835024 C13.2042566,6.45272982 12.9943419,6.22243584 12.7479326,6.22243584 C12.6175139,6.22243584 12.2627524,6.28007968 12.1252611,6.32310161 C11.7702167,6.43838915 11.5820857,6.7119863 11.4298833,7.05728656 C10.9953429,8.05803895 11.5891582,9.75670291 12.2047571,11.0740744 C11.6760097,13.1256308 10.7998564,15.5804125 9.87278026,17.5743251 C7.54080347,18.6254104 6.30225016,19.6545628 6.18654248,20.6409746 C6.14297524,21.0008968 6.22982676,21.5261582 6.87456476,21.994057 C7.04826772,22.1236853 7.25818245,22.18864 7.46838007,22.18864 C8.00420002,22.18864 8.55473104,21.7854146 9.18475797,20.9142905 C9.64108202,20.2810524 10.1406903,19.4172392 10.6550096,18.3445024 C12.3063196,17.6389986 14.3412474,16.9984497 16.093837,16.6385275 C17.0644803,17.5526736 17.9406337,18.0205724 18.6866513,18.0205724 C19.2371823,18.0205724 19.7079344,17.7686269 20.0556233,17.3007281 C20.4103847,16.8111776 20.4901636,16.3722413 20.2873216,15.9906676 Z M7.48280811,21.166236 C7.19311452,20.9502827 7.21489817,20.8063138 7.21489817,20.7489513 C7.25110987,20.4103994 7.78692982,19.8131536 9.10497911,19.0933093 C8.11283511,20.8999499 7.57701516,21.1375547 7.48280811,21.166236 Z M12.5380179,7.30923209 C12.5668741,7.30220238 13.182473,7.97171392 12.5960132,9.25281186 C11.7195769,8.37465803 12.4726671,7.33088371 12.5380179,7.30923209 Z M11.2632529,16.9984497 C11.8862074,15.5371094 12.4726671,13.9247705 12.9072075,12.427438 C13.5952298,13.6438624 14.4280989,14.8316056 15.260968,15.7820252 C13.9502742,16.0769927 12.552446,16.5088993 11.2632529,16.9984497 Z M19.2080432,16.7105119 C19.0199121,16.9697684 18.6071553,16.9767981 18.4623085,16.9767981 C18.1364032,16.9767981 18.0130571,16.7824964 17.5060933,16.4082335 C17.919133,16.3579007 18.3101062,16.3432788 18.6215834,16.3432788 C19.1718315,16.3432788 19.273394,16.4225742 19.3458174,16.4658773 C19.3384619,16.5018696 19.3022502,16.5808837 19.2080432,16.7105119 L19.2080432,16.7105119 Z" id="Shape" fill-rule="nonzero"></path>
                    <path d="M6.17918694,32.0145155 L4.32503482,32.0145155 C3.98470141,32.0145155 3.70943593,31.7409183 3.70943593,31.4026478 L3.70943593,27.7168196 C3.70943593,27.3785491 3.98470141,27.1049519 4.32503482,27.1049519 L6.17918694,27.1049519 C7.54080347,27.1049519 8.64897169,28.2063701 8.64897169,29.5597337 C8.6560106,30.9130973 7.54787604,32.0145155 6.17918694,32.0145155 Z M4.94798917,30.7907801 L6.18654248,30.7907801 C6.86720923,30.7907801 7.42481283,30.2362749 7.42481283,29.5597337 C7.42481283,28.8831925 6.86720923,28.3286873 6.18654248,28.3286873 L4.94798917,28.3286873 L4.94798917,30.7907801 Z" id="Shape" fill-rule="nonzero"></path>
                    <path d="M11.7413606,34.4763269 L11.1257617,34.4763269 C10.7854283,34.4763269 10.5101628,34.2027298 10.5101628,33.8644592 L10.5101628,27.7168196 C10.5101628,27.3785491 10.7854283,27.1049519 11.1257617,27.1049519 L11.7413606,27.1049519 C13.7836438,27.1049519 15.4493819,28.760594 15.4493819,30.7907801 C15.4493819,32.8206849 13.7909993,34.4763269 11.7413606,34.4763269 L11.7413606,34.4763269 Z M11.7413606,28.3286873 L11.7413606,33.2452806 C13.102977,33.2452806 14.2108287,32.1438624 14.2108287,30.7907801 C14.2108287,29.4374164 13.1100496,28.3286873 11.7413606,28.3286873 Z" id="Shape" fill-rule="nonzero"></path>
                </g>
            </g>
        </g>
    </g>
</svg>