<?xml version="1.0" encoding="UTF-8"?>
<svg width="37px" height="35px" viewBox="0 0 37 35" version="1.1" xmlns="http://www.w3.org/2000/svg" xmlns:xlink="http://www.w3.org/1999/xlink">
    <!-- Generator: Sketch 64 (93537) - https://sketch.com -->
    <title>Location</title>
    <desc>Created with Sketch.</desc>
    <g id="Page-1" stroke="none" stroke-width="1" fill="none" fill-rule="evenodd">
        <g id="Mobile_00_MENU-step-2" transform="translate(-307.000000, -625.000000)">
            <rect id="Rectangle-Copy-35" fill="#471873" x="0" y="40" width="375" height="627"></rect>
            <g id="Group-4" transform="translate(0.000000, 607.000000)">
                <rect id="Rectangle" fill="#FFFFFF" x="0" y="0" width="375" height="60"></rect>
                <g id="Location" transform="translate(307.000000, 19.000000)">
                    <g id="address" transform="translate(3.000000, 0.000000)" fill="#8A8A8A" fill-rule="nonzero" stroke="#FFFFFF" stroke-width="0.1">
                        <path d="M25.7004928,18.2246094 L18.8456878,18.2246094 L22.4155884,12.5284729 C23.2367554,11.2260055 23.67099,9.72013852 23.67099,8.17382812 C23.67099,3.66687012 20.0041199,0 15.4971619,0 C10.9899674,0 7.32333374,3.66687012 7.32333374,8.17382812 C7.32333374,9.72013852 7.75733186,11.2260055 8.57731625,12.5263443 L12.1486359,18.2246094 L5.29359439,18.2246094 L-5.68434189e-14,31 L30.9940872,31 L25.7004928,18.2246094 Z M21.0424041,25.4902344 L26.7449264,25.4902344 L28.2753906,29.1835938 L21.513298,29.1835938 L21.0424041,25.4902344 Z M19.6819915,29.1835938 L11.3031082,29.1835938 L11.7621765,25.4902344 L19.2113342,25.4902344 L19.6819915,29.1835938 Z M25.9923477,23.6738281 L20.8108597,23.6738281 L20.3477707,20.0410156 L24.4869538,20.0410156 L25.9923477,23.6738281 Z M9.13973999,8.17382812 C9.13973999,4.66825864 11.9915924,1.81640625 15.4971619,1.81640625 C19.0024948,1.81640625 21.8545837,4.66825864 21.8545837,8.17382812 C21.8545837,9.37672427 21.5173187,10.5474548 20.8777923,11.561615 L15.4971619,20.1472092 L10.1151123,11.5597229 C9.47700504,10.5474548 9.13973999,9.37672427 9.13973999,8.17382812 Z M15.4971619,23.5676346 L17.7073593,20.0410156 L18.5167008,20.0410156 L18.9797897,23.6738281 L11.9878083,23.6738281 L12.4395447,20.0410156 L13.2869644,20.0410156 L15.4971619,23.5676346 Z M6.50713347,20.0410156 L10.6091842,20.0410156 L10.1574478,23.6738281 L5.0017395,23.6738281 L6.50713347,20.0410156 Z M4.2491608,25.4902344 L9.93181609,25.4902344 L9.47251131,29.1835938 L2.71869661,29.1835938 L4.2491608,25.4902344 Z" id="Shape"></path>
                        <path d="M20.0381775,8.17382812 C20.0381775,5.66988371 18.0011063,3.6328125 15.4971619,3.6328125 C12.9932175,3.6328125 10.9561462,5.66988371 10.9561462,8.17382812 C10.9561462,10.6777725 12.9932175,12.7148438 15.4971619,12.7148438 C18.0011063,12.7148438 20.0381775,10.6777725 20.0381775,8.17382812 Z M12.7725525,8.17382812 C12.7725525,6.67150879 13.9948425,5.44921875 15.4971619,5.44921875 C16.9994812,5.44921875 18.2217712,6.67150879 18.2217712,8.17382812 C18.2217712,9.67614746 16.9994812,10.8984375 15.4971619,10.8984375 C13.9948425,10.8984375 12.7725525,9.67614746 12.7725525,8.17382812 Z" id="Shape"></path>
                    </g>
                    <polygon id="Path-2" fill="#FFFFFF" points="14.4009858 16.9369768 18.5888136 23.447894 22.5604923 16.9369768 36.4051869 16.9369768 36.4051869 33.0329857 0.772440273 33.0329857 0.772440273 16.9369768"></polygon>
                </g>
            </g>
        </g>
    </g>
</svg>