<?xml version="1.0" encoding="UTF-8"?>
<svg width="21px" height="21px" viewBox="0 0 21 21" version="1.1" xmlns="http://www.w3.org/2000/svg" xmlns:xlink="http://www.w3.org/1999/xlink">
    <!-- Generator: Sketch 64 (93537) - https://sketch.com -->
    <title>phone</title>
    <desc>Created with Sketch.</desc>
    <g id="Page-1" stroke="none" stroke-width="1" fill="none" fill-rule="evenodd">
        <g id="Mobile_00_MENU-step-2" transform="translate(-176.000000, -627.000000)">
            <rect id="Rectangle-Copy-35" fill="#471873" x="0" y="40" width="375" height="627"></rect>
            <g id="Group-4" transform="translate(0.000000, 607.000000)">
                <rect id="Rectangle" fill="#FFFFFF" x="0" y="0" width="375" height="60"></rect>
                <g id="phone" transform="translate(177.000000, 20.000000)" fill="#8A8A8A" stroke="#8A8A8A" stroke-linecap="square" stroke-width="0.4">
                    <path d="M2.45863409,9.81436958 C2.19330827,9.81382536 1.95172236,9.66171963 1.8370802,9.42296703 C0.621553885,6.90594446 -0.00656084656,4.14685328 -8.37738049e-06,1.35292248 C-8.37738049e-06,0.972356697 0.309223058,0.663881794 0.690658591,0.663881794 L4.83435116,0.663881794 C5.21578669,0.663881794 5.52496658,0.972356697 5.52496658,1.35292248 C5.51607491,3.31518117 5.95988165,5.25310811 6.82194236,7.01683695 C6.9897619,7.35855806 6.84818574,7.7713365 6.50568365,7.93877339 C6.50473406,7.9392471 6.50382762,7.93967775 6.50287803,7.94015147 L2.76250487,9.74543808 C2.66797689,9.79168993 2.56390977,9.81528958 2.45863409,9.81436958 Z M1.39508633,2.04196317 C1.47472292,4.16274428 1.94917572,6.25023612 2.79427318,8.19785269 L5.2929198,6.99340956 C4.61792955,5.42493763 4.23373155,3.74729581 4.15892927,2.04196317 L1.39508633,2.04196317 Z" id="Shape" fill-rule="nonzero"></path>
                    <path d="M18.6466597,19.9570725 C15.8463436,19.96361 13.0809468,19.3369706 10.5581718,18.1241729 C10.2140295,17.960095 10.0683528,17.5487808 10.2327625,17.2053802 C10.2334962,17.2038729 10.23423,17.2023656 10.2349638,17.2008583 L12.0443762,13.4662578 C12.210685,13.1237615 12.6237162,12.9806564 12.9669953,13.1465429 C12.9679449,13.1469736 12.9688513,13.1474473 12.9698009,13.147921 C14.7373016,14.0090065 16.6797006,14.4527057 18.6466597,14.4446956 C19.0280952,14.4446956 19.3372751,14.7531705 19.3372751,15.1337363 L19.3372751,19.2679804 C19.3372751,19.6485462 19.0280952,19.9570725 18.6466597,19.9570725 Z M11.786086,17.1691625 C13.7381537,18.0123329 15.8304163,18.4857039 17.9560443,18.5651589 L17.9560443,15.8089961 C16.2468143,15.7343644 14.5653383,15.3510425 12.9932818,14.6775913 L11.786086,17.1691625 Z" id="Shape" fill-rule="nonzero"></path>
                    <path d="M10.5567906,18.1241729 C6.75227652,16.2852094 3.68024645,13.2201841 1.8370802,9.42434511 L3.08018797,8.8262578 C4.78825258,12.3412697 7.63319967,15.1797297 11.1562448,16.8838996 L10.5567906,18.1241729 Z" id="Path"></path>
                </g>
            </g>
        </g>
    </g>
</svg>