<?xml version="1.0" encoding="UTF-8"?>
<svg width="19px" height="19px" viewBox="0 0 19 19" version="1.1" xmlns="http://www.w3.org/2000/svg" xmlns:xlink="http://www.w3.org/1999/xlink">
    <!-- Generator: Sketch 52.6 (67491) - http://www.bohemiancoding.com/sketch -->
    <title>icon phone</title>
    <desc>Created with Sketch.</desc>
    <g id="Page-1" stroke="none" stroke-width="1" fill="none" fill-rule="evenodd">
        <g id="PC---TUYỂN-SINH-landing-page-a" transform="translate(-432.000000, -7958.000000)" fill="#E6B522">
            <g id="icon-phone" transform="translate(432.000000, 7958.000000)">
                <path d="M2.33570238,9.32362504 C2.08364286,9.3231341 1.85413624,9.17863365 1.74522619,8.95181868 C0.59047619,6.56064724 -0.00623280423,3.93951062 4.10052912e-05,1.28527636 C4.10052912e-05,0.923738862 0.293761905,0.630687704 0.656125661,0.630687704 L4.5926336,0.630687704 C4.95499735,0.630687704 5.24871825,0.923738862 5.24871825,1.28527636 C5.24027116,3.14942211 5.66188757,4.9904527 6.48084524,6.6659951 C6.64027381,6.99063016 6.50577646,7.38276968 6.18039947,7.54183472 C6.17949735,7.54228475 6.17863624,7.54269387 6.17773413,7.5431439 L2.62437963,9.25816617 C2.53457804,9.30210544 2.43571429,9.3245251 2.33570238,9.32362504 Z M1.32533201,1.93986501 C1.40098677,3.95460707 1.85171693,5.93772431 2.65455952,7.78796005 L5.02827381,6.64373909 C4.38703307,5.15369075 4.02204497,3.55993102 3.9509828,1.93986501 L1.32533201,1.93986501 Z" id="Shape" fill-rule="nonzero"></path>
                <path d="M17.7143267,18.95917 C15.0540265,18.9654295 12.4268995,18.3701221 10.0302632,17.2179642 C9.70332804,17.0620903 9.56493519,16.6713418 9.72112434,16.3451112 C9.72182143,16.3436792 9.72251852,16.3422473 9.72321561,16.3408154 L11.4421574,12.7929449 C11.6001508,12.4675734 11.9925304,12.3316236 12.3186455,12.4892158 C12.3195476,12.4896249 12.3204087,12.4900749 12.3213108,12.4905249 C14.0004365,13.3085562 15.8457156,13.7300704 17.7143267,13.7224608 C18.0766905,13.7224608 18.3704114,14.015512 18.3704114,14.3770495 L18.3704114,18.3045814 C18.3704114,18.6661189 18.0766905,18.95917 17.7143267,18.95917 Z M11.1967817,16.3107043 C13.051246,17.1117163 15.0388955,17.5614187 17.0582421,17.636901 L17.0582421,15.0185463 C15.4344735,14.9476462 13.8370714,14.5834903 12.3436177,13.9437118 L11.1967817,16.3107043 Z" id="Shape" fill-rule="nonzero"></path>
                <path d="M10.0289511,17.2179642 C6.4146627,15.4709489 3.49623413,12.5591749 1.74522619,8.95312786 L2.92617857,8.38494491 C4.54883995,11.7242062 7.25153968,14.4207432 10.5984325,16.0397046 L10.0289511,17.2179642 Z" id="Path"></path>
            </g>
        </g>
    </g>
</svg>