<?xml version="1.0" encoding="UTF-8"?>
<svg width="19px" height="19px" viewBox="0 0 19 19" version="1.1" xmlns="http://www.w3.org/2000/svg" xmlns:xlink="http://www.w3.org/1999/xlink">
    <!-- Generator: Sketch 63.1 (92452) - https://sketch.com -->
    <title>instagram</title>
    <desc>Created with Sketch.</desc>
    <g id="Page-1" stroke="none" stroke-width="1" fill="none" fill-rule="evenodd">
        <g id="Mobile---TUYỂN-SINH-landing-page" transform="translate(-173.000000, -10772.000000)" fill="#000000" fill-rule="nonzero">
            <g id="Group-10" transform="translate(0.000000, 805.000000)">
                <g id="Group-8" transform="translate(0.000000, 9509.000000)">
                    <g id="Group-12-Copy" transform="translate(143.000000, 457.000000)">
                        <g id="instagram" transform="translate(30.000000, 1.000000)">
                            <path d="M9.5,5.640625 C7.35136719,5.640625 5.60351563,7.38847656 5.60351563,9.53710938 C5.60351563,11.6857422 7.35136719,13.4335938 9.5,13.4335938 C11.6486328,13.4335938 13.3964844,11.6857422 13.3964844,9.53710938 C13.3964844,7.38847656 11.6486328,5.640625 9.5,5.640625 Z M9.5,5.640625 C7.35136719,5.640625 5.60351563,7.38847656 5.60351563,9.53710938 C5.60351563,11.6857422 7.35136719,13.4335938 9.5,13.4335938 C11.6486328,13.4335938 13.3964844,11.6857422 13.3964844,9.53710938 C13.3964844,7.38847656 11.6486328,5.640625 9.5,5.640625 Z M16.2167969,0 L2.78320312,0 C1.246875,0 0,1.246875 0,2.78320312 L0,16.2167969 C0,17.753125 1.246875,19 2.78320312,19 L16.2167969,19 C17.753125,19 19,17.753125 19,16.2167969 L19,2.78320312 C19,1.246875 17.753125,0 16.2167969,0 Z M9.5,14.546875 C6.73909961,14.546875 4.49023438,12.2980098 4.49023438,9.53710938 C4.49023438,6.77613477 6.73909961,4.52734375 9.5,4.52734375 C12.2609004,4.52734375 14.5097656,6.77613477 14.5097656,9.53710938 C14.5097656,12.2980098 12.2609004,14.546875 9.5,14.546875 Z M15.6230469,4.52734375 C15.0107422,4.52734375 14.5097656,4.02636719 14.5097656,3.4140625 C14.5097656,2.80175781 15.0107422,2.30078125 15.6230469,2.30078125 C16.2353516,2.30078125 16.7363281,2.80175781 16.7363281,3.4140625 C16.7363281,4.02636719 16.2353516,4.52734375 15.6230469,4.52734375 Z M9.5,5.640625 C7.35136719,5.640625 5.60351563,7.38847656 5.60351563,9.53710938 C5.60351563,11.6857422 7.35136719,13.4335938 9.5,13.4335938 C11.6486328,13.4335938 13.3964844,11.6857422 13.3964844,9.53710938 C13.3964844,7.38847656 11.6486328,5.640625 9.5,5.640625 Z M9.5,5.640625 C7.35136719,5.640625 5.60351563,7.38847656 5.60351563,9.53710938 C5.60351563,11.6857422 7.35136719,13.4335938 9.5,13.4335938 C11.6486328,13.4335938 13.3964844,11.6857422 13.3964844,9.53710938 C13.3964844,7.38847656 11.6486328,5.640625 9.5,5.640625 Z M9.5,5.640625 C7.35136719,5.640625 5.60351563,7.38847656 5.60351563,9.53710938 C5.60351563,11.6857422 7.35136719,13.4335938 9.5,13.4335938 C11.6486328,13.4335938 13.3964844,11.6857422 13.3964844,9.53710938 C13.3964844,7.38847656 11.6486328,5.640625 9.5,5.640625 Z" id="Shape"></path>
                        </g>
                    </g>
                </g>
            </g>
        </g>
    </g>
</svg>