<svg xmlns="http://www.w3.org/2000/svg" viewBox="0 0 403.14 442.06"><defs><style>.cls-1{fill:#d6cce1;opacity:0.8;}.cls-2,.cls-3{fill:#d6cce1;}.cls-2{fill-rule:evenodd;}</style></defs><g id="Layer_2" data-name="Layer 2"><g id="Layer_1-2" data-name="Layer 1"><path class="cls-1" d="M288.67,419.58c6.53-1.95,16.26-6.55,23-3.47,2.49,1.14,4.69,3.78,4.56,6.65-.23,4.84-5.45,5.9-7.82,9.16,5.41-7.44-4.43-12.09-10.59-12.53A56.81,56.81,0,0,0,288.67,419.58Z"/><polygon class="cls-2" points="373.93 381.04 373.91 377.15 383.62 377.11 383.63 381 373.93 381.04"/><polygon class="cls-2" points="383.64 382.93 373.93 382.97 374.08 423.14 360.44 423.19 360.45 426.98 364.86 426.96 364.87 430.2 360.46 430.22 360.47 433.08 364.88 433.07 364.9 436.31 360.49 436.32 360.5 440.36 374.15 440.31 374.15 441.91 383.86 441.87 383.64 382.93"/><path class="cls-2" d="M397.42,356.51c0-9.73-8.39-17.59-18.66-17.55s-18.59,8-18.54,17.69c0,8.09,5.82,14.89,13.68,16.93v1.64l9.7,0v-1.57C391.58,371.6,397.45,364.7,397.42,356.51ZM375.54,343.7l.16-.51.26-.45.34-.39.42-.33.48-.25.52-.16.57-.05.57,0,.53.16.47.25.42.32.35.39.26.45.16.51.06.5,0,.35,0,.29-.09.28-.12.27-.15.26-.17.23-.2.21c-.72.64-1.4,3.92-2,4.76-.34-.48-1.37-4.16-1.9-4.6l-.21-.21-.17-.17-.14-.21-.13-.2-.11-.24-.07-.21-.07-.26,0-.25v-.29Zm-11,6.28.12-.51.23-.5.33-.44.41-.35.46-.28.51-.18.53-.08h.54l.55.11.49.21.3.19.24.18.22.22.19.24.15.24.13.26.1.27c.21.91,2.75,3,3.24,3.93-.62,0-4.37-.89-5-.67l-.29.07-.25,0-.25,0h-.26l-.26,0-.25-.05-.26-.08-.25-.09-.26-.12-.43-.29-.38-.39-.29-.44-.19-.48-.1-.5ZM381.2,368.8l-.17.51-.25.45-.35.4-.41.32-.48.25-.52.16-.57.06-.57-.06-.53-.14-.48-.25-.42-.33-.34-.39-.26-.45-.17-.5-.06-.52,0-.33.06-.3.08-.28.12-.27.15-.25.17-.24.2-.21c.73-.63,1.41-4,2-4.8.34.49,1.37,4.2,1.89,4.65l.22.2.16.18.15.2.12.21.11.22.08.23.07.25,0,.25v.28Zm-2.82-7.18a5.75,5.75,0,0,1-4.92-2.65c-.28.54-3.16,3.22-3.29,3.87l-.08.28-.09.22-.11.23-.12.21-.16.2-.16.18-.2.18-.2.15-.26.16-.48.2-.55.13h-.54l-.53-.09-.5-.17-.47-.27-.41-.35-.34-.44-.23-.48-.12-.52,0-.52.08-.51.19-.47.28-.45.39-.38.43-.3.32-.16.29-.1.3-.07.3,0h.31l.31,0,.3.05c.93.28,4.3-.82,5.36-.78a5.2,5.2,0,0,1-.79-2.7,5.55,5.55,0,0,1,5.67-5.4,5.77,5.77,0,0,1,4.91,2.65c.43-.64,3.18-3.21,3.32-3.85l.08-.28.08-.22.11-.23.13-.21.15-.2.16-.18.2-.17.21-.16.26-.16.47-.2.55-.13h.55l.53.09.5.17.47.27.41.35.33.44.24.49.13.52v.52l-.09.5-.19.48-.28.44-.37.38-.44.31-.32.15-.3.1-.3.07-.3,0h-.32l-.29,0-.3-.05c-.92-.28-4.22.81-5.35.81a5,5,0,0,1,.74,2.65A5.53,5.53,0,0,1,378.38,361.62Zm13.82.9-.12.51-.24.5-.32.44-.42.35-.46.28-.5.18-.54.08h-.54l-.54-.11-.49-.21-.3-.19-.25-.19-.21-.21-.19-.23-.16-.25-.13-.26-.1-.27c-.21-.91-2.9-3.12-3.39-4,.62,0,4.52,1,5.2.77l.29-.08.24,0,.26,0h.26l.26,0,.24,0,.27.08.24.09.27.13.43.29.38.38.28.45.2.47.08.5Z"/><path class="cls-3" d="M397,331.16c-7.38-4.1-16-1.74-23.92-2.13-11.93-.57-21.53-7.26-21.53-7.26-6.22-6-14.28-15.11-18.64-20.14,6-7,8-19.28,8.4-22.38l-4.26-12.72a16,16,0,0,1,1.16,1.83c.17.28.32.59.49.93s.34.68.5,1.06.32.76.47,1.16a12.5,12.5,0,0,1,.45,1.21l.39,1.24c.14.4.2.82.3,1.22s.17.78.24,1.14c0,.19.08.36.11.54l.06.5c.06.63.11,1.15.14,1.53,0-.24,0-.38,0-.38.36,2.73,3.1,7.64,3.1,7.64,13-12.55,0-31.92,0-31.92a13.35,13.35,0,0,0,5.81,1.91c.6-14.83-14.63-32.85-14.63-32.85A24.68,24.68,0,0,0,334,221l.24,1.52c.09.65.17,1.3.24,1.94s.13,1.3.17,1.95a34.5,34.5,0,0,1,.07,3.94,13.8,13.8,0,0,1-.19,2,7.77,7.77,0,0,1-.22,1,3.06,3.06,0,0,1-.57,1.1l-.45.52-.44-.54c-.91-1.12-1.83-2.25-2.7-3.42s-1.74-2.34-2.53-3.56c1.1,1,2.13,2,3.15,3,.81.83,1.59,1.68,2.38,2.53h0a5.83,5.83,0,0,0,.17-.87c.09-.61.14-1.24.18-1.88.06-1.26.07-2.55.07-3.84l0-3.88c0-1.29,0-2.57,0-3.87a41.32,41.32,0,0,0-7.15-17C311.35,172.92,333,177.8,333,177.8a13.76,13.76,0,0,1,1.45,0c0-.32-.07-2.14-.13-4l-.08-4.06h0v0l.56-.25c.36-.15.86-.4,1.46-.67l1-.44,1.07-.51c.73-.37,1.52-.74,2.28-1.17.39-.2.77-.41,1.14-.62s.74-.42,1.09-.64c.7-.42,1.36-.81,1.89-1.2.27-.19.53-.35.76-.5l.56-.41c.32-.23.51-.35.51-.35l.05.05-.44.42-.51.49-.69.59c-.25.22-.54.43-.85.66s-.63.47-1,.7a9.51,9.51,0,0,1-1.08.69c-.36.23-.76.46-1.15.67-.78.42-1.59.78-2.36,1.12s-1.49.59-2.13.81c-1,.35-1.77.53-2,.6l1.2.15c.41.05.89.16,1.45.28a16.51,16.51,0,0,1,1.85.51c.34.09.68.25,1,.37a9.43,9.43,0,0,1,1.09.47,16.16,16.16,0,0,1,2.24,1.25,16.44,16.44,0,0,1,2.18,1.7l.51.49.49.52a14.2,14.2,0,0,1,.93,1.1,17.35,17.35,0,0,1,1.54,2.39,19.15,19.15,0,0,1,1.11,2.52,20.07,20.07,0,0,1,1,4.72,19.66,19.66,0,0,1,0,3.4,10.68,10.68,0,0,1-.17,1.27s0-.46-.08-1.27a28.33,28.33,0,0,0-.49-3.29c-.14-.66-.33-1.39-.54-2.13s-.51-1.52-.81-2.31a22.71,22.71,0,0,0-1.14-2.33,18.15,18.15,0,0,0-1.47-2.22c-.29-.35-.55-.7-.85-1l-.45-.5-.47-.46a21.89,21.89,0,0,0-2-1.67,19.54,19.54,0,0,0-2-1.32l-.5-.29-.5-.25c-.33-.16-.64-.34-1-.47-.63-.26-1.2-.53-1.72-.72s-1-.38-1.38-.48l-1.17-.39h-.06a6.17,6.17,0,0,1,.33,1.23c.08.38.15.83.2,1.3,0,.24,0,.48.07.73s0,.51,0,.76c0,.51,0,1,0,1.49a12,12,0,0,1-.12,1.31,10.23,10.23,0,0,1-.25,1.22c11.36,1,16.92,16.07,16.92,16.07,12.57-23.23-4-31.4-4-31.4-1-17.3-22.35-39.21-22.35-39.21,1,4.27-1.87,10.78-1.87,10.78l-4-5c-18.58-21-51.78-9.39-51.78-9.39,8.58-.22,14.79,7.35,14.79,7.35-13.65,3.78-30.74,23.56-30.74,23.56-7.47,8.64-12.88,19.07-14.41,30.42-1.46,10.92,1.92,21.27,8.51,29.69-3.62,11.68-10.34,27.75-23.79,27.6-16.37-.19-22.59-21.35-24.05-33.84a167.68,167.68,0,0,1-1.14-24.74c.7-19.63-1.06-42.28-11.93-59.33s-31.38-24-49.33-31.31C107.48,77.76,83.23,54.35,65.1,30.57,62.38,27,50,11.86,45.37,2.11c-1.11-1.78-3-3.65-5-.08C14.45,59.17,62.64,101.09,80.64,114.21c1.32,1,3.59,1.56,3.77,3.51.23,2.5-4.49,1.1-5.64.82-12.14-3-26.85-17-35.13-25.7,0,0-6.41-6.83-6.62-.67,0,.22,0,.45,0,.67,0,11.19,2.39,23.6,5.35,34.36A70.7,70.7,0,0,0,54.5,152.14a96.35,96.35,0,0,0,31.16,25.43c1.61.83,3.31,1.65,5.06,2.39,2.62,1.11,5.75,1.07,6.18,2.86s-4.39,3-7.86,3.49c-8.46,1.22-17.87-1.63-25.13-5.13-.66-.32-1.28-.64-1.85-.93l0,0h0l-.57-.31c-1.16-.56-3.69-1.47-3.69,1.19-.17,16.46,5.86,32.25,18.83,42.78,6.94,5.64,15.16,8.06,23.55,10.62l3.82,1.06,1.13.31c10.38,2.94,8.25,9.41,4.7,18.46-8.6,22-10.67,55.29,15.33,66.17a17.78,17.78,0,0,0,4,.42c.91-.39,1.67-1.32,1.87-3.21a26.8,26.8,0,0,1-.47-5.17,64.66,64.66,0,0,1,.38-7.38c1.27-10,9.46-23.75,20.26-23.42,14.29.45,20.83,14,15.25,24-5.31,9.53-17.36,15.21-26.3,21.33C98.67,355.43,115.25,417,115.25,417,67.69,430.48,76,365.47,76,365.47c3.49-27.06-.43-40.15-.43-40.15-6.12-29.23-41.46-37.52-41.46-37.52C-3,280,.06,309.18.06,309.18c.68.35,3.41-3.19,6-6.9-6.4,13.21-.76,25.44,4.09,32.5l.07.11c.44.61,2.69,3.48,4.36-.26a9.2,9.2,0,0,1,.42-1.1,20.56,20.56,0,0,1,5.55-6.9,26,26,0,0,0,4.86-6.83c0,3.22.81,4.21.81,4.21,14.4-13.08,9.6-27.48,9.6-27.48,47.56,8.28,31.41,70.68,31.41,70.68-4.8,41.46,17.9,59.34,17.9,59.34,19.19,19.2,40.2,5.77,40.2,5.77s-.1-.24-.25-.68a9.12,9.12,0,0,1-.32-2,14.63,14.63,0,0,1,.19-3.18,27.42,27.42,0,0,1,.94-4,55.42,55.42,0,0,1,4-9.34c.87-1.63,1.82-3.3,2.84-4.94s2.09-3.29,3.2-4.92,2.26-3.2,3.42-4.74,2.34-3,3.51-4.45c2.32-2.85,4.6-5.4,6.62-7.53s3.78-3.84,5-5c.62-.59,1.14-1,1.48-1.33l.54-.46s-.14.21-.38.6-.6,1-1.08,1.67c-.93,1.44-2.29,3.46-3.93,5.87s-3.59,5.2-5.67,8.18l-3.21,4.57c-1.08,1.57-2.18,3.15-3.27,4.74s-2.17,3.19-3.23,4.76-2.06,3.12-3,4.65a96,96,0,0,0-4.89,8.48c-.62,1.28-1.16,2.47-1.56,3.55a20.46,20.46,0,0,0-.84,2.87,10.87,10.87,0,0,0-.19,1.93c0,.46,0,.71,0,.71,3.68,14.54,51.39,8.5,51.39,8.5h29.38l34-.75c5.35-.11,13-.06,14.77-6.33a12.52,12.52,0,0,0,.44-3c1.72-7.37,20.49.57,20.49.57,6.11,2.18,18.77-3.05,18.77-3.05,14-2.62,5.67,8.29,5.67,8.29.51-.68,2.7-1.12,3.49-1.58a12,12,0,0,0,2.6-1.93c4.19-4.11,3.12-9.52-2.43-11.8a29.91,29.91,0,0,0-13.54-1.84,42.43,42.43,0,0,0-5.16.58c-.31.06-1.66.61-2,.43-26.18-15.71,0-58.47,0-58.47a61.39,61.39,0,0,0,26.37-31.12,38.22,38.22,0,0,0,10,4.7h0c.78.24,1.46.41,2,.54l.88.2c.34.07.52.09.52.09l0,0c3.79.84,14,3.08,17,3.65.77.14,1.49.27,2.15.37a88.61,88.61,0,0,0,13.77,1.7c-2,5.59-3.18,12.63.2,18,.92,1.46,2,3,3.75,3.62,1.17.4,2.47-.24,1.25-1.57-5.15-5.6,1.14-17.73,1.14-17.73,4.94-2.92,5.23-6.12,5.23-6.12a34,34,0,0,0,15.72.82c3.58-.59,7-2.08,10.67-.83a6.35,6.35,0,0,1,4.18,7s-.86,4.61-3.35,4.84c0,0,.08,1.34,1.65.55l-.07.14.64-.48a14.12,14.12,0,0,0,2-1.75.6.6,0,0,0,.08-.08c.07-.06.12-.12.19-.19C404.62,342.85,404.92,335.57,397,331.16Zm-247.8,9.55a51.84,51.84,0,0,0-4.59,5.34c-.88,1.14-1.78,2.42-2.66,3.81s-1.74,2.9-2.58,4.46-1.62,3.26-2.33,5c-.38.86-.66,1.77-1,2.64s-.63,1.79-.91,2.7c-.56,1.82-1.06,3.66-1.47,5.5s-.75,3.66-1,5.44c-.12.89-.24,1.77-.36,2.63s-.19,1.71-.28,2.54-.13,1.64-.19,2.42c0,.39-.07.77-.1,1.15s0,.75,0,1.12c0,.73-.07,1.43-.11,2.09s0,1.31,0,1.91c0,1.19-.07,2.24-.05,3.1s0,1.55,0,2,0,.71,0,.71l-.19-.69c-.11-.45-.3-1.11-.5-2s-.43-1.88-.63-3.08c-.1-.6-.22-1.24-.32-1.91s-.17-1.39-.26-2.14c0-.38-.07-.75-.12-1.14s-.05-.79-.07-1.2c0-.81-.1-1.64-.12-2.5s0-1.75,0-2.67.1-1.83.15-2.78.2-1.89.3-2.87.3-1.94.47-2.92a54.15,54.15,0,0,1,1.44-5.88c.32-1,.66-1.93,1-2.87.19-.48.39-.94.57-1.41s.39-.94.61-1.39l.63-1.35c.22-.45.46-.88.69-1.32.45-.87.95-1.69,1.45-2.51a44.79,44.79,0,0,1,3.18-4.47c.54-.68,1.12-1.31,1.66-1.92s1.1-1.18,1.66-1.69a34.68,34.68,0,0,1,3.13-2.69,30.8,30.8,0,0,1,2.6-1.8c.74-.46,1.37-.77,1.78-1s.65-.3.65-.3S150.41,339.49,149.2,340.71ZM334.92,164.77c0,.25,0,.5-.05.76-2.71-.12-5.5.12-8.1-.49a5.15,5.15,0,0,1-3.32-3.27c-.44-2.64-1.9-3.47-4.12-3.92C326.62,155.78,329.67,162.63,334.92,164.77ZM254.9,428a8.77,8.77,0,0,0-.85-.41,13.55,13.55,0,0,0-1.37-.51l-.86-.24-1-.22c-.68-.13-1.42-.25-2.2-.36s-1.61-.17-2.48-.24c-1.72-.12-3.57-.16-5.43-.17-.93,0-1.86,0-2.77,0l-2.7.06-4.8.14c-1.41.05-2.59.07-3.42.08h-1a2.37,2.37,0,0,1-.35,0,2.43,2.43,0,0,0,.33-.09l.93-.26c.8-.21,2-.5,3.35-.76.7-.14,1.46-.29,2.27-.4s1.66-.24,2.54-.32,1.81-.18,2.75-.22,1.88-.07,2.84-.08,1.9,0,2.85.1,1.86.18,2.76.3,1.74.31,2.55.5c.41.11.8.21,1.16.33s.74.25,1.08.37l1,.41c.29.14.57.29.83.43a8.21,8.21,0,0,1,1.27.84,6.28,6.28,0,0,1,.74.65l.23.25Zm-28.32-7.81s0,0,0,0h0l.06,0c.17-.08.41-.2.73-.33.64-.27,1.56-.63,2.68-1a40,40,0,0,1,3.9-1.08,42,42,0,0,1,4.58-.78,33.59,33.59,0,0,1,4.67-.17,20.83,20.83,0,0,1,4.08.56,11.48,11.48,0,0,1,2.72,1,5.75,5.75,0,0,1,.92.6s-.38-.11-1-.26a20.33,20.33,0,0,0-2.75-.32,34.4,34.4,0,0,0-3.91,0c-1.43.08-3,.21-4.48.38s-3.06.35-4.5.54l-3.94.5c-1.16.15-2.14.25-2.83.32l-.79.07h-.13S226.58,420.19,226.58,420.16Zm24.47-1.52a10.12,10.12,0,0,1,1.66,2.33A15.58,15.58,0,0,0,251.05,418.64Zm-.08-.11c-.12-.12-.21-.27-.34-.38-10.15-8.23-31.61,0-31.61,0l-.61.26c-7.57,3.3-14.59,2.91-22.75,2.55-5-.22-13.41.74-13.82-6-.14-2.3,1.75-5.66,4.21-6.3,21.52-5.62,39.75-26.76,39.75-26.76l.19-.15c.12-.52.25-1.16.42-1.9.24-1.08.5-2.41.8-3.9.15-.76.3-1.55.43-2.4s.3-1.72.45-2.65c.28-1.83.52-3.83.75-5.91,0-.53.09-1.06.15-1.6s0-1.07.08-1.62c.07-1.1.09-2.21.14-3.34a64,64,0,0,0-.3-6.88c-.06-1.16-.33-2.29-.46-3.44-.1-.58-.24-1.14-.35-1.7l-.19-.86a8.56,8.56,0,0,0-.23-.83l-.46-1.66c-.17-.55-.38-1.08-.57-1.62-.36-1.09-.87-2.1-1.32-3.13-.22-.52-.54-1-.79-1.48s-.5-1-.82-1.45L222.8,334l-.45-.68-.5-.63a31,31,0,0,0-2.06-2.45,22.75,22.75,0,0,0-2.19-2.2c-1.49-1.39-3.06-2.55-4.51-3.67-.76-.5-1.51-1-2.21-1.44-.34-.23-.67-.48-1-.69s-.68-.39-1-.58c-1.33-.72-2.45-1.48-3.46-1.94s-1.75-.92-2.29-1.2l-.82-.45.11-.36,3.34,1c1.07.29,2.31.84,3.76,1.4l1.11.45c.38.15.76.35,1.15.54l2.45,1.23c.83.49,1.67,1,2.55,1.56l.67.42.63.47,1.3,1a26,26,0,0,1,2.57,2.19,26.94,26.94,0,0,1,2.44,2.55l.61.67.54.74c.36.48.73,1,1.09,1.48s.65,1.05,1,1.58.67,1.06.94,1.63a31.84,31.84,0,0,1,1.55,3.47c.22.6.47,1.19.67,1.8l.53,1.84a17.31,17.31,0,0,1,.44,1.86c.12.63.26,1.26.37,1.89.14,1.26.37,2.51.42,3.77a51.79,51.79,0,0,1,0,7.37,64,64,0,0,1-.86,6.83c-.17,1.08-.43,2.12-.63,3.12s-.46,2-.72,2.89c-.49,1.84-1,3.52-1.52,5s-1,2.73-1.4,3.76l-.25.59a129.27,129.27,0,0,1,19.16-12.33s4-1.91,4.76-.46a.25.25,0,0,0,0-.07,16.53,16.53,0,0,0,.68-2c.19-.68.35-1.36.48-2.05s.22-1.39.29-2.09a39.69,39.69,0,0,0-.1-8.37c-.14-1.39-.36-2.77-.6-4.15-.12-.69-.27-1.38-.4-2.06l-.47-2.06-.52-2c-.19-.68-.37-1.37-.57-2l-.6-2-.66-2,0-.14,0-.11c-.14-.77-.23-1.48-.33-2.21s-.19-1.45-.26-2.18c-.15-1.45-.26-2.91-.32-4.37a64.37,64.37,0,0,1,.2-8.78c.15-1.45.36-2.92.64-4.36a33.21,33.21,0,0,1,1.11-4.28c.24-.7.5-1.4.79-2.07a17.43,17.43,0,0,1,1-2A14.92,14.92,0,0,1,254,303a20.53,20.53,0,0,0-1.65,3.92,27.49,27.49,0,0,0-.93,4.09,53,53,0,0,0-.59,8.35q0,4.2.39,8.4c.12,1.4.26,2.8.43,4.19.09.69.18,1.39.28,2.09s.2,1.32.3,1.95c.43,1.34.85,2.7,1.21,4.07.19.71.35,1.43.53,2.15s.32,1.44.46,2.17l.38,2.19c.11.73.21,1.47.29,2.21s.16,1.47.19,2.22.07,1.48.08,2.23,0,1.49,0,2.23l-.07,1.12-.11,1.12c-.1.74-.18,1.48-.32,2.22-.07.36-.14.73-.23,1.09s-.17.73-.27,1.09q-.3,1.08-.69,2.13a16.18,16.18,0,0,1-.9,2,15.29,15.29,0,0,1-1.14,1.91l-.38.49a16.8,16.8,0,0,1-.15,3.2,127.49,127.49,0,0,0,.88,22.82l.08-.06a53,53,0,0,0,2.33,9.29,27.11,27.11,0,0,0,1.46,3.41,44.68,44.68,0,0,0,4.94,7.83c.35.45.73.9,1.12,1.33C253,417.36,251.08,418.46,251,418.53Zm44.45-182.86c-.81-.51-1.62-1-2.4-1.58l-1.19-.82-1.15-.88-1.15-.89-1.11-.95a28.51,28.51,0,0,1-2.13-2,33.13,33.13,0,0,1-3.74-4.52c-.56-.81-1-1.68-1.53-2.52s-.85-1.78-1.28-2.66-.67-1.86-1-2.78l-.06-.17v-.06l0-.07,0-.09-.09-.35-.18-.69-.36-1.37a41,41,0,0,1-.86-5.83c0-.49-.11-1-.11-1.45l0-1.47v-1.46c0-.49.06-1,.09-1.46a28.35,28.35,0,0,1,.27-2.91l.2-1.46a13.82,13.82,0,0,1,.26-1.43c.22-1,.39-1.92.65-2.86l.28-.94-.21.05c-.21.07-.44.11-.65.2l-.66.23-.64.29a5.44,5.44,0,0,0-.65.3c-.21.11-.42.21-.63.33-.43.23-.84.48-1.25.73s-.82.53-1.22.81-.79.57-1.17.86l-.58.45-.54.45L266.66,200l1.88-4.56c.15-.37.28-.75.46-1.11s.34-.7.54-1a20.76,20.76,0,0,1,1.25-1.9l.68-.87.72-.85c.49-.55,1-1.09,1.49-1.6,1-1,2.07-2,3.16-3,.54-.48,1.09-.93,1.64-1.4l1.68-1.35c2.25-1.77,4.57-3.44,6.94-5,.91-.61,1.82-1.2,2.73-1.79l-.87.1c-.25,0-.52,0-.79,0l-.78,0-.8,0-.81-.05-.81,0-.83-.14c-.15,0-.28,0-.42-.08l-.45-.13a2.19,2.19,0,0,1-.46-.17l-.26-.12-.14-.09-.21-.16-1-.89,1.18-.69c1-.57,2-1.16,2.95-1.7s2-1.09,3-1.56,2.05-1,3.11-1.4l1.58-.65,1.61-.58c1.06-.41,2.16-.69,3.24-1l1.65-.42q.83-.22,1.65-.39l1.68-.34,1.68-.28c.56-.1,1.12-.15,1.68-.21s1.13-.14,1.7-.18,1.13-.09,1.7-.11l1.69,0c1.13,0,2.27,0,3.39.09.57,0,1.14.06,1.7.12s1.12.1,1.69.19c1.12.13,2.23.32,3.33.55s2.21.46,3.29.77,2.17.64,3.23,1a35.67,35.67,0,0,1,6.11,2.83,36.19,36.19,0,0,0-6.23-2.46c-1.07-.32-2.15-.62-3.23-.86s-2.19-.45-3.28-.62-2.21-.3-3.31-.38c-.56-.06-1.11-.09-1.67-.12s-1.1-.05-1.66-.05c-1.11,0-2.21,0-3.32.06l-1.66.11-1.65.17c-.55.05-1.1.14-1.64.22s-1.1.16-1.64.27l-1.63.32-1.61.39c-.54.12-1.07.26-1.6.42l-1.58.47c-1.05.37-2.1.68-3.13,1.1l-1.54.6-1.52.67c-1,.42-2,.94-3,1.42s-1.94,1.06-2.91,1.58c-.25.15-.5.31-.75.45l.38,0,.71,0,.74,0,.73,0c.25,0,.49,0,.73,0l1.48-.17c.49-.07,1-.11,1.48-.21l2.95-.51,5.85-1-5.08,3.06c-1.19.71-2.39,1.47-3.56,2.24s-2.34,1.55-3.5,2.35c-2.3,1.61-4.57,3.26-6.77,5-.55.42-1.08.87-1.62,1.32s-1.07.89-1.59,1.36c-1,.92-2.05,1.87-3,2.85-.49.5-.95,1-1.4,1.52l-.07.09.16-.09c.23-.14.47-.25.71-.37l.73-.35.75-.32.78-.27a7.36,7.36,0,0,1,.8-.24,7.18,7.18,0,0,1,.83-.19c.28,0,.55-.12.85-.14l.88-.05,1.69-.11L281.6,191l-.82,2.63c-.24.88-.41,1.79-.62,2.69a12.26,12.26,0,0,0-.25,1.37l-.2,1.36c-.17.91-.19,1.84-.27,2.76,0,.45-.07.92-.09,1.38v2.77c0,.46.06.92.09,1.38a37,37,0,0,0,.72,5.44l.34,1.39.17.69.08.34v0h0v.07l.06.15c.3.87.57,1.74.9,2.6s.74,1.68,1.15,2.49.88,1.61,1.38,2.37a30.91,30.91,0,0,0,3.42,4.32,25.89,25.89,0,0,0,2,1.94l1,.94,1.09.87c.37.29.72.6,1.1.87l1.14.83c.74.57,1.53,1.07,2.31,1.61,1.55,1,3.16,2,4.77,3.06l4.85,3,2.41,1.55,2.37,1.6c1.54,1.07,3.14,2.1,4.72,3.17s3.14,2.16,4.64,3.34a31.09,31.09,0,0,1,4.2,3.91,12.81,12.81,0,0,1,2.82,4.93,12.42,12.42,0,0,0-3.07-4.7,32.07,32.07,0,0,0-4.31-3.66c-1.53-1.1-3.13-2.12-4.74-3.11s-3.26-1.95-4.87-3l-2.42-1.5-2.44-1.44-4.93-2.84C298.69,237.65,297,236.7,295.42,235.67Z"/></g></g></svg>