<svg xmlns="http://www.w3.org/2000/svg" viewBox="0 0 135.07 148.12"><defs><style>.cls-1,.cls-2,.cls-3{fill:#f1cb1e;}.cls-1{opacity:0.8;}.cls-3{fill-rule:evenodd;}</style></defs><g id="Layer_2" data-name="Layer 2"><g id="Layer_1-2" data-name="Layer 1"><path class="cls-1" d="M96.72,140.58c2.19-.65,5.45-2.19,7.7-1.16a2.51,2.51,0,0,1,1.53,2.23c-.08,1.62-1.83,2-2.62,3.07,1.81-2.5-1.49-4.05-3.55-4.2A19.52,19.52,0,0,0,96.72,140.58Z"/><rect class="cls-2" x="125.28" y="126.36" width="3.25" height="1.3" transform="translate(-0.56 0.57) rotate(-0.25)"/><polygon class="cls-3" points="128.54 128.3 125.29 128.32 125.34 141.78 120.77 141.79 120.77 143.06 122.25 143.06 122.25 144.14 120.77 144.15 120.78 145.11 122.26 145.1 122.26 146.19 120.78 146.19 120.79 147.55 125.36 147.53 125.36 148.06 128.62 148.05 128.54 128.3"/><path class="cls-3" d="M133.16,119.45a6.24,6.24,0,0,0-12.47,0,6,6,0,0,0,4.59,5.67v.55h3.25v-.53A6,6,0,0,0,133.16,119.45Zm-7.33-4.29,0-.17.09-.15.11-.14.14-.1.16-.09.18-.05.19,0,.19,0,.18.05.16.08.13.11.12.13.09.15,0,.17,0,.17v.12l0,.09,0,.1,0,.09,0,.08-.06.08-.06.07c-.25.22-.47,1.32-.66,1.6a15.66,15.66,0,0,0-.64-1.54l-.07-.07-.06-.06,0-.07,0-.07,0-.08,0-.07,0-.09,0-.08v-.1Zm-3.69,2.11,0-.18.08-.16.11-.15.14-.12.15-.09.17-.06.18,0h.18l.18,0,.17.07.1.06.08.07.07.07.06.08.06.08,0,.09,0,.09c.07.3.92,1,1.09,1.31a13.46,13.46,0,0,0-1.69-.22l-.1,0-.08,0h-.34l-.09,0-.08,0-.09,0-.14-.1-.13-.13-.1-.14-.06-.17,0-.16Zm5.58,6.3,0,.17-.09.15-.11.13-.14.11-.16.09-.18,0-.19,0-.19,0-.18,0-.16-.08-.14-.11-.11-.13-.09-.15-.06-.17,0-.17v-.12l0-.1,0-.09,0-.09,0-.08.06-.08.06-.08c.25-.21.47-1.32.67-1.6a13.61,13.61,0,0,0,.63,1.55l.07.07.05.06,0,.07,0,.07,0,.07,0,.08,0,.09,0,.08v.09Zm-.94-2.41a1.9,1.9,0,0,1-1.65-.89c-.1.18-1.06,1.08-1.1,1.3l0,.1,0,.07,0,.07,0,.08,0,.06,0,.06-.07.06-.07.05-.09.06-.16.07-.18,0H123l-.18,0-.17-.06-.15-.09-.14-.11-.11-.15-.08-.16,0-.18v-.17l0-.17.06-.16.1-.15.13-.13.14-.09.11-.06.1,0,.1,0h.4a13.24,13.24,0,0,0,1.8-.26,1.63,1.63,0,0,1-.26-.9,1.84,1.84,0,0,1,1.89-1.81,1.94,1.94,0,0,1,1.65.88c.14-.21,1.07-1.07,1.11-1.29l0-.09,0-.07,0-.08,0-.07.05-.07,0,0,.07-.06.07-.06.08,0,.16-.07.19,0h.18l.18,0,.17,0,.15.09.14.12.11.15.08.16,0,.18v.17l0,.17-.07.16-.09.15-.12.12-.15.11-.11.05-.1,0-.1,0-.1,0h-.21l-.09,0a14,14,0,0,0-1.8.27,1.73,1.73,0,0,1,.25.89A1.84,1.84,0,0,1,126.78,121.16Zm4.63.31,0,.17-.08.16-.11.15-.14.12-.15.09-.17.06-.18,0h-.18l-.19,0-.16-.07-.1-.06-.08-.07-.07-.07-.07-.08-.05-.08,0-.09,0-.09c-.07-.3-1-1-1.13-1.34a14,14,0,0,0,1.74.25l.1,0,.08,0h.34l.09,0,.08,0,.09,0,.15.1.12.13.1.15.06.15,0,.17Z"/><path class="cls-2" d="M133,111c-2.48-1.38-5.35-.59-8-.72a15.38,15.38,0,0,1-7.21-2.43c-2.08-2-4.79-5.06-6.25-6.75,2-2.33,2.68-6.46,2.82-7.5l-1.43-4.26a4.76,4.76,0,0,1,.39.62,1.79,1.79,0,0,1,.16.31,3.78,3.78,0,0,1,.17.35l.16.39.15.41c0,.14.08.27.13.41a3.48,3.48,0,0,1,.1.41c0,.13.06.26.08.38a1.49,1.49,0,0,1,0,.18.88.88,0,0,0,0,.17c0,.21,0,.39,0,.51a.55.55,0,0,1,0-.12,10.41,10.41,0,0,0,1,2.56c4.36-4.21,0-10.7,0-10.7a4.43,4.43,0,0,0,1.94.64c.21-5-4.9-11-4.9-11a6.78,6.78,0,0,0-.55-.76c0,.17.06.34.08.51s.06.43.08.65,0,.43.06.65a11.63,11.63,0,0,1,0,1.32,5.05,5.05,0,0,1-.06.67,2.21,2.21,0,0,1-.08.35,1.05,1.05,0,0,1-.19.36l-.15.18-.14-.18c-.31-.38-.62-.76-.91-1.15s-.58-.78-.85-1.19c.37.32.72.67,1.06,1l.8.85h0l.06-.29c0-.2,0-.42,0-.63,0-.42,0-.85,0-1.29v-1.3c0-.43,0-.86,0-1.29a13.84,13.84,0,0,0-2.39-5.68c-5.05-9.66,2.19-8,2.19-8l.48,0c0-.11,0-.72,0-1.34s0-1.36,0-1.36h0l.19-.08.49-.23.33-.15.36-.17c.24-.12.51-.24.76-.39l.38-.21.37-.21c.23-.14.45-.27.63-.4l.25-.17.19-.14.17-.12,0,0-.15.14-.17.17-.23.19a2.09,2.09,0,0,1-.28.22l-.33.24c-.12.08-.24.16-.37.23s-.25.15-.38.22a8.08,8.08,0,0,1-.79.38c-.26.1-.5.2-.72.27a6.07,6.07,0,0,1-.68.2l.41,0,.48.1a4.49,4.49,0,0,1,.62.17c.12,0,.23.08.35.12l.37.16a5.19,5.19,0,0,1,.75.42,5.45,5.45,0,0,1,.72.57l.18.16.16.18c.11.11.21.24.31.36a6,6,0,0,1,.89,1.65,6.82,6.82,0,0,1,.34,1.58,6.42,6.42,0,0,1,0,1.14,2.81,2.81,0,0,1-.06.43s0-.16,0-.43a9.35,9.35,0,0,0-.16-1.1c-.05-.22-.11-.47-.18-.72s-.17-.5-.27-.77a7.09,7.09,0,0,0-.39-.78,4.52,4.52,0,0,0-.49-.74c-.09-.12-.18-.24-.28-.35l-.15-.16-.16-.16a8.51,8.51,0,0,0-.66-.56,5.3,5.3,0,0,0-.69-.44l-.16-.1-.17-.08-.32-.16c-.21-.09-.4-.18-.58-.24l-.46-.17-.39-.13h0s.06.17.11.41,0,.28.06.44l0,.24a2.26,2.26,0,0,0,0,.26c0,.17,0,.34,0,.5a2.81,2.81,0,0,1,0,.44,3.65,3.65,0,0,1-.08.4c3.81.34,5.67,5.39,5.67,5.39,4.21-7.79-1.33-10.52-1.33-10.52-.34-5.8-7.48-13.14-7.48-13.14a7.49,7.49,0,0,1-.63,3.61L107,43.24c-6.23-7-17.35-3.15-17.35-3.15,2.88-.07,5,2.46,5,2.46-4.58,1.27-10.3,7.9-10.3,7.9a19.71,19.71,0,0,0-4.83,10.19,13.16,13.16,0,0,0,2.85,10c-1.21,3.91-3.47,9.3-8,9.25-5.49-.07-7.57-7.16-8.06-11.34a56.06,56.06,0,0,1-.38-8.29c.23-6.58-.36-14.17-4-19.88s-10.51-8-16.53-10.49C36,26.05,27.89,18.21,21.81,10.24,20.9,9.05,16.75,4,15.2.71c-.37-.6-1-1.23-1.67,0C4.84,19.83,21,33.87,27,38.27c.44.32,1.2.52,1.26,1.17.08.84-1.5.37-1.89.28-4.07-1-9-5.68-11.77-8.61,0,0-2.15-2.29-2.22-.23v.23a45.88,45.88,0,0,0,1.79,11.51A23.62,23.62,0,0,0,18.26,51,32.31,32.31,0,0,0,28.7,59.5c.54.27,1.11.55,1.7.8.88.37,1.92.35,2.07,1s-1.47,1-2.64,1.17a15.44,15.44,0,0,1-8.42-1.71l-.62-.32h0l-.19-.1c-.39-.19-1.24-.5-1.24.39A17.88,17.88,0,0,0,25.66,75c2.33,1.88,5.08,2.7,7.89,3.55l1.28.36.38.1c3.48,1,2.77,3.16,1.58,6.19-2.89,7.36-3.58,18.52,5.13,22.17a6.72,6.72,0,0,0,1.35.14,1.17,1.17,0,0,0,.62-1.08,8.26,8.26,0,0,1-.15-1.73,24,24,0,0,1,.12-2.47c.43-3.35,3.17-8,6.79-7.85,4.79.15,7,4.68,5.11,8-1.78,3.19-5.82,5.1-8.81,7.15-13.89,9.5-8.33,30.11-8.33,30.11-15.94,4.53-13.16-17.25-13.16-17.25,1.17-9.06-.15-13.45-.15-13.45-2-9.79-13.89-12.57-13.89-12.57C-1,93.8,0,103.59,0,103.59c.23.12,1.14-1.07,2-2.31-2.15,4.43-.26,8.52,1.37,10.89l0,0c.15.2.9,1.16,1.46-.09,0-.12.09-.25.14-.37a6.92,6.92,0,0,1,1.86-2.31,8.57,8.57,0,0,0,1.63-2.29,2.53,2.53,0,0,0,.27,1.41c4.83-4.38,3.22-9.21,3.22-9.21C27.94,102.13,22.53,123,22.53,123c-1.6,13.89,6,19.88,6,19.88A10.87,10.87,0,0,0,42,144.85l-.08-.23a2.79,2.79,0,0,1-.11-.67,5,5,0,0,1,.06-1.06,8.87,8.87,0,0,1,.32-1.34,17.29,17.29,0,0,1,1.35-3.13c.29-.55.61-1.11,1-1.66s.7-1.1,1.07-1.64.76-1.08,1.15-1.6.78-1,1.17-1.49c.78-.95,1.54-1.8,2.22-2.52s1.27-1.28,1.69-1.67l.49-.45.19-.16-.13.2c-.08.13-.2.33-.36.56-.32.49-.77,1.16-1.32,2s-1.2,1.74-1.9,2.74l-1.07,1.53-1.1,1.59c-.37.53-.73,1.07-1.08,1.6s-.69,1-1,1.55c-.64,1-1.21,2-1.63,2.84-.21.43-.39.83-.53,1.2a7.41,7.41,0,0,0-.28,1,3.5,3.5,0,0,0-.06.64,2.17,2.17,0,0,0,0,.24c1.23,4.87,17.22,2.85,17.22,2.85h9.84l11.4-.25c1.79,0,4.35,0,4.94-2.12a4.09,4.09,0,0,0,.15-1c.58-2.47,6.87.19,6.87.19,2,.73,6.28-1,6.28-1,4.68-.88,1.9,2.77,1.9,2.77.18-.23.91-.37,1.17-.53a4.31,4.31,0,0,0,.88-.64,2.27,2.27,0,0,0-.82-4,10,10,0,0,0-4.54-.62,14.55,14.55,0,0,0-1.73.2c-.1,0-.55.21-.66.14-8.77-5.26,0-19.59,0-19.59a20.59,20.59,0,0,0,8.84-10.42,12.71,12.71,0,0,0,3.35,1.57h0l.67.19.29.06.17,0h0c1.28.28,4.7,1,5.7,1.22l.72.13a30.61,30.61,0,0,0,4.61.57c-.67,1.87-1.06,4.23.07,6a2.69,2.69,0,0,0,1.26,1.21c.39.13.83-.08.42-.53-1.73-1.87.38-5.94.38-5.94,1.65-1,1.75-2,1.75-2a11.46,11.46,0,0,0,5.27.27c1.2-.2,2.35-.7,3.57-.28a2.14,2.14,0,0,1,1.4,2.35s-.29,1.54-1.12,1.62c0,0,0,.44.55.18l0,0,.21-.16a4.78,4.78,0,0,0,.68-.59l0,0s0,0,.06-.06C135.57,114.87,135.67,112.43,133,111Zm-83,3.2a17.17,17.17,0,0,0-1.54,1.78c-.29.39-.59.82-.89,1.28s-.58,1-.86,1.5a17,17,0,0,0-.78,1.67c-.13.29-.23.59-.34.88s-.21.6-.31.91c-.19.61-.35,1.23-.49,1.84s-.25,1.23-.34,1.83l-.12.88c0,.29-.07.57-.1.85s0,.54-.06.81l0,.38c0,.13,0,.25,0,.38s0,.48,0,.7,0,.44,0,.64c0,.4,0,.75,0,1s0,.52,0,.68a2.17,2.17,0,0,1,0,.24l-.06-.23c0-.15-.1-.37-.17-.66s-.14-.63-.21-1c0-.2-.07-.41-.11-.64s0-.47-.08-.72,0-.25,0-.38l0-.4c0-.27,0-.55,0-.84s0-.59,0-.89,0-.62.05-.93.07-.64.1-1,.1-.65.16-1a17.13,17.13,0,0,1,.48-2c.11-.33.22-.65.34-1,.06-.15.13-.31.19-.47s.13-.31.2-.46l.21-.46c.08-.14.16-.29.23-.44s.32-.57.49-.84a12.36,12.36,0,0,1,1.07-1.49c.18-.23.37-.44.55-.65s.37-.39.56-.57c.36-.35.72-.64,1-.9s.63-.44.88-.6.46-.26.59-.33l.22-.1S50.4,113.75,50,114.16Zm62.23-58.95a2.11,2.11,0,0,0,0,.25,15.19,15.19,0,0,1-2.71-.16,1.73,1.73,0,0,1-1.12-1.1A1.45,1.45,0,0,0,107,52.89C109.44,52.19,110.46,54.49,112.22,55.21ZM85.41,143.4a2,2,0,0,0-.29-.14c-.12-.06-.28-.11-.46-.18l-.29-.07-.32-.08-.74-.12-.82-.08c-.58,0-1.2,0-1.82-.06h-.93l-.91,0-1.61,0-1.14,0h-.44l.11,0,.31-.09c.27-.07.66-.17,1.13-.26l.75-.13.86-.11c.29,0,.6-.06.92-.07s.63,0,1,0,.64,0,1,0,.63.06.93.1.58.11.85.17l.39.11.36.13.33.13.28.15a3.38,3.38,0,0,1,.42.28,2.12,2.12,0,0,1,.25.22l.08.08Zm-9.49-2.62h0l.24-.11c.22-.09.52-.21.9-.33s.82-.25,1.3-.37,1-.19,1.54-.25a10.32,10.32,0,0,1,1.56-.06,7.47,7.47,0,0,1,1.37.18,3.84,3.84,0,0,1,.91.35,2,2,0,0,1,.31.21l-.35-.09a5.78,5.78,0,0,0-.92-.11,11.58,11.58,0,0,0-1.31,0c-.48,0-1,.07-1.5.13s-1,.12-1.51.18l-1.32.17-1,.11-.26,0h0Zm8.2-.51a3.41,3.41,0,0,1,.55.78A5.46,5.46,0,0,0,84.12,140.27Zm0,0a1.42,1.42,0,0,0-.12-.13c-3.4-2.75-10.59,0-10.59,0l-.2.09c-2.54,1.1-4.89,1-7.62.85-1.7-.08-4.5.25-4.63-2a2.26,2.26,0,0,1,1.41-2.11c7.21-1.88,13.32-9,13.32-9l.06,0c0-.17.08-.38.14-.63s.17-.81.27-1.31c.05-.25.1-.52.14-.8s.1-.58.15-.89c.1-.62.18-1.28.25-2,0-.18,0-.36,0-.54l0-.54c0-.37,0-.74,0-1.12,0-.75,0-1.53-.1-2.3,0-.39-.11-.77-.16-1.16,0-.19-.08-.38-.11-.57l-.07-.28a2.29,2.29,0,0,0-.07-.28l-.16-.56c0-.18-.13-.36-.19-.54-.12-.37-.29-.7-.44-1.05-.08-.17-.18-.33-.27-.5a4.53,4.53,0,0,0-.27-.48c-.11-.15-.21-.31-.31-.46l-.15-.23-.17-.21c-.23-.28-.44-.57-.69-.82a8.52,8.52,0,0,0-.73-.74c-.5-.46-1-.85-1.51-1.23-.26-.16-.51-.32-.74-.48l-.35-.23-.33-.2c-.45-.24-.83-.49-1.16-.65s-.59-.3-.77-.4l-.27-.15,0-.12,1.12.35c.36.1.78.28,1.26.47l.37.15c.13,0,.26.12.39.18l.82.41.85.53.23.14c.07,0,.14.1.21.15l.43.33a8.51,8.51,0,0,1,.86.73,8.38,8.38,0,0,1,.82.86l.21.23.18.24.36.5c.13.16.22.35.34.53s.22.35.31.54a12.24,12.24,0,0,1,.52,1.17c.07.2.16.39.22.6l.18.62a4.31,4.31,0,0,1,.15.62c0,.21.09.42.12.63,0,.42.13.84.14,1.27a15.54,15.54,0,0,1,0,2.46,22.41,22.41,0,0,1-.28,2.29c-.06.37-.15.71-.22,1s-.15.66-.24,1c-.16.62-.34,1.18-.51,1.67s-.33.91-.47,1.25c0,.07-.05.14-.08.2a44.44,44.44,0,0,1,6.42-4.13s1.33-.64,1.6-.15c0,0,0,0,0,0a5.3,5.3,0,0,0,.23-.67c.06-.23.11-.46.16-.69s.07-.47.09-.7a13.11,13.11,0,0,0,0-2.8c0-.47-.12-.93-.2-1.4,0-.23-.09-.46-.13-.69l-.16-.68-.17-.69c-.07-.23-.13-.46-.2-.68l-.2-.68-.22-.68v-.08c0-.26-.08-.49-.11-.74l-.09-.73c0-.49-.08-1-.1-1.46a20.76,20.76,0,0,1,.07-3,12.52,12.52,0,0,1,.21-1.46,10.36,10.36,0,0,1,.37-1.43c.08-.24.17-.47.26-.7s.21-.45.33-.66a5.38,5.38,0,0,1,.87-1.18,7.53,7.53,0,0,0-.55,1.32,9.06,9.06,0,0,0-.31,1.37A17.42,17.42,0,0,0,84,107c0,.93,0,1.87.13,2.81,0,.47.09.94.15,1.4l.09.7c0,.22.07.45.1.65.14.46.29.91.41,1.37l.18.72.15.73.13.73c0,.25.07.49.09.74s.05.5.06.74,0,.5,0,.75,0,.5,0,.75l0,.38,0,.37c0,.25-.06.49-.11.74s0,.25-.07.37l-.09.36c-.07.25-.15.48-.23.72a5.93,5.93,0,0,1-.31.68,4.15,4.15,0,0,1-.38.64l-.12.16a6.36,6.36,0,0,1,0,1.08,42.34,42.34,0,0,0,.29,7.64l0,0a17.58,17.58,0,0,0,.78,3.12,8.16,8.16,0,0,0,.49,1.14,15.19,15.19,0,0,0,1.65,2.62l.38.45C84.77,139.84,84.13,140.21,84.09,140.23ZM99,79c-.27-.17-.54-.34-.8-.53l-.4-.27-.39-.29-.38-.3-.37-.32c-.25-.21-.48-.44-.72-.67a12.07,12.07,0,0,1-1.25-1.51c-.19-.28-.34-.57-.51-.85s-.29-.59-.43-.89-.23-.62-.34-.93l0-.06h0v0l0-.12-.06-.23-.12-.46a12.92,12.92,0,0,1-.29-1.95c0-.16,0-.33,0-.49V68l0-.49c0-.33,0-.65.09-1l.07-.48c0-.16.05-.33.09-.48.07-.32.13-.65.22-1l.09-.31h-.07l-.22.07-.22.08-.21.09-.22.1-.21.11-.42.25-.41.27-.39.29-.2.15-.18.15L89.35,67,90,65.47c0-.13.09-.25.15-.37a3.84,3.84,0,0,1,.18-.35,6.9,6.9,0,0,1,.42-.63l.23-.3.24-.28.5-.54a14.12,14.12,0,0,1,1.06-1c.18-.16.36-.32.55-.47l.56-.46c.75-.59,1.53-1.15,2.32-1.68l.92-.6-.29,0H95.75l-.27,0-.28,0-.14,0-.15,0-.15-.06-.09,0,0,0-.07-.06-.34-.29L94.6,58l1-.58c.34-.17.67-.36,1-.52s.68-.33,1-.47l.53-.21.54-.2c.35-.13.72-.23,1.08-.35l.55-.14.56-.13.56-.11.56-.1.57-.07.57-.06.56,0,.57,0,1.14,0a5.48,5.48,0,0,1,.57.05,5,5,0,0,1,.56.06c.38,0,.75.11,1.12.18s.74.16,1.1.26.73.21,1.09.34a11.82,11.82,0,0,1,2,1,11.82,11.82,0,0,0-2.09-.83c-.36-.1-.72-.21-1.08-.29s-.73-.15-1.1-.2a10.49,10.49,0,0,0-1.11-.13l-.55,0-.56,0c-.37,0-.74,0-1.12,0l-.55,0-.55.06a4.86,4.86,0,0,0-.55.07c-.19,0-.37,0-.55.09l-.55.11-.54.13-.53.14-.53.16c-.35.12-.71.22-1,.36l-.52.21-.51.22c-.34.14-.67.31-1,.48s-.65.35-1,.53l-.25.15h.86l.24,0,.5-.06.49-.06,1-.18,2-.34-1.7,1c-.4.24-.8.5-1.19.76s-.79.51-1.18.78c-.77.54-1.53,1.1-2.26,1.68-.19.14-.37.29-.55.44l-.53.45c-.35.31-.69.63-1,1l-.47.51,0,0,0,0,.24-.12c.09,0,.16-.09.25-.12l.25-.11.26-.09a2.76,2.76,0,0,1,.27-.08,1.27,1.27,0,0,1,.28-.06l.28,0,.3,0,.56,0-.18.58-.27.88c-.08.3-.14.6-.21.9a3.4,3.4,0,0,0-.08.46l-.07.46a7,7,0,0,0-.09.92c0,.15,0,.31,0,.46V69c0,.16,0,.31,0,.46a14.12,14.12,0,0,0,.25,1.83l.11.46L94,72l0,.12v0h0v0l0,.05c.1.29.19.59.3.87l.38.84c.16.26.3.54.47.79a10.54,10.54,0,0,0,1.14,1.45c.22.22.43.45.67.65l.34.31.37.3.36.29.39.27c.25.19.51.36.77.54.52.36,1.06.69,1.6,1l1.62,1,.81.52.79.54c.52.36,1.06.7,1.59,1.06s1,.72,1.55,1.12a10.28,10.28,0,0,1,1.41,1.31,4.25,4.25,0,0,1,.94,1.65,4.24,4.24,0,0,0-1-1.58,10,10,0,0,0-1.44-1.22c-.51-.37-1-.71-1.59-1l-1.63-1-.81-.5-.82-.48-1.65-1C100.08,79.63,99.53,79.31,99,79Z"/></g></g></svg>