<?xml version="1.0" encoding="UTF-8"?>
<svg width="105px" height="60px" viewBox="0 0 105 60" version="1.1" xmlns="http://www.w3.org/2000/svg" xmlns:xlink="http://www.w3.org/1999/xlink">
    <!-- Generator: Sketch 64 (93537) - https://sketch.com -->
    <title>Group 5</title>
    <desc>Created with Sketch.</desc>
    <g id="Page-1" stroke="none" stroke-width="1" fill="none" fill-rule="evenodd">
        <g id="Mobile_00_MENU-step-1" transform="translate(0.000000, -543.000000)">
            <rect id="Rectangle-Copy-35" fill="#471873" x="0" y="40" width="375" height="627"></rect>
            <g id="Group-5" transform="translate(0.000000, 543.000000)">
                <g id="Group-2-Copy" transform="translate(63.000000, 11.000000)">
                    <rect id="Rectangle" fill="#EAA00A" x="9.37769998" y="8.75117993" width="1.03323635" height="26.0066241"></rect>
                    <g id="Group" transform="translate(0.016543, 10.004940)">
                        <path d="M19.6173124,0.0587700195 L18.5840761,0.0587700195 C13.7758939,0.0587700195 9.87866107,3.97499041 9.87866107,8.80659838 L9.87866107,9.84486872 L19.6173124,0.0587700195 Z" id="Path" fill="#DD9F27"></path>
                        <path d="M19.6173124,0.0587700195 L19.6173124,1.09704036 C19.6173124,5.92864833 15.7200796,9.84486872 10.9118974,9.84486872 L9.87866107,9.84486872 L19.6173124,0.0587700195 Z" id="Path" fill="#EFC71D"></path>
                        <path d="M0.140009728,0.0587700195 L1.17324608,0.0587700195 C5.98142826,0.0587700195 9.87866107,3.97499041 9.87866107,8.80659838 L9.87866107,9.84486872 L0.140009728,0.0587700195 Z" id="Path" fill="#FFCD52"></path>
                        <path d="M0.140009728,0.0587700195 L0.140009728,1.09704036 C0.140009728,5.92864833 4.03724254,9.84486872 8.84542472,9.84486872 L9.87866107,9.84486872 L0.140009728,0.0587700195 Z" id="Path" fill="#EAA00A"></path>
                    </g>
                    <g id="Group" transform="translate(0.016543, 0.031846)">
                        <path d="M0.140009728,0.108635491 L1.17324608,0.108635491 C5.98142826,0.108635491 9.87866107,4.02485588 9.87866107,8.85646385 L9.87866107,9.89473419 L0.140009728,0.108635491 Z" id="Path" fill="#DD9F27"></path>
                        <path d="M0.140009728,0.108635491 L0.140009728,1.14690584 C0.140009728,5.9785138 4.03724254,9.89473419 8.84542472,9.89473419 L9.87866107,9.89473419 L0.140009728,0.108635491 Z" id="Path" fill="#EFC71D"></path>
                        <path d="M19.6173124,0.108635491 L18.5840761,0.108635491 C13.7758939,0.108635491 9.87866107,4.02485588 9.87866107,8.85646385 L9.87866107,9.89473419 L19.6173124,0.108635491 Z" id="Path" fill="#FFCD52"></path>
                        <path d="M19.6173124,0.108635491 L19.6173124,1.14690584 C19.6173124,5.9785138 15.7200796,9.89473419 10.9118974,9.89473419 L9.87866107,9.89473419 L19.6173124,0.108635491 Z" id="Path" fill="#EAA00A"></path>
                    </g>
                </g>
                <path d="M96,57.7685563 L96,59 L65.7348943,59 L65.7348943,55.6578303 L42.6276435,55.6578303 L42.6276435,34.317292 L22.7129909,34.317292 L22.7129909,24.221248 L3,24.221248 L3,4 L18.4305136,4 C20.8096677,4 22.7379154,5.90884992 22.7379154,8.26407015 L22.7379154,9.84094617 C22.7379154,12.1199021 24.5438066,13.9794046 26.8141994,14.0982871 L38.3451662,14.0982871 C40.7243202,14.0982871 42.652568,16.007137 42.652568,18.3623573 L42.652568,19.9369902 C42.652568,22.2159462 44.4584592,24.0776917 46.728852,24.1943312 L55.8308157,24.1943312 C56.6533233,24.1943312 57.4214502,24.423124 58.076284,24.8179038 C59.3134441,25.5670881 60.1382175,26.9174144 60.1382175,28.4584013 L60.1382175,30.0352773 C60.1382175,32.3882545 62.0664653,34.2971044 64.4456193,34.2971044 L65.9773414,34.2971044 C68.3564955,34.2971044 70.2847432,36.2059543 70.2847432,38.5611746 L70.2847432,40.6651713 C70.2847432,42.1814845 71.526435,43.4129282 73.060423,43.4129282 L81.1676737,43.4129282 C83.5468278,43.4129282 85.4728097,45.3217781 85.4728097,47.6747553 L85.4728097,49.2516313 C85.4728097,51.5305873 87.2787009,53.3900897 89.5490937,53.5089723 L91.6925982,53.5089723 C94.0717523,53.5044861 96,55.4133361 96,57.7685563 Z" id="Path-Copy" fill="#DD9F27"></path>
                <g id="Group-Copy-3" transform="translate(18.000000, 34.000000)">
                    <g id="Group" transform="translate(0.225862, 1.362053)">
                        <path d="M67.6544201,8.89713753 L0.0494767395,8.85263047 L1.2350814,0.199673003 L64.8623227,0.199673003 C65.5667454,0.199673003 67.1786144,-0.236648986 68.1008165,0.289735237 C69.3134658,0.981903935 69.781203,2.78929333 69.8920932,3.95926613 C70.0845708,5.99004565 68.4232109,8.85263047 67.6544201,8.89713753 Z" id="Path" fill="#623A87"></path>
                        <path d="M68.9060771,3.66208908 L1.2350814,3.66208908 L1.2350814,1.98888852 L68.1531722,1.98888852 C68.5194503,2.47699995 68.7794624,3.04457137 68.9060771,3.66208908 Z" id="Path" fill="#9074AB"></path>
                        <path d="M68.9060771,5.33528965 C68.7817234,5.95280736 68.5194503,6.52264907 68.1554332,7.00849021 L1.2350814,7.00849021 L1.2350814,5.33528965 L68.9060771,5.33528965 Z" id="Path" fill="#9074AB"></path>
                    </g>
                    <path d="M70.888717,5.86187769 C70.888717,6.1456634 70.8683683,6.42490854 70.8299317,6.69961311 C70.7462756,7.28988739 70.5744414,7.85291825 70.3279951,8.37281367 C70.0340683,8.99941253 69.6293537,9.56471367 69.143244,10.0460142 L69.140983,10.0482845 C68.0873684,11.0903457 66.6403441,11.7305662 65.0486174,11.7305662 L1.63729951,11.7305662 C1.17379954,11.7305662 0.800738592,11.3536988 0.800738592,10.8905605 C0.800738592,10.6589914 0.895699562,10.4478548 1.04492394,10.2957457 C1.1964093,10.1436365 1.40668002,10.0505548 1.63729951,10.0505548 L65.0486174,10.0505548 C65.084793,10.0505548 65.1209686,10.0505548 65.1548833,10.0482845 C66.470771,10.0142302 67.6396953,9.36492853 68.3790343,8.37508396 C68.7430513,7.88924282 69.0053245,7.31940111 69.1296781,6.7018834 C69.1862025,6.4317194 69.2133342,6.15020397 69.2133342,5.86414797 C69.2133342,5.57809197 69.1839415,5.29657655 69.1296781,5.02641255 C69.0053245,4.40889484 68.7430513,3.83905312 68.3790343,3.35321198 C67.6170855,2.33839427 66.4097246,1.68001142 65.0486174,1.68001142 L1.63729951,1.68001142 C1.17379954,1.68001142 0.800738592,1.30314399 0.800738592,0.84000571 C0.800738592,0.606166283 0.895699562,0.397299998 1.04492394,0.245190856 C1.1964093,0.0930817138 1.40668002,0 1.63729951,0 L65.0486174,0 C66.6426051,0 68.0873684,0.642490854 69.140983,1.68228171 C69.6270927,2.16131199 70.0318073,2.72661313 70.3279951,3.35548227 C70.5744414,3.8753777 70.7462756,4.43613826 70.8299317,5.02868283 C70.8683683,5.29657655 70.888717,5.57582169 70.888717,5.86187769 Z" id="Path" fill="#39105F"></path>
                </g>
                <path d="M82,60 L0,60 L0,0 L4.53616057,0 C7.12728077,0 9.26727856,1.94586023 9.56878248,4.45577076 C9.5937189,4.65511383 9.60732058,4.85898743 9.60732058,5.06739155 L9.60732058,6.94076339 C9.60732058,9.65228225 11.7382506,11.8654434 14.4177817,12.0013592 L18.9766117,12.0013592 C21.778558,12.0013592 24.0477718,14.2688866 24.0477718,17.0687507 L24.0477718,27.9873145 C24.0477718,30.6920376 26.169634,32.9051988 28.8423643,33.0479103 L41.5599359,33.0479103 C44.3618821,33.0479103 46.6310959,35.317703 46.6310959,38.1153018 L46.6310959,39.9886737 C46.6310959,42.7001925 48.7620259,44.9133537 51.441557,45.0492695 L53.5702201,45.0492695 C56.3721663,45.0492695 58.6413801,47.3167969 58.6413801,50.1143957 L58.6413801,51.0272964 C58.6413801,53.8271605 60.9105938,56.094688 63.7102731,56.094688 L77.0625898,56.094688 C79.4632865,56.0969532 81.4740683,57.7641862 82,60 Z" id="Path-Copy-2" fill="#FFCD52"></path>
                <g id="Group-Copy-5" transform="translate(21.000000, 45.000000)">
                    <g id="Group" transform="translate(1.000000, 2.000000)">
                        <path d="M1.0224101,2.30623974 C1.92418359,1.01097727 3.82152054,0.0448360086 5.42441714,0 L83,0.124414734 L83,12 C48.5499115,11.9535 22.698747,11.9038724 5.44650652,11.8511175 C3.12712532,11.8440251 0.314334861,9.83497779 0.00697110831,6.06220737 C-0.0539586472,5.31431834 0.284521017,4.06232913 1.0224101,2.30623974 Z" id="Path" fill="#9074AB"></path>
                        <path d="M1,7 L83,7 L83,9 L1.91098363,9 C1.46811249,8.41818182 1.15144816,7.73636364 1,7 Z" id="Path" fill="#623A87"></path>
                        <path d="M1,5 C1.15144392,4.26136364 1.4680994,3.58181818 1.91095814,3 L83,3 L83,5 L1,5 Z" id="Path" fill="#623A87"></path>
                    </g>
                    <path d="M0,7.50364727 C0,7.13892041 0.0249635273,6.78148809 0.0703517588,6.43378181 C0.170205868,5.67758146 0.376722321,4.9602853 0.671745826,4.2940509 C1.02577403,3.49165181 1.5091587,2.76949262 2.09239747,2.15431999 L2.09466688,2.15188847 C3.35872913,0.819419679 5.09029016,0 7.00113471,0 L82.9969201,0 C83.5506565,0 84,0.481439455 84,1.07472848 C84,1.37137299 83.8865294,1.64127087 83.7072459,1.83579186 C83.525693,2.03031285 83.2737883,2.14945696 82.9969201,2.14945696 L6.99886529,2.14945696 C6.95574647,2.14945696 6.91262765,2.14945696 6.87177825,2.15188847 C5.2945372,2.1956557 3.89431026,3.02723294 3.00923975,4.29161939 C2.57124331,4.91408656 2.25806452,5.64110877 2.10828335,6.4313503 C2.04247042,6.77662506 2.00842924,7.1364889 2.00842924,7.50121576 C2.00842924,7.86594262 2.04247042,8.22580645 2.10828335,8.57108121 C2.25806452,9.36132274 2.57124331,10.088345 3.00923975,10.7108121 C3.9215432,12.0092397 5.36942778,12.850543 7.00113471,12.850543 L82.9969201,12.850543 C83.5506565,12.850543 84,13.3319825 84,13.9252715 C84,14.221916 83.8865294,14.4918139 83.7072459,14.6863349 C83.525693,14.8808559 83.2737883,15 82.9969201,15 L6.99886529,15 C5.08802075,15 3.35645972,14.1805803 2.09239747,12.8481115 C1.5091587,12.2353704 1.02577403,11.5107797 0.669476414,10.7083806 C0.37445291,10.0421462 0.170205868,9.32485006 0.0680823472,8.5686497 C0.0249635273,8.22580645 0,7.86837413 0,7.50364727 Z" id="Path" fill="#39155B"></path>
                </g>
            </g>
        </g>
    </g>
</svg>