<svg xmlns="http://www.w3.org/2000/svg" viewBox="0 0 140.61 136.15"><defs><style>.cls-1,.cls-2{fill:#ffcd52;}.cls-2{stroke:#ffcd52;stroke-miterlimit:10;stroke-width:0.5px;}</style></defs><g id="Layer_2" data-name="Layer 2"><g id="Layer_1-2" data-name="Layer 1"><path class="cls-1" d="M64.72,129.79l-1.35-1-5.28,4.45V107.32H56.24v25.92L51,128.8l-1.35,1,7.55,6.36Z"/><path class="cls-1" d="M44.88,4.44A4.44,4.44,0,1,1,40.45,0,4.43,4.43,0,0,1,44.88,4.44Z"/><path class="cls-2" d="M140.36,61.11h-1a.92.92,0,0,0-.92.92V90a15.46,15.46,0,0,1-15.44,15.44H17.54A15.46,15.46,0,0,1,2.1,90V20.65A15.45,15.45,0,0,1,17.54,5.21H40.45a.93.93,0,0,0,0-1.85H17.54A17.31,17.31,0,0,0,.25,20.65V90a17.31,17.31,0,0,0,17.29,17.29H123.05A17.31,17.31,0,0,0,140.34,90V63h0Z"/></g></g></svg>