<svg xmlns="http://www.w3.org/2000/svg" viewBox="0 0 179.06 106.92"><defs><style>.cls-1{fill:#ffcd52;}</style></defs><g id="Layer_2" data-name="Layer 2"><g id="Layer_1-2" data-name="Layer 1"><path class="cls-1" d="M82.09,4.44A4.44,4.44,0,1,1,77.66,0,4.44,4.44,0,0,1,82.09,4.44Z"/><polygon class="cls-1" points="8.3 69.59 9.59 68.24 2.77 62.03 9.59 55.83 8.3 54.48 0 62.03 8.3 69.59"/><rect class="cls-1" x="1.17" y="61.18" width="38.17" height="1.71"/><path class="cls-1" d="M161.55,2h-12V4h12a15.52,15.52,0,0,1,15.51,15.5V89.41a15.52,15.52,0,0,1-15.51,15.51H55.17A15.52,15.52,0,0,1,39.66,89.41V19.54A15.52,15.52,0,0,1,55.17,4H77.66V2H55.17a17.52,17.52,0,0,0-17.51,17.5V89.41a17.53,17.53,0,0,0,17.51,17.51H161.55a17.53,17.53,0,0,0,17.51-17.51V19.54A17.52,17.52,0,0,0,161.55,2Z"/></g></g></svg>