<svg xmlns="http://www.w3.org/2000/svg" viewBox="0 0 45.67 45.67"><defs><style>.cls-1{fill:#4f2387;}.cls-2{fill:#f5f2f8;}</style></defs><g id="Layer_2" data-name="Layer 2"><g id="Layer_1-2" data-name="Layer 1"><circle class="cls-1" cx="22.83" cy="22.83" r="21.12" transform="translate(-4.64 39.81) rotate(-76.72)"/><path class="cls-2" d="M22.83,45.67A22.84,22.84,0,1,1,45.67,22.83,22.86,22.86,0,0,1,22.83,45.67Zm0-42.25A19.41,19.41,0,1,0,42.24,22.83,19.44,19.44,0,0,0,22.83,3.42Z"/><path class="cls-2" d="M33.17,19.14a1.45,1.45,0,0,1-.36,1.1,4,4,0,0,0-.88,3,1.72,1.72,0,0,1-1.1,1.91,4,4,0,0,0-2.12,2.16,1.5,1.5,0,0,1-1.56,1,5.29,5.29,0,0,0-3.32.95,1.64,1.64,0,0,1-2,0,5,5,0,0,0-3.22-.92,1.56,1.56,0,0,1-1.64-1,3.81,3.81,0,0,0-2.05-2.1,1.82,1.82,0,0,1-1.18-2,3.86,3.86,0,0,0-.87-3,1.35,1.35,0,0,1,0-1.81,5.65,5.65,0,0,0,1-3.42,1.56,1.56,0,0,1,1.05-1.62,3.67,3.67,0,0,0,2-2A1.86,1.86,0,0,1,19,10.18a3.7,3.7,0,0,0,2.8-.83,1.52,1.52,0,0,1,2.08,0,3.88,3.88,0,0,0,2.91.85,1.78,1.78,0,0,1,2,1.15,3.82,3.82,0,0,0,2.09,2.05,1.51,1.51,0,0,1,1,1.53,5.75,5.75,0,0,0,1.07,3.61A2.07,2.07,0,0,1,33.17,19.14ZM15,19.11a7.81,7.81,0,1,0,8-7.65A7.79,7.79,0,0,0,15,19.11Z"/><path class="cls-2" d="M26.3,36.74c-.76-2.05-1.43-3.9-2.15-5.72a.92.92,0,0,1,.42-1.29,2.38,2.38,0,0,1,1.65-.51,3,3,0,0,0,3.7-2.17c.93,2.56,1.76,4.87,2.64,7.27a16.49,16.49,0,0,1-3.2-.64.91.91,0,0,0-1.13.41C27.65,34.94,27,35.76,26.3,36.74Z"/><path class="cls-2" d="M15.82,27.08a3,3,0,0,0,3.57,2.18,2.32,2.32,0,0,1,1.22.14c1.1.43,1.28.85.86,2l-2,5.38c-.73-1-1.37-1.82-2-2.69a.81.81,0,0,0-1-.38c-1,.28-2.06.49-3.29.77C14.07,31.93,14.9,29.62,15.82,27.08Z"/><path class="cls-2" d="M28.92,19.24a6.09,6.09,0,1,1-6.17-6.09A6.11,6.11,0,0,1,28.92,19.24Z"/></g></g></svg>