<?xml version="1.0" encoding="UTF-8"?>
<svg width="48px" height="48px" viewBox="0 0 48 48" version="1.1" xmlns="http://www.w3.org/2000/svg" xmlns:xlink="http://www.w3.org/1999/xlink">
    <!-- Generator: Sketch 52.6 (67491) - http://www.bohemiancoding.com/sketch -->
    <title>pc-04-ct-kiemtra2</title>
    <desc>Created with Sketch.</desc>
    <g id="Page-1" stroke="none" stroke-width="1" fill="none" fill-rule="evenodd">
        <g id="04_CT-TIÊU-CHUẨN---tiền-tiểu-học" transform="translate(-979.000000, -4548.000000)" stroke="#471873">
            <g id="pc-04-ct-kiemtra2" transform="translate(980.000000, 4549.000000)">
                <path d="M13.9482222,31.6271969 L13.9100234,31.6271969 C10.8082066,31.6271969 8.28466277,34.1507407 8.28466277,37.2525575 C8.28466277,37.7477973 8.68619883,38.1492437 9.18134893,38.1492437 L18.6769864,38.1492437 C19.1721365,38.1492437 19.5736725,37.7477973 19.5735828,37.2525575 C19.5735828,34.1507407 17.0501287,31.6271969 13.9482222,31.6271969 Z M10.1840234,36.3558713 C10.5886082,34.6739571 12.1056218,33.4205692 13.9100234,33.4205692 L13.9482222,33.4205692 C15.7526238,33.4205692 17.2696374,34.6739571 17.6743119,36.3558713 L10.1840234,36.3558713 Z" id="Shape" stroke-width="0.5" fill="#F1CC1F" fill-rule="nonzero"></path>
                <path d="M45.8286433,0.599434698 C45.6959337,0.221929825 45.3290097,-0.0225964912 44.9296257,0.00161403509 C44.530152,0.0252865497 44.1947018,0.310791423 44.1075439,0.701387914 C44.006039,1.15591813 42.9872242,1.88931774 40.4495127,2.46023782 C38.1832281,2.97018324 35.1755634,3.25093567 31.9803119,3.25093567 C31.9795049,3.25093567 31.9786979,3.25093567 31.9779805,3.25093567 C28.7829981,3.250846 25.775961,2.96991423 23.5106628,2.45996881 C20.974924,1.8891384 19.9567368,1.15591813 19.8553216,0.701477583 C19.7681637,0.310881092 19.4327135,0.0252865497 19.0332398,0.00161403509 C18.6354698,-0.0219688109 18.2669318,0.221750487 18.1342222,0.599345029 C18.0792554,0.755996101 18.0524444,0.926814815 18.0524444,1.12157505 L18.0524444,16.3320624 C14.5612865,16.6216023 10.6817739,16.5313957 7.51378168,16.0779415 C3.24465887,15.4668499 1.91541131,14.4516218 1.80305653,13.9481326 C1.71589864,13.5575361 1.38044834,13.2719415 0.980974659,13.248269 C0.582218324,13.2246862 0.214666667,13.4684951 0.081957115,13.8460897 C0.0269005848,14.0028304 8.9668616e-05,14.1736491 8.9668616e-05,14.3684094 L8.9668616e-05,31.143614 C8.9668616e-05,36.3816959 3.54119298,40.0891345 6.51173489,42.2768694 C9.57239376,44.5309591 13.0535088,45.9105107 13.9291228,45.9105107 C14.8047368,45.9105107 18.2858519,44.5309591 21.3465107,42.2768694 C24.3170526,40.0891345 27.8581559,36.3816959 27.8581559,31.143614 L27.8581559,31.082729 C29.7740156,32.0913216 31.4178207,32.6636764 31.9813879,32.6636764 C32.8570019,32.6636764 36.338117,31.2841248 39.3987758,29.0301248 C42.3693177,26.8423002 45.9104211,23.1348616 45.9104211,17.8968694 L45.9104211,1.12166472 C45.9104211,0.926904483 45.8836998,0.75608577 45.8286433,0.599434698 Z M26.0647836,31.1435244 C26.0647836,35.5615867 23.0115673,38.7834698 20.4502729,40.7082963 C17.4755166,42.9439142 14.4901793,44.0046043 13.9291228,44.1119376 C13.3680663,44.0046043 10.382729,42.9440039 7.40797271,40.7082963 C4.84667836,38.7834698 1.79346199,35.5615867 1.79346199,31.1435244 L1.79346199,16.313232 C3.00703704,16.9906784 4.8328694,17.5059142 7.25957115,17.8532904 C10.5086238,18.3184912 14.4725146,18.4172164 18.0547758,18.1318908 C18.0548655,18.1337739 18.0549552,18.1356569 18.0549552,18.13754 C18.0556725,18.1745731 18.0572865,18.2112476 18.0583626,18.248191 C18.0597076,18.292846 18.0607836,18.337501 18.062577,18.3820663 C18.063653,18.4067251 18.0652671,18.431115 18.0664327,18.4557739 C18.0765653,18.6641637 18.092078,18.8717466 18.1135088,19.0783431 C18.1141365,19.0845302 18.1146745,19.0908967 18.1153021,19.0970838 C18.1224756,19.1651423 18.1306355,19.2330214 18.1389747,19.3009006 C18.14023,19.3111228 18.141306,19.3215244 18.1425614,19.3317466 C18.1512593,19.4003431 18.1608538,19.4687602 18.170807,19.5370877 C18.1720624,19.5458752 18.1732281,19.5546628 18.1744834,19.5634503 C18.1847953,19.6328538 18.1959142,19.7021676 18.2074815,19.7713918 C18.2086472,19.7784756 18.2097232,19.7856491 18.2108889,19.7927329 C18.2217388,19.8567563 18.233306,19.9206004 18.245232,19.9844444 L8.39145809,19.9844444 C7.89630799,19.9844444 7.49477193,20.3858908 7.49477193,20.8811306 C7.49477193,21.3763704 7.89630799,21.7778168 8.39145809,21.7778168 L18.7348226,21.7778168 C19.2059415,23.0797154 19.9195244,24.335345 20.8729708,25.5351111 C21.0675517,25.7799064 21.2723548,26.0212047 21.4850487,26.2595439 C20.2756881,26.8613099 18.8160624,26.7580117 17.6927836,25.9491111 C17.2908889,25.6595712 16.7305497,25.7509435 16.4411891,26.1527485 C16.1518285,26.5546433 16.2429318,27.1149825 16.6448265,27.4044327 C17.602308,28.0939844 18.7243314,28.4387602 19.8462651,28.4387602 C20.8690253,28.4387602 21.8914269,28.1512827 22.7895478,27.5783002 C23.7512437,28.4586667 24.8452008,29.2855906 26.0647836,30.05154 L26.0647836,31.1435244 Z M44.1170487,17.8968694 C44.1170487,22.3149318 41.0638324,25.5367251 38.502538,27.4616413 C35.5277817,29.6972593 32.5424444,30.7579493 31.9813879,30.865193 C31.5464055,30.7819805 29.6542183,30.1253372 27.4397622,28.7929513 C27.4342924,28.7894542 27.4294503,28.7853294 27.4238908,28.781922 C25.1334854,27.4034464 21.5877193,24.7307836 20.318191,20.8452632 C20.3078791,20.8136101 20.2976569,20.7819571 20.2877037,20.7502144 C20.2640312,20.6751618 20.2411657,20.5996608 20.2191969,20.5237115 C20.1997388,20.4562807 20.1806394,20.3885809 20.162616,20.3204327 C20.1495244,20.2712047 20.1371501,20.2217076 20.1248655,20.1721209 C20.1075595,20.1021793 20.0908811,20.0318791 20.0750994,19.9611306 C20.0643392,19.9133372 20.053848,19.8654542 20.0438051,19.8173021 C20.0260507,19.7317583 20.0093723,19.6457661 19.9939493,19.5591462 C19.9874035,19.5226511 19.9809474,19.4860663 19.9747602,19.4493918 C19.9572749,19.3442105 19.9410448,19.2384016 19.9269669,19.1316062 C19.9236491,19.1063197 19.9208694,19.0807641 19.917731,19.0553879 C19.9056257,18.9573801 19.8949552,18.8588343 19.8858986,18.7594815 C19.8837466,18.7359883 19.8812359,18.7126745 19.8792632,18.6891813 C19.8696686,18.5743158 19.8623158,18.4585536 19.856846,18.3419844 C19.8555906,18.3158012 19.854694,18.2894386 19.8536179,18.2631657 C19.8489552,18.1418441 19.8457271,18.0199844 19.8457271,17.8967797 L19.8457271,17.1506472 L19.8457271,8.53107212 L37.1960663,8.53107212 C37.6912164,8.53107212 38.0927524,8.12962573 38.0927524,7.63438596 C38.0927524,7.1391462 37.6912164,6.73769981 37.1960663,6.73769981 L19.8458168,6.73769981 L19.8457271,3.0757232 C20.6554347,3.52424561 21.7429357,3.90031579 23.1167485,4.20967251 C25.5074035,4.74786355 28.6544133,5.04430799 31.9778012,5.04448733 C31.9786979,5.04448733 31.9794152,5.04448733 31.9802222,5.04448733 C35.3038791,5.04448733 38.4514269,4.74813255 40.8431579,4.21003119 C42.2184055,3.9005848 43.3068031,3.52433528 44.1170487,3.0757232 L44.1170487,17.8968694 Z" id="Shape" stroke-width="0.2" fill="#F8F0FF" fill-rule="nonzero"></path>
                <path d="M41.0999688,12.6694581 C39.1850955,11.2903548 36.6119649,11.2903548 34.6970916,12.6694581 C34.2951969,12.9589084 34.2040936,13.5192476 34.4934542,13.9211423 C34.7828148,14.3228577 35.3432437,14.41423 35.7450487,14.1246901 C37.0331384,13.1969786 38.7638324,13.1969786 40.051922,14.1246901 C40.2104561,14.2388382 40.3936491,14.2938051 40.5751384,14.2938051 C40.8536491,14.2938051 41.1283041,14.1643236 41.3035166,13.9210526 C41.5929669,13.5193372 41.5018635,12.9589084 41.0999688,12.6694581 Z" id="Path" stroke-width="0.2" fill="#F8F0FF"></path>
                <path d="M28.7756154,13.0343275 C26.8606525,11.6552242 24.2876115,11.6552242 22.3727383,13.0343275 C21.9708435,13.3237778 21.8797402,13.884117 22.1691008,14.2860117 C22.4584615,14.6877271 23.0188006,14.7790994 23.4206954,14.4895595 C24.708785,13.561848 26.439479,13.561848 27.7275687,14.4895595 C27.8861028,14.6037973 28.0692061,14.6587641 28.250785,14.6587641 C28.5292958,14.6587641 28.8039507,14.5292827 28.9791632,14.2860117 C29.2686135,13.884117 29.1775102,13.3237778 28.7756154,13.0343275 Z" id="Path" stroke-width="0.2" fill="#F8F0FF"></path>
                <path d="M10.7756154,27.0343275 C8.86065249,25.6552242 6.28761155,25.6552242 4.37273826,27.0343275 C3.97084352,27.3237778 3.8797402,27.884117 4.16910083,28.2860117 C4.45846145,28.6877271 5.01880063,28.7790994 5.42069537,28.4895595 C6.70878504,27.561848 8.439479,27.561848 9.72756867,28.4895595 C9.88610278,28.6037973 10.0692061,28.6587641 10.250785,28.6587641 C10.5292958,28.6587641 10.8039507,28.5292827 10.9791632,28.2860117 C11.2686135,27.884117 11.1775102,27.3237778 10.7756154,27.0343275 Z" id="Path-Copy" stroke-width="0.2" fill="#F8F0FF" transform="translate(7.574167, 27.329382) scale(1, -1) translate(-7.574167, -27.329382) "></path>
                <path d="M36.7292515,19.2771384 L27.233614,19.2771384 C26.7384639,19.2771384 26.3369279,19.6785848 26.3369279,20.1738246 C26.3369279,23.2756413 28.8604717,25.7991852 31.9622885,25.7991852 L32.0004873,25.7991852 C35.1023938,25.7991852 37.625848,23.2756413 37.625848,20.1738246 C37.6259376,19.6785848 37.2244016,19.2771384 36.7292515,19.2771384 Z M32.0004873,24.0059025 L31.9622885,24.0059025 C30.1578869,24.0059025 28.6408733,22.7525146 28.2361988,21.0706004 L35.7264873,21.0706004 C35.3219025,22.7525146 33.8049786,24.0059025 32.0004873,24.0059025 Z" id="Shape" stroke-width="0.5" fill="#F1CC1F" fill-rule="nonzero"></path>
            </g>
        </g>
    </g>
</svg>