<?xml version="1.0" encoding="UTF-8"?>
<svg width="43px" height="43px" viewBox="0 0 43 43" version="1.1" xmlns="http://www.w3.org/2000/svg" xmlns:xlink="http://www.w3.org/1999/xlink">
    <!-- Generator: Sketch 52.6 (67491) - http://www.bohemiancoding.com/sketch -->
    <title>pc-04-ct-kiemtra4</title>
    <desc>Created with Sketch.</desc>
    <g id="Page-1" stroke="none" stroke-width="1" fill="none" fill-rule="evenodd">
        <g id="04_CT-TIÊU-CHUẨN---tiền-tiểu-học" transform="translate(-1412.000000, -4552.000000)" stroke="#471873">
            <g id="pc-04-ct-kiemtra4" transform="translate(1413.000000, 4553.000000)">
                <path d="M31.9937134,14.0671616 C31.9937134,14.7306213 31.4560013,15.2683335 30.7925415,15.2683335 C30.1293945,15.2683335 29.5913696,14.7306213 29.5913696,14.0671616 C29.5913696,13.4037017 30.1293945,12.8659897 30.7925415,12.8659897 C31.4560013,12.8659897 31.9937134,13.4037017 31.9937134,14.0671616 Z" id="Path" fill="#F1CC1F"></path>
                <path d="M30.7912903,3.85970308 C28.710823,3.85970308 27.0182343,5.55229191 27.0182343,7.63275907 L27.0182343,7.63401029 C27.0182343,8.29747013 27.5562592,8.8345566 28.2194062,8.8345566 C28.8828659,8.8345566 29.420578,8.29621883 29.420578,7.63275907 C29.420578,6.87702177 30.035553,6.26204683 30.7925415,6.26204683 C31.1591492,6.26204683 31.5032349,6.40468599 31.763176,6.6649399 C32.0221787,6.92331694 32.164505,7.26771541 32.164505,7.63401029 C32.164505,8.39068604 31.5492172,9.00597384 30.7925415,9.00597384 C30.1293945,9.00597384 29.5913696,9.54399874 29.5913696,10.2071457 C29.5913696,10.8706055 30.1293945,11.4083176 30.7925415,11.4083176 C32.8739472,11.4083176 34.5668487,9.71510311 34.5668487,7.63401029 C34.5668487,6.62521362 34.1739654,5.67741398 33.461708,4.96609497 C32.7494507,4.25258638 31.801651,3.85970308 30.7912903,3.85970308 Z" id="Path" fill="#F1CC1F"></path>
                <path d="M1.20117187,19.1280365 L14.0671616,19.1280365 C14.7303086,19.1280365 15.2683335,18.5903244 15.2683335,17.9268647 L15.2683335,15.3537292 C15.2683335,11.8290405 13.0358429,9.58278658 11.2315826,8.61621855 C12.1355896,7.70157621 12.6948853,6.44566349 12.6948853,5.06087496 C12.6948853,2.27033993 10.4248581,0 7.63401029,0 C4.84347534,0 2.57313534,2.27033993 2.57313534,5.06087496 C2.57313534,6.44566349 3.13243107,7.70157621 4.03643799,8.61621855 C2.2359314,9.58090971 0,11.828415 0,15.3537292 L0,17.9268647 C0,18.5903244 0.537712117,19.1280365 1.20117187,19.1280365 Z M4.97547909,5.06087496 C4.97547909,3.59506987 6.16820528,2.40234375 7.63401029,2.40234375 C9.10012817,2.40234375 10.2925415,3.59506987 10.2925415,5.06087496 C10.2925415,6.52699276 9.10012817,7.71940617 7.63401029,7.71940617 C6.16820528,7.71940617 4.97547909,6.52699276 4.97547909,5.06087496 Z M2.40234375,15.3537292 C2.40234375,12.4640351 4.74024959,10.1217499 7.63401029,10.1217499 C10.5237045,10.1217499 12.8656768,12.4599685 12.8656768,15.3537292 L12.8656768,16.7256928 L2.40234375,16.7256928 L2.40234375,15.3537292 Z" id="Shape" fill="#F8F0FF" fill-rule="nonzero"></path>
                <path d="M35.963562,30.4881821 C36.8675689,29.5735398 37.4268647,28.317627 37.4268647,26.9331513 C37.4268647,24.1423035 35.1565247,21.8719635 32.3659897,21.8719635 C29.5754547,21.8719635 27.3051147,24.1423035 27.3051147,26.9331513 C27.3051147,28.317627 27.8644104,29.5735398 28.7684174,30.4881821 C26.9675979,31.4528732 24.7316665,33.7003784 24.7316665,37.2256928 L24.7316665,39.7988281 C24.7316665,40.4622879 25.2696914,41 25.9328384,41 L38.7988281,41 C39.4622879,41 40,40.4622879 40,39.7988281 L40,37.2256928 C40,33.701004 37.7675095,31.45475 35.963562,30.4881821 Z M29.7074585,26.9328384 C29.7074585,25.4670334 30.8998718,24.2743072 32.3659897,24.2743072 C33.8317947,24.2743072 35.0245209,25.4670334 35.0245209,26.9328384 C35.0245209,28.3989563 33.8317947,29.5913696 32.3659897,29.5913696 C30.8998718,29.5913696 29.7074585,28.3989563 29.7074585,26.9328384 Z M37.5976562,38.5976562 L27.1340103,38.5976562 L27.1340103,37.2256928 C27.1340103,34.3359985 29.4719162,31.9940262 32.3656768,31.9940262 C35.2553711,31.9940262 37.5976562,34.3319321 37.5976562,37.2256928 L37.5976562,38.5976562 Z" id="Shape" fill="#F8F0FF" fill-rule="nonzero"></path>
                <path d="M35.939125,0 L25.6462708,0 C22.8510437,0 20.5853958,2.26158146 20.5853958,5.06087496 L20.5853958,12.3802032 L16.9659272,17.2061615 C16.3734741,17.9963074 16.9380874,19.1280365 17.9268647,19.1280365 L35.939125,19.1280365 C38.7296601,19.1280365 41,16.8576965 41,14.0671616 L41,5.06087496 C41,2.27033993 38.7296601,0 35.939125,0 Z M38.5976562,14.0671616 C38.5976562,15.5329666 37.4049301,16.7256928 35.939125,16.7256928 L20.3292084,16.7256928 L22.7475052,13.501297 C22.903595,13.2932815 22.9877395,13.040535 22.9877395,12.7805938 L22.9877395,5.06087496 C22.9877395,3.5913162 24.1760864,2.40234375 25.6462708,2.40234375 L35.939125,2.40234375 C37.4049301,2.40234375 38.5976562,3.59506987 38.5976562,5.06087496 L38.5976562,14.0671616 Z" id="Shape" fill="#F8F0FF" fill-rule="nonzero"></path>
                <path d="M23.0731353,21.8719635 L5.06087496,21.8719635 C2.27033993,21.8719635 0,24.1423035 0,26.9328384 L0,35.939125 C0,38.7296601 2.27033993,41 5.06087496,41 L15.3537292,41 C18.1489563,41 20.4146042,38.7384185 20.4146042,35.939125 L20.4146042,28.6197968 L24.0340728,23.7938385 C24.3071518,23.4300461 24.3509445,22.9430084 24.1476211,22.5360489 C23.9439849,22.1290894 23.5282669,21.8719635 23.0731353,21.8719635 Z M18.2524948,27.498703 C18.096405,27.7067185 18.0122605,27.959465 18.0122605,28.2194062 L18.0122605,35.939125 C18.0122605,36.6491928 17.7357407,37.3170318 17.234314,37.8187714 C16.7313232,38.3211365 16.063797,38.5976562 15.3537292,38.5976562 L5.06087496,38.5976562 C3.59506987,38.5976562 2.40234375,37.4049301 2.40234375,35.939125 L2.40234375,26.9328384 C2.40234375,25.4670334 3.59506987,24.2743072 5.06087496,24.2743072 L20.6707916,24.2743072 L18.2524948,27.498703 Z" id="Shape" fill="#F8F0FF" fill-rule="nonzero"></path>
                <path d="M6.34744263,30.0640183 L14.0671616,30.0640183 C14.7303086,30.0640183 15.2683335,29.5263062 15.2683335,28.8628464 C15.2683335,28.1993866 14.7303086,27.6616745 14.0671616,27.6616745 L6.34744263,27.6616745 C5.68429565,27.6616745 5.14627075,28.1993866 5.14627075,28.8628464 C5.14627075,29.5263062 5.68398287,30.0640183 6.34744263,30.0640183 Z" id="Path" fill="#F1CC1F"></path>
                <path d="M6.34744263,35.210289 L10.2074585,35.210289 C10.8706055,35.210289 11.4086304,34.6725769 11.4086304,34.0091171 C11.4086304,33.3456573 10.8706055,32.8079453 10.2074585,32.8079453 L6.34744263,32.8079453 C5.68429565,32.8079453 5.14627075,33.3456573 5.14627075,34.0091171 C5.14627075,34.6725769 5.68398287,35.210289 6.34744263,35.210289 Z" id="Path" fill="#F1CC1F"></path>
            </g>
        </g>
    </g>
</svg>