<?xml version="1.0" encoding="UTF-8"?>
<svg width="38px" height="38px" viewBox="0 0 38 38" version="1.1" xmlns="http://www.w3.org/2000/svg" xmlns:xlink="http://www.w3.org/1999/xlink">
    <!-- Generator: Sketch 52.6 (67491) - http://www.bohemiancoding.com/sketch -->
    <title>pc-04-pp1</title>
    <desc>Created with Sketch.</desc>
    <g id="Page-1" stroke="none" stroke-width="1" fill="none" fill-rule="evenodd">
        <g id="04_CT-TIÊU-CHUẨN---tiền-tiểu-học" transform="translate(-616.000000, -2922.000000)">
            <g id="pc-04-pp1" transform="translate(616.000000, 2922.000000)">
                <rect id="Rectangle" fill="#5A1E8D" x="9.9475" y="0" width="18.9" height="18.9"></rect>
                <rect id="Rectangle" fill="#491387" x="0" y="18.9" width="18.9" height="18.9"></rect>
                <rect id="Rectangle" fill="#491387" x="18.9" y="18.9" width="18.9" height="18.9"></rect>
                <rect id="Rectangle" fill="#FFDA00" x="12.1225" y="2.1775" width="14.5475" height="14.5475" rx="2.29881627"></rect>
                <rect id="Rectangle" fill="#FFDA00" x="21.075" y="21.075" width="14.5475" height="14.5475" rx="2.29881627"></rect>
                <rect id="Rectangle" fill="#FFDA00" x="2.1775" y="21.075" width="14.5475" height="14.5475" rx="2.29881627"></rect>
                <path d="M21.4225,12.7775 L20.8325,11.2775 L17.8875,11.2775 L17.3275,12.7775 L15.3275,12.7775 L18.52,5.1675 L20.305,5.1675 L23.465,12.7775 L21.4225,12.7775 Z M19.38,7.2 L18.4125,9.8125 L20.3275,9.8125 L19.38,7.2 Z" id="Shape" fill="#491387" fill-rule="nonzero"></path>
                <path d="M12.8925,29.94 C12.904008,30.3052068 12.8176964,30.6668527 12.6425,30.9875 C12.4885195,31.2649613 12.2676676,31.4995628 12,31.67 C11.7144743,31.8481999 11.3995934,31.9743216 11.07,32.0425 C10.718363,32.1180329 10.3596571,32.1557473 10,32.155 L6.96,32.1550109 L6.96,24.545 L10,24.545 C10.3038509,24.545985 10.6069063,24.5761231 10.905,24.635 C11.1996544,24.6916832 11.482736,24.7973107 11.7425,24.9475 C12.2971341,25.2621171 12.6262511,25.8632396 12.5925,26.5 C12.6077547,26.8789568 12.4861875,27.250757 12.25,27.5475 C12.0127864,27.829201 11.6994692,28.0366326 11.3475,28.145 L11.3475,28.1675 C11.5588405,28.2021588 11.7636819,28.2687533 11.955,28.365 C12.1426208,28.4582356 12.3119749,28.5844044 12.455,28.7375 C12.5967456,28.8908945 12.7094121,29.068789 12.7875,29.2625 C12.8661334,29.4793798 12.9017967,29.7094927 12.8925,29.94 Z M10.8075,26.75 C10.8226208,26.5213067 10.7087978,26.3033067 10.5125,26.185 C10.2410859,26.0511752 9.93960769,25.9900182 9.6375,26.0075 L8.7325,26.0075 L8.7325,27.5775 L9.7325,27.5775 C10.014743,27.5946559 10.2950724,27.5210695 10.5325,27.3675 C10.7214574,27.2204454 10.8246083,26.9888248 10.8075,26.75 Z M11.0575,29.77 C11.0826547,29.4999373 10.9425046,29.2413504 10.7025,29.115 C10.4063005,28.9804924 10.0824845,28.9179565 9.7575,28.9325 L8.7325,28.9325 L8.7325,30.6825 L9.765,30.6825 C9.91497869,30.6831714 10.0647247,30.6706229 10.2125,30.645 C10.3575379,30.6220794 10.4982882,30.5774102 10.63,30.5125 C10.7539483,30.4480833 10.8596949,30.3535132 10.9375,30.2375 C11.023255,30.0963039 11.064221,29.9324401 11.055,29.7675 L11.0575,29.77 Z" id="Shape" fill="#491387" fill-rule="nonzero"></path>
                <path d="M30.39,32.02 C29.8510377,32.2548419 29.2678046,32.3708064 28.68,32.36 C28.1239351,32.3656897 27.5717854,32.2664554 27.0525,32.0675 C26.0744953,31.698588 25.2938738,30.9397007 24.8975,29.9725 C24.4774718,28.9160515 24.4774718,27.7389485 24.8975,26.6825 C25.0985697,26.2092428 25.3966514,25.7834119 25.7725,25.4325 C26.1518201,25.0803764 26.5982035,24.8082951 27.085,24.6325 C28.120977,24.255749 29.256523,24.255749 30.2925,24.6325 C30.7775437,24.7990464 31.2126663,25.0854017 31.5575,25.465 L30.3075,26.715 C30.1362437,26.4784917 29.9012762,26.2955466 29.63,26.1875 C29.3574254,26.0741393 29.0652071,26.0155258 28.77,26.015 C28.4650551,26.0119439 28.1628122,26.0723924 27.8825,26.1925 C27.6200293,26.3102752 27.3843799,26.4804191 27.19,26.6925 C26.9910678,26.9101271 26.837268,27.1650438 26.7375,27.4425 C26.6279676,27.7393 26.5737391,28.0536562 26.5775,28.37 C26.5733692,28.6928892 26.627572,29.0138714 26.7375,29.3175 C26.8367709,29.5895971 26.9888528,29.8393854 27.185,30.0525 C27.3815164,30.2478551 27.6164833,30.4002431 27.875,30.5 C28.1501284,30.6162045 28.4463658,30.67409 28.745,30.67 C29.0770691,30.6789634 29.4061414,30.6050725 29.7025,30.455 C29.9619185,30.3236844 30.1864188,30.1326021 30.3575,29.8975 L31.6375,31.1 C31.2931322,31.493318 30.8675022,31.8072094 30.39,32.02 Z" id="Path" fill="#491387"></path>
            </g>
        </g>
    </g>
</svg>