<?xml version="1.0" encoding="UTF-8"?>
<svg width="38px" height="36px" viewBox="0 0 38 36" version="1.1" xmlns="http://www.w3.org/2000/svg" xmlns:xlink="http://www.w3.org/1999/xlink">
    <!-- Generator: Sketch 52.6 (67491) - http://www.bohemiancoding.com/sketch -->
    <title>pc-04-pp5</title>
    <desc>Created with Sketch.</desc>
    <g id="Page-1" stroke="none" stroke-width="1" fill="none" fill-rule="evenodd">
        <g id="04_CT-TIÊU-CHUẨN---tiền-tiểu-học" transform="translate(-720.000000, -3093.000000)">
            <g id="pc-04-pp5" transform="translate(720.000000, 3093.000000)">
                <path d="M25.36,30.0226415 C26.3319094,29.0619376 26.4845448,27.5281145 25.7216743,26.3882014 C24.9588038,25.2482883 23.5016435,24.8328355 22.2688889,25.4037736 C22.1981637,25.4332293 22.122995,25.4500784 22.0466667,25.4535849 C21.8614017,25.4627956 21.6802,25.3962306 21.5433301,25.2686828 C21.4064603,25.141135 21.3252612,24.9631709 21.3177778,24.7743396 L21.3177778,20.2030189 L17.7422222,20.2030189 C17.7910382,20.4566033 17.8155976,20.7144142 17.8155556,20.9728302 C17.816347,21.2356717 17.7925355,21.4979911 17.7444444,21.7562264 C17.3234807,24.0401844 15.1649958,25.5440008 12.9233333,25.1150943 C10.6816709,24.6861879 9.20570296,22.4869768 9.62666667,20.2030189 L6.04661415,20.2030189 L6.04666667,34.9969811 C6.0442909,35.2021119 6.12260967,35.3996753 6.2641454,35.5455831 C6.40568112,35.6914908 6.5986539,35.7735992 6.8,35.7735849 L21.3333333,35.7735849 C21.3333333,35.8437736 21.3333333,31.2837736 21.3333333,31.1909434 C21.3392864,31.1315405 21.3519632,31.0730385 21.3711111,31.0166038 C21.4322325,30.8334091 21.5625271,30.6826085 21.7331292,30.5976105 C21.9037313,30.5126124 22.1005565,30.5004341 22.28,30.5637736 C23.3188272,31.0408877 24.5380033,30.826688 25.36,30.0226415 Z" id="Path" fill="#5A1E8D"></path>
                <path d="M37.1888889,3.26264151 L22.6666667,3.26264151 C22.6666667,3.19245283 22.6666667,7.75018868 22.6666667,7.84301887 C22.662927,7.92097936 22.645621,7.99764265 22.6155556,8.06943396 C22.4729107,8.42429148 22.0758236,8.59522627 21.7266667,8.45207547 C20.5588964,7.91048326 19.1790524,8.25277029 18.3863313,9.28068612 C17.5936102,10.3086019 17.5936102,11.755549 18.3863313,12.7834648 C19.1790524,13.8113807 20.5588964,14.1536677 21.7266667,13.6120755 C21.9348995,13.5166595 22.1765739,13.5364555 22.367171,13.6645404 C22.5577682,13.7926254 22.6707735,14.011181 22.6666667,14.2437736 C22.6666667,20.5245283 22.6666667,18.3577358 22.6666667,18.8286792 L26.2466667,18.8286792 C26.1977433,18.5758746 26.1731822,18.3188041 26.1733333,18.0611321 C26.1729019,17.8006608 26.1959618,17.5407 26.2422222,17.2845283 C26.661345,14.9993199 28.8193325,13.4929693 31.0622222,13.92 C33.305112,14.3470307 34.7835672,16.545735 34.3644444,18.8309434 L37.9444477,18.8309434 L37.9444444,4.03471698 C37.9450349,3.83015831 37.8656928,3.63377163 37.7239346,3.48891393 C37.5821764,3.34405624 37.3896603,3.26264062 37.1888889,3.26264151 Z" id="Path" fill="#5A1E8D"></path>
                <path d="M0.222222222,1.02566038 L0.222222222,20.7396226 C0.131111111,20.7396226 6.09333333,20.7396226 6.22222222,20.7396226 C6.52028332,20.751538 6.79385266,20.910999 6.95499882,21.1667513 C7.11614498,21.4225036 7.14456018,21.742317 7.03111111,22.0233962 C6.32539783,23.6083616 6.77417197,25.4794706 8.11779506,26.5541921 C9.46141815,27.6289137 11.3519152,27.6289137 12.6955383,26.5541921 C14.0391614,25.4794706 14.4879355,23.6083616 13.7822222,22.0233962 C13.735116,21.9124557 13.709462,21.7932966 13.7066667,21.6724528 C13.7031042,21.4286461 13.7947595,21.1933858 13.9614641,21.0184404 C14.1281686,20.8434949 14.3562629,20.7431991 14.5955556,20.7396226 C22.8177778,20.7396226 19.9755556,20.7396226 20.5955556,20.7396226 L20.5955556,15.8830189 C20.2643386,15.9467653 19.9281763,15.9801065 19.5911111,15.9826415 C19.250451,15.9826453 18.9105085,15.9508138 18.5755556,15.8875472 C15.5870814,15.3185897 13.6171343,12.3890114 14.1755556,9.34415094 C14.7339768,6.29929049 17.6093036,4.29217458 20.5977778,4.86113208 L20.5977778,0 L1.22888889,0 C0.672922241,-3.46854622e-17 0.222222222,0.459203792 0.222222222,1.02566038 Z" id="Path" fill="#FFDA00"></path>
                <path d="M33.2022222,20.1509434 C32.8582736,20.001223 32.6959803,19.597917 32.8377778,19.245283 C33.0019685,18.878526 33.0868494,18.4800893 33.0866667,18.0769811 C33.0907848,17.0744123 32.5788802,16.142988 31.7377778,15.6226415 C31.1213997,15.23822 30.3802885,15.1192947 29.6777778,15.2920755 C28.8609396,15.4838691 28.1725104,16.0406721 27.8038563,16.8077069 C27.4352022,17.5747418 27.4256216,18.4702428 27.7777778,19.245283 C27.8056421,19.3176708 27.8221406,19.394079 27.8266667,19.4716981 C27.8344777,19.6592495 27.7684638,19.8422147 27.6432871,19.9799564 C27.5181103,20.117698 27.3441343,20.1988122 27.16,20.205283 L22.6666667,20.205283 L22.6666667,23.8528302 C22.9151226,23.8053298 23.1672172,23.7803266 23.42,23.7781132 C24.9191457,23.7426896 26.3195349,24.5373094 27.0793243,25.8545156 C27.8391136,27.1717218 27.8391136,28.804882 27.0793243,30.1220882 C26.3195349,31.4392944 24.9191457,32.2339142 23.42,32.1984906 C23.1671052,32.1985295 22.9148062,32.1735061 22.6666667,32.1237736 L22.6666667,35.7735849 L37.1844444,35.7735849 C37.60086,35.7735867 37.9387752,35.4303083 37.94,35.0060377 L37.94,20.1962264 L33.4511111,20.1962264 C33.3660727,20.1974452 33.2815908,20.1820745 33.2022222,20.1509434 Z" id="Path" fill="#491387"></path>
            </g>
        </g>
    </g>
</svg>