<?xml version="1.0" encoding="UTF-8"?>
<svg width="300px" height="203px" viewBox="0 0 300 203" version="1.1" xmlns="http://www.w3.org/2000/svg" xmlns:xlink="http://www.w3.org/1999/xlink">
    <!-- Generator: Sketch 52.6 (67491) - http://www.bohemiancoding.com/sketch -->
    <title>pc-00-menu pattern</title>
    <desc>Created with Sketch.</desc>
    <g id="Page-1" stroke="none" stroke-width="1" fill="none" fill-rule="evenodd">
        <g id="00_MENU" transform="translate(0.000000, -877.000000)">
            <g id="pc-00-menu-pattern" transform="translate(0.000000, 877.000000)">
                <g id="Group" transform="translate(223.250923, 127.500000)">
                    <path d="M76.7777903,63.2240237 C59.2535347,80.6764298 30.8404213,80.6764298 13.321837,63.2240237 C-4.20241857,45.7716177 -4.20241857,17.4749982 13.321837,0.0225921114 L76.7777903,63.2240237 Z" id="Path" fill="#E8AE38"></path>
                    <g transform="translate(10.208304, 7.342436)" fill="#EFC71D" id="Path">
                        <g transform="translate(36.296193, 32.758562)">
                            <path d="M15.3067851,19.1242223 L18.9080479,15.5377246 C19.1575843,15.2892114 19.5602451,15.2892114 19.8097815,15.5377246 C20.0593178,15.7862378 20.0593178,16.1872478 19.8097815,16.435761 L16.2085186,20.0222587 C15.9589823,20.2707719 15.5563214,20.2707719 15.3067851,20.0222587 C15.0572487,19.7737455 15.0572487,19.3727355 15.3067851,19.1242223 Z"></path>
                            <path d="M12.8227644,16.6503861 L16.4240272,13.0638884 C16.6735636,12.8153752 17.0762245,12.8153752 17.3257608,13.0638884 C17.5752971,13.3124016 17.5752971,13.7134116 17.3257608,13.9619248 L13.7244979,17.5484225 C13.4749616,17.7969357 13.0723007,17.7969357 12.8227644,17.5484225 C12.573228,17.2999093 12.573228,16.8988993 12.8227644,16.6503861 Z"></path>
                            <path d="M10.3330724,14.1765499 L13.9343353,10.5900522 C14.1838716,10.341539 14.5865325,10.341539 14.8360688,10.5900522 C15.0856051,10.8385654 15.0856051,11.2395754 14.8360688,11.4880886 L11.2348059,15.0745863 C10.9852696,15.3230996 10.5826087,15.3230996 10.3330724,15.0745863 C10.0892073,14.8260731 10.0892073,14.4250631 10.3330724,14.1765499 Z"></path>
                            <path d="M5.365031,9.22322948 L8.96629388,5.63673179 C9.2158302,5.38821857 9.61849109,5.38821857 9.86802742,5.63673179 C10.1175637,5.88524502 10.1175637,6.28625499 9.86802742,6.53476822 L6.26676454,10.1212659 C6.01722821,10.3697791 5.61456732,10.3697791 5.365031,10.1212659 C5.11549467,9.87275268 5.11549467,9.4717427 5.365031,9.22322948 Z"></path>
                            <path d="M2.8810103,6.74939328 L6.48227318,3.16289559 C6.73180951,2.91438237 7.1344704,2.91438237 7.38400672,3.16289559 C7.63354305,3.41140882 7.63354305,3.8124188 7.38400672,4.06093202 L3.78274384,7.64742971 C3.53320752,7.89594293 3.13054663,7.89594293 2.8810103,7.64742971 C2.63147398,7.39891648 2.63147398,6.9979065 2.8810103,6.74939328 Z"></path>
                            <path d="M0.391318329,4.27555708 L3.99258121,0.689059397 C4.24211753,0.440546172 4.64477842,0.440546172 4.89431475,0.689059397 C5.14385107,0.937572623 5.14385107,1.3385826 4.89431475,1.58709583 L1.29305187,5.17359351 C1.04351554,5.42210673 0.640854654,5.42210673 0.391318329,5.17359351 C0.147453283,4.92508028 0.147453283,4.52407031 0.391318329,4.27555708 Z"></path>
                            <path d="M14.6148889,24.7666021 L21.3920686,18.0172088 C21.641605,17.7686956 22.0442658,17.7686956 22.2938022,18.0172088 C22.5433385,18.2657221 22.5433385,18.666732 22.2938022,18.9152453 L15.5166224,25.6646385 C15.2670861,25.9131518 14.8644252,25.9131518 14.6148889,25.6646385 C14.3653526,25.4161253 14.3653526,25.0094673 14.6148889,24.7666021 Z"></path>
                            <path d="M4.67313482,14.8656093 L11.4503146,8.11621602 C11.6998509,7.86770279 12.1025118,7.86770279 12.3520481,8.11621602 C12.6015844,8.36472924 12.6015844,8.76573922 12.3520481,9.01425245 L5.57486836,15.7636457 C5.32533204,16.0121589 4.92267115,16.0121589 4.67313482,15.7636457 C4.4235985,15.5151325 4.4235985,15.1141225 4.67313482,14.8656093 Z"></path>
                        </g>
                        <g transform="translate(6.238408, 2.824014)">
                            <path d="M24.4262035,34.5376903 L31.2033832,27.788297 C31.4529196,27.5397838 31.8555805,27.5397838 32.1051168,27.788297 C32.3546531,28.0368102 32.3546531,28.4378202 32.1051168,28.6863334 L25.327937,35.4357267 C25.0784007,35.6842399 24.6757398,35.6842399 24.4262035,35.4357267 C24.1766672,35.1872135 24.1766672,34.7862035 24.4262035,34.5376903 Z"></path>
                            <path d="M25.1180997,28.8953105 L28.7193626,25.3088128 C28.9688989,25.0602996 29.3715598,25.0602996 29.6210961,25.3088128 C29.8706324,25.557326 29.8706324,25.958336 29.6210961,26.2068492 L26.0198332,29.7933469 C25.7702969,30.0418601 25.367636,30.0418601 25.1180997,29.7933469 C24.8685633,29.5448337 24.8685633,29.1438237 25.1180997,28.8953105 Z"></path>
                            <path d="M22.634079,26.4214743 L26.2353419,22.8349766 C26.4848782,22.5864634 26.8875391,22.5864634 27.1370754,22.8349766 C27.3866117,23.0834898 27.3866117,23.4844998 27.1370754,23.733013 L23.5358125,27.3195107 C23.2862762,27.5680239 22.8836153,27.5680239 22.634079,27.3195107 C22.3845427,27.0709975 22.3845427,26.6699875 22.634079,26.4214743 Z"></path>
                            <path d="M20.144387,23.9476381 L23.7456499,20.3611404 C23.9951862,20.1126272 24.3978471,20.1126272 24.6473834,20.3611404 C24.8969197,20.6096536 24.8969197,21.0106636 24.6473834,21.2591768 L21.0461205,24.8456745 C20.7965842,25.0941877 20.3939233,25.0941877 20.144387,24.8456745 C19.900522,24.5971613 19.900522,24.1961513 20.144387,23.9476381 Z"></path>
                            <path d="M15.1763456,18.9943177 L18.7776085,15.40782 C19.0271448,15.1593067 19.4298057,15.1593067 19.679342,15.40782 C19.9288784,15.6563332 19.9288784,16.0573432 19.679342,16.3058564 L16.0780792,19.8923541 C15.8285428,20.1408673 15.4258819,20.1408673 15.1763456,19.8923541 C14.9268093,19.6438409 14.9268093,19.2428309 15.1763456,18.9943177 Z"></path>
                            <path d="M12.6923249,16.5204815 L16.2935878,12.9339838 C16.5431241,12.6854705 16.945785,12.6854705 17.1953213,12.9339838 C17.4448577,13.182497 17.4448577,13.583507 17.1953213,13.8320202 L13.5940585,17.4185179 C13.3445221,17.6670311 12.9418612,17.6670311 12.6923249,17.4185179 C12.4427886,17.1700047 12.4427886,16.7689947 12.6923249,16.5204815 Z"></path>
                            <path d="M10.2026329,14.0466453 L13.8038958,10.4601476 C14.0534321,10.2116343 14.456093,10.2116343 14.7056294,10.4601476 C14.9551657,10.7086608 14.9551657,11.1096708 14.7056294,11.358184 L11.1043665,14.9446817 C10.8548302,15.1931949 10.4521693,15.1931949 10.2026329,14.9446817 C9.9587679,14.6961685 9.9587679,14.2951585 10.2026329,14.0466453 Z"></path>
                            <path d="M5.23459155,9.09332484 L8.83585443,5.50682715 C9.08539076,5.25831393 9.48805165,5.25831393 9.73758797,5.50682715 C9.9871243,5.75534038 9.9871243,6.15635035 9.73758797,6.40486358 L6.13632509,9.99136126 C5.88678877,10.2398745 5.48412788,10.2398745 5.23459155,9.99136126 C4.98505523,9.74284804 4.98505523,9.34183806 5.23459155,9.09332484 Z"></path>
                            <path d="M2.75057086,6.61948864 L6.35183374,3.03299095 C6.60137006,2.78447773 7.00403095,2.78447773 7.25356728,3.03299095 C7.5031036,3.28150418 7.5031036,3.68251416 7.25356728,3.93102738 L3.6523044,7.51752507 C3.40276807,7.76603829 3.00010719,7.76603829 2.75057086,7.51752507 C2.50103453,7.26901184 2.50103453,6.86800186 2.75057086,6.61948864 Z"></path>
                            <path d="M0.260878886,4.14565244 L3.86214176,0.559154757 C4.11167809,0.310641532 4.51433898,0.310641532 4.7638753,0.559154757 C5.01341163,0.807667982 5.01341163,1.20867796 4.7638753,1.45719118 L1.16261243,5.04368887 C0.9130761,5.29220209 0.510415211,5.29220209 0.260878886,5.04368887 C0.0170138404,4.79517564 0.0170138404,4.39416567 0.260878886,4.14565244 Z"></path>
                            <path d="M14.4844494,24.6366975 L21.2616292,17.8873042 C21.5111655,17.638791 21.9138264,17.638791 22.1633627,17.8873042 C22.4128991,18.1358174 22.4128991,18.5368274 22.1633627,18.7853406 L15.386183,25.5347339 C15.1366467,25.7832471 14.7339858,25.7832471 14.4844494,25.5347339 C14.2349131,25.2862207 14.2349131,24.8852107 14.4844494,24.6366975 Z"></path>
                            <path d="M4.54269538,14.7357047 L11.3198751,7.98631138 C11.5694115,7.73779815 11.9720723,7.73779815 12.2216087,7.98631138 C12.471145,8.2348246 12.471145,8.63583458 12.2216087,8.8843478 L5.44442892,15.6337411 C5.19489259,15.8822543 4.79223171,15.8822543 4.54269538,15.6337411 C4.29315905,15.3852279 4.29315905,14.9842179 4.54269538,14.7357047 Z"></path>
                        </g>
                        <path d="M0.47638753,7.29725198 L7.25356728,0.547858701 C7.5031036,0.299345476 7.90576449,0.299345476 8.15530082,0.547858701 C8.40483714,0.796371927 8.40483714,1.1973819 8.15530082,1.44589513 L1.37812107,8.19528841 C1.12858474,8.44380163 0.725923856,8.44380163 0.47638753,8.19528841 C0.226851205,7.94677518 0.226851205,7.5457652 0.47638753,7.29725198 Z"></path>
                    </g>
                </g>
                <g id="Group-2" transform="translate(158.000000, 90.000000)">
                    <rect id="Rectangle" fill="#EAA00A" x="23.913135" y="22.2530004" width="2.63475269" height="66.1311298"></rect>
                    <g id="Group" transform="translate(0.042185, 25.441134)">
                        <path d="M50.0241466,0.149443764 L47.3893939,0.149443764 C35.1285294,0.149443764 25.1905857,10.1078328 25.1905857,22.3939216 L25.1905857,25.0340947 L50.0241466,0.149443764 Z" id="Path" fill="#DD9F27"></path>
                        <path d="M50.0241466,0.149443764 L50.0241466,2.78961693 C50.0241466,15.0757058 40.086203,25.0340947 27.8253384,25.0340947 L25.1905857,25.0340947 L50.0241466,0.149443764 Z" id="Path" fill="#EFC71D"></path>
                        <path d="M0.357024807,0.149443764 L2.99177749,0.149443764 C15.2526421,0.149443764 25.1905857,10.1078328 25.1905857,22.3939216 L25.1905857,25.0340947 L0.357024807,0.149443764 Z" id="Path" fill="#FFCD52"></path>
                        <path d="M0.357024807,0.149443764 L0.357024807,2.78961693 C0.357024807,15.0757058 10.2949685,25.0340947 22.555833,25.0340947 L25.1905857,25.0340947 L0.357024807,0.149443764 Z" id="Path" fill="#EAA00A"></path>
                    </g>
                    <g id="Group" transform="translate(0.042185, 0.080980)">
                        <path d="M0.357024807,0.276244533 L2.99177749,0.276244533 C15.2526421,0.276244533 25.1905857,10.2346335 25.1905857,22.5207224 L25.1905857,25.1608955 L0.357024807,0.276244533 Z" id="Path" fill="#DD9F27"></path>
                        <path d="M0.357024807,0.276244533 L0.357024807,2.91641769 C0.357024807,15.2025065 10.2949685,25.1608955 22.555833,25.1608955 L25.1905857,25.1608955 L0.357024807,0.276244533 Z" id="Path" fill="#EFC71D"></path>
                        <path d="M50.0241466,0.276244533 L47.3893939,0.276244533 C35.1285294,0.276244533 25.1905857,10.2346335 25.1905857,22.5207224 L25.1905857,25.1608955 L50.0241466,0.276244533 Z" id="Path" fill="#FFCD52"></path>
                        <path d="M50.0241466,0.276244533 L50.0241466,2.91641769 C50.0241466,15.2025065 40.086203,25.1608955 27.8253384,25.1608955 L25.1905857,25.1608955 L50.0241466,0.276244533 Z" id="Path" fill="#EAA00A"></path>
                    </g>
                </g>
                <path d="M240.399893,200.01361 L240.399893,203.114377 L164.648605,203.114377 L164.648605,194.698816 L106.81289,194.698816 L106.81289,140.963479 L56.9680089,140.963479 L56.9680089,115.541706 L7.62787177,115.541706 L7.62787177,64.6247346 L46.2492894,64.6247346 C52.2041335,64.6247346 57.0303929,69.4312063 57.0303929,75.3616356 L57.0303929,79.3321992 C57.0303929,85.0705954 61.5504032,89.7528105 67.2330259,90.052156 L96.0941704,90.052156 C102.049015,90.052156 106.875274,94.8586277 106.875274,100.789057 L106.875274,104.753972 C106.875274,110.492369 111.395284,115.180232 117.077907,115.473929 L139.859439,115.473929 C141.918114,115.473929 143.840678,116.050028 145.479678,117.044081 C148.576197,118.930522 150.640543,122.330635 150.640543,126.21083 L150.640543,130.181394 C150.640543,136.106175 155.466802,140.912647 161.421646,140.912647 L165.255432,140.912647 C171.210276,140.912647 176.036535,145.719118 176.036535,151.649548 L176.036535,156.947398 C176.036535,160.765465 179.144397,163.866232 182.983853,163.866232 L203.275694,163.866232 C209.230538,163.866232 214.051126,168.672704 214.051126,174.597485 L214.051126,178.568048 C214.051126,184.306445 218.571136,188.98866 224.253759,189.288005 L229.61879,189.288005 C235.573634,189.276709 240.399893,194.083181 240.399893,200.01361 Z" id="Path" fill="#DD9F27"></path>
                <g id="Group" transform="translate(46.504497, 0.000000)">
                    <polygon id="Rectangle" fill="#623A87" transform="translate(21.929326, 93.954943) rotate(90.000000) translate(-21.929326, -93.954943) " points="-72.025617 72.3302559 115.884269 72.3302559 115.884269 115.579438 -72.025617 115.579438"></polygon>
                    <g id="Group-5" transform="translate(28.000000, 3.000000)" fill="#39105F">
                        <path d="M1.54736945,180.560905 L11.6876183,180.560905 C12.0619228,180.560905 12.3625006,180.860251 12.3625006,181.23302 C12.3625006,181.60579 12.0619228,181.905136 11.6876183,181.905136 L1.54736945,181.905136 C1.17306496,181.905136 0.872487114,181.60579 0.872487114,181.23302 C0.878158394,180.860251 1.17873624,180.560905 1.54736945,180.560905 Z" id="Path"></path>
                        <path d="M6.30557347,176.855799 L11.6932896,176.855799 C12.0675941,176.855799 12.3681719,177.155144 12.3681719,177.527914 C12.3681719,177.900684 12.0675941,178.200029 11.6932896,178.200029 L6.30557347,178.200029 C5.93126899,178.200029 5.63069114,177.900684 5.63069114,177.527914 C5.63069114,177.155144 5.93126899,176.855799 6.30557347,176.855799 Z" id="Path"></path>
                        <path d="M6.30557347,173.150693 L11.6932896,173.150693 C12.0675941,173.150693 12.3681719,173.450038 12.3681719,173.822808 C12.3681719,174.195578 12.0675941,174.494923 11.6932896,174.494923 L6.30557347,174.494923 C5.93126899,174.494923 5.63069114,174.195578 5.63069114,173.822808 C5.63069114,173.455686 5.93126899,173.150693 6.30557347,173.150693 Z" id="Path"></path>
                        <path d="M6.30557347,169.451234 L11.6932896,169.451234 C12.0675941,169.451234 12.3681719,169.75058 12.3681719,170.12335 C12.3681719,170.496119 12.0675941,170.795465 11.6932896,170.795465 L6.30557347,170.795465 C5.93126899,170.795465 5.63069114,170.496119 5.63069114,170.12335 C5.63069114,169.75058 5.93126899,169.451234 6.30557347,169.451234 Z" id="Path"></path>
                        <path d="M6.30557347,162.04667 L11.6932896,162.04667 C12.0675941,162.04667 12.3681719,162.346015 12.3681719,162.718785 C12.3681719,163.091555 12.0675941,163.3909 11.6932896,163.3909 L6.30557347,163.3909 C5.93126899,163.3909 5.63069114,163.091555 5.63069114,162.718785 C5.63069114,162.346015 5.93126899,162.04667 6.30557347,162.04667 Z" id="Path"></path>
                        <path d="M6.30557347,158.341564 L11.6932896,158.341564 C12.0675941,158.341564 12.3681719,158.640909 12.3681719,159.013679 C12.3681719,159.386449 12.0675941,159.685794 11.6932896,159.685794 L6.30557347,159.685794 C5.93126899,159.685794 5.63069114,159.386449 5.63069114,159.013679 C5.63069114,158.640909 5.93126899,158.341564 6.30557347,158.341564 Z" id="Path"></path>
                        <path d="M6.30557347,154.636457 L11.6932896,154.636457 C12.0675941,154.636457 12.3681719,154.935803 12.3681719,155.308573 C12.3681719,155.681342 12.0675941,155.980688 11.6932896,155.980688 L6.30557347,155.980688 C5.93126899,155.980688 5.63069114,155.681342 5.63069114,155.308573 C5.63069114,154.941451 5.93126899,154.636457 6.30557347,154.636457 Z" id="Path"></path>
                        <path d="M6.30557347,147.231893 L11.6932896,147.231893 C12.0675941,147.231893 12.3681719,147.531238 12.3681719,147.904008 C12.3681719,148.276778 12.0675941,148.576123 11.6932896,148.576123 L6.30557347,148.576123 C5.93126899,148.576123 5.63069114,148.276778 5.63069114,147.904008 C5.63069114,147.531238 5.93126899,147.231893 6.30557347,147.231893 Z" id="Path"></path>
                        <path d="M6.30557347,143.532434 L11.6932896,143.532434 C12.0675941,143.532434 12.3681719,143.83178 12.3681719,144.20455 C12.3681719,144.57732 12.0675941,144.876665 11.6932896,144.876665 L6.30557347,144.876665 C5.93126899,144.876665 5.63069114,144.57732 5.63069114,144.20455 C5.63069114,143.83178 5.93126899,143.532434 6.30557347,143.532434 Z" id="Path"></path>
                        <path d="M6.30557347,139.827328 L11.6932896,139.827328 C12.0675941,139.827328 12.3681719,140.126674 12.3681719,140.499444 C12.3681719,140.872213 12.0675941,141.171559 11.6932896,141.171559 L6.30557347,141.171559 C5.93126899,141.171559 5.63069114,140.872213 5.63069114,140.499444 C5.63069114,140.126674 5.93126899,139.827328 6.30557347,139.827328 Z" id="Path"></path>
                        <path d="M1.54736945,165.746128 L11.6876183,165.746128 C12.0619228,165.746128 12.3625006,166.045473 12.3625006,166.418243 C12.3625006,166.791013 12.0619228,167.090359 11.6876183,167.090359 L1.54736945,167.090359 C1.17306496,167.090359 0.872487114,166.791013 0.872487114,166.418243 C0.878158394,166.045473 1.17873624,165.746128 1.54736945,165.746128 Z" id="Path"></path>
                        <path d="M1.54736945,150.936999 L11.6876183,150.936999 C12.0619228,150.936999 12.3625006,151.236344 12.3625006,151.609114 C12.3625006,151.981884 12.0619228,152.28123 11.6876183,152.28123 L1.54736945,152.28123 C1.17306496,152.28123 0.872487114,151.981884 0.872487114,151.609114 C0.878158394,151.236344 1.17873624,150.936999 1.54736945,150.936999 Z" id="Path"></path>
                        <path d="M1.54736945,135.585659 L11.6876183,135.585659 C12.0619228,135.585659 12.3625006,135.885005 12.3625006,136.257775 C12.3625006,136.630544 12.0619228,136.92989 11.6876183,136.92989 L1.54736945,136.92989 C1.17306496,136.92989 0.872487114,136.630544 0.872487114,136.257775 C0.878158394,135.885005 1.17873624,135.585659 1.54736945,135.585659 Z" id="Path"></path>
                        <path d="M6.30557347,131.880553 L11.6932896,131.880553 C12.0675941,131.880553 12.3681719,132.179899 12.3681719,132.552668 C12.3681719,132.925438 12.0675941,133.224784 11.6932896,133.224784 L6.30557347,133.224784 C5.93126899,133.224784 5.63069114,132.925438 5.63069114,132.552668 C5.63069114,132.179899 5.93126899,131.880553 6.30557347,131.880553 Z" id="Path"></path>
                        <path d="M6.30557347,128.175447 L11.6932896,128.175447 C12.0675941,128.175447 12.3681719,128.474792 12.3681719,128.847562 C12.3681719,129.220332 12.0675941,129.519677 11.6932896,129.519677 L6.30557347,129.519677 C5.93126899,129.519677 5.63069114,129.220332 5.63069114,128.847562 C5.63069114,128.48044 5.93126899,128.175447 6.30557347,128.175447 Z" id="Path"></path>
                        <path d="M6.30557347,124.475989 L11.6932896,124.475989 C12.0675941,124.475989 12.3681719,124.775334 12.3681719,125.148104 C12.3681719,125.520874 12.0675941,125.820219 11.6932896,125.820219 L6.30557347,125.820219 C5.93126899,125.820219 5.63069114,125.520874 5.63069114,125.148104 C5.63069114,124.775334 5.93126899,124.475989 6.30557347,124.475989 Z" id="Path"></path>
                        <path d="M6.30557347,117.065776 L11.6932896,117.065776 C12.0675941,117.065776 12.3681719,117.365121 12.3681719,117.737891 C12.3681719,118.110661 12.0675941,118.410007 11.6932896,118.410007 L6.30557347,118.410007 C5.93126899,118.410007 5.63069114,118.110661 5.63069114,117.737891 C5.63069114,117.370769 5.93126899,117.065776 6.30557347,117.065776 Z" id="Path"></path>
                        <path d="M6.30557347,113.366318 L11.6932896,113.366318 C12.0675941,113.366318 12.3681719,113.665663 12.3681719,114.038433 C12.3681719,114.411203 12.0675941,114.710548 11.6932896,114.710548 L6.30557347,114.710548 C5.93126899,114.710548 5.63069114,114.411203 5.63069114,114.038433 C5.63069114,113.665663 5.93126899,113.366318 6.30557347,113.366318 Z" id="Path"></path>
                        <path d="M6.30557347,109.661211 L11.6932896,109.661211 C12.0675941,109.661211 12.3681719,109.960557 12.3681719,110.333327 C12.3681719,110.706097 12.0675941,111.005442 11.6932896,111.005442 L6.30557347,111.005442 C5.93126899,111.005442 5.63069114,110.706097 5.63069114,110.333327 C5.63069114,109.960557 5.93126899,109.661211 6.30557347,109.661211 Z" id="Path"></path>
                        <path d="M6.30557347,102.256647 L11.6932896,102.256647 C12.0675941,102.256647 12.3681719,102.555992 12.3681719,102.928762 C12.3681719,103.301532 12.0675941,103.600878 11.6932896,103.600878 L6.30557347,103.600878 C5.93126899,103.600878 5.63069114,103.301532 5.63069114,102.928762 C5.63069114,102.555992 5.93126899,102.256647 6.30557347,102.256647 Z" id="Path"></path>
                        <path d="M6.30557347,98.5515407 L11.6932896,98.5515407 C12.0675941,98.5515407 12.3681719,98.8508862 12.3681719,99.223656 C12.3681719,99.5964259 12.0675941,99.8957713 11.6932896,99.8957713 L6.30557347,99.8957713 C5.93126899,99.8957713 5.63069114,99.5964259 5.63069114,99.223656 C5.63069114,98.8565342 5.93126899,98.5515407 6.30557347,98.5515407 Z" id="Path"></path>
                        <path d="M6.30557347,94.8520825 L11.6932896,94.8520825 C12.0675941,94.8520825 12.3681719,95.1514279 12.3681719,95.5241978 C12.3681719,95.8969676 12.0675941,96.1963131 11.6932896,96.1963131 L6.30557347,96.1963131 C5.93126899,96.1963131 5.63069114,95.8969676 5.63069114,95.5241978 C5.63069114,95.1514279 5.93126899,94.8520825 6.30557347,94.8520825 Z" id="Path"></path>
                        <path d="M1.54736945,120.770882 L11.6876183,120.770882 C12.0619228,120.770882 12.3625006,121.070228 12.3625006,121.442998 C12.3625006,121.815767 12.0619228,122.115113 11.6876183,122.115113 L1.54736945,122.115113 C1.17306496,122.115113 0.872487114,121.815767 0.872487114,121.442998 C0.878158394,121.070228 1.17873624,120.770882 1.54736945,120.770882 Z" id="Path"></path>
                        <path d="M1.54736945,105.961753 L11.6876183,105.961753 C12.0619228,105.961753 12.3625006,106.261099 12.3625006,106.633869 C12.3625006,107.006638 12.0619228,107.305984 11.6876183,107.305984 L1.54736945,107.305984 C1.17306496,107.305984 0.872487114,107.006638 0.872487114,106.633869 C0.878158394,106.261099 1.17873624,105.961753 1.54736945,105.961753 Z" id="Path"></path>
                        <path d="M1.54736945,90.6047655 L11.6876183,90.6047655 C12.0619228,90.6047655 12.3625006,90.904111 12.3625006,91.2768808 C12.3625006,91.6496507 12.0619228,91.9489962 11.6876183,91.9489962 L1.54736945,91.9489962 C1.17306496,91.9489962 0.872487114,91.6496507 0.872487114,91.2768808 C0.878158394,90.909759 1.17873624,90.6047655 1.54736945,90.6047655 Z" id="Path"></path>
                        <path d="M6.30557347,86.9053073 L11.6932896,86.9053073 C12.0675941,86.9053073 12.3681719,87.2046528 12.3681719,87.5774226 C12.3681719,87.9501924 12.0675941,88.2495379 11.6932896,88.2495379 L6.30557347,88.2495379 C5.93126899,88.2495379 5.63069114,87.9501924 5.63069114,87.5774226 C5.63069114,87.2046528 5.93126899,86.9053073 6.30557347,86.9053073 Z" id="Path"></path>
                        <path d="M6.30557347,83.200201 L11.6932896,83.200201 C12.0675941,83.200201 12.3681719,83.4995465 12.3681719,83.8723163 C12.3681719,84.2450862 12.0675941,84.5444316 11.6932896,84.5444316 L6.30557347,84.5444316 C5.93126899,84.5444316 5.63069114,84.2450862 5.63069114,83.8723163 C5.63069114,83.4995465 5.93126899,83.200201 6.30557347,83.200201 Z" id="Path"></path>
                        <path d="M6.30557347,79.5007428 L11.6932896,79.5007428 C12.0675941,79.5007428 12.3681719,79.8000883 12.3681719,80.1728581 C12.3681719,80.5456279 12.0675941,80.8449734 11.6932896,80.8449734 L6.30557347,80.8449734 C5.93126899,80.8449734 5.63069114,80.5456279 5.63069114,80.1728581 C5.63069114,79.8000883 5.93126899,79.5007428 6.30557347,79.5007428 Z" id="Path"></path>
                        <path d="M6.30557347,72.0905302 L11.6932896,72.0905302 C12.0675941,72.0905302 12.3681719,72.3898757 12.3681719,72.7626456 C12.3681719,73.1354154 12.0675941,73.4347609 11.6932896,73.4347609 L6.30557347,73.4347609 C5.93126899,73.4347609 5.63069114,73.1354154 5.63069114,72.7626456 C5.63069114,72.3955237 5.93126899,72.0905302 6.30557347,72.0905302 Z" id="Path"></path>
                        <path d="M6.30557347,68.391072 L11.6932896,68.391072 C12.0675941,68.391072 12.3681719,68.6904175 12.3681719,69.0631873 C12.3681719,69.4359571 12.0675941,69.7353026 11.6932896,69.7353026 L6.30557347,69.7353026 C5.93126899,69.7353026 5.63069114,69.4359571 5.63069114,69.0631873 C5.63069114,68.6904175 5.93126899,68.391072 6.30557347,68.391072 Z" id="Path"></path>
                        <path d="M6.30557347,64.6859657 L11.6932896,64.6859657 C12.0675941,64.6859657 12.3681719,64.9853112 12.3681719,65.358081 C12.3681719,65.7308509 12.0675941,66.0301964 11.6932896,66.0301964 L6.30557347,66.0301964 C5.93126899,66.0301964 5.63069114,65.7308509 5.63069114,65.358081 C5.63069114,64.9853112 5.93126899,64.6859657 6.30557347,64.6859657 Z" id="Path"></path>
                        <path d="M6.30557347,57.2814012 L11.6932896,57.2814012 C12.0675941,57.2814012 12.3681719,57.5807467 12.3681719,57.9535165 C12.3681719,58.3262864 12.0675941,58.6256318 11.6932896,58.6256318 L6.30557347,58.6256318 C5.93126899,58.6256318 5.63069114,58.3262864 5.63069114,57.9535165 C5.63069114,57.5807467 5.93126899,57.2814012 6.30557347,57.2814012 Z" id="Path"></path>
                        <path d="M6.30557347,53.576295 L11.6932896,53.576295 C12.0675941,53.576295 12.3681719,53.8756404 12.3681719,54.2484103 C12.3681719,54.6211801 12.0675941,54.9205256 11.6932896,54.9205256 L6.30557347,54.9205256 C5.93126899,54.9205256 5.63069114,54.6211801 5.63069114,54.2484103 C5.63069114,53.8756404 5.93126899,53.576295 6.30557347,53.576295 Z" id="Path"></path>
                        <path d="M6.30557347,49.8768367 L11.6932896,49.8768367 C12.0675941,49.8768367 12.3681719,50.1761822 12.3681719,50.548952 C12.3681719,50.9217219 12.0675941,51.2210673 11.6932896,51.2210673 L6.30557347,51.2210673 C5.93126899,51.2210673 5.63069114,50.9217219 5.63069114,50.548952 C5.63069114,50.1761822 5.93126899,49.8768367 6.30557347,49.8768367 Z" id="Path"></path>
                        <path d="M1.54736945,75.7956365 L11.6876183,75.7956365 C12.0619228,75.7956365 12.3625006,76.094982 12.3625006,76.4677518 C12.3625006,76.8405217 12.0619228,77.1398671 11.6876183,77.1398671 L1.54736945,77.1398671 C1.17306496,77.1398671 0.872487114,76.8405217 0.872487114,76.4677518 C0.878158394,76.094982 1.17873624,75.7956365 1.54736945,75.7956365 Z" id="Path"></path>
                        <path d="M1.54736945,60.9865075 L11.6876183,60.9865075 C12.0619228,60.9865075 12.3625006,61.285853 12.3625006,61.6586228 C12.3625006,62.0313926 12.0619228,62.3307381 11.6876183,62.3307381 L1.54736945,62.3307381 C1.17306496,62.3307381 0.872487114,62.0313926 0.872487114,61.6586228 C0.878158394,61.285853 1.17873624,60.9865075 1.54736945,60.9865075 Z" id="Path"></path>
                        <path d="M1.54736945,45.6295198 L11.6876183,45.6295198 C12.0619228,45.6295198 12.3625006,45.9288652 12.3625006,46.3016351 C12.3625006,46.6744049 12.0619228,46.9737504 11.6876183,46.9737504 L1.54736945,46.9737504 C1.17306496,46.9737504 0.872487114,46.6744049 0.872487114,46.3016351 C0.878158394,45.9288652 1.17873624,45.6295198 1.54736945,45.6295198 Z" id="Path"></path>
                        <path d="M6.30557347,41.9300615 L11.6932896,41.9300615 C12.0675941,41.9300615 12.3681719,42.229407 12.3681719,42.6021768 C12.3681719,42.9749467 12.0675941,43.2742922 11.6932896,43.2742922 L6.30557347,43.2742922 C5.93126899,43.2742922 5.63069114,42.9749467 5.63069114,42.6021768 C5.63069114,42.229407 5.93126899,41.9300615 6.30557347,41.9300615 Z" id="Path"></path>
                        <path d="M6.30557347,38.2249553 L11.6932896,38.2249553 C12.0675941,38.2249553 12.3681719,38.5243007 12.3681719,38.8970706 C12.3681719,39.2698404 12.0675941,39.5691859 11.6932896,39.5691859 L6.30557347,39.5691859 C5.93126899,39.5691859 5.63069114,39.2698404 5.63069114,38.8970706 C5.63069114,38.5243007 5.93126899,38.2249553 6.30557347,38.2249553 Z" id="Path"></path>
                        <path d="M6.30557347,34.519849 L11.6932896,34.519849 C12.0675941,34.519849 12.3681719,34.8191945 12.3681719,35.1919643 C12.3681719,35.5647341 12.0675941,35.8640796 11.6932896,35.8640796 L6.30557347,35.8640796 C5.93126899,35.8640796 5.63069114,35.5647341 5.63069114,35.1919643 C5.63069114,34.8248425 5.93126899,34.519849 6.30557347,34.519849 Z" id="Path"></path>
                        <path d="M6.30557347,27.1152845 L11.6932896,27.1152845 C12.0675941,27.1152845 12.3681719,27.41463 12.3681719,27.7873998 C12.3681719,28.1601696 12.0675941,28.4595151 11.6932896,28.4595151 L6.30557347,28.4595151 C5.93126899,28.4595151 5.63069114,28.1601696 5.63069114,27.7873998 C5.63069114,27.41463 5.93126899,27.1152845 6.30557347,27.1152845 Z" id="Path"></path>
                        <path d="M6.30557347,23.4158262 L11.6932896,23.4158262 C12.0675941,23.4158262 12.3681719,23.7151717 12.3681719,24.0879416 C12.3681719,24.4607114 12.0675941,24.7600569 11.6932896,24.7600569 L6.30557347,24.7600569 C5.93126899,24.7600569 5.63069114,24.4607114 5.63069114,24.0879416 C5.63069114,23.7151717 5.93126899,23.4158262 6.30557347,23.4158262 Z" id="Path"></path>
                        <path d="M6.30557347,19.71072 L11.6932896,19.71072 C12.0675941,19.71072 12.3681719,20.0100655 12.3681719,20.3828353 C12.3681719,20.7556051 12.0675941,21.0549506 11.6932896,21.0549506 L6.30557347,21.0549506 C5.93126899,21.0549506 5.63069114,20.7556051 5.63069114,20.3828353 C5.63069114,20.0100655 5.93126899,19.71072 6.30557347,19.71072 Z" id="Path"></path>
                        <path d="M6.30557347,12.3061555 L11.6932896,12.3061555 C12.0675941,12.3061555 12.3681719,12.6055009 12.3681719,12.9782708 C12.3681719,13.3510406 12.0675941,13.6503861 11.6932896,13.6503861 L6.30557347,13.6503861 C5.93126899,13.6503861 5.63069114,13.3510406 5.63069114,12.9782708 C5.63069114,12.6055009 5.93126899,12.3061555 6.30557347,12.3061555 Z" id="Path"></path>
                        <path d="M6.30557347,8.6010492 L11.6932896,8.6010492 C12.0675941,8.6010492 12.3681719,8.90039468 12.3681719,9.27316451 C12.3681719,9.64593435 12.0675941,9.94527983 11.6932896,9.94527983 L6.30557347,9.94527983 C5.93126899,9.94527983 5.63069114,9.64593435 5.63069114,9.27316451 C5.63069114,8.90039468 5.93126899,8.6010492 6.30557347,8.6010492 Z" id="Path"></path>
                        <path d="M6.30557347,4.90159096 L11.6932896,4.90159096 C12.0675941,4.90159096 12.3681719,5.20093644 12.3681719,5.57370627 C12.3681719,5.94647611 12.0675941,6.24582159 11.6932896,6.24582159 L6.30557347,6.24582159 C5.93126899,6.24582159 5.63069114,5.94647611 5.63069114,5.57370627 C5.63069114,5.20093644 5.93126899,4.90159096 6.30557347,4.90159096 Z" id="Path"></path>
                        <path d="M1.54736945,30.8203908 L11.6876183,30.8203908 C12.0619228,30.8203908 12.3625006,31.1197362 12.3625006,31.4925061 C12.3625006,31.8652759 12.0619228,32.1646214 11.6876183,32.1646214 L1.54736945,32.1646214 C1.17306496,32.1646214 0.872487114,31.8652759 0.872487114,31.4925061 C0.878158394,31.1197362 1.17873624,30.8203908 1.54736945,30.8203908 Z" id="Path"></path>
                        <path d="M1.54736945,16.0056137 L11.6876183,16.0056137 C12.0619228,16.0056137 12.3625006,16.3049592 12.3625006,16.677729 C12.3625006,17.0504989 12.0619228,17.3498443 11.6876183,17.3498443 L1.54736945,17.3498443 C1.17306496,17.3498443 0.872487114,17.0504989 0.872487114,16.677729 C0.878158394,16.3106072 1.17873624,16.0056137 1.54736945,16.0056137 Z" id="Path"></path>
                        <path d="M1.54736945,0.654274018 L11.6876183,0.654274018 C12.0619228,0.654274018 12.3625006,0.953619494 12.3625006,1.32638933 C12.3625006,1.69915917 12.0619228,1.99850465 11.6876183,1.99850465 L1.54736945,1.99850465 C1.17306496,1.99850465 0.872487114,1.69915917 0.872487114,1.32638933 C0.878158394,0.953619494 1.17873624,0.654274018 1.54736945,0.654274018 Z" id="Path"></path>
                    </g>
                </g>
                <g id="Group" transform="translate(44.802227, 140.071679)">
                    <g transform="translate(0.566537, 3.388523)" id="Path">
                        <path d="M169.699837,22.1343422 L0.124104155,22.0236173 L3.09799584,0.496747471 L162.696326,0.496747471 C164.463253,0.496747471 168.506358,-0.588736502 170.819548,0.720804736 C173.861277,2.4427854 175.034518,6.93921754 175.312667,9.84988159 C175.795465,14.9020648 171.628221,22.0236173 169.699837,22.1343422 Z" fill="#471873"></path>
                        <path d="M172.83941,9.11056309 L3.09799584,9.11056309 L3.09799584,4.94796656 L170.950874,4.94796656 C171.869621,6.16229255 172.521818,7.57429951 172.83941,9.11056309 Z" fill="#623A87"></path>
                        <path d="M172.83941,13.2731596 C172.52749,14.8094232 171.869621,16.2270782 170.956545,17.4357561 L3.09799584,17.4357561 L3.09799584,13.2731596 L172.83941,13.2731596 Z" fill="#623A87"></path>
                    </g>
                    <path d="M177.812532,14.5832079 C177.812532,15.2892114 177.76149,15.9839188 177.665079,16.6673302 C177.455241,18.1358174 177.024224,19.5365283 176.406054,20.8299267 C175.668788,22.3887824 174.653629,23.7951413 173.434304,24.9925232 L173.428632,24.9981713 C170.785816,27.590616 167.156197,29.1833599 163.163615,29.1833599 L4.10689295,29.1833599 C2.94428052,29.1833599 2.0085193,28.2457873 2.0085193,27.0935896 C2.0085193,26.5174907 2.24671307,25.9922242 2.62101756,25.6138063 C3.00099332,25.2353884 3.52842237,25.0038193 4.10689295,25.0038193 L163.163615,25.0038193 C163.254356,25.0038193 163.345096,25.0038193 163.430165,24.9981713 C166.730851,24.9134508 169.662902,23.2981149 171.517411,20.8355747 C172.430487,19.6268968 173.088356,18.2092418 173.400276,16.6729782 C173.542058,16.0008629 173.610113,15.3005074 173.610113,14.5888559 C173.610113,13.8772044 173.536387,13.176849 173.400276,12.5047337 C173.088356,10.9684701 172.430487,9.55081509 171.517411,8.34213713 C169.60619,5.81746868 166.577726,4.17954061 163.163615,4.17954061 L4.10689295,4.17954061 C2.94428052,4.17954061 2.0085193,3.24196798 2.0085193,2.0897703 C2.0085193,1.50802344 2.24671307,0.988404873 2.62101756,0.609987008 C3.00099332,0.231569142 3.52842237,0 4.10689295,0 L163.163615,0 C167.161868,0 170.785816,1.59839188 173.428632,4.18518864 C174.647958,5.37692251 175.663117,6.78328145 176.406054,8.34778516 C177.024224,9.64118354 177.455241,11.0362464 177.665079,12.5103817 C177.76149,13.176849 177.812532,13.8715564 177.812532,14.5832079 Z" id="Path" fill="#350E58"></path>
                </g>
                <path d="M205.141545,203.114377 L0,203.114377 L0,53.5150639 L11.3482315,53.5150639 C17.8305047,53.5150639 23.1841931,58.3667198 23.9384734,64.6247346 C24.0008575,65.1217611 24.0348852,65.6300836 24.0348852,66.1497022 L24.0348852,70.8206212 C24.0348852,77.5813105 29.3658885,83.0994337 36.0693416,83.4383154 L47.4742859,83.4383154 C54.4839882,83.4383154 60.1609396,89.0919913 60.1609396,96.0729537 L60.1609396,123.296448 C60.1609396,130.040193 65.4692578,135.558316 72.155697,135.914142 L103.971579,135.914142 C110.981281,135.914142 116.658232,141.573466 116.658232,148.54878 L116.658232,153.219699 C116.658232,159.980389 121.989235,165.498512 128.692689,165.837394 L134.018021,165.837394 C141.027723,165.837394 146.704674,171.49107 146.704674,178.466384 L146.704674,180.742539 C146.704674,187.723502 152.381626,193.377177 159.385657,193.377177 L192.789497,193.377177 C198.795382,193.382825 203.825808,197.539774 205.141545,203.114377 Z" id="Path" fill="#FFCD52"></path>
                <g id="Group" transform="translate(0.000000, 10.731253)">
                    <rect id="Rectangle" fill="#623A87" x="0" y="35.492207" width="13.050738" height="156.924806"></rect>
                    <rect id="Rectangle" fill="#471873" x="12.8284356" y="35.492207" width="13.050738" height="156.924806"></rect>
                    <rect id="Rectangle" fill="#39105F" x="25.6568713" y="35.492207" width="12.8284356" height="156.924806"></rect>
                    <path d="M29.7061653,17.9776726 L8.80749803,17.9776726 L10.3671001,14.8712573 L16.8153456,2.027642 C17.8248334,0.0225921114 20.6945012,0.0225921114 21.6983178,2.027642 L28.1465633,14.8712573 L29.7061653,17.9776726 Z" id="Path" fill="#623A87"></path>
                    <path d="M12.8284356,35.492207 C12.8284356,39.0222244 9.9587679,41.8801265 6.41421782,41.8801265 C2.86966774,41.8801265 0,39.0222244 0,35.492207 L8.79048419,17.9833207 L8.78481291,17.9833207 L10.3444149,14.8769054 C11.762235,15.204491 12.8227644,16.4696492 12.8227644,17.9833207 L12.8284356,17.9833207 L12.8284356,35.492207 Z" id="Path" fill="#DD9F27"></path>
                    <path d="M25.6568713,17.9833207 L25.6568713,35.492207 C25.6568713,39.0222244 22.7872035,41.8801265 19.2426535,41.8801265 C15.6981034,41.8801265 12.8284356,39.0222244 12.8284356,35.492207 L12.8284356,17.9833207 C12.8284356,16.221136 14.2632695,14.7865369 16.0327089,14.7865369 C17.8021483,14.7865369 19.2426535,16.215488 19.2426535,17.9833207 C19.2426535,16.221136 20.6774873,14.7865369 22.4469267,14.7865369 C22.4469267,14.7865369 22.4469267,14.7865369 22.4469267,14.7865369 C23.3316464,14.7865369 24.1312969,15.1423627 24.7154388,15.7241095 C25.2939094,16.3002084 25.6568713,17.1022283 25.6568713,17.9833207 Z" id="Path" fill="#FFCD52"></path>
                    <path d="M38.4853069,35.492207 C38.4853069,37.2543917 37.7650543,38.8527836 36.6081132,40.0106293 C35.4455008,41.168475 33.8461998,41.8801265 32.0767604,41.8801265 C32.0767604,41.8801265 32.0767604,41.8801265 32.0767604,41.8801265 C28.5378816,41.8801265 25.6625426,39.0222244 25.6625426,35.492207 L25.6625426,17.9833207 C25.6625426,16.4696492 26.7174007,15.204491 28.1352207,14.8769054 L29.6948227,17.9833207 L29.700494,17.9833207 L38.4853069,35.492207 Z" id="Path" fill="#DD9F27"></path>
                    <path d="M12.8511208,17.9155443 L12.8511208,17.9776726 C12.8454495,17.9607286 12.8511208,17.9381364 12.8511208,17.9155443 Z" id="Path" fill="#221466"></path>
                </g>
                <g id="Group" transform="translate(46.504497, 167.746427)">
                    <g transform="translate(3.969305, 4.518128)" id="Path">
                        <path d="M2.68499819,5.41601863 C4.90246871,2.47904415 9.56804033,0.288343588 13.50958,0.186679087 L204.268758,0.468786311 L204.268758,27.3963718 C119.555626,27.2909341 55.9873397,27.178405 13.563898,27.0587845 C7.86051516,27.0427027 0.943833682,22.4872394 0.188022966,13.9325791 C0.0381960531,12.2367598 0.870521126,9.39790635 2.68499819,5.41601863 Z" fill="#623A87"></path>
                        <path d="M1.60556303,15.9503248 L204.268758,15.9503248 L204.268758,20.9205893 L3.85706124,20.9205893 C2.76250418,19.4746942 1.97986752,17.7802858 1.60556303,15.9503248 Z" fill="#471873"></path>
                        <path d="M1.60556303,10.9744123 C1.97986752,9.13880323 2.76250418,7.4500429 3.85706124,6.00414777 L204.27443,6.00414777 L204.27443,10.9744123 L1.60556303,10.9744123 Z" fill="#471873"></path>
                    </g>
                    <path d="M0.306249127,17.9776726 C0.306249127,17.1304685 0.368633208,16.3002084 0.482058811,15.4925404 C0.731595136,13.7360037 1.24768163,12.0698355 1.98494804,10.5222759 C2.86966774,8.65842669 4.07765041,6.98096242 5.5351694,5.55201137 L5.54084068,5.54636335 C8.69974371,2.45124409 13.0269304,0.547858701 17.8021483,0.547858701 L207.716306,0.547858701 C209.100098,0.547858701 210.223012,1.66616822 210.223012,3.04428701 C210.223012,3.73334641 209.939448,4.3602775 209.491417,4.81211973 C209.037714,5.26396195 208.408202,5.54071532 207.716306,5.54071532 L17.796477,5.54071532 C17.6887227,5.54071532 17.5809684,5.54071532 17.4788853,5.54636335 C13.5373457,5.64802785 10.0381658,7.57965337 7.82636657,10.5166279 C6.73180951,11.962523 5.94917285,13.6512833 5.57486836,15.4868924 C5.41040124,16.2889123 5.32533204,17.1248204 5.32533204,17.9720246 C5.32533204,18.8192288 5.41040124,19.6551369 5.57486836,20.4571569 C5.94917285,22.2927659 6.73180951,23.9815262 7.82636657,25.4274214 C10.1062212,28.4434682 13.7244979,30.3976859 17.8021483,30.3976859 L207.716306,30.3976859 C209.100098,30.3976859 210.223012,31.5159954 210.223012,32.8941142 C210.223012,33.5831736 209.939448,34.2101047 209.491417,34.6619469 C209.037714,35.1137891 208.408202,35.3905425 207.716306,35.3905425 L17.796477,35.3905425 C13.0212592,35.3905425 8.69407243,33.4871571 5.5351694,30.3920378 C4.07765041,28.9687348 2.86966774,27.2856225 1.97927676,25.4217733 C1.24201035,23.8742137 0.731595136,22.2080455 0.47638753,20.4515088 C0.368633208,19.6551369 0.306249127,18.8248768 0.306249127,17.9776726 Z" id="Path" fill="#39105F"></path>
                </g>
            </g>
        </g>
    </g>
</svg>