<?xml version="1.0" encoding="UTF-8"?>
<svg width="39px" height="47px" viewBox="0 0 39 47" version="1.1" xmlns="http://www.w3.org/2000/svg" xmlns:xlink="http://www.w3.org/1999/xlink">
    <!-- Generator: Sketch 52.6 (67491) - http://www.bohemiancoding.com/sketch -->
    <title>pc-04-pp3</title>
    <desc>Created with Sketch.</desc>
    <g id="Page-1" stroke="none" stroke-width="1" fill="none" fill-rule="evenodd">
        <g id="04_CT-TIÊU-CHUẨN---tiền-tiểu-học" transform="translate(-1050.000000, -2913.000000)">
            <g id="pc-04-pp3" transform="translate(1050.000000, 2913.000000)">
                <path d="M29.4470775,18.6096065 C29.4341548,22.4341621 27.473787,25.9708376 24.2837968,27.9246178 C21.0938065,29.8783979 17.1427583,29.9623 13.8773971,28.1456019 C10.4867977,26.2479328 8.37395391,22.5916863 8.36995249,18.6150463 C8.3671398,16.8034166 8.80538727,15.0200139 9.64455514,13.4281829 C10.6198776,11.5917337 12.0850679,10.0815823 13.8668413,9.07633102 C17.1315156,7.24410985 21.091204,7.31987492 24.2876486,9.27572379 C27.4840933,11.2315727 29.4445681,14.7782524 29.4470775,18.6096065 Z" id="Path" fill="#FFDA00"></path>
                <ellipse id="Oval" fill="#2B1649" cx="21.3904276" cy="22.6622685" rx="1.14793406" ry="1.18315972"></ellipse>
                <polygon id="Path" fill="#2B1649" points="21.3904276 30.9987847 21.3904276 30.9987847 20.6515275 22.825463 22.1266887 22.825463"></polygon>
                <ellipse id="Oval" fill="#2B1649" cx="16.4266024" cy="22.6622685" rx="1.14793406" ry="1.18315972"></ellipse>
                <polygon id="Path" fill="#2B1649" points="16.4266024 30.9987847 16.4266024 30.9987847 15.6903412 22.825463 17.1628635 22.825463"></polygon>
                <rect id="Rectangle" fill="#5A1E91" x="12.8271034" y="27.6179398" width="12.1601843" height="2.59207176"></rect>
                <polygon id="Rectangle" fill="#491387" transform="translate(18.855736, 35.516551) rotate(-90.000000) translate(-18.855736, -35.516551) " points="13.4757595 29.8019504 24.2357132 29.8019504 24.2357132 41.2311514 13.4757595 41.2311514"></polygon>
                <rect id="Rectangle" fill="#7919B2" transform="translate(18.855736, 35.504311) rotate(180.000000) translate(-18.855736, -35.504311) " x="16.9517492" y="30.1229745" width="3.80797437" height="10.7626736"></rect>
                <path d="M13.138497,40.8965278 C13.1367885,40.376029 13.3373091,39.8764857 13.695311,39.509375 C14.2343293,38.9558285 15.040929,38.7853064 15.7478482,39.0754512 C16.4547675,39.3655959 16.9268357,40.0609285 16.9491103,40.8448495 C16.9477273,40.8620461 16.9477273,40.8793312 16.9491103,40.8965278 L16.9491103,40.8448495 C16.9584572,40.3423847 17.1572169,39.8634052 17.5032853,39.509375 C18.0472094,38.9461618 18.8671385,38.7769526 19.5795218,39.0809008 C20.2919052,39.3848491 20.7558958,40.1018605 20.7544457,40.8965278 C20.7544457,39.8119658 21.6074806,38.9327546 22.6597524,38.9327546 C23.7120242,38.9327546 24.565059,39.8119658 24.565059,40.8965278 L18.8544169,46.7851273 L16.5849381,44.4460069 L13.138497,40.8965278 Z" id="Path" fill="#FFDA00"></path>
                <path d="M16.9491103,40.8965278 C16.9477273,40.8793312 16.9477273,40.8620461 16.9491103,40.8448495 L16.9491103,40.8965278 Z" id="Path" fill="#FFDA00"></path>
                <path d="M16.9491103,40.8965278 C16.9477273,40.8793312 16.9477273,40.8620461 16.9491103,40.8448495 L16.9491103,40.8965278 Z" id="Path" fill="#FFDA00"></path>
                <polygon id="Path" fill="#2B1649" points="16.5849381 44.4460069 21.1238958 44.4460069 18.8544169 46.7851273"></polygon>
                <rect id="Rectangle" fill="#F1CC1F" transform="translate(2.302465, 18.878877) rotate(-180.000000) translate(-2.302465, -18.878877) " x="-2.77999845e-13" y="18.3267361" width="4.6049309" height="1.10428241" rx="0.492825612"></rect>
                <path d="M3.76607277,29.0379414 L7.4338685,28.9849819 C7.7060202,28.9810523 7.92982833,29.1984893 7.93375794,29.470641 C7.93382611,29.4753622 7.93382642,29.4800841 7.93375889,29.4848052 L7.93222876,29.5917712 C7.92841456,29.8584086 7.71320567,30.0736464 7.44656875,30.0774964 L3.77877302,30.1304559 C3.50662132,30.1343855 3.28281319,29.9169485 3.27888358,29.6447968 C3.27881541,29.6400756 3.2788151,29.6353537 3.27888263,29.6306326 L3.28041276,29.5236666 C3.28422696,29.2570291 3.49943585,29.0417914 3.76607277,29.0379414 Z" id="Rectangle" fill="#F1CC1F" transform="translate(5.606321, 29.557719) rotate(144.000000) translate(-5.606321, -29.557719) "></path>
                <path d="M31.4036537,29.1396682 L35.0714495,29.1926277 C35.3380864,29.1964777 35.5532953,29.4117154 35.5571095,29.6783529 L35.5586396,29.7853188 C35.5625327,30.0574711 35.3450657,30.28125 35.0729135,30.2851431 C35.0681923,30.2852106 35.0634704,30.2852103 35.0587492,30.2851421 L31.3909535,30.2321827 C31.1243166,30.2283327 30.9091077,30.0130949 30.9052935,29.7464575 L30.9037633,29.6394915 C30.8998702,29.3673393 31.1173372,29.1435603 31.3894895,29.1396673 C31.3942107,29.1395997 31.3989326,29.1396 31.4036537,29.1396682 Z" id="Rectangle" fill="#F1CC1F" transform="translate(33.231201, 29.712405) rotate(36.000000) translate(-33.231201, -29.712405) "></path>
                <rect id="Rectangle" fill="#F1CC1F" x="34.3422905" y="18.5198495" width="4.6049309" height="1.10428241" rx="0.492825612"></rect>
                <path d="M31.4982697,7.87425423 L35.1660655,7.82129476 C35.4382172,7.81736515 35.6620253,8.03480212 35.6659549,8.30695382 C35.6660231,8.31167499 35.6660234,8.31639689 35.6659558,8.32111807 L35.6644257,8.42808404 C35.6606115,8.69472148 35.4454026,8.90995924 35.1787657,8.91380923 L31.51097,8.96676869 C31.2388183,8.9706983 31.0150101,8.75326134 31.0110805,8.48110963 C31.0110124,8.47638847 31.011012,8.47166656 31.0110796,8.46694538 L31.0126097,8.35997941 C31.0164239,8.09334198 31.2316328,7.87810421 31.4982697,7.87425423 Z" id="Rectangle" fill="#F1CC1F" transform="translate(33.338518, 8.394032) rotate(-36.000000) translate(-33.338518, -8.394032) "></path>
                <path d="M23.5481131,2.10657604 L27.295089,2.0736968 C27.5672586,2.07130855 27.7898317,2.29000953 27.7922199,2.56217912 C27.7922455,2.56509762 27.7922452,2.56801629 27.792219,2.57093479 L27.7914207,2.65971246 C27.789004,2.92846858 27.571696,3.14572945 27.3029393,3.14808775 L23.5559634,3.180967 C23.2837938,3.18335525 23.0612207,2.96465427 23.0588325,2.69248467 C23.0588068,2.68956617 23.0588072,2.6866475 23.0588334,2.68372901 L23.0596317,2.59495134 C23.0620484,2.32619522 23.2793564,2.10893435 23.5481131,2.10657604 Z" id="Rectangle" fill="#F1CC1F" transform="translate(25.425526, 2.627332) rotate(-72.000000) translate(-25.425526, -2.627332) "></path>
                <path d="M12.6662365,2.02849118 L16.4097926,2.06145518 C16.6785373,2.06382162 16.8958338,2.28107084 16.8982587,2.54981506 L16.8990532,2.6378639 C16.901509,2.91003289 16.6828632,3.13266028 16.4106942,3.13511608 C16.4077656,3.13514251 16.4048368,3.13514283 16.4019082,3.13511704 L12.6583521,3.10215304 C12.3896074,3.09978659 12.1723109,2.88253738 12.169886,2.61379316 L12.1690915,2.52574432 C12.1666357,2.25357533 12.3852815,2.03094794 12.6574504,2.02849214 C12.6603791,2.02846571 12.6633079,2.02846539 12.6662365,2.02849118 Z" id="Rectangle" fill="#F1CC1F" transform="translate(14.534072, 2.581804) rotate(-108.072322) translate(-14.534072, -2.581804) "></path>
                <path d="M3.89935042,7.64308869 L7.57707152,7.69623125 C7.84370409,7.70008406 8.05890885,7.91531751 8.06272611,8.18195059 L8.06428977,8.29117085 C8.06818605,8.56332303 7.85072167,8.78710452 7.57856949,8.7910008 C7.57384461,8.79106844 7.56911901,8.79106813 7.56439414,8.79099985 L3.88667304,8.73785729 C3.62004047,8.73400448 3.40483571,8.51877103 3.40101844,8.25213795 L3.39945479,8.14291769 C3.39555851,7.87076551 3.61302289,7.64698402 3.88517507,7.64308774 C3.88989995,7.6430201 3.89462555,7.64302041 3.89935042,7.64308869 Z" id="Rectangle" fill="#F1CC1F" transform="translate(5.731872, 8.217044) rotate(-143.930590) translate(-5.731872, -8.217044) "></path>
            </g>
        </g>
    </g>
</svg>