<?xml version="1.0" encoding="UTF-8"?>
<svg width="88px" height="72px" viewBox="0 0 88 72" version="1.1" xmlns="http://www.w3.org/2000/svg" xmlns:xlink="http://www.w3.org/1999/xlink">
    <!-- Generator: Sketch 52.6 (67491) - http://www.bohemiancoding.com/sketch -->
    <title>pc-02-tầm nhìn quotation</title>
    <desc>Created with Sketch.</desc>
    <g id="Page-1" stroke="none" stroke-width="1" fill="none" fill-rule="evenodd">
        <g id="02_ABOUT" transform="translate(-1010.000000, -1642.000000)" fill="#F1CC1F">
            <g id="Rectangle-3" transform="translate(0.000000, 781.000000)">
                <path d="M1010,905.784 C1010,896.663954 1013.47566,887.880042 1020.42708,879.432 C1027.37851,870.983958 1035.1319,864.840019 1043.6875,861 L1046.45833,866.76 C1039.65274,870.600019 1033.84377,875.375971 1029.03125,881.088 C1024.21873,886.800029 1021.8125,892.583971 1021.8125,898.44 C1021.8125,899.592006 1022.17708,900.455997 1022.90625,901.032 C1023.63542,901.608003 1024.58333,901.896 1025.75,901.896 C1032.06948,901.223997 1035.47222,900.888 1035.95833,900.888 C1039.16668,900.888 1042.64234,902.039988 1046.38542,904.344 C1050.12849,906.648012 1052,910.583972 1052,916.152 C1052,920.856024 1050.44446,924.839984 1047.33333,928.104 C1044.22221,931.368016 1039.79864,933 1034.0625,933 C1027.35413,933 1021.66669,930.432026 1017,925.296 C1012.33331,920.159974 1010,913.656039 1010,905.784 Z M1056,906.936 C1056,896.663949 1059.52427,887.376042 1066.57292,879.072 C1073.62156,870.767958 1081.32635,864.744019 1089.6875,861 L1092.45833,866.76 C1085.65274,870.600019 1079.84377,875.327972 1075.03125,880.944 C1070.21873,886.560028 1067.8125,892.295971 1067.8125,898.152 C1067.8125,899.208005 1068.10416,900.095996 1068.6875,900.816 C1069.27084,901.536004 1070.29166,901.896 1071.75,901.896 C1077.97225,901.223997 1081.375,900.888 1081.95833,900.888 C1085.55557,900.888 1089.12845,902.159987 1092.67708,904.704 C1096.22571,907.248013 1098,911.015975 1098,916.008 C1098,919.94402 1096.6146,923.759982 1093.84375,927.456 C1091.0729,931.152018 1086.43059,933 1079.91667,933 C1072.91663,933 1067.18058,930.336027 1062.70833,925.008 C1058.23609,919.679973 1056,913.656034 1056,906.936 Z" id="pc-02-tầm-nhìn-quotation"></path>
            </g>
        </g>
    </g>
</svg>