<?xml version="1.0" encoding="UTF-8"?>
<svg width="29px" height="36px" viewBox="0 0 29 36" version="1.1" xmlns="http://www.w3.org/2000/svg" xmlns:xlink="http://www.w3.org/1999/xlink">
    <!-- Generator: Sketch 52.6 (67491) - http://www.bohemiancoding.com/sketch -->
    <title>pc-04-pp2</title>
    <desc>Created with Sketch.</desc>
    <g id="Page-1" stroke="none" stroke-width="1" fill="none" fill-rule="evenodd">
        <g id="04_CT-TIÊU-CHUẨN---tiền-tiểu-học" transform="translate(-837.000000, -2923.000000)">
            <g id="pc-04-pp2" transform="translate(837.000000, 2923.000000)">
                <path d="M25.8014706,35.9017798 L3.05566176,35.9017798 C1.99647538,35.9013761 1.0131431,35.3263896 0.45737175,34.3824748 C-0.0983996017,33.4385599 -0.147216107,32.2605584 0.328382353,31.2698039 L8.98786765,13.2307692 L8.98786765,1.84615385 L19.8628676,1.84615385 L19.8628676,13.2307692 L28.5223529,31.2608748 C29.0015105,32.2513066 28.9554638,33.4310754 28.4007186,34.377283 C27.8459734,35.3234906 26.8619844,35.9006145 25.8014706,35.9017798 Z" id="Path" fill="#5A1E8D"></path>
                <rect id="Rectangle" fill="#F1CC1F" x="11.56375" y="6.38214178" width="4.70183824" height="1" rx="0.271556855"></rect>
                <rect id="Rectangle" fill="#F1CC1F" x="11.56375" y="8.42027149" width="2.755" height="1" rx="0.271556855"></rect>
                <rect id="Rectangle" fill="#F1CC1F" x="11.56375" y="12.4942986" width="2.755" height="1" rx="0.271556855"></rect>
                <rect id="Rectangle" fill="#F1CC1F" x="11.56375" y="16.5705581" width="2.755" height="1" rx="0.271556855"></rect>
                <rect id="Rectangle" fill="#F1CC1F" x="11.56375" y="10.4584012" width="4.70183824" height="1" rx="0.271556855"></rect>
                <rect id="Rectangle" fill="#F1CC1F" x="11.56375" y="14.5324284" width="4.70183824" height="1" rx="0.271556855"></rect>
                <rect id="Rectangle" fill="#39105F" x="8.15625" y="0" width="12.6875" height="1.84615385" rx="0.923076923"></rect>
            </g>
        </g>
    </g>
</svg>