<?xml version="1.0" encoding="UTF-8"?>
<svg width="189px" height="143px" viewBox="0 0 189 143" version="1.1" xmlns="http://www.w3.org/2000/svg" xmlns:xlink="http://www.w3.org/1999/xlink">
    <!-- Generator: Sketch 52.6 (67491) - http://www.bohemiancoding.com/sketch -->
    <title>pc-00-menu pattern 2</title>
    <desc>Created with Sketch.</desc>
    <g id="Page-1" stroke="none" stroke-width="1" fill="none" fill-rule="evenodd">
        <g id="00_MENU" transform="translate(-1731.000000, -937.000000)">
            <g id="pc-00-menu-pattern-2" transform="translate(1731.000000, 937.000000)">
                <g id="Group" transform="translate(43.086937, 98.977490)">
                    <polygon id="Rectangle" fill="#471873" transform="translate(66.293637, 12.809662) rotate(90.000000) translate(-66.293637, -12.809662) " points="53.8061319 -53.1343617 78.7811413 -53.1343617 78.7811413 78.7536862 53.8061319 78.7536862"></polygon>
                    <polygon id="Rectangle" fill="#623A87" transform="translate(10.862256, 12.810607) rotate(90.000000) translate(-10.862256, -12.810607) " points="-1.62524857 10.3408319 23.3497609 10.3408319 23.3497609 15.2803818 -1.62524857 15.2803818"></polygon>
                    <polygon id="Rectangle" fill="#623A87" transform="translate(18.694439, 12.807321) rotate(90.000000) translate(-18.694439, -12.807321) " points="6.20693475 10.3375463 31.1819442 10.3375463 31.1819442 15.2770961 6.20693475 15.2770961"></polygon>
                </g>
                <path d="M188.098894,49.0149362 L177.207083,49.0149362 C172.829691,49.0149362 169.279002,52.5428976 169.279002,56.8922702 L169.279002,59.8041732 C169.279002,64.0139059 165.955657,67.451512 161.77254,67.669186 L158.428527,67.669186 C154.051135,67.669186 150.500446,71.1971474 150.500446,75.54652 L150.500446,78.4584229 C150.500446,82.6681557 147.1771,86.1057618 142.993983,86.3234358 L122.611623,86.3234358 C118.234231,86.3234358 114.683542,89.8513971 114.683542,94.2007698 L114.683542,97.1126727 C114.683542,101.322405 111.360197,104.760012 107.17708,104.977686 L103.833067,104.977686 C99.4556749,104.977686 95.9049859,108.505647 95.9049859,112.85502 L95.9049859,115.766922 C95.9049859,120.116295 92.3542969,123.644256 87.976905,123.644256 L85.1537146,123.644256 C80.7763227,123.644256 77.2256338,127.172218 77.2256338,131.52159 L77.2256338,142.343684 L152.058781,142.343684 L152.058781,123.701755 L166.811294,123.701755 L166.811294,105.043398 L169.324471,105.043398 L169.324471,101.029478 L188.103027,101.029478 L188.103027,49.0149362 L188.098894,49.0149362 Z" id="Path" fill="#DD9F27"></path>
                <g id="Group" transform="translate(99.302735, 0.407925)">
                    <path d="M37.5695135,101.707142 C30.8938876,101.707142 24.3505341,100.429848 18.1089271,97.9040083 C15.1534642,96.7088549 12.3054727,95.2426358 9.63935587,93.5423145 L12.4749468,89.1518713 C14.8682517,90.6796963 17.4310307,91.9980614 20.0888806,93.0700031 C25.7435285,95.3576334 31.6709883,96.4993951 37.5984481,96.4993951 C43.7119161,96.4993951 49.817117,95.2837064 55.6205714,92.8564361 C67.0497391,88.0717155 75.9161277,79.1511892 80.5911327,67.7417868 C85.2661376,56.3282773 85.1917343,43.7935414 80.3761899,32.4375307 C75.5606455,21.08152 66.582652,12.2718843 55.0997486,7.62680357 C52.7725799,6.68628767 50.3668745,5.92648226 47.9405014,5.37202965 L49.1185531,0.287493942 C51.8177381,0.903552388 54.4962555,1.74549893 57.0838356,2.79279829 C63.5445188,5.4048861 69.298371,9.19980614 74.1841852,14.0666679 C78.9005252,18.7692473 82.6165548,24.2644887 85.2206689,30.412752 C87.8247831,36.5569082 89.1929764,43.0378431 89.2839137,49.6748461 C89.3789846,56.5500583 88.089328,63.2897377 85.4604128,69.7090668 C82.8314975,76.1283958 79.0121301,81.8454182 74.1139154,86.6999587 C69.3810413,91.38611 63.8462653,95.0783536 57.6625276,97.6657991 C51.4787899,100.253245 44.956104,101.61268 38.272211,101.703035 C38.0366006,101.707142 37.8009903,101.707142 37.5695135,101.707142 Z" id="Path" fill="#471873"></path>
                    <path d="M62.2383282,123.577217 L12.9461675,123.577217 C12.9461675,110.052681 23.9785178,99.0868405 37.5901811,99.0868405 C51.2018444,99.0868405 62.2383282,110.052681 62.2383282,123.577217 Z" id="Path" fill="#471873"></path>
                    <g transform="translate(0.000000, 12.731875)" id="Path">
                        <path d="M73.1838746,49.3873521 C73.0309346,49.8473424 72.8697275,50.3032257 72.6961199,50.7550019 C68.1947226,62.6449299 58.1544158,70.9863613 46.4896379,73.8284442 C39.8594806,75.4425174 32.7002334,75.2823422 25.7435285,72.9782836 C13.6364644,68.9739037 4.95608391,59.4332119 1.59967012,48.1347 C-0.496021743,41.0828843 -0.516689315,33.3492972 2.00062103,25.8457054 C5.08835638,16.6335781 11.4415682,9.41748012 19.361382,5.04757221 C28.2319042,0.151961083 39.0575787,-1.1746181 49.4409672,2.25888097 C54.9716097,4.08652103 59.7871541,7.07645802 63.7098594,10.8549498 C70.3400167,17.2537436 74.4073949,25.9237394 75.0315556,35.1317597 C75.3498363,39.822018 74.7711442,44.6519162 73.1838746,49.3873521 Z" fill="#623A87"></path>
                        <path d="M34.7835247,28.958854 L32.9813124,34.3349908 L32.8614405,34.2939202 C31.9520673,36.0969179 29.8274408,37.0127915 27.8433538,36.3556625 L26.4420924,35.8915651 C24.2678638,35.1728302 21.915894,36.3392342 21.192529,38.5036529 L20.7089078,39.9493367 C20.0971476,41.7810838 18.3156029,42.8982032 16.4637883,42.7626703 C16.4017856,42.7585632 16.3439164,42.7544562 16.2819137,42.7462421 C15.9967012,42.7174927 15.7073552,42.6558868 15.4221427,42.5614245 L11.5118379,41.2677018 C9.33760931,40.548967 6.98563955,41.7153709 6.2622745,43.8797896 L5.7786533,45.3254734 C5.17516018,47.1325782 3.43081705,48.2455905 1.60380364,48.138807 C-0.491888228,41.0869913 -0.512555801,33.3534043 2.00475454,25.8498124 C5.09248989,16.6376851 11.4457017,9.42158718 19.3655155,5.05167926 C18.7578889,7.16270621 19.931807,9.39283778 22.0481665,10.0951444 L25.9584712,11.3888671 C26.2436837,11.4833294 26.5082286,11.6024341 26.7562395,11.7502881 C26.8099752,11.7790375 26.8637109,11.8118939 26.9133131,11.8447504 C28.4799151,12.838658 29.2280812,14.7936168 28.616321,16.6253639 L28.1326998,18.0710478 C27.4093348,20.2313594 28.5832529,22.5682744 30.7616151,23.2870093 L32.1628765,23.7511066 C34.3329716,24.4616274 35.5068898,26.7944354 34.7835247,28.958854 Z" fill="#471873"></path>
                        <path d="M72.7002534,50.7550019 C68.1988561,62.6449299 58.1585494,70.9863613 46.4937714,73.8284442 C46.1630902,72.7606096 45.3322538,71.8611643 44.1831367,71.479208 L42.96375,71.0767165 C41.0706003,70.4483369 40.0454887,68.4194511 40.6779164,66.5384193 L42.2445184,61.8604821 L42.3478563,61.8933386 C43.1414911,60.320336 44.9891721,59.5276742 46.7169811,60.098555 L47.9363679,60.5010465 C49.8295176,61.1253191 51.8756073,60.1067691 52.5039015,58.2298444 L52.92552,56.9689781 C53.4587433,55.3754402 55.0088113,54.4020679 56.6208819,54.5211725 C56.6746176,54.5252796 56.7283533,54.5293866 56.7779555,54.5376007 C57.0259664,54.5622431 57.2781108,54.6156348 57.5219881,54.6977759 L60.9238706,55.8231094 C62.8170202,56.4473819 64.8631099,55.428832 65.4914041,53.5519072 L65.9130226,52.2910409 C66.5413168,50.4100092 68.59154,49.3955662 70.4846897,50.0198388 L72.7002534,50.7550019 Z" fill="#471873"></path>
                        <path d="M75.0315556,35.1276526 L70.7905697,33.7230394 C68.6163411,33.0043045 67.4382895,30.6673895 68.1616545,28.5070779 L68.6287416,27.1147858 C69.3521067,24.9544741 68.1781886,22.6175591 65.9998264,21.8988242 L64.5448293,21.4182987 C62.3706007,20.6995638 61.192549,18.3626488 61.9159141,16.2023371 L63.7098594,10.8508428 C70.3400167,17.2496365 74.4073949,25.9237394 75.0315556,35.1276526 Z" fill="#471873"></path>
                    </g>
                </g>
                <path d="M188.090627,93.8393488 L171.928585,93.8393488 C170.585193,93.8393488 169.498078,95.2316409 169.498078,96.9524975 L169.498078,98.1024733 C169.498078,99.8233299 168.410964,101.215622 167.067572,101.215622 L165.934989,101.215622 C165.901921,101.215622 165.868853,101.219729 165.839918,101.223836 L163.306074,101.223836 C158.486396,101.223836 154.576091,105.105004 154.576091,109.897939 L154.576091,113.10555 C154.576091,117.894378 150.66992,121.779653 145.846108,121.779653 L142.737705,121.779653 C137.918028,121.779653 134.007723,125.660821 134.007723,130.453756 L134.007723,130.708393 C134.007723,130.716607 134.007723,130.724822 134.007723,130.728929 L134.007723,131.878904 C134.007723,133.599761 132.606461,134.992053 130.874519,134.992053 L123.963282,134.992053 C122.23134,134.992053 120.830078,136.384345 120.830078,138.105202 L120.830078,142.380647 L141.443915,142.380647 L141.443915,142.364219 L188.115428,142.775139 L188.090627,93.8393488 Z" id="Path" fill="#FFCD52"></path>
                <g id="Group" transform="translate(0.098386, 123.619614)">
                    <path d="M168.717662,9.65158233 C168.717662,14.7812957 164.530412,18.9417437 159.367652,18.9417437 L25.9667382,18.9417437 L25.9667382,9.65158233 L168.717662,9.65158233 Z" id="Path" fill="#471873"></path>
                    <path d="M168.717662,9.81257038 L25.9667382,9.81257038 L25.9667382,0.361420955 L159.367652,0.361420955 C164.530412,0.361420955 168.717662,4.59396488 168.717662,9.81257038 Z" id="Path" fill="#623A87"></path>
                    <g id="Path">
                        <path d="M0.338948191,9.65158233 L25.9708718,9.65158233 L25.9708718,16.7362545 L11.0902195,18.9376366 L2.75705419,10.7892369 C2.50077629,10.9986968 2.17422864,11.1219085 1.82287991,11.1219085 C1.00444403,11.1219085 0.338948191,10.4647795 0.338948191,9.65158233 Z" fill="#DD9F27"></path>
                        <path d="M11.0902195,0.365528012 L25.9708718,2.56691019 L25.9708718,9.65158233 L0.338948191,9.65158233 C0.338948191,8.83838518 1.00444403,8.17714911 1.82287991,8.17714911 C2.17836215,8.17714911 2.5049098,8.30446786 2.7611877,8.50982068 L11.0902195,0.365528012 Z" fill="#FFCD52"></path>
                    </g>
                    <ellipse id="Oval" fill="#471873" cx="14.3763635" cy="9.65158233" rx="2.07915781" ry="2.06584932"></ellipse>
                </g>
                <rect id="Rectangle" fill="#EAA00A" x="71.7859286" y="73.2917461" width="2.40983897" height="25.5951749"></rect>
                <g id="Group" transform="translate(50.113912, 75.977761)">
                    <path d="M45.5885317,0.340885674 L43.1786927,0.340885674 C31.9644678,0.340885674 22.8748694,9.3723025 22.8748694,20.5147463 L22.8748694,22.9091601 L45.5885317,0.340885674 Z" id="Path" fill="#DD9F27"></path>
                    <path d="M45.5885317,0.340885674 L45.5885317,2.7352995 C45.5885317,13.8777433 36.4989332,22.9091601 25.2847083,22.9091601 L22.8748694,22.9091601 L45.5885317,0.340885674 Z" id="Path" fill="#EFC71D"></path>
                    <path d="M0.165340581,0.340885674 L2.57517955,0.340885674 C13.7894045,0.340885674 22.8790029,9.3723025 22.8790029,20.5147463 L22.8790029,22.9091601 L0.165340581,0.340885674 Z" id="Path" fill="#FFCD52"></path>
                    <path d="M0.165340581,0.340885674 L0.165340581,2.7352995 C0.165340581,13.8777433 9.25493902,22.9091601 20.4691639,22.9091601 L22.8790029,22.9091601 L0.165340581,0.340885674 Z" id="Path" fill="#EAA00A"></path>
                </g>
                <g id="Group" transform="translate(50.113912, 53.388951)">
                    <path d="M0.165340581,0.0451776194 L2.57517955,0.0451776194 C13.7894045,0.0451776194 22.8790029,9.07659445 22.8790029,20.2190382 L22.8790029,22.613452 L0.165340581,0.0451776194 Z" id="Path" fill="#DD9F27"></path>
                    <path d="M0.165340581,0.0451776194 L0.165340581,2.43959145 C0.165340581,13.5820352 9.25493902,22.613452 20.4691639,22.613452 L22.8790029,22.613452 L0.165340581,0.0451776194 Z" id="Path" fill="#EFC71D"></path>
                    <path d="M45.5885317,0.0451776194 L43.1786927,0.0451776194 C31.9644678,0.0451776194 22.8748694,9.07659445 22.8748694,20.2190382 L22.8748694,22.613452 L45.5885317,0.0451776194 Z" id="Path" fill="#FFCD52"></path>
                    <path d="M45.5885317,0.0451776194 L45.5885317,2.43959145 C45.5885317,13.5820352 36.4989332,22.613452 25.2847083,22.613452 L22.8748694,22.613452 L45.5885317,0.0451776194 Z" id="Path" fill="#EAA00A"></path>
                </g>
            </g>
        </g>
    </g>
</svg>