<?xml version="1.0" encoding="UTF-8"?>
<svg width="50px" height="51px" viewBox="0 0 50 51" version="1.1" xmlns="http://www.w3.org/2000/svg" xmlns:xlink="http://www.w3.org/1999/xlink">
    <!-- Generator: Sketch 52.6 (67491) - http://www.bohemiancoding.com/sketch -->
    <title>pc-04-ct-kiemtra3</title>
    <desc>Created with Sketch.</desc>
    <g id="Page-1" stroke="none" stroke-width="1" fill="none" fill-rule="evenodd">
        <g id="04_CT-TIÊU-CHUẨN---tiền-tiểu-học" transform="translate(-1195.000000, -4545.000000)" stroke="#471873">
            <g id="pc-04-ct-kiemtra3" transform="translate(1196.000000, 4546.000000)">
                <path d="M21.9853339,12.6744258 C22.5112035,13.1545423 23.3788725,13.0943105 23.8219106,12.5554101 L27.7378462,7.79131101 C28.7048497,6.61505463 26.756244,5.27924195 25.7879711,6.45694627 L22.7149503,10.1953684 L21.0979884,8.71998024 C19.9586571,7.68040358 18.2334746,9.25164119 19.3743927,10.2923762 L21.9853339,12.6744258 Z" id="Path" stroke-width="0.7" fill="#F1CC1F"></path>
                <path d="M43.2744141,35.1294761 C44.3327636,34.0541962 44.9875489,32.5777087 44.9875489,30.9497112 C44.9875489,27.6690775 42.3295898,25 39.0626221,25 C35.7956542,25 33.1376953,27.6690775 33.1376953,30.9497112 C33.1376953,32.5777087 33.7924805,34.0541962 34.8508301,35.1294761 C34.0510254,35.5597352 32.6367187,36.4849762 31.5311279,38.2129997 C30.4255371,36.4849762 29.0115967,35.5597352 28.211792,35.1294761 C29.2701416,34.0541962 29.9249268,32.5777087 29.9249268,30.9497112 C29.9249268,27.6690775 27.2669677,25 24,25 C20.7330322,25 18.0750732,27.6690775 18.0750732,30.9497112 C18.0750732,32.5777087 18.7298584,34.0541962 19.788208,35.1294761 C18.9884033,35.5597352 17.5744629,36.4849762 16.4688721,38.2129997 C15.3632812,36.4849762 13.9489746,35.5597352 13.1491699,35.1294761 C14.2075195,34.0541962 14.8623047,32.5777087 14.8623047,30.9497112 C14.8623047,27.6690775 12.2047119,25 8.93737791,25 C5.67041016,25 3.01245112,27.6690775 3.01245112,30.9497112 C3.01245112,32.5777087 3.66723637,34.0541962 4.72558594,35.1294761 C2.62170412,36.2613885 0,38.9021497 0,43.0502888 L0,47.5878676 C0,48.3678501 0.629516625,49 1.40625,49 L46.59375,49 C47.3704834,49 48,48.3678501 48,47.5878676 L48,43.0502888 C48,38.9039884 45.3841552,36.2643305 43.2744141,35.1294761 Z M35.9501953,30.9497112 C35.9501953,29.2264684 37.3461914,27.8242649 39.0626221,27.8242649 C40.7786865,27.8242649 42.1750489,29.2264684 42.1750489,30.9497112 C42.1750489,32.6733218 40.7786865,34.0755252 39.0626221,34.0755252 C37.3461914,34.0755252 35.9501953,32.6733218 35.9501953,30.9497112 Z M20.8875732,30.9497112 C20.8875732,29.2264684 22.2839355,27.8242649 24,27.8242649 C25.7160645,27.8242649 27.1124268,29.2264684 27.1124268,30.9497112 C27.1124268,32.6733218 25.7160645,34.0755252 24,34.0755252 C22.2839355,34.0755252 20.8875732,32.6733218 20.8875732,30.9497112 Z M5.82495113,30.9497112 C5.82495113,29.2264684 7.2213135,27.8242649 8.93737791,27.8242649 C10.6538086,27.8242649 12.0498047,29.2264684 12.0498047,30.9497112 C12.0498047,32.6733218 10.6538086,34.0755252 8.93737791,34.0755252 C7.2213135,34.0755252 5.82495113,32.6733218 5.82495113,30.9497112 Z M2.8125,43.0502888 C2.8125,39.7086098 5.50158694,36.8997901 8.93737791,36.8997901 C12.373169,36.8997901 15.0622558,39.7086098 15.0622558,43.0502888 L15.0622558,46.1757351 L2.8125,46.1757351 L2.8125,43.0502888 Z M17.8751221,43.0502888 C17.8751221,39.7086098 20.5642089,36.8997901 24,36.8997901 C27.4357911,36.8997901 30.1248779,39.7086098 30.1248779,43.0502888 L30.1248779,46.1757351 L17.8751221,46.1757351 L17.8751221,43.0502888 Z M45.1875,46.1757351 L32.9373779,46.1757351 L32.9373779,43.0502888 C32.9373779,39.7086098 35.6264648,36.8997901 39.0622558,36.8997901 C42.4984131,36.8997901 45.1875,39.7086098 45.1875,43.0502888 L45.1875,46.1757351 Z" id="Shape" stroke-width="1.2" fill="#F8F0FF" fill-rule="nonzero"></path>
                <path d="M23.5,0 C18.2533279,0 14,4.25332785 14,9.5 C14,14.7466721 18.2533279,19 23.5,19 C28.7466721,19 33,14.7466721 33,9.5 C33,4.25332785 28.7466721,0 23.5,0 Z M23.5,16.6137367 C19.5710548,16.6137367 16.3862633,13.4286345 16.3862633,9.5 C16.3862633,5.57105473 19.5710548,2.38626328 23.5,2.38626328 C27.4289452,2.38626328 30.6137367,5.57105473 30.6137367,9.5 C30.6137367,13.4286345 27.4289452,16.6137367 23.5,16.6137367 Z" id="Shape" stroke-width="0.7" fill="#F8F0FF" fill-rule="nonzero"></path>
            </g>
        </g>
    </g>
</svg>