<?xml version="1.0" encoding="UTF-8"?>
<svg width="53px" height="48px" viewBox="0 0 53 48" version="1.1" xmlns="http://www.w3.org/2000/svg" xmlns:xlink="http://www.w3.org/1999/xlink">
    <!-- Generator: Sketch 52.6 (67491) - http://www.bohemiancoding.com/sketch -->
    <title>pc-04-ct-kiemtra1</title>
    <desc>Created with Sketch.</desc>
    <g id="Page-1" stroke="none" stroke-width="1" fill="none" fill-rule="evenodd">
        <g id="04_CT-TIÊU-CHUẨN---tiền-tiểu-học" transform="translate(-762.000000, -4547.000000)">
            <g id="pc-04-ct-kiemtra1" transform="translate(763.000000, 4548.000000)">
                <g id="2540059" stroke="#471873">
                    <path d="M35,8.87539453 L26.1345,0 L-5.68434189e-14,0 L-5.68434189e-14,46 L35,46 L35,8.87539453 Z M26.9230769,4.60116797 L30.4039615,8.0859375 L26.9230769,8.0859375 L26.9230769,4.60116797 Z M32.3076923,43.3046875 L2.69230769,43.3046875 L2.69230769,2.6953125 L24.2307692,2.6953125 L24.2307692,10.78125 L32.3076923,10.78125 L32.3076923,43.3046875 Z" id="Shape" stroke-width="1.2" fill="#F8F0FF" fill-rule="nonzero"></path>
                    <polygon id="Path" stroke-width="1.2" fill="#F8F0FF" points="16.1538462 16.2617188 29.6153846 16.2617188 29.6153846 18.9570312 16.1538462 18.9570312"></polygon>
                    <polygon id="Path" stroke-width="1.2" fill="#F8F0FF" points="16.1538462 24.3476562 29.6153846 24.3476562 29.6153846 27.0429688 16.1538462 27.0429688"></polygon>
                    <polygon id="Path" stroke-width="1.2" fill="#F8F0FF" points="16.1538462 32.4335938 29.6153846 32.4335938 29.6153846 35.1289062 16.1538462 35.1289062"></polygon>
                    <polygon id="Path" fill="#F1CC1F" points="9.42307692 16.7035195 7.68258974 14.9611797 5.77894872 16.8669453 9.42307692 20.5152305 14.413359 15.5192891 12.5097179 13.6135234"></polygon>
                    <polygon id="Path" fill="#F1CC1F" points="9.42307692 24.789457 7.68258974 23.0471172 5.77894872 24.9528828 9.42307692 28.601168 14.413359 23.6052266 12.5097179 21.6994609"></polygon>
                    <polygon id="Path" fill="#F1CC1F" points="9.42307692 32.8753945 7.68258974 31.1330547 5.77894872 33.0388203 9.42307692 36.6871055 14.413359 31.6911641 12.5097179 29.7853984"></polygon>
                </g>
                <path d="M29.5834765,40.0065844 C29.6068041,40.0065844 29.6307006,40.0054464 29.6540282,40.0020326 L34.2057524,39.4330671 C34.3314938,39.4177051 34.4481317,39.3602395 34.5374593,39.270912 L59.1696834,14.6386878 L60.0720627,15.5410671 L56.4915627,19.1215671 L57.29608,19.9260844 L61.2788386,15.9433257 C61.5013041,15.7208602 61.5013041,15.361274 61.2788386,15.1388085 L59.9742006,13.8341706 L60.9943558,12.8140154 C62.3137869,11.4940154 62.3137869,9.34673954 60.9943558,8.02673954 C60.3554075,7.3872223 59.5053731,7.03503264 58.6007179,7.03503264 C57.6960627,7.03503264 56.8460282,7.3872223 56.20708,8.02673954 L52.5088041,11.7250154 L53.3133213,12.5295326 L55.1869248,10.6559292 L58.3651662,13.8341706 L47.7903731,24.4089637 L44.6121317,21.2307223 L52.1753903,13.6674637 L51.3708731,12.8629464 L29.7501834,34.4836361 C29.6608558,34.5729637 29.6033903,34.6896016 29.5880282,34.815343 L29.0190627,39.3670671 C28.997442,39.5411706 29.0566144,39.715843 29.1812179,39.8398775 C29.2881834,39.947412 29.4332696,40.0065844 29.5834765,40.0065844 Z M55.991442,9.85141195 L57.0115972,8.83125678 C57.8604938,7.98236023 59.340942,7.98236023 60.1898386,8.83125678 C61.0654765,9.70746367 61.0654765,11.1332913 60.1898386,12.0094982 L59.1696834,13.0296533 L55.991442,9.85141195 Z M46.9858558,25.2134809 L35.2731317,36.9262051 L32.0948903,33.7479637 L43.8076144,22.0352395 L46.9858558,25.2134809 Z M30.6929593,35.1498947 L31.2903731,34.5524809 L34.4686144,37.7307223 L33.8706317,38.3287051 L30.2383558,38.7827395 L30.6929593,35.1498947 Z" id="Shape" stroke="#F8F0FF" stroke-width="0.2" fill="#F8F0FF" fill-rule="nonzero" transform="translate(45.499307, 23.520809) rotate(-45.000000) translate(-45.499307, -23.520809) "></path>
            </g>
        </g>
    </g>
</svg>