<?xml version="1.0" encoding="UTF-8"?>
<svg width="55px" height="43px" viewBox="0 0 55 43" version="1.1" xmlns="http://www.w3.org/2000/svg" xmlns:xlink="http://www.w3.org/1999/xlink">
    <!-- Generator: Sketch 52.6 (67491) - http://www.bohemiancoding.com/sketch -->
    <title>pc-02-navigation 2</title>
    <desc>Created with Sketch.</desc>
    <g id="Page-1" stroke="none" stroke-width="1" fill="none" fill-rule="evenodd">
        <g id="02_ABOUT" transform="translate(-875.000000, -7916.000000)" fill="#471873" fill-rule="nonzero">
            <g id="pc-02-navigation-2" transform="translate(875.000000, 7916.000000)">
                <path d="M0.0129805353,0.00453354633 L0.0129805353,37.502869 L21.5874331,37.502869 L21.5874331,40.8045272 L14.6425791,40.8045272 L14.6425791,42.86523 L40.9862409,42.86523 L40.9862409,40.8045272 L34.0413869,40.8045272 L34.0413869,37.502869 L54.9346959,37.502869 L54.9346959,0.00453354633 L0.0129805353,0.00453354633 Z M52.9273966,2.06523642 L52.9273966,31.2456134 L2.02027981,31.2456134 L2.02027981,2.06523642 L52.9273966,2.06523642 Z M32.0340876,40.8043898 L23.5948662,40.8043898 L23.5948662,37.5027316 L32.0340876,37.5027316 L32.0340876,40.8043898 Z M2.02027981,35.4420288 L2.02027981,33.3061789 L52.9273966,33.3061789 L52.9273966,35.4420288 L2.02027981,35.4420288 Z" id="Shape"></path>
                <path d="M28.0358151,19.9524121 L31.5493917,23.5594665 L32.96882,22.1024121 L29.4552433,18.4953578 L31.9333212,15.9513514 L20.77809,11.0446805 L25.5577372,22.4964185 L28.0358151,19.9524121 Z M28.4172019,16.6466326 L26.2351338,18.886754 L24.5991849,14.9671597 L28.4172019,16.6466326 Z" id="Shape"></path>
            </g>
        </g>
    </g>
</svg>