<?xml version="1.0" encoding="UTF-8"?>
<svg width="40px" height="33px" viewBox="0 0 40 33" version="1.1" xmlns="http://www.w3.org/2000/svg" xmlns:xlink="http://www.w3.org/1999/xlink">
    <!-- Generator: Sketch 52.6 (67491) - http://www.bohemiancoding.com/sketch -->
    <title>pc-04-pp6</title>
    <desc>Created with Sketch.</desc>
    <g id="Page-1" stroke="none" stroke-width="1" fill="none" fill-rule="evenodd">
        <g id="04_CT-TIÊU-CHUẨN---tiền-tiểu-học" transform="translate(-940.000000, -3096.000000)">
            <g id="pc-04-pp6" transform="translate(940.000000, 3096.000000)">
                <polygon id="Rectangle-Copy-3" fill="#FFDA00" points="-1.08357767e-13 0 20.8489119 0 27.2727273 6.30622428 27.2727273 33 -1.08357767e-13 33"></polygon>
                <polygon id="Rectangle" fill="#491387" points="20.855615 -3.46389584e-13 27.2727273 6.28571429 20.855615 6.28571429"></polygon>
                <g id="WEB-Ilus-05" transform="translate(31.818182, 9.810811)">
                    <polygon id="Rectangle" fill="#491387" points="8.17190083 3.76962619 8.17190083 22.9470225 0.125206612 22.9470225 0.125206612 3.76962619"></polygon>
                    <rect id="Rectangle" fill="#FFDA00" x="5.48801653" y="3.76962619" width="1" height="1"></rect>
                    <polygon id="Path" fill="#FFDA00" points="0.125206612 3.76962619 0.123966942 3.77194953 0.123966942 3.76962619"></polygon>
                    <rect id="Rectangle" fill="#7919B2" x="2.80661157" y="3.77942157" width="2.68140496" height="19.0853197"></rect>
                    <path d="M5.4892562,3.76962619 C5.48987397,3.78007322 5.48987397,3.7905443 5.4892562,3.80099133 L5.4892562,3.76846451 L5.4892562,3.76962619 Z" id="Path" fill="#FFDA00"></path>
                    <path d="M8.17066116,3.76962619 C8.17990392,4.46380905 7.58686623,5.03357677 6.84607438,5.04223802 C6.10528253,5.05089927 5.49725933,4.4951742 5.48801653,3.80099133 C5.4886343,3.7905443 5.4886343,3.78007322 5.48801653,3.76962619 L5.48801653,3.80215301 C5.45882354,4.48221683 4.85729131,5.01695925 4.13103615,5.00846404 C3.40478099,4.99996882 2.81768033,4.45132263 2.80661157,3.77078786 C2.80661157,4.46497073 2.20608111,5.02771714 1.46528926,5.02771714 C0.724497398,5.02771714 0.123966942,4.46497073 0.123966942,3.77078786 L4.14793388,0 L5.74586777,1.49739543 L8.16942149,3.76962619 L8.17066116,3.76962619 Z" id="Path" fill="#FFDA00"></path>
                    <path d="M5.4892562,3.76962619 C5.48987397,3.78007322 5.48987397,3.7905443 5.4892562,3.80099133 L5.4892562,3.76846451 L5.4892562,3.76962619 Z" id="Path" fill="#FFDA00"></path>
                    <polygon id="Path" fill="#2B1649" points="5.74586777 1.49739543 2.55 1.49739543 4.14793388 0"></polygon>
                </g>
                <g id="Group-18" transform="translate(4.545455, 8.918919)">
                    <polyline id="Path" stroke="#5A1E8D" stroke-width="1.61999996" stroke-linecap="round" stroke-linejoin="round" points="14.1235331 3.413244 6.81713579 3.413244 6.81713579 17.5417823 0.771681245 17.5417823"></polyline>
                    <ellipse id="Oval" fill="#5A1E8D" cx="18.4531627" cy="3.33485459" rx="1.87609428" ry="1.83523442"></ellipse>
                    <path d="M2.23998093,10.2667276 L2.24545926,10.2667879 C2.53783996,10.2700069 2.77407539,10.5062423 2.77729436,10.798623 L2.82155108,14.8184908 C2.82471254,15.1056489 2.59448775,15.3409995 2.3073296,15.3441609 C2.30351349,15.3442029 2.29969703,15.3442029 2.29588092,15.3441609 L2.29040259,15.3441006 C1.99802189,15.3408816 1.76178646,15.1046462 1.75856749,14.8122655 L1.71431077,10.7923977 C1.71114931,10.5052396 1.94137411,10.269889 2.22853225,10.2667276 C2.23234836,10.2666856 2.23616482,10.2666856 2.23998093,10.2667276 Z" id="Rectangle" fill="#5A1E8D" transform="translate(2.267931, 12.805444) rotate(-45.000000) translate(-2.267931, -12.805444) "></path>
                    <path d="M2.2914969,10.2671084 L2.29697522,10.2670481 C2.58413337,10.2638866 2.81948392,10.4941114 2.82264538,10.7812696 C2.8226874,10.7850857 2.8226874,10.7889022 2.82264538,10.7927183 L2.77838867,14.8125861 C2.7751697,15.1049667 2.53893427,15.3412022 2.24655357,15.3444212 L2.24107524,15.3444815 C1.9539171,15.3476429 1.71856655,15.1174181 1.71540508,14.83026 C1.71536307,14.8264439 1.71536307,14.8226274 1.71540508,14.8188113 L1.7596618,10.7989435 C1.76288076,10.5065628 1.9991162,10.2703274 2.2914969,10.2671084 Z" id="Rectangle" fill="#5A1E8D" transform="translate(2.269025, 12.805765) rotate(45.000000) translate(-2.269025, -12.805765) "></path>
                    <path d="M13.0040439,7.34170704 L13.0095223,7.34176735 C13.301903,7.34498631 13.5381384,7.58122175 13.5413574,7.87360245 L13.5856141,11.8934702 C13.5887756,12.1806284 13.3585508,12.4159789 13.0713926,12.4191404 C13.0675765,12.4191824 13.06376,12.4191824 13.0599439,12.4191404 L13.0544656,12.4190801 C12.7620849,12.4158611 12.5258495,12.1796257 12.5226305,11.887245 L12.4783738,7.8673772 C12.4752123,7.58021905 12.7054371,7.3448685 12.9925953,7.34170704 C12.9964114,7.34166502 13.0002278,7.34166502 13.0040439,7.34170704 Z" id="Rectangle" fill="#5A1E8D" transform="translate(13.031994, 9.880424) rotate(-45.000000) translate(-13.031994, -9.880424) "></path>
                    <path d="M13.0547044,7.34142697 L13.0601827,7.34136666 C13.3473409,7.33820519 13.5826914,7.56842999 13.5858529,7.85558814 C13.5858949,7.85940425 13.5858949,7.86322071 13.5858529,7.86703682 L13.5415961,11.8869046 C13.5383772,12.1792853 13.3021417,12.4155207 13.0097611,12.4187397 L13.0042827,12.4188 C12.7171246,12.4219615 12.481774,12.1917367 12.4786126,11.9045785 C12.4785706,11.9007624 12.4785706,11.896946 12.4786126,11.8931299 L12.5228693,7.87326207 C12.5260882,7.58088137 12.7623237,7.34464594 13.0547044,7.34142697 Z" id="Rectangle" fill="#5A1E8D" transform="translate(13.032233, 9.880083) rotate(45.000000) translate(-13.032233, -9.880083) "></path>
                    <path d="M2.16583103,-0.386439622 L2.17130936,-0.386379309 C2.46369005,-0.383160345 2.69992549,-0.146924908 2.70314445,0.145455786 L2.74740117,4.16532357 C2.75056264,4.45248172 2.52033784,4.68783226 2.23317969,4.69099373 C2.22936358,4.69103574 2.22554712,4.69103574 2.22173101,4.69099373 L2.21625268,4.69093342 C1.92387199,4.68771445 1.68763655,4.45147901 1.68441759,4.15909832 L1.64016087,0.139230538 C1.6369994,-0.147927609 1.8672242,-0.383278156 2.15438235,-0.386439622 C2.15819846,-0.386481636 2.16201492,-0.386481636 2.16583103,-0.386439622 Z" id="Rectangle" fill="#5A1E8D" transform="translate(2.193781, 2.152277) rotate(-45.000000) translate(-2.193781, -2.152277) "></path>
                    <path d="M2.2175376,-0.385691308 L2.22301592,-0.385751622 C2.51017407,-0.388913088 2.74552462,-0.158688291 2.74868608,0.128469855 C2.7487281,0.132285967 2.7487281,0.136102426 2.74868608,0.139918538 L2.70442937,4.15978632 C2.7012104,4.45216702 2.46497497,4.68840245 2.17259427,4.69162142 L2.16711594,4.69168173 C1.8799578,4.6948432 1.64460725,4.4646184 1.64144578,4.17746025 C1.64140377,4.17364414 1.64140377,4.16982768 1.64144578,4.16601157 L1.6857025,0.146143787 C1.68892146,-0.146236907 1.9251569,-0.382472344 2.2175376,-0.385691308 Z" id="Rectangle" fill="#5A1E8D" transform="translate(2.195066, 2.152965) rotate(45.000000) translate(-2.195066, -2.152965) "></path>
                </g>
            </g>
        </g>
    </g>
</svg>