<?xml version="1.0" encoding="UTF-8"?>
<svg width="36px" height="36px" viewBox="0 0 36 36" version="1.1" xmlns="http://www.w3.org/2000/svg" xmlns:xlink="http://www.w3.org/1999/xlink">
    <!-- Generator: Sketch 52.6 (67491) - http://www.bohemiancoding.com/sketch -->
    <title>pc-04-pp4</title>
    <desc>Created with Sketch.</desc>
    <g id="Page-1" stroke="none" stroke-width="1" fill="none" fill-rule="evenodd">
        <g id="04_CT-TIÊU-CHUẨN---tiền-tiểu-học" transform="translate(-1265.000000, -2923.000000)">
            <g id="pc-04-pp4" transform="translate(1264.000000, 2923.000000)">
                <polygon id="Rectangle" fill="#2B1649" transform="translate(12.301165, 24.679136) rotate(45.000000) translate(-12.301165, -24.679136) " points="10.1420201 19.1060106 14.4603096 19.1060106 14.4603096 30.2522606 10.1420201 30.2522606"></polygon>
                <path d="M4.52637937,21.8545908 L10.7871688,21.8545908 L10.7871688,33.6605118 C10.7871688,35.3893811 9.38564338,36.7909066 7.65677411,36.7909066 C5.92790483,36.7909066 4.52637937,35.3893811 4.52637937,33.6605118 L4.52637937,21.8545908 Z" id="Path" fill="#471873" transform="translate(7.656774, 29.322749) rotate(45.000000) translate(-7.656774, -29.322749) "></path>
                <circle id="Oval" fill="#5A1E8D" cx="24.2885526" cy="12.6919737" r="12.6919737"></circle>
                <circle id="Oval" fill="#FFDA00" cx="24.2885526" cy="12.6919737" r="9.59078947"></circle>
                <path d="M27.5284868,10.5230921 C27.5328716,10.801597 27.4942821,11.0791126 27.4140789,11.3458553 C27.3408003,11.5783974 27.2324466,11.7983884 27.0927632,11.9982237 C26.9524866,12.2036332 26.7891411,12.3922973 26.6059211,12.5605263 C26.4111842,12.7357895 26.1896711,12.9159211 25.9413816,13.1057895 C25.7904605,13.2299342 25.6638816,13.3370395 25.5640789,13.4319737 C25.468747,13.5165819 25.3866881,13.6150526 25.3206579,13.7240789 C25.2639096,13.8208699 25.2228316,13.9260294 25.1989474,14.0356579 C25.17275,14.1637834 25.1605076,14.2943695 25.1624342,14.4251316 L25.1624342,14.7951316 L22.9448684,14.7951316 L22.9448684,14.2547368 C22.9414812,14.0327938 22.9651871,13.8112666 23.0154605,13.5950658 C23.0591998,13.4086103 23.1305816,13.2297456 23.2272368,13.0644079 C23.3278794,12.8969706 23.4444508,12.73964 23.5753289,12.5946053 C23.7282907,12.4293904 23.890853,12.2733306 24.0621711,12.1272368 L24.5344079,11.6842105 C24.6878956,11.5508098 24.8258904,11.400567 24.9457895,11.2363158 C25.0623287,11.07337 25.1221882,10.8766889 25.1161842,10.6764474 C25.1296713,10.4049631 25.0290614,10.1402001 24.8386842,9.94618421 C24.3413423,9.53920689 23.6112116,9.59834856 23.1858553,10.0800658 C22.9884131,10.3458662 22.8748335,10.6645672 22.8596711,10.9953289 L20.6031579,10.7519079 C20.6469144,10.2818773 20.779055,9.82434036 20.9926316,9.40335526 C21.1834721,9.02651686 21.4523211,8.69460454 21.7813158,8.42967105 C22.1105655,8.17874147 22.483687,7.99135524 22.8815789,7.87710526 C23.3007752,7.74673444 23.7375876,7.68186944 24.1765789,7.68480263 C24.5974104,7.68367849 25.0165226,7.73852325 25.4228947,7.84789474 C25.8093495,7.95018538 26.1733813,8.1235339 26.4963816,8.35907895 C26.8124093,8.59279017 27.0705734,8.89592468 27.2509868,9.24513158 C27.4466399,9.64200261 27.5419256,10.0808183 27.5284868,10.5230921 Z M25.4423684,16.7960526 C25.4502096,17.1571951 25.3062862,17.5050836 25.0455921,17.7551316 C24.7871803,18.0114786 24.4358248,18.1520208 24.0719079,18.1446053 C23.8902866,18.1453656 23.7101855,18.1114934 23.54125,18.0448026 C23.3753834,17.9833213 23.2232055,17.8898643 23.0933553,17.7697368 C22.9671021,17.6472254 22.8640212,17.5029121 22.7890789,17.34375 C22.7112271,17.1795452 22.6720871,16.9996676 22.6746711,16.8179605 C22.6747014,16.6396421 22.7111478,16.4632084 22.7817763,16.2994737 C22.8510706,16.136788 22.9520187,15.989503 23.07875,15.8661842 C23.2092011,15.7438214 23.3610182,15.6464604 23.5266447,15.5789474 C23.6971081,15.5079903 23.8799635,15.4715847 24.0646053,15.4718421 C24.2477383,15.4709094 24.4291357,15.5073545 24.5976974,15.5789474 C24.7593451,15.647719 24.9082839,15.7431714 25.0382895,15.8613158 C25.1658729,15.981075 25.2670255,16.126171 25.3352632,16.2873026 C25.404606,16.4480239 25.4410253,16.6210156 25.4423684,16.7960526 Z" id="Shape" fill="#491387" fill-rule="nonzero"></path>
            </g>
        </g>
    </g>
</svg>