<?xml version="1.0" encoding="UTF-8"?>
<svg width="64px" height="64px" viewBox="0 0 64 64" version="1.1" xmlns="http://www.w3.org/2000/svg" xmlns:xlink="http://www.w3.org/1999/xlink">
    <!-- Generator: Sketch 52.6 (67491) - http://www.bohemiancoding.com/sketch -->
    <title>pc-13-insta</title>
    <desc>Created with Sketch.</desc>
    <g id="Page-1" stroke="none" stroke-width="1" fill="none" fill-rule="evenodd">
        <g id="13_TIN-TỨC-&amp;-SỰ-KIỆN" transform="translate(-1196.000000, -4786.000000)" fill="#471873" fill-rule="nonzero">
            <g id="pc-13-insta" transform="translate(1196.000000, 4786.000000)">
                <path d="M32,19 C24.7625,19 18.875,24.8875 18.875,32.125 C18.875,39.3625 24.7625,45.25 32,45.25 C39.2375,45.25 45.125,39.3625 45.125,32.125 C45.125,24.8875 39.2375,19 32,19 Z M32,19 C24.7625,19 18.875,24.8875 18.875,32.125 C18.875,39.3625 24.7625,45.25 32,45.25 C39.2375,45.25 45.125,39.3625 45.125,32.125 C45.125,24.8875 39.2375,19 32,19 Z M54.625,0 L9.375,0 C4.2,0 0,4.2 0,9.375 L0,54.625 C0,59.8 4.2,64 9.375,64 L54.625,64 C59.8,64 64,59.8 64,54.625 L64,9.375 C64,4.2 59.8,0 54.625,0 Z M32,49 C22.700125,49 15.125,41.424875 15.125,32.125 C15.125,22.824875 22.700125,15.25 32,15.25 C41.299875,15.25 48.875,22.824875 48.875,32.125 C48.875,41.424875 41.299875,49 32,49 Z M52.625,15.25 C50.5625,15.25 48.875,13.5625 48.875,11.5 C48.875,9.4375 50.5625,7.75 52.625,7.75 C54.6875,7.75 56.375,9.4375 56.375,11.5 C56.375,13.5625 54.6875,15.25 52.625,15.25 Z M32,19 C24.7625,19 18.875,24.8875 18.875,32.125 C18.875,39.3625 24.7625,45.25 32,45.25 C39.2375,45.25 45.125,39.3625 45.125,32.125 C45.125,24.8875 39.2375,19 32,19 Z M32,19 C24.7625,19 18.875,24.8875 18.875,32.125 C18.875,39.3625 24.7625,45.25 32,45.25 C39.2375,45.25 45.125,39.3625 45.125,32.125 C45.125,24.8875 39.2375,19 32,19 Z M32,19 C24.7625,19 18.875,24.8875 18.875,32.125 C18.875,39.3625 24.7625,45.25 32,45.25 C39.2375,45.25 45.125,39.3625 45.125,32.125 C45.125,24.8875 39.2375,19 32,19 Z" id="Shape"></path>
            </g>
        </g>
    </g>
</svg>