<?xml version="1.0" encoding="UTF-8"?>
<svg width="81px" height="54px" viewBox="0 0 81 54" version="1.1" xmlns="http://www.w3.org/2000/svg" xmlns:xlink="http://www.w3.org/1999/xlink">
    <!-- Generator: Sketch 52.6 (67491) - http://www.bohemiancoding.com/sketch -->
    <title>pc-13-youtube</title>
    <desc>Created with Sketch.</desc>
    <g id="Page-1" stroke="none" stroke-width="1" fill="none" fill-rule="evenodd">
        <g id="13_TIN-TỨC-&amp;-SỰ-KIỆN" transform="translate(-1413.000000, -4792.000000)" fill="#471873" fill-rule="nonzero">
            <path d="M1490.5575,4797.20364 C1488.36037,4793.41382 1485.97594,4792.71673 1481.121,4792.45164 C1476.27112,4792.13255 1464.07556,4792 1453.51013,4792 C1442.92444,4792 1430.72381,4792.13255 1425.879,4792.44673 C1421.03419,4792.71673 1418.64469,4793.40891 1416.42731,4797.20364 C1414.16438,4800.98855 1413,4807.50782 1413,4818.98527 C1413,4818.99509 1413,4819 1413,4819 C1413,4819.00982 1413,4819.01473 1413,4819.01473 L1413,4819.02455 C1413,4830.45291 1414.16438,4837.02127 1416.42731,4840.76691 C1418.64469,4844.55673 1421.02913,4845.244 1425.87394,4845.56309 C1430.72381,4845.838 1442.92444,4846 1453.51013,4846 C1464.07556,4846 1476.27112,4845.838 1481.12606,4845.568 C1485.981,4845.24891 1488.36544,4844.56164 1490.56256,4840.77182 C1492.84575,4837.02618 1494,4830.45782 1494,4819.02945 C1494,4819.02945 1494,4819.01473 1494,4819.00491 C1494,4819.00491 1494,4818.99509 1494,4818.99018 C1494,4807.50782 1492.84575,4800.98855 1490.5575,4797.20364 Z M1443.375,4833.72727 L1443.375,4804.27273 L1468.6875,4819 L1443.375,4833.72727 Z" id="pc-13-youtube"></path>
        </g>
    </g>
</svg>