<?xml version="1.0" encoding="UTF-8"?>
<svg width="34px" height="66px" viewBox="0 0 34 66" version="1.1" xmlns="http://www.w3.org/2000/svg" xmlns:xlink="http://www.w3.org/1999/xlink">
    <!-- Generator: Sketch 52.6 (67491) - http://www.bohemiancoding.com/sketch -->
    <title>pc-13-fb</title>
    <desc>Created with Sketch.</desc>
    <g id="Page-1" stroke="none" stroke-width="1" fill="none" fill-rule="evenodd">
        <g id="13_TIN-TỨC-&amp;-SỰ-KIỆN" transform="translate(-1009.000000, -4782.000000)" fill="#471873">
            <path d="M1041.71966,4782.01373 L1033.56461,4782 C1024.40268,4782 1018.48184,4788.37527 1018.48184,4798.24269 L1018.48184,4805.73166 L1010.2823,4805.73166 C1009.57377,4805.73166 1009,4806.33451 1009,4807.07812 L1009,4817.92878 C1009,4818.67239 1009.57442,4819.27455 1010.2823,4819.27455 L1018.48184,4819.27455 L1018.48184,4846.65422 C1018.48184,4847.39783 1019.05561,4848 1019.76415,4848 L1030.46222,4848 C1031.17076,4848 1031.74452,4847.39715 1031.74452,4846.65422 L1031.74452,4819.27455 L1041.3317,4819.27455 C1042.04024,4819.27455 1042.614,4818.67239 1042.614,4817.92878 L1042.61793,4807.07812 C1042.61793,4806.72108 1042.4825,4806.37914 1042.24239,4806.12646 C1042.00229,4805.87379 1041.67517,4805.73166 1041.33497,4805.73166 L1031.74452,4805.73166 L1031.74452,4799.38317 C1031.74452,4796.33182 1032.43736,4794.78281 1036.22473,4794.78281 L1041.71835,4794.78075 C1042.42623,4794.78075 1043,4794.1779 1043,4793.43497 L1043,4783.35951 C1043,4782.61727 1042.42689,4782.01511 1041.71966,4782.01373 Z" id="pc-13-fb"></path>
        </g>
    </g>
</svg>