<?xml version="1.0" encoding="UTF-8"?>
<svg width="19px" height="26px" viewBox="0 0 19 26" version="1.1" xmlns="http://www.w3.org/2000/svg" xmlns:xlink="http://www.w3.org/1999/xlink">
    <!-- Generator: Sketch 52.6 (67491) - http://www.bohemiancoding.com/sketch -->
    <title>pc-form-location</title>
    <desc>Created with Sketch.</desc>
    <g id="Page-1" stroke="none" stroke-width="1" fill="none" fill-rule="evenodd">
        <g id="16_FAQs" transform="translate(-1196.000000, -3919.000000)" fill="#FFFFFF" fill-rule="nonzero" stroke="#FFFFFF" stroke-width="0.1">
            <g id="pc-form-location" transform="translate(1197.000000, 3920.000000)">
                <path d="M8.5,0 C3.8131,0 0,3.7850625 0,8.4375 C0,10.0094062 0.438647222,11.5434375 1.26881389,12.8743125 L8.01616111,23.6676094 C8.14540833,23.874375 8.37311389,24 8.61800833,24 C8.61989722,24 8.62173889,24 8.62362778,24 C8.87064722,23.9980781 9.098825,23.8685625 9.22571111,23.6581875 L15.801075,12.7603125 C16.5854361,11.4575625 17,9.96276562 17,8.4375 C17,3.7850625 13.1869,0 8.5,0 Z M14.5853389,12.0383438 L8.60728889,21.9462187 L2.47288611,12.1334063 C1.78188333,11.0256563 1.40722222,9.74765625 1.40722222,8.4375 C1.40722222,4.56046875 4.59425,1.396875 8.5,1.396875 C12.40575,1.396875 15.5880556,4.56046875 15.5880556,8.4375 C15.5880556,9.70879688 15.2380917,10.954125 14.5853389,12.0383438 Z" id="Shape"></path>
                <path d="M8.5,4.21875 C6.15655,4.21875 4.25,6.11128125 4.25,8.4375 C4.25,10.7488594 6.125525,12.65625 8.5,12.65625 C10.9037528,12.65625 12.75,10.7234531 12.75,8.4375 C12.75,6.11128125 10.84345,4.21875 8.5,4.21875 Z M8.5,11.259375 C6.92953056,11.259375 5.65722222,9.99220312 5.65722222,8.4375 C5.65722222,6.8866875 6.9377,5.615625 8.5,5.615625 C10.0623,5.615625 11.3380556,6.8866875 11.3380556,8.4375 C11.3380556,9.96951562 10.0953556,11.259375 8.5,11.259375 Z" id="Shape"></path>
            </g>
        </g>
    </g>
</svg>