<?xml version="1.0" encoding="UTF-8"?>
<svg width="19px" height="19px" viewBox="0 0 19 19" version="1.1" xmlns="http://www.w3.org/2000/svg" xmlns:xlink="http://www.w3.org/1999/xlink">
    <!-- Generator: Sketch 52.6 (67491) - http://www.bohemiancoding.com/sketch -->
    <title>pc-form-call</title>
    <desc>Created with Sketch.</desc>
    <g id="Page-1" stroke="none" stroke-width="1" fill="none" fill-rule="evenodd" stroke-linecap="square">
        <g id="16_FAQs" transform="translate(-1195.000000, -3780.000000)" fill="#FFFFFF" stroke="#FFFFFF" stroke-width="0.2">
            <g id="pc-form-call" transform="translate(1196.000000, 3780.000000)">
                <path d="M2.21277068,8.83290793 C1.97397744,8.83244283 1.75655013,8.69554767 1.65337218,8.48067033 C0.559398496,6.21535001 -0.0059047619,3.73216795 3.88471179e-05,1.21763023 C3.88471179e-05,0.875121028 0.278300752,0.597493614 0.621592732,0.597493614 L4.35091604,0.597493614 C4.69420802,0.597493614 4.97246992,0.875121028 4.97246992,1.21763023 C4.96446742,2.98366305 5.36389348,4.7277973 6.13974812,6.31515325 C6.29078571,6.62270226 6.16336717,6.99420285 5.85511529,7.14489605 C5.85426065,7.14532239 5.85344486,7.14570998 5.85259023,7.14613632 L2.48625439,8.77089427 C2.4011792,8.81252094 2.3075188,8.83376062 2.21277068,8.83290793 Z M1.25557769,1.83776685 C1.32725063,3.74646985 1.75425815,5.6252125 2.51484586,7.37806742 L4.76362782,6.29406861 C4.15613659,4.88244387 3.8103584,3.37256623 3.74303634,1.83776685 L1.25557769,1.83776685 Z" id="Shape" fill-rule="nonzero"></path>
                <path d="M16.7819937,17.961319 C14.2617093,17.967249 11.7728521,17.4032735 9.50235464,16.3117556 C9.19262657,16.1640855 9.06151754,15.7939027 9.20948622,15.4848421 C9.21014662,15.4834856 9.21080702,15.482129 9.21146742,15.4807725 L10.8399386,12.119632 C10.9896165,11.8113854 11.3613446,11.6825907 11.6702957,11.8318886 C11.6711504,11.8322762 11.6719662,11.8327026 11.6728208,11.8331289 C13.2635714,12.6081059 15.0117306,13.0074351 16.7819937,13.000226 C17.1252857,13.000226 17.4035476,13.2778534 17.4035476,13.6203626 L17.4035476,17.3411824 C17.4035476,17.6836916 17.1252857,17.961319 16.7819937,17.961319 Z M10.6074774,15.4522462 C12.3643383,16.2110996 14.2473747,16.6371335 16.1604398,16.708643 L16.1604398,14.2280965 C14.6221328,14.160928 13.1088045,13.8159382 11.6939536,13.2098322 L10.6074774,15.4522462 Z" id="Shape" fill-rule="nonzero"></path>
                <path d="M9.50111153,16.3117556 C6.07704887,14.6566884 3.3122218,11.8981657 1.65337218,8.4819106 L2.77216917,7.94363202 C4.30942732,11.1071427 6.8698797,13.6617568 10.0406203,15.1955097 L9.50111153,16.3117556 Z" id="Path"></path>
            </g>
        </g>
    </g>
</svg>