<?xml version="1.0" encoding="UTF-8"?>
<svg width="31px" height="52px" viewBox="0 0 31 52" version="1.1" xmlns="http://www.w3.org/2000/svg" xmlns:xlink="http://www.w3.org/1999/xlink">
    <!-- Generator: Sketch 52.6 (67491) - http://www.bohemiancoding.com/sketch -->
    <title>pc-06-pp4</title>
    <desc>Created with Sketch.</desc>
    <g id="Page-1" stroke="none" stroke-width="1" fill="none" fill-rule="evenodd">
        <g id="06_CT-TIẾNG-ANH-a" transform="translate(-1432.000000, -1914.000000)">
            <g id="pc-06-pp4" transform="translate(1432.000000, 1914.000000)">
                <path d="M24.99375,44.4848343 L6.0064513,44.4848343 C5.17267208,44.4848343 4.49671104,43.8040702 4.49671104,42.9643665 C4.49671104,42.1246628 5.17267208,41.4438987 6.0064513,41.4438987 L24.99375,41.4438987 C25.8275292,41.4438987 26.5034903,42.1246628 26.5034903,42.9643665 C26.5034903,43.8040702 25.8275292,44.4848343 24.99375,44.4848343 Z" id="Path" fill="#3A0867"></path>
                <path d="M26.2729026,51.8988382 C25.5314188,51.8988382 24.8846461,51.3484289 24.7794675,50.5877895 L22.3534156,33.037536 C22.238474,32.2058402 22.8146916,31.4376999 23.6406201,31.3219415 C24.4660455,31.2067914 25.2291688,31.7864952 25.3441104,32.6182924 L27.7701623,50.1685458 C27.8851039,51.0002417 27.3088864,51.7683821 26.4829578,51.8841403 C26.4124026,51.8939727 26.34225,51.8988382 26.2729026,51.8988382 Z" id="Path" fill="#591F8D"></path>
                <path d="M4.7272987,51.8988382 C4.6579513,51.8988382 4.5877987,51.8940741 4.51724351,51.884039 C3.69141558,51.7682807 3.1150974,51.0001403 3.23003896,50.1684445 L5.65619156,32.618191 C5.77123377,31.7864952 6.5338539,31.2060819 7.35968182,31.3218402 C8.18550974,31.4376999 8.76182792,32.2057388 8.64688636,33.0374347 L6.22073377,50.5876882 C6.11555519,51.3484289 5.46868182,51.8988382 4.7272987,51.8988382 Z" id="Path" fill="#591F8D"></path>
                <path d="M15.5001006,51.8986355 C14.6663214,51.8986355 13.9903604,51.2178714 13.9903604,50.3781676 L13.9903604,1.52046784 C13.9903604,0.680764133 14.6663214,4.26325641e-14 15.5001006,4.26325641e-14 C16.3338799,4.26325641e-14 17.0098409,0.680764133 17.0098409,1.52046784 L17.0098409,50.3781676 C17.0098409,51.2178714 16.3338799,51.8986355 15.5001006,51.8986355 Z" id="Path" fill="#591F8D"></path>
                <path d="M27.642539,34.3483821 L3.22269156,34.3483821 C2.38891234,34.3483821 1.7129513,33.6676179 1.7129513,32.8279142 L1.7129513,4.93665497 C1.7129513,4.09695126 2.38891234,3.41618714 3.22269156,3.41618714 L27.6424383,3.41618714 C28.4762175,3.41618714 29.1521786,4.09695126 29.1521786,4.93665497 L29.1521786,32.8279142 C29.1522792,33.6676179 28.4763182,34.3483821 27.642539,34.3483821 Z" id="Path" fill="#F1CC1F"></path>
                <path d="M27.6444513,34.3483821 L3.22269156,34.3483821 C2.38891234,34.3483821 1.7129513,33.6676179 1.7129513,32.8279142 L1.7129513,22.7583626 C1.7129513,21.9186589 2.38891234,21.2378948 3.22269156,21.2378948 C4.05647078,21.2378948 4.73243182,21.9186589 4.73243182,22.7583626 C4.73243182,24.1481715 5.88114286,25.2787914 7.29305195,25.2787914 C8.70496104,25.2787914 9.85357143,24.1481715 9.85357143,22.7583626 C9.85357143,21.9186589 10.5295325,21.2378948 11.3633117,21.2378948 C12.1970909,21.2378948 12.8730519,21.9186589 12.8730519,22.7583626 C12.8730519,24.1481715 14.0216623,25.2787914 15.4335714,25.2787914 C16.8454805,25.2787914 17.9941916,24.1481715 17.9941916,22.7583626 C17.9941916,21.9186589 18.6701526,21.2378948 19.5039318,21.2378948 C20.337711,21.2378948 21.0136721,21.9186589 21.0136721,22.7583626 C21.0136721,24.1481715 22.1623831,25.2787914 23.5741916,25.2787914 C24.9861006,25.2787914 26.134711,24.1481715 26.134711,22.7583626 C26.134711,21.9186589 26.8106721,21.2378948 27.6444513,21.2378948 C28.4782305,21.2378948 29.1541916,21.9186589 29.1541916,22.7583626 L29.1541916,32.8279142 C29.1541916,33.6676179 28.4782305,34.3483821 27.6444513,34.3483821 Z" id="Path" fill="#3A0867"></path>
                <path d="M9.56551299,17.4692632 L1.7129513,17.4692632 L1.7129513,4.93665497 C1.7129513,4.09695126 2.38891234,3.41618714 3.22269156,3.41618714 L3.79880844,3.41618714 C3.86825649,3.41618714 3.9376039,3.42095126 4.0063474,3.43068226 C6.47608117,3.77582846 8.37845455,5.80970761 8.6184026,8.2662768 L9.48459091,8.2662768 C12.0412857,8.2662768 14.1777695,10.3733411 14.133987,12.9477973 C14.0914123,15.4482573 12.0583961,17.4692632 9.56551299,17.4692632 Z" id="Path" fill="#FBECB7"></path>
                <path d="M24.9263149,13.4207641 C21.5579838,13.4207641 18.8176039,10.6609122 18.8176039,7.26864718 C18.8176039,6.17989083 19.1053604,5.10826511 19.6497727,4.16973099 C19.9204188,3.70304874 20.4167208,3.41618714 20.9533831,3.41618714 L27.642539,3.41618714 C28.4763182,3.41618714 29.1522792,4.09695126 29.1522792,4.93665497 L29.1522792,11.005653 C29.1522792,11.4899727 28.9231006,11.9454035 28.5352987,12.2318597 C27.4818019,13.0096296 26.2338506,13.4207641 24.9263149,13.4207641 Z" id="Path" fill="#FBECB7"></path>
                <path d="M29.4724448,34.5511111 L1.52775649,34.5511111 C0.693977273,34.5511111 0.0180162338,33.870347 0.0180162338,33.0306433 C0.0180162338,32.1909395 0.693977273,31.5101754 1.52775649,31.5101754 L29.4725455,31.5101754 C30.3063247,31.5101754 30.9822857,32.1909395 30.9822857,33.0306433 C30.9821851,33.870347 30.306224,34.5511111 29.4724448,34.5511111 Z" id="Path" fill="#591F8D"></path>
            </g>
        </g>
    </g>
</svg>