<?xml version="1.0" encoding="UTF-8"?>
<svg width="28px" height="47px" viewBox="0 0 28 47" version="1.1" xmlns="http://www.w3.org/2000/svg" xmlns:xlink="http://www.w3.org/1999/xlink">
    <!-- Generator: Sketch 52.6 (67491) - http://www.bohemiancoding.com/sketch -->
    <title>pc-06-pp1</title>
    <desc>Created with Sketch.</desc>
    <g id="Page-1" stroke="none" stroke-width="1" fill="none" fill-rule="evenodd">
        <g id="06_CT-TIẾNG-ANH-a" transform="translate(-458.000000, -1919.000000)">
            <g id="pc-06-pp1" transform="translate(458.000000, 1919.000000)">
                <path d="M27.9684203,13.8415393 C27.9684203,16.9896677 26.9175903,19.8926984 25.1483685,22.2174764 C22.9404901,25.1176663 21.3310012,28.4029522 20.4553094,31.8866701 C20.2473326,32.7075857 20.0811133,33.5394579 19.9586787,34.3798515 C19.9254348,34.5989788 19.8966505,34.8189176 19.8698933,35.0388565 L8.41049368,35.0388565 C8.38454725,34.8189176 8.35576289,34.5989788 8.32332986,34.3798515 C8.2025169,33.5414867 8.03913546,32.7108321 7.83561827,31.8919454 C6.97979177,28.4272998 5.40273575,25.1570281 3.19161407,22.295794 C1.28617368,19.827366 0.194396901,16.6974981 0.320885717,13.3083297 C0.589268969,6.17208476 6.34532062,0.350603634 13.4724786,0.0158258845 C21.4137054,-0.358719459 27.9684203,5.9756819 27.9684203,13.8415393 Z" id="Path" fill="#F1CC1F"></path>
                <path d="M21.6774194,36.4047328 L21.6774194,44.8427559 C21.6774194,45.9793772 20.761062,46.9005233 19.6303498,46.9005233 L8.37045759,46.9005233 C7.23974538,46.9005233 6.32258065,45.9793772 6.32258065,44.8427559 L6.32258065,36.4047328 C6.32258065,35.2681115 7.23974538,34.3461538 8.37045759,34.3461538 L19.6303498,34.3461538 C20.761062,34.3461538 21.6774194,35.2681115 21.6774194,36.4047328 Z" id="Path" fill="#5A1E8D"></path>
                <path d="M22.167368,16.8882359 C22.3035866,17.2834766 22.3765608,17.7075284 22.3765608,18.1482176 C22.3765608,20.2928245 20.6397723,22.0316399 18.4971654,22.0316399 C18.3491897,22.0316399 18.203241,22.0231183 18.0585087,22.0056693 C17.8675592,23.1110446 16.9059199,23.9526556 15.7468446,23.9526556 L15.728601,23.9526556 C14.8472335,23.946163 14.1405989,23.2185793 14.1405989,22.3363891 L14.1405989,6.97475575 C14.1405989,6.66107914 14.2593849,6.35754729 14.4738482,6.12989844 C15.1334549,5.43031433 16.0675261,4.99327719 17.1029505,4.99327719 C18.9293355,4.99327719 20.4390929,6.3490257 20.6823406,8.1101597 C22.611295,8.86696034 23.9783471,10.747397 23.9783471,12.9471913 C23.9787525,14.5240962 23.276172,15.9362497 22.167368,16.8882359 Z" id="Path" fill="#7016BD"></path>
                <path d="M18.0601303,22.8115707 C18.0187781,22.8115707 17.9766152,22.8083243 17.9344522,22.8014259 C17.023895,22.6585874 16.1777985,22.2385934 15.4885966,21.5864868 C15.1654826,21.2813318 15.1512931,20.771658 15.4561636,20.4486483 C15.7614394,20.1252326 16.2702326,20.11103 16.5929412,20.416185 C17.045382,20.8438889 17.5951218,21.1186095 18.1837812,21.2111299 C18.622438,21.2801145 18.9224434,21.6915868 18.8535233,22.1310587 C18.7914951,22.5279225 18.4493266,22.8115707 18.0601303,22.8115707 Z" id="Path" fill="#AB52FF"></path>
                <path d="M17.7799901,10.6431086 C17.6210682,10.8167873 17.4033615,10.904844 17.186871,10.904844 C16.9918675,10.904844 16.7976746,10.8350479 16.6432124,10.6934268 C16.0342824,10.1342464 15.2169701,9.88103271 14.4033064,9.99790056 C14.3133047,10.0108858 14.2241139,10.0076396 14.1405989,9.99262526 L14.1405989,8.41044522 C14.1511396,8.40719889 14.1628966,8.40638725 14.175059,8.40395256 C15.4679205,8.21850598 16.7632146,8.6198335 17.7293134,9.50648736 C18.0576978,9.80677289 18.0791846,10.3156351 17.7799901,10.6431086 Z" id="Path" fill="#AB52FF"></path>
                <path d="M14.1405989,6.97475575 L14.1405989,22.3363891 C14.1405989,23.2185793 13.4339643,23.946163 12.5525967,23.9526556 L12.5331369,23.9526556 C11.3740616,23.9526556 10.4124223,23.1110446 10.2214729,22.0056693 C10.0779566,22.0231183 9.93079188,22.0316399 9.78281613,22.0316399 C7.64020925,22.0316399 5.90342055,20.2928245 5.90342055,18.1482176 C5.90342055,17.7075284 5.97720579,17.2834766 6.11261361,16.8882359 C5.00502574,15.9362497 4.30244532,14.5240962 4.30244532,12.9471913 C4.30244532,10.7469912 5.66868662,8.86655457 7.59845177,8.1101597 C7.84210488,6.3490257 9.35064606,4.99327719 11.1766255,4.99327719 C12.2136716,4.99327719 13.1477429,5.43031433 13.8061333,6.12989844 C14.0214074,6.35754729 14.1405989,6.66107914 14.1405989,6.97475575 Z" id="Path" fill="#8719E6"></path>
                <path d="M10.220662,22.8115707 C9.83146568,22.8115707 9.48929728,22.5279225 9.42686369,22.1310587 C9.35834895,21.6919927 9.65835441,21.2801145 10.0970111,21.2111299 C10.6852652,21.1190153 11.2354103,20.8438889 11.6874458,20.416185 C12.0101543,20.1110299 12.5193529,20.1256383 12.8242234,20.4486483 C13.1294992,20.771658 13.1149044,21.2813318 12.7921957,21.5864868 C12.1025885,22.2385934 11.2568974,22.6585874 10.3459346,22.8018316 C10.3037717,22.8083243 10.2620142,22.8115707 10.220662,22.8115707 Z" id="Path" fill="#AB52FF"></path>
                <path d="M14.1405989,8.41044522 L14.1405989,9.99262526 C14.0570838,10.0076396 13.9678929,10.0108858 13.8778914,9.99790056 C13.0638223,9.88103271 12.2469155,10.1342464 11.6379853,10.6934268 C11.483523,10.8350479 11.2885195,10.904844 11.0943267,10.904844 C10.8766201,10.904844 10.6601297,10.8167873 10.5012078,10.6431086 C10.2012022,10.3156351 10.2234999,9.80677289 10.5506681,9.50648736 C11.516767,8.6198335 12.8120609,8.21850598 14.1061387,8.40395256 C14.1178958,8.40638725 14.1296527,8.40760465 14.1405989,8.41044522 Z" id="Path" fill="#AB52FF"></path>
                <path d="M22.9194087,16.6021531 C22.3489929,15.1007254 21.0707261,13.9985964 19.5443467,13.6707171 C19.4952918,12.934206 19.2694768,12.2358393 18.8831183,11.6352682 C18.6427085,11.2615345 18.145267,11.1539998 17.7714763,11.3942282 C17.3980911,11.6352682 17.2906566,12.133174 17.5310665,12.5069079 C17.8026931,12.9297423 17.9466147,13.4377929 17.9466147,13.9770894 C17.9466147,14.6056602 17.7479624,15.1985211 17.387145,15.6465147 C17.1082209,15.9926546 17.1629517,16.499082 17.5083633,16.7782664 C17.6571499,16.8983806 17.8355316,16.9564088 18.0126971,16.9564088 C18.247431,16.9564088 18.4805434,16.8541494 18.6394652,16.6569349 C18.9629847,16.2552015 19.2062325,15.7873242 19.3606947,15.2833315 C20.2785495,15.5381684 21.0654558,16.2507378 21.4161378,17.1743186 C21.5381672,17.4957054 21.8438484,17.6933257 22.1677733,17.6933257 C22.2630452,17.6933257 22.3595336,17.6762825 22.4535894,17.6405729 C22.8687321,17.48272 23.0775197,17.0180891 22.9194087,16.6021531 Z" id="Path" fill="#AB52FF"></path>
                <path d="M10.3341776,13.9770894 C10.3341776,13.4377929 10.4776938,12.9297423 10.7497259,12.5073136 C10.990541,12.1335799 10.8827013,11.6352682 10.509316,11.3946341 C10.1359307,11.1539998 9.63808377,11.2615345 9.39767396,11.6352682 C9.01131551,12.2358393 8.78550057,12.934206 8.73604019,13.6707171 C7.21006621,13.9990022 5.93179955,15.1007254 5.36097827,16.6025588 C5.20327261,17.0180891 5.41165484,17.4831258 5.82679756,17.6409786 C5.92085335,17.6766882 6.01774708,17.6937314 6.11261361,17.6937314 C6.43694394,17.6937314 6.74221981,17.4961111 6.8646545,17.1747245 C7.21533653,16.2511436 8.00183747,15.5381684 8.92009756,15.2837374 C9.07455992,15.78773 9.31780766,16.2552015 9.64132707,16.6569349 C9.80024893,16.8545552 10.0329559,16.9568146 10.2680953,16.9568146 C10.4452607,16.9568146 10.623237,16.8987864 10.7720234,16.7786722 C11.1178407,16.4994878 11.172166,15.9926546 10.8932419,15.6469204 C10.5328299,15.1985211 10.3341776,14.6056602 10.3341776,13.9770894 Z" id="Path" fill="#AB52FF"></path>
                <rect id="Rectangle" fill="#471873" x="6.32258065" y="37.9615385" width="15.3548387" height="1.80769231"></rect>
                <rect id="Rectangle-Copy-27" fill="#471873" x="6.32258065" y="42.4807692" width="15.3548387" height="1.80769231"></rect>
            </g>
        </g>
    </g>
</svg>