<?xml version="1.0" encoding="UTF-8"?>
<svg width="61px" height="51px" viewBox="0 0 61 51" version="1.1" xmlns="http://www.w3.org/2000/svg" xmlns:xlink="http://www.w3.org/1999/xlink">
    <!-- Generator: Sketch 52.6 (67491) - http://www.bohemiancoding.com/sketch -->
    <title>pc-06-pp3</title>
    <desc>Created with Sketch.</desc>
    <g id="Page-1" stroke="none" stroke-width="1" fill="none" fill-rule="evenodd">
        <g id="06_CT-TIẾNG-ANH-a" transform="translate(-1092.000000, -1915.000000)">
            <g id="pc-06-pp3" transform="translate(1092.000000, 1915.000000)">
                <path d="M11.9646803,49.1134231 L4.29823737,49.2319237 C4.29823737,48.8204141 4.44294886,48.4217568 4.70740111,48.1045761 L29.0909356,11.0747266 C29.4298246,10.6685231 29.9337583,10.4334084 30.4653977,10.4334084 C30.9970371,10.4334084 31.5009708,10.668641 31.8398596,11.0747266 L56.7060098,47.9860755 C56.9705809,48.3031383 57.1151735,48.7017955 57.1151735,49.1134231 L48.966234,49.1134231 C48.966234,50.0901983 11.9646803,50.0901983 11.9646803,49.1134231 Z" id="Path" fill="#F1CC1F"></path>
                <path d="M37.0155847,49.2319237 L23.9149727,49.2319237 C22.8779727,48.9777074 22.4450273,48.0089502 22.7369473,47.1967789 L29.0180448,29.7189408 C29.2361228,29.1119347 29.8156823,28.7066745 30.4655166,28.7066745 C31.115232,28.7066745 31.6947915,29.1119347 31.9129883,29.7189408 L38.1940857,47.1967789 C38.485768,48.0089502 38.0528226,48.9777074 37.0155847,49.2319237 Z" id="Path" fill="#461383"></path>
                <path d="M39.4365594,48.519741 L32.2490233,28.5194316 L32.2490233,12.2020743 C32.2490233,11.2252991 31.4504347,10.4334084 30.4653977,10.4334084 C29.4803606,10.4334084 28.6817719,11.2252991 28.6817719,12.2020743 L28.6817719,28.5193137 L21.4942358,48.5196231 C21.1635517,49.4398009 21.6477466,50.4514778 22.5757076,50.7793885 C23.5036686,51.1070632 24.5239025,50.6271652 24.8545867,49.7069874 L30.4655166,34.0939127 L36.0764464,49.7069874 C36.3366179,50.4309612 37.0236706,50.8824426 37.7566218,50.8824426 C37.9554366,50.8824426 38.157462,50.8493097 38.3553256,50.7793885 C39.2830488,50.4515957 39.7672437,49.4399188 39.4365594,48.519741 Z" id="Path" fill="#663095"></path>
                <path d="M59.1081676,50.8820889 L1.77553997,50.8820889 C0.796329435,50.8820889 0.00237816764,50.1121297 0.00237816764,49.1624742 C0.00237816764,48.2128185 0.796210527,47.4428592 1.77553997,47.4428592 L59.1081676,47.4428592 C60.0873782,47.4428592 60.8813294,48.2128185 60.8813294,49.1624742 C60.8813294,50.1121297 60.0874971,50.8820889 59.1081676,50.8820889 Z" id="Path" fill="#471286"></path>
                <path d="M12.6795807,16.6046512 C8.32618328,16.6046512 4.78431373,12.880247 4.78431373,8.30227749 C4.78431373,3.72430795 8.3260918,0 12.6795807,0 C14.54561,0 16.3566591,0.697724538 17.7792801,1.9647492 C17.9109212,2.08201464 17.9683713,2.26469476 17.928943,2.4414106 C17.8895147,2.61822263 17.7609839,2.75511248 17.5933907,2.7986902 C15.1333754,3.4385035 13.4153623,5.74860374 13.4153623,8.41627219 C13.4153623,10.9891855 15.057995,13.2778336 17.4098799,13.9818111 C17.5758263,14.0314492 17.6997831,14.1729566 17.7333566,14.350923 C17.7668387,14.5288894 17.7035339,14.7094532 17.5680505,14.8219087 C16.1633598,15.988214 14.4728826,16.6046512 12.6795807,16.6046512 Z" id="Path" fill="#F0C518"></path>
            </g>
        </g>
    </g>
</svg>