<?xml version="1.0" encoding="UTF-8"?>
<svg width="43px" height="43px" viewBox="0 0 43 43" version="1.1" xmlns="http://www.w3.org/2000/svg" xmlns:xlink="http://www.w3.org/1999/xlink">
    <!-- Generator: Sketch 52.6 (67491) - http://www.bohemiancoding.com/sketch -->
    <title>pc-06-pp2</title>
    <desc>Created with Sketch.</desc>
    <g id="Page-1" stroke="none" stroke-width="1" fill="none" fill-rule="evenodd">
        <g id="06_CT-TIẾNG-ANH-a" transform="translate(-776.000000, -1922.000000)">
            <g id="pc-06-pp2" transform="translate(775.000000, 1922.000000)">
                <polygon id="Rectangle" fill="#2B1649" transform="translate(14.628412, 29.348161) rotate(45.000000) translate(-14.628412, -29.348161) " points="12.0607807 22.7206612 17.1960438 22.7206612 17.1960438 35.9756612 12.0607807 35.9756612"></polygon>
                <path d="M5.38272141,25.9892431 L12.8279846,25.9892431 L12.8279846,40.0287168 C12.8279846,42.0846694 11.1613056,43.7513483 9.10535299,43.7513483 C7.04940034,43.7513483 5.38272141,42.0846694 5.38272141,40.0287168 L5.38272141,25.9892431 Z" id="Path" fill="#471873" transform="translate(9.105353, 34.870296) rotate(45.000000) translate(-9.105353, -34.870296) "></path>
                <circle id="Oval" fill="#5A1E8D" cx="28.8836842" cy="15.0931579" r="15.0931579"></circle>
                <circle id="Oval" fill="#FFDA00" cx="28.8836842" cy="15.0931579" r="11.4052632"></circle>
                <path d="M32.7365789,12.5139474 C32.7417932,12.8451424 32.6959031,13.1751609 32.6005263,13.4923684 C32.5133842,13.7689051 32.3845311,14.0305159 32.2184211,14.2681579 C32.0516057,14.5124287 31.857357,14.736786 31.6394737,14.9368421 C31.4078947,15.1452632 31.1444737,15.3594737 30.8492105,15.5852632 C30.6697368,15.7328947 30.5192105,15.8602632 30.4005263,15.9731579 C30.2871586,16.0737731 30.189575,16.1908733 30.1110526,16.3205263 C30.0435681,16.435629 29.9947187,16.5606836 29.9663158,16.6910526 C29.9351622,16.8434181 29.9206036,16.9987097 29.9228947,17.1542105 L29.9228947,17.5942105 L27.2857895,17.5942105 L27.2857895,16.9515789 C27.2817615,16.6876467 27.3099522,16.4242089 27.3697368,16.1671053 C27.4217511,15.9453744 27.5066376,15.7326704 27.6215789,15.5360526 C27.741262,15.336938 27.8798874,15.1498422 28.0355263,14.9773684 C28.2174268,14.7808967 28.4107441,14.595312 28.6144737,14.4215789 L29.1760526,13.8947368 C29.3585786,13.7360981 29.5226805,13.557431 29.6652632,13.3621053 C29.8038504,13.1683319 29.8750346,12.9344409 29.8678947,12.6963158 C29.8839335,12.3734696 29.7642892,12.0586163 29.5378947,11.8278947 C28.9464612,11.3439217 28.0781975,11.4142523 27.5723684,11.9871053 C27.3375723,12.3031922 27.2025047,12.682188 27.1844737,13.0755263 L24.5010526,12.7860526 C24.5530874,12.2270973 24.7102276,11.6829994 24.9642105,11.1823684 C25.191156,10.7342363 25.5108683,10.3395297 25.9021053,10.0244737 C26.2936455,9.72607094 26.7373575,9.50323326 27.2105263,9.36736842 C27.7090299,9.21233285 28.2284825,9.13519609 28.7505263,9.13868421 C29.2509746,9.13734739 29.7493783,9.20256819 30.2326316,9.33263158 C30.6921993,9.45427451 31.1251021,9.66041869 31.5092105,9.94052632 C31.8850273,10.2184532 32.1920332,10.5789375 32.4065789,10.9942105 C32.6392474,11.4661653 32.7525601,11.9880001 32.7365789,12.5139474 Z M30.2557895,19.9736842 C30.2651141,20.403151 30.093962,20.8168562 29.7839474,21.1142105 C29.4766468,21.4190557 29.0588186,21.5861869 28.6260526,21.5773684 C28.4100706,21.5782726 28.1958963,21.5379921 27.995,21.4586842 C27.7977532,21.3855713 27.6167849,21.2744332 27.4623684,21.1315789 C27.3122296,20.9858896 27.1896468,20.8142738 27.1005263,20.625 C27.0079457,20.4297294 26.9614008,20.2158209 26.9644737,19.9997368 C26.9645098,19.7876826 27.0078514,19.5778695 27.0918421,19.3831579 C27.1742461,19.1896938 27.2942926,19.0145441 27.445,18.8678947 C27.6001311,18.7223822 27.7806703,18.6066016 27.9776316,18.5263158 C28.1803447,18.4419344 28.3977944,18.3986413 28.6173684,18.3989474 C28.8351482,18.3978382 29.0508641,18.4411783 29.2513158,18.5263158 C29.4435456,18.6080982 29.620662,18.7216093 29.7752632,18.8621053 C29.9269839,19.0045216 30.0472736,19.1770682 30.1284211,19.3686842 C30.2108828,19.5598123 30.2541922,19.7655321 30.2557895,19.9736842 Z" id="Shape" fill="#491387" fill-rule="nonzero"></path>
            </g>
        </g>
    </g>
</svg>