<?xml version="1.0" encoding="UTF-8"?>
<svg width="349px" height="188px" viewBox="0 0 349 188" version="1.1" xmlns="http://www.w3.org/2000/svg" xmlns:xlink="http://www.w3.org/1999/xlink">
    <!-- Generator: Sketch 52.6 (67491) - http://www.bohemiancoding.com/sketch -->
    <title>pc-05-tiền tiểu học</title>
    <desc>Created with Sketch.</desc>
    <g id="Page-1" stroke="none" stroke-width="1" fill="none" fill-rule="evenodd">
        <g id="05_LỘ-TRÌNH-HỌC-TẬP" transform="translate(-482.000000, -1695.000000)">
            <g id="pc-05-tiền-tiểu-học" transform="translate(482.000000, 1695.000000)">
                <g id="Group" transform="translate(281.000000, 77.000000)" fill="#F1CC1F">
                    <path d="M12.2106742,47.2544618 C37.8825843,47.2544618 58.705618,26.4412606 58.705618,0.755127479 C33.0219101,0.755127479 12.2106742,21.5683286 12.2106742,47.2544618 Z" id="Path"></path>
                    <ellipse id="Oval" cx="12.2106742" cy="58.4397875" rx="11.3376404" ry="11.338711"></ellipse>
                </g>
                <path d="M249,161.592054 L249,186 L0,186 L0,183.872971 C0,177.468383 5.20273856,172.285954 11.6324268,172.285954 L19.5014214,172.285954 C25.9311096,172.285954 31.1220506,167.091774 31.1220506,160.698937 L31.1220506,152.578623 C31.1220506,146.174035 36.3365868,140.991606 42.7544774,140.991606 L58.2683123,140.991606 C64.6980006,140.991606 69.8889415,135.809177 69.8889415,129.404589 L69.8889415,123.940123 C69.8889415,117.547286 75.1034777,112.364857 81.5213683,112.364857 L89.6853028,112.364857 C96.114991,112.364857 101.305932,107.170677 101.305932,100.77784 L101.305932,92.5870173 C101.305932,86.1824287 106.508671,81 112.938359,81 L167.160097,81 C173.577987,81 178.780726,86.1824287 178.780726,92.5870173 L178.780726,100.77784 C178.780726,107.170677 183.983464,112.364857 190.413153,112.364857 L198.565289,112.364857 C204.98318,112.364857 210.197716,117.547286 210.197716,123.940123 L210.197716,129.404589 C210.197716,135.809177 215.388657,140.991606 221.818345,140.991606 L237.343978,140.991606 C243.750071,140.991606 248.964607,146.174035 248.964607,152.578623 L248.964607,160.698937 C248.964607,160.992725 248.976405,161.298265 249,161.592054 Z" id="Path" fill="#6A24AB"></path>
                <g id="Group" transform="translate(41.000000, 0.000000)">
                    <polygon id="Path" fill="#7820CA" points="64.1907018 29.8908176 64.1907018 42.2704403 2.73877193 42.2704403 2.73877193 29.8908176 5.51280702 29.8908176 27.9284211 0.236477987 38.9892982 0.236477987 61.3931579 29.8908176"></polygon>
                    <rect id="Rectangle" fill="#BB76FC" x="0.717017544" y="41.8211321" width="65.4954386" height="145.126541"></rect>
                    <path d="M66.2007018,55.9033962 C66.2007018,60.3255346 62.6273684,63.9081761 58.2312281,63.9081761 C55.7275439,63.9081761 53.4942105,62.749434 52.0366667,60.9403774 C50.5673684,62.749434 48.3457895,63.9081761 45.8421053,63.9081761 C43.3384211,63.9081761 41.1168421,62.749434 39.6475439,60.9403774 C38.19,62.749434 35.9566667,63.9081761 33.4529825,63.9081761 C30.9492982,63.9081761 28.7159649,62.749434 27.2584211,60.9403774 C25.7891228,62.749434 23.5675439,63.9081761 21.0638596,63.9081761 C18.5601754,63.9081761 16.3268421,62.749434 14.8692982,60.9403774 C13.4117544,62.749434 11.1784211,63.9081761 8.67473684,63.9081761 C4.27859649,63.9081761 0.717017544,60.3255346 0.705263158,55.9033962 L66.2007018,55.9033962 Z" id="Path" fill="#7820CA"></path>
                    <path d="M66.2007018,66.2020126 C66.2007018,70.6241509 62.6273684,74.2067925 58.2312281,74.2067925 C55.7275439,74.2067925 53.4942105,73.0480503 52.0366667,71.2389937 C50.5673684,73.0480503 48.3457895,74.2067925 45.8421053,74.2067925 C43.3384211,74.2067925 41.1168421,73.0480503 39.6475439,71.2389937 C38.19,73.0480503 35.9566667,74.2067925 33.4529825,74.2067925 C30.9492982,74.2067925 28.7159649,73.0480503 27.2584211,71.2389937 C25.7891228,73.0480503 23.5675439,74.2067925 21.0638596,74.2067925 C18.5601754,74.2067925 16.3268421,73.0480503 14.8692982,71.2389937 C13.4117544,73.0480503 11.1784211,74.2067925 8.67473684,74.2067925 C4.27859649,74.2067925 0.717017544,70.6241509 0.705263158,66.2020126 L66.2007018,66.2020126 Z" id="Path" fill="#7820CA"></path>
                    <path d="M66.2007018,157.470692 C66.2007018,161.89283 62.6273684,165.475472 58.2312281,165.475472 C55.7275439,165.475472 53.4942105,164.31673 52.0366667,162.507673 C50.5673684,164.31673 48.3457895,165.475472 45.8421053,165.475472 C43.3384211,165.475472 41.1168421,164.31673 39.6475439,162.507673 C38.19,164.31673 35.9566667,165.475472 33.4529825,165.475472 C30.9492982,165.475472 28.7159649,164.31673 27.2584211,162.507673 C25.7891228,164.31673 23.5675439,165.475472 21.0638596,165.475472 C18.5601754,165.475472 16.3268421,164.31673 14.8692982,162.507673 C13.4117544,164.31673 11.1784211,165.475472 8.67473684,165.475472 C4.27859649,165.475472 0.717017544,161.89283 0.705263158,157.470692 L66.2007018,157.470692 Z" id="Path" fill="#7820CA"></path>
                    <path d="M66.2007018,167.769308 C66.2007018,172.191447 62.6273684,175.774088 58.2312281,175.774088 C55.7275439,175.774088 53.4942105,174.615346 52.0366667,172.806289 C50.5673684,174.615346 48.3457895,175.774088 45.8421053,175.774088 C43.3384211,175.774088 41.1168421,174.615346 39.6475439,172.806289 C38.19,174.615346 35.9566667,175.774088 33.4529825,175.774088 C30.9492982,175.774088 28.7159649,174.615346 27.2584211,172.806289 C25.7891228,174.615346 23.5675439,175.774088 21.0638596,175.774088 C18.5601754,175.774088 16.3268421,174.615346 14.8692982,172.806289 C13.4117544,174.615346 11.1784211,175.774088 8.67473684,175.774088 C4.27859649,175.774088 0.717017544,172.191447 0.705263158,167.769308 L66.2007018,167.769308 Z" id="Path" fill="#7820CA"></path>
                    <path d="M33.4647368,141.922264 C26.0594737,141.922264 20.0647368,135.892075 20.0647368,128.443019 L20.0647368,100.313962 C20.0647368,92.8649057 26.0594737,86.834717 33.4647368,86.834717 C40.87,86.834717 46.8647368,92.8649057 46.8647368,100.313962 L46.8647368,128.443019 C46.8529825,135.892075 40.8582456,141.922264 33.4647368,141.922264 Z" id="Path" fill="#7820CA"></path>
                </g>
                <path d="M222,123.87072 L222,182.12928 C222,184.814116 219.829847,187 217.137908,187 L197.250766,187 C194.570686,187 192.388674,184.825996 192.388674,182.12928 L192.388674,154.330538 C192.388674,153.58211 192.32938,152.845563 192.222652,152.120894 C192.056629,150.980433 191.748301,149.875611 191.333245,148.830189 C190.574284,146.92942 189.447702,145.218728 188.02465,143.793152 C185.320853,141.096436 181.609061,139.421384 177.494071,139.421384 C171.208927,139.421384 165.848767,143.30608 163.666755,148.830189 C163.23984,149.875611 162.943371,150.980433 162.777348,152.120894 C162.67062,152.845563 162.611326,153.58211 162.611326,154.330538 L162.611326,182.12928 C162.611326,184.814116 160.441173,187 157.749234,187 L137.862092,187 C135.182012,187 133,184.825996 133,182.12928 L133,123.87072 C133,121.185884 135.170153,119 137.862092,119 L217.126049,119 C219.817988,119.01188 222,121.185884 222,123.87072 Z" id="Path" fill="#BA7EF1"></path>
                <path d="M173,187.396926 C173,171.161214 186.157442,158 202.388501,158 C210.072542,158 217.059108,160.944423 222.296077,165.780844 C227.592155,170.664564 235.796346,170.664564 241.092423,165.780844 C246.329393,160.956248 253.315959,158 261,158 C268.684041,158 275.670607,160.944423 280.907577,165.780844 C286.203654,170.664564 294.407845,170.664564 299.703923,165.780844 C304.940892,160.956248 311.927458,158 319.611499,158 C335.842558,158 349,171.161214 349,187.396926 L349,187.680725 L349,188 L349,187.64525 L173,187.64525" id="Path" fill="#A967F5"></path>
                <path d="M154.673444,37 L125.326556,37 C122.937441,37 121,38.917097 121,41.2811245 L121,114.718876 C121,117.082903 122.937441,119 125.326556,119 L154.673444,119 C157.062559,119 159,117.082903 159,114.718876 L159,41.2811245 C159,38.9288583 157.062559,37 154.673444,37 Z" id="Path" fill="#8C31E1"></path>
                <path d="M162.055437,112.918159 L208.984444,66.0382909 C210.370283,64.653903 212.632635,64.653903 214.018474,66.0382909 L260.947481,112.918159 C263.197989,115.166311 261.598944,119 258.424544,119 L164.566529,119 C161.392129,118.988168 159.804929,115.154478 162.055437,112.918159 Z" id="Path" fill="#8C31E1"></path>
                <path d="M191.5,72 C174.10678,72 160,57.8932203 160,40.5 C160,23.1067797 174.10678,9 191.5,9 C208.89322,9 223,23.1067797 223,40.5 C223,57.8932203 208.89322,72 191.5,72 Z" id="Path" fill="#BA7EF1"></path>
            </g>
        </g>
    </g>
</svg>