<?xml version="1.0" encoding="UTF-8"?>
<svg width="373px" height="223px" viewBox="0 0 373 223" version="1.1" xmlns="http://www.w3.org/2000/svg" xmlns:xlink="http://www.w3.org/1999/xlink">
    <!-- Generator: Sketch 52.6 (67491) - http://www.bohemiancoding.com/sketch -->
    <title>pc-05-tiểu học</title>
    <desc>Created with Sketch.</desc>
    <g id="Page-1" stroke="none" stroke-width="1" fill="none" fill-rule="evenodd">
        <g id="05_LỘ-TRÌNH-HỌC-TẬP" transform="translate(-1077.000000, -1880.000000)">
            <g id="pc-05-tiểu-học" transform="translate(1077.000000, 1880.000000)">
                <g id="Group" transform="translate(223.168539, 0.009915)">
                    <rect id="Rectangle" fill="#BB76FC" x="0.790449438" y="0.707932011" width="81.1803371" height="219.801091"></rect>
                    <rect id="Rectangle" fill="#7820CA" x="0.542696629" y="20.4356374" width="81.1803371" height="10.0526346"></rect>
                    <rect id="Rectangle" fill="#7820CA" x="0.542696629" y="36.5764873" width="81.1803371" height="10.0526346"></rect>
                </g>
                <g id="Group" transform="translate(183.056180, 30.686969)">
                    <polygon id="Rectangle" fill="#C98EFF" transform="translate(31.775360, 110.849528) rotate(90.000000) translate(-31.775360, -110.849528) " points="-47.8079974 79.8391349 111.358716 79.8391349 111.358716 141.859921 -47.8079974 141.859921"></polygon>
                    <rect id="Rectangle" fill="#A967F5" x="21.4483146" y="31.3141926" width="20.6696629" height="158.718357"></rect>
                    <path d="M62.7876404,31.2669972 L44.1,12.5775921 L31.7831461,0.259575071 L0.778651685,31.2669972 C0.778651685,34.1223229 1.93483146,36.7062748 3.7988764,38.5704958 C5.6747191,40.4347167 8.25842697,41.5910057 11.1134831,41.5910057 C13.9685393,41.5910057 16.5522472,40.4347167 18.4280899,38.5704958 C20.3039326,36.7062748 21.4483146,34.1223229 21.4483146,31.2669972 C21.4483146,34.1105241 22.6044944,36.6944759 24.4685393,38.5586969 C26.344382,40.4229178 28.9280899,41.5792068 31.7831461,41.5792068 C34.6382022,41.5792068 37.2219101,40.4229178 39.0977528,38.5586969 C40.95,36.7062748 42.094382,34.1577195 42.1179775,31.3377904 C42.141573,34.1577195 43.2859551,36.7180737 45.1382022,38.5586969 C47.0140449,40.4229178 49.5977528,41.5792068 52.452809,41.5792068 C55.3078652,41.5792068 57.891573,40.4229178 59.7674157,38.5586969 C61.6314607,36.7062748 62.7876404,34.1223229 62.7876404,31.2669972 Z" id="Path" fill="#6A24AB"></path>
                    <polygon id="Path" fill="#C98EFF" points="44.1 12.5657932 19.4662921 12.5657932 31.7831461 0.259575071"></polygon>
                </g>
                <path d="M294.226404,181.252309 L294.226404,222.135382 L66.0814607,222.135382 L66.0814607,201.699745 C66.0814607,196.661629 71.2016854,192.59102 77.5134831,192.59102 L85.252809,192.59102 C91.5764045,192.59102 96.6848315,188.508612 96.6848315,183.470496 L96.6848315,177.087309 C96.6848315,172.049193 101.805056,167.966785 108.116854,167.966785 L114.664607,167.966785 C120.988202,167.966785 126.096629,163.896176 126.096629,158.858059 L126.096629,144.9 C126.096629,139.873683 131.216854,135.791275 137.528652,135.791275 L145.562921,135.791275 C151.874719,135.791275 156.994944,131.708867 156.994944,126.694348 L156.994944,120.252167 C156.994944,115.214051 162.115169,111.131643 168.426966,111.131643 L222.566854,111.131643 C228.878652,111.131643 233.998876,115.214051 233.998876,120.252167 L233.998876,131.56728 C233.998876,136.581799 239.107303,140.664207 245.430899,140.664207 L253.465169,140.664207 C259.765169,140.664207 264.897191,144.746615 264.897191,149.772932 L264.897191,163.730992 C264.897191,168.769108 270.005618,172.839717 276.329213,172.839717 L282.876966,172.839717 C288.846629,172.827918 293.77809,176.544561 294.226404,181.252309 Z" id="Path" fill="#6A24AB"></path>
                <g id="Group" transform="translate(0.191011, 168.733711)" fill="#F1CC1F">
                    <path d="M53.6797753,53.3780737 C83.1033708,53.3780737 106.946629,29.5325637 106.946629,0.106189802 C77.5230337,0.106189802 53.6797753,23.9634986 53.6797753,53.3780737 Z" id="Path"></path>
                    <path d="M53.6797753,53.3780737 C24.2561798,53.3780737 0.412921348,29.5325637 0.412921348,0.106189802 C29.8365169,0.106189802 53.6797753,23.9634986 53.6797753,53.3780737 Z" id="Path"></path>
                </g>
                <g id="Group" transform="translate(155.921348, 120.358357)">
                    <rect id="Rectangle" fill="#AF7EDD" x="0.932022472" y="0.0707932011" width="50.6241573" height="50.6289377"></rect>
                    <path d="M39.5578652,44.8710907 L12.9303371,44.8710907 C9.52078652,44.8710907 6.76011236,42.1101558 6.76011236,38.7002833 L6.76011236,12.0702408 C6.76011236,8.66036827 9.52078652,5.89943343 12.9303371,5.89943343 L39.5578652,5.89943343 C42.9674157,5.89943343 45.7280899,8.66036827 45.7280899,12.0702408 L45.7280899,38.7002833 C45.7280899,42.1101558 42.9674157,44.8710907 39.5578652,44.8710907 Z" id="Path" fill="#8D55C2"></path>
                    <path d="M35.4640449,29.6505524 C35.4640449,30.7596459 35.2398876,31.7035552 34.8033708,32.4586827 C34.3668539,33.2138102 33.7769663,33.8273513 33.0455056,34.2875071 C32.3140449,34.7476629 31.4882022,35.0780312 30.5561798,35.2786119 C29.6241573,35.4791926 28.6685393,35.5853824 27.6893258,35.5853824 L19.5724719,35.5853824 L19.5724719,15.1969405 L27.6893258,15.1969405 C28.4797753,15.1969405 29.2820225,15.2795326 30.1078652,15.4447167 C30.9337079,15.6099008 31.6769663,15.8812748 32.3494382,16.2824363 C33.0219101,16.6717989 33.5646067,17.2145467 33.9893258,17.8752833 C34.4140449,18.5478187 34.6264045,19.3973371 34.6264045,20.4356374 C34.6264045,21.5683286 34.3196629,22.5004391 33.7061798,23.2437677 C33.0926966,23.9870963 32.2904494,24.5180453 31.2876404,24.8366147 L31.2876404,24.8956091 C31.8657303,24.99 32.408427,25.166983 32.9157303,25.4265581 C33.4230337,25.6861331 33.8713483,26.0165014 34.2370787,26.4176629 C34.6146067,26.8188244 34.9095506,27.290779 35.1337079,27.8335269 C35.3578652,28.3762748 35.4640449,28.978017 35.4640449,29.6505524 Z M29.8837079,21.0963739 C29.8837079,20.4002408 29.6241573,19.9046884 29.0932584,19.586119 C28.5623596,19.2675496 27.7837079,19.1141643 26.7455056,19.1141643 L24.3269663,19.1141643 L24.3269663,23.3145609 L26.9814607,23.3145609 C27.9016854,23.3145609 28.6213483,23.125779 29.1286517,22.7482153 C29.6241573,22.3824504 29.8837079,21.8279037 29.8837079,21.0963739 Z M30.544382,29.1903966 C30.544382,28.3408782 30.2258427,27.7627337 29.588764,27.4323654 C28.9516854,27.1019972 28.1140449,26.9486119 27.0522472,26.9486119 L24.3151685,26.9486119 L24.3151685,31.6091643 L27.0758427,31.6091643 C27.4651685,31.6091643 27.8544944,31.5737677 28.2674157,31.5029745 C28.6803371,31.4321813 29.0578652,31.3141926 29.3882022,31.1490085 C29.7185393,30.9720255 30.0016854,30.7360482 30.2140449,30.4174788 C30.4382022,30.0989093 30.544382,29.685949 30.544382,29.1903966 Z" id="Shape" fill="#5E1EA7" fill-rule="nonzero"></path>
                </g>
                <g id="Group" transform="translate(141.764045, 171.093484)">
                    <rect id="Rectangle" fill="#A873D9" x="0.117977528" y="0.0707932011" width="50.6241573" height="50.6289377"></rect>
                    <path d="M38.7438202,44.8710907 L12.1162921,44.8710907 C8.70674157,44.8710907 5.94606742,42.1101558 5.94606742,38.7002833 L5.94606742,12.0702408 C5.94606742,8.66036827 8.70674157,5.89943343 12.1162921,5.89943343 L38.7438202,5.89943343 C42.1533708,5.89943343 44.9140449,8.66036827 44.9140449,12.0702408 L44.9140449,38.7002833 C44.9140449,42.1101558 42.1533708,44.8710907 38.7438202,44.8710907 Z" id="Path" fill="#8D55C2"></path>
                    <path d="M30.8983146,35.2196176 C29.5769663,35.8213598 28.0432584,36.1281303 26.3207865,36.1281303 C24.7516854,36.1281303 23.288764,35.8685552 21.955618,35.3494051 C20.6224719,34.830255 19.4662921,34.0987252 18.4870787,33.143017 C17.5078652,32.1873088 16.7410112,31.0546176 16.1865169,29.7331445 C15.6320225,28.4116714 15.3488764,26.9486119 15.3488764,25.3557649 C15.3488764,23.7275212 15.6320225,22.240864 16.1983146,20.9193909 C16.7646067,19.5979178 17.5432584,18.4652266 18.5460674,17.5331161 C19.5488764,16.6010057 20.7168539,15.8930737 22.0617978,15.3857224 C23.4067416,14.89017 24.8578652,14.6423938 26.4151685,14.6423938 C27.8544944,14.6423938 29.2702247,14.9019688 30.6623596,15.4093201 C32.0544944,15.9166714 33.1870787,16.66 34.0483146,17.6393059 L30.7095506,20.9783853 C30.2494382,20.3412465 29.6477528,19.8692918 28.8926966,19.5625212 C28.1494382,19.2557507 27.3707865,19.1023654 26.5921348,19.1023654 C25.7308989,19.1023654 24.9404494,19.2557507 24.2207865,19.5743201 C23.5011236,19.8928895 22.8876404,20.3294476 22.3685393,20.8839943 C21.8494382,21.4385411 21.4483146,22.0992776 21.1651685,22.8544051 C20.8820225,23.6095326 20.7286517,24.4472521 20.7286517,25.343966 C20.7286517,26.2642776 20.8702247,27.113796 21.1651685,27.8807224 C21.4483146,28.6476487 21.8494382,29.3083853 22.3567416,29.8511331 C22.8640449,30.393881 23.4775281,30.8304391 24.1853933,31.1372096 C24.8932584,31.4439802 25.6719101,31.5973654 26.5213483,31.5973654 C27.5005618,31.5973654 28.35,31.4085836 29.0814607,31.019221 C29.8129213,30.6298584 30.3910112,30.1343059 30.8393258,29.5207649 L34.2606742,32.7418555 C33.3404494,33.7919547 32.2196629,34.6060765 30.8983146,35.2196176 Z" id="Path" fill="#5E1EA7"></path>
                </g>
                <g id="Group" transform="translate(145.303371, 69.623229)">
                    <rect id="Rectangle" fill="#BF90E9" x="0" y="0.141586402" width="50.6241573" height="50.6289377"></rect>
                    <path d="M38.6376404,44.9418839 L12.0101124,44.9418839 C8.6005618,44.9418839 5.83988764,42.180949 5.83988764,38.7710765 L5.83988764,12.141034 C5.83988764,8.73116147 8.6005618,5.97022663 12.0101124,5.97022663 L38.6376404,5.97022663 C42.047191,5.97022663 44.8078652,8.73116147 44.8078652,12.141034 L44.8078652,38.7710765 C44.7960674,42.180949 42.0353933,44.9418839 38.6376404,44.9418839 Z" id="Path" fill="#8D55C2"></path>
                    <path d="M30.7449438,34.3700992 L29.1640449,30.3702833 L21.2713483,30.3702833 L19.7730337,34.3700992 L14.4168539,34.3700992 L22.9702247,13.9816572 L27.7483146,13.9816572 L36.2073034,34.3700992 L30.7449438,34.3700992 Z M25.2707865,19.4327337 L22.6752809,26.4294618 L27.7955056,26.4294618 L25.2707865,19.4327337 Z" id="Shape" fill="#5E1EA7" fill-rule="nonzero"></path>
                </g>
                <path d="M339.423596,173.64204 C340.060674,180.839348 338.939888,188.284433 335.848876,195.351955 L335.848876,195.363754 L335.837079,195.363754 C332.73427,202.443074 328.038764,208.30711 322.328652,212.708088 C315.544944,217.946785 307.380899,221.144278 298.839326,221.875807 C291.67809,222.489348 284.257303,221.392054 277.202247,218.300751 C270.123596,215.209448 264.260112,210.5017 259.847753,204.791048 C254.609551,198.0067 251.41236,189.841884 250.669101,181.311303 C250.04382,174.137592 251.152809,166.716105 254.24382,159.660382 C254.24382,159.660382 254.24382,159.660382 254.255618,159.648584 C257.346629,152.592861 262.030337,146.740623 267.716854,142.327847 C274.476966,137.077351 282.652809,133.868059 291.182584,133.112932 C298.367416,132.487592 305.823596,133.596686 312.890449,136.687989 C319.957303,139.767493 325.808989,144.475241 330.221348,150.162295 C335.471348,156.946643 338.680337,165.111459 339.423596,173.64204 Z" id="Path" fill="#A060DB"></path>
                <polygon id="Path" fill="#7737B3" points="296.066854 197.440354 279.738764 190.30204 275.161236 178.585765 282.298876 162.232535 294.025843 157.642776 310.353933 164.781091 314.966854 176.520963 307.817416 192.862394"></polygon>
                <path d="M327.755618,147.259773 L325.667416,152.026516 L313.916854,156.604476 L297.588764,149.466161 L293.011236,137.738088 L295.099438,132.959547 C301.045506,132.959547 307.097753,134.163031 312.902247,136.699788 C318.706742,139.248343 323.708989,142.882394 327.755618,147.259773 Z" id="Path" fill="#7737B3"></path>
                <path d="M297.128652,217.297847 L295.040449,222.064589 C289.082584,222.064589 283.018539,220.861105 277.202247,218.324348 C271.397753,215.787592 266.407303,212.16534 262.372472,207.799759 L264.460674,203.021218 L276.18764,198.431459 L292.51573,205.569773 L297.128652,217.297847 Z" id="Path" fill="#7737B3"></path>
                <path d="M335.860674,195.351955 C333.324157,201.156997 329.690449,206.159717 325.325281,210.194929 L320.570787,208.118329 L315.993258,196.366657 L323.130899,180.037025 L334.857865,175.459065 L339.61236,177.535666 C339.600562,183.494093 338.397191,189.546912 335.860674,195.351955 Z" id="Path" fill="#7737B3"></path>
                <path d="M274.170225,158.64568 L267.032584,174.963513 L255.29382,179.57687 L250.503933,177.48847 C250.503933,171.530042 251.707303,165.477224 254.24382,159.672181 C256.780337,153.867139 260.414045,148.876218 264.779213,144.829207 L269.569101,146.917606 L274.170225,158.64568 Z" id="Path" fill="#7737B3"></path>
                <path d="M214.66236,222.170779 C214.66236,207.610977 226.460112,195.81211 241.018539,195.81211 C247.908427,195.81211 254.173034,198.455057 258.868539,202.785241 C263.623034,207.16262 270.973034,207.16262 275.727528,202.785241 C280.423034,198.455057 286.68764,195.81211 293.577528,195.81211 C300.467416,195.81211 306.732022,198.455057 311.427528,202.785241 C316.182022,207.16262 323.532022,207.16262 328.286517,202.785241 C332.982022,198.455057 339.246629,195.81211 346.136517,195.81211 C360.694944,195.81211 372.492697,207.610977 372.492697,222.170779 L372.492697,222.418555 L372.492697,222.701728 L372.492697,222.383159 L214.66236,222.383159" id="Path" fill="#A967F5"></path>
            </g>
        </g>
    </g>
</svg>