<?xml version="1.0" encoding="UTF-8"?>
<svg width="322px" height="273px" viewBox="0 0 322 273" version="1.1" xmlns="http://www.w3.org/2000/svg" xmlns:xlink="http://www.w3.org/1999/xlink">
    <!-- Generator: Sketch 52.6 (67491) - http://www.bohemiancoding.com/sketch -->
    <title>pc-05-thpt</title>
    <desc>Created with Sketch.</desc>
    <g id="Page-1" stroke="none" stroke-width="1" fill="none" fill-rule="evenodd">
        <g id="05_LỘ-TRÌNH-HỌC-TẬP" transform="translate(-1141.000000, -2446.000000)">
            <g id="pc-05-thpt" transform="translate(1141.000000, 2446.000000)">
                <g id="Group" transform="translate(148.000000, 44.000000)">
                    <path d="M44.8932584,58.7612606 L44.8932584,194.058867 C44.8932584,206.294292 34.9831461,216.20534 22.7488764,216.20534 C22.6191011,216.20534 22.5011236,216.09915 22.5011236,215.957564 C22.5011236,216.09915 22.3949438,216.20534 22.2533708,216.20534 C10.0308989,216.20534 0.108988764,206.294292 0.108988764,194.058867 L0.108988764,58.7612606 L44.8932584,58.7612606 Z" id="Path" fill="#9E60D7"></path>
                    <g id="Path">
                        <path d="M22.5129213,0.0383002833 L22.5129213,58.7612606 L39.5842697,58.7612606 L44.8932584,24.6743343 L25.25,5.58376771 C25.7573034,5.00562323 26.0522472,4.25049575 26.0522472,3.43637394 C26.0522472,1.56035411 24.4713483,0.0383002833 22.5129213,0.0383002833 Z" fill="#A967F5"></path>
                        <path d="M0.13258427,24.6743343 L5.44157303,58.7612606 L22.5129213,58.7612606 L22.5129213,0.0383002833 C20.5544944,0.0383002833 18.9617978,1.56035411 18.9617978,3.43637394 C18.9617978,4.25049575 19.2685393,5.00562323 19.7640449,5.58376771 L0.13258427,24.6743343 Z" fill="#8D56CC"></path>
                    </g>
                    <ellipse id="Oval" fill="#411B77" cx="22.5011236" cy="32.2020113" rx="4.97865169" ry="4.76674221"></ellipse>
                    <path d="M22.7488764,216.20534 C34.9831461,216.20534 44.8932584,206.294292 44.8932584,194.058867 L44.8932584,58.7612606 L22.5011236,58.7612606 L22.5011236,215.957564 C22.5011236,216.09915 22.6191011,216.20534 22.7488764,216.20534 Z" id="Path" fill="#BA7EF1"></path>
                </g>
                <path d="M76.1305263,185.184624 L76.1305263,192.050795 C76.1305263,198.728851 70.7073684,204.137136 64.0109474,204.137136 L57.1258947,204.137136 C50.4294737,204.137136 45.0063158,209.545421 45.0063158,216.223478 L45.0063158,222.972077 C45.0063158,229.650133 39.5831579,235.058418 32.8867368,235.058418 L26.1195789,235.058418 C19.4231579,235.058418 14,240.466703 14,247.14476 L14,271 L322,271 L322,247.14476 C322,240.466703 316.576842,235.058418 309.880421,235.058418 L307.557895,235.058418 C300.861474,235.058418 295.438316,229.650133 295.438316,222.972077 L295.438316,216.399835 C295.438316,209.721778 290.015158,204.313493 283.318737,204.313493 L276.728421,204.313493 C270.032,204.313493 264.608842,198.905208 264.608842,192.227152 L264.608842,185.65491 C264.608842,178.976853 259.185684,173.568568 252.489263,173.568568 L232.730105,173.568568 C226.033684,173.568568 220.610526,168.160283 220.610526,161.482227 L220.610526,155.086342 C220.610526,148.408285 215.187368,143 208.490947,143 L168.170947,143 L149.708632,143 C143.012211,143 137.589053,148.408285 137.589053,155.086342 L137.589053,161.023698 C137.589053,167.701754 132.165895,173.110039 125.469474,173.110039 L88.3208421,173.110039 C81.5536842,173.086525 76.1305263,178.506567 76.1305263,185.184624 Z" id="Path" fill="#6A24AB"></path>
                <g id="Group" transform="translate(143.000000, 100.000000)">
                    <path d="M25.3179775,172.027479 C6.58314607,172.027479 -5.13202247,151.757025 4.22359551,135.521785 L48.4769663,63.9262606 L48.488764,63.9262606 L48.488764,1.46305949 L123.192135,1.46305949 L123.192135,63.9262606 L167.457303,135.521785 C176.812921,151.757025 165.085955,172.027479 146.362921,172.027479 L25.3179775,172.027479 Z" id="Path" fill="#A967F5"></path>
                    <path d="M119.829775,13.2973229 L51.8629213,13.2973229 C48.2292135,13.2973229 45.291573,10.3476062 45.291573,6.72535411 C45.291573,3.09130312 48.2410112,0.153385269 51.8629213,0.153385269 L119.829775,0.153385269 C123.463483,0.153385269 126.401124,3.10310198 126.401124,6.72535411 C126.401124,10.3476062 123.451685,13.2973229 119.829775,13.2973229 Z" id="Path" fill="#6A24AB"></path>
                    <g transform="translate(66.067416, 21.237960)" fill="#471873" id="Path">
                        <g transform="translate(0.000000, 77.872521)">
                            <path d="M9.07247191,11.787068 L17.5196629,11.787068 C18.0977528,11.787068 18.5696629,12.2590227 18.5696629,12.8371671 C18.5696629,13.4153116 18.0977528,13.8872663 17.5196629,13.8872663 L9.07247191,13.8872663 C8.49438202,13.8872663 8.02247191,13.4153116 8.02247191,12.8371671 C8.01067416,12.2708215 8.48258427,11.787068 9.07247191,11.787068 Z"></path>
                            <path d="M9.07247191,5.95842776 L17.5196629,5.95842776 C18.0977528,5.95842776 18.5696629,6.43038244 18.5696629,7.00852691 C18.5696629,7.58667139 18.0977528,8.05862606 17.5196629,8.05862606 L9.07247191,8.05862606 C8.49438202,8.05862606 8.02247191,7.58667139 8.02247191,7.00852691 C8.01067416,6.4421813 8.48258427,5.95842776 9.07247191,5.95842776 Z"></path>
                            <path d="M9.07247191,0.141586402 L17.5196629,0.141586402 C18.0977528,0.141586402 18.5696629,0.613541076 18.5696629,1.19168555 C18.5696629,1.76983003 18.0977528,2.2417847 17.5196629,2.2417847 L9.07247191,2.2417847 C8.49438202,2.2417847 8.02247191,1.76983003 8.02247191,1.19168555 C8.01067416,0.613541076 8.48258427,0.141586402 9.07247191,0.141586402 Z"></path>
                            <path d="M1.61629213,17.6157082 L17.5078652,17.6157082 C18.0859551,17.6157082 18.5578652,18.0876629 18.5578652,18.6658074 C18.5578652,19.2439518 18.0859551,19.7159065 17.5078652,19.7159065 L1.61629213,19.7159065 C1.03820225,19.7159065 0.566292135,19.2439518 0.566292135,18.6658074 C0.566292135,18.0994618 1.03820225,17.6157082 1.61629213,17.6157082 Z"></path>
                        </g>
                        <g transform="translate(0.000000, 7.079320)">
                            <path d="M1.61629213,64.24483 L17.5078652,64.24483 C18.0859551,64.24483 18.5578652,64.7167847 18.5578652,65.2949292 C18.5578652,65.8730737 18.0859551,66.3450283 17.5078652,66.3450283 L1.61629213,66.3450283 C1.03820225,66.3450283 0.566292135,65.8730737 0.566292135,65.2949292 C0.566292135,64.7167847 1.03820225,64.24483 1.61629213,64.24483 Z"></path>
                            <path d="M9.07247191,58.4161898 L17.5196629,58.4161898 C18.0977528,58.4161898 18.5696629,58.8881445 18.5696629,59.466289 C18.5696629,60.0444334 18.0977528,60.5163881 17.5196629,60.5163881 L9.07247191,60.5163881 C8.49438202,60.5163881 8.02247191,60.0444334 8.02247191,59.466289 C8.01067416,58.8881445 8.48258427,58.4161898 9.07247191,58.4161898 Z"></path>
                            <path d="M9.07247191,52.5875496 L17.5196629,52.5875496 C18.0977528,52.5875496 18.5696629,53.0595042 18.5696629,53.6376487 C18.5696629,54.2157932 18.0977528,54.6877479 17.5196629,54.6877479 L9.07247191,54.6877479 C8.49438202,54.6877479 8.02247191,54.2157932 8.02247191,53.6376487 C8.01067416,53.0595042 8.48258427,52.5875496 9.07247191,52.5875496 Z"></path>
                            <path d="M9.07247191,46.7589093 L17.5196629,46.7589093 C18.0977528,46.7589093 18.5696629,47.230864 18.5696629,47.8090085 C18.5696629,48.387153 18.0977528,48.8591076 17.5196629,48.8591076 L9.07247191,48.8591076 C8.49438202,48.8591076 8.02247191,48.387153 8.02247191,47.8090085 C8.01067416,47.230864 8.48258427,46.7589093 9.07247191,46.7589093 Z"></path>
                            <path d="M9.07247191,35.1016289 L17.5196629,35.1016289 C18.0977528,35.1016289 18.5696629,35.5735836 18.5696629,36.151728 C18.5696629,36.7298725 18.0977528,37.2018272 17.5196629,37.2018272 L9.07247191,37.2018272 C8.49438202,37.2018272 8.02247191,36.7298725 8.02247191,36.151728 C8.01067416,35.5853824 8.48258427,35.1016289 9.07247191,35.1016289 Z"></path>
                            <path d="M9.07247191,29.2729887 L17.5196629,29.2729887 C18.0977528,29.2729887 18.5696629,29.7449433 18.5696629,30.3230878 C18.5696629,30.9012323 18.0977528,31.373187 17.5196629,31.373187 L9.07247191,31.373187 C8.49438202,31.373187 8.02247191,30.9012323 8.02247191,30.3230878 C8.01067416,29.7567422 8.48258427,29.2729887 9.07247191,29.2729887 Z"></path>
                            <path d="M9.07247191,23.4561473 L17.5196629,23.4561473 C18.0977528,23.4561473 18.5696629,23.928102 18.5696629,24.5062465 C18.5696629,25.0843909 18.0977528,25.5563456 17.5196629,25.5563456 L9.07247191,25.5563456 C8.49438202,25.5563456 8.02247191,25.0843909 8.02247191,24.5062465 C8.01067416,23.928102 8.48258427,23.4561473 9.07247191,23.4561473 Z"></path>
                            <path d="M9.07247191,11.7988669 L17.5196629,11.7988669 C18.0977528,11.7988669 18.5696629,12.2708215 18.5696629,12.848966 C18.5696629,13.4271105 18.0977528,13.8990652 17.5196629,13.8990652 L9.07247191,13.8990652 C8.49438202,13.8990652 8.02247191,13.4271105 8.02247191,12.848966 C8.01067416,12.2708215 8.48258427,11.7988669 9.07247191,11.7988669 Z"></path>
                            <path d="M9.07247191,5.97022663 L17.5196629,5.97022663 C18.0977528,5.97022663 18.5696629,6.4421813 18.5696629,7.02032578 C18.5696629,7.59847025 18.0977528,8.07042493 17.5196629,8.07042493 L9.07247191,8.07042493 C8.49438202,8.07042493 8.02247191,7.59847025 8.02247191,7.02032578 C8.01067416,6.4421813 8.48258427,5.97022663 9.07247191,5.97022663 Z"></path>
                            <path d="M9.07247191,0.141586402 L17.5196629,0.141586402 C18.0977528,0.141586402 18.5696629,0.613541076 18.5696629,1.19168555 C18.5696629,1.76983003 18.0977528,2.2417847 17.5196629,2.2417847 L9.07247191,2.2417847 C8.49438202,2.2417847 8.02247191,1.76983003 8.02247191,1.19168555 C8.01067416,0.613541076 8.48258427,0.141586402 9.07247191,0.141586402 Z"></path>
                            <path d="M1.61629213,40.9302691 L17.5078652,40.9302691 C18.0859551,40.9302691 18.5578652,41.4022238 18.5578652,41.9803683 C18.5578652,42.5585127 18.0859551,43.0304674 17.5078652,43.0304674 L1.61629213,43.0304674 C1.03820225,43.0304674 0.566292135,42.5585127 0.566292135,41.9803683 C0.566292135,41.4140227 1.03820225,40.9302691 1.61629213,40.9302691 Z"></path>
                            <path d="M1.61629213,17.6275071 L17.5078652,17.6275071 C18.0859551,17.6275071 18.5578652,18.0994618 18.5578652,18.6776062 C18.5578652,19.2557507 18.0859551,19.7277054 17.5078652,19.7277054 L1.61629213,19.7277054 C1.03820225,19.7277054 0.566292135,19.2557507 0.566292135,18.6776062 C0.566292135,18.0994618 1.03820225,17.6275071 1.61629213,17.6275071 Z"></path>
                        </g>
                        <path d="M1.61629213,0.530949008 L17.5078652,0.530949008 C18.0859551,0.530949008 18.5578652,1.00290368 18.5578652,1.58104816 C18.5578652,2.15919263 18.0859551,2.63114731 17.5078652,2.63114731 L1.61629213,2.63114731 C1.03820225,2.63114731 0.566292135,2.15919263 0.566292135,1.58104816 C0.566292135,1.01470255 1.03820225,0.530949008 1.61629213,0.530949008 Z"></path>
                    </g>
                </g>
                <g id="Group" transform="translate(89.000000, 114.000000)">
                    <path d="M15.1129213,25.8306232 L28.0196629,25.8306232 L28.0196629,13.4654108 C28.0078652,13.2884278 28.0078652,13.1114448 28.0078652,12.9344618 C28.0078652,5.80794618 33.7769663,0.0383002833 40.902809,0.0383002833 C48.0286517,0.0383002833 53.7977528,5.80794618 53.7977528,12.9344618 L53.7977528,25.8424221 L54.7061798,25.8424221 L66.1617978,25.8424221 C66.338764,25.8306232 66.5157303,25.8306232 66.6926966,25.8306232 C73.8185393,25.8306232 79.5876404,31.6002691 79.5876404,38.7267847 C79.5876404,45.8533003 73.8185393,51.6229462 66.6926966,51.6229462 L53.7859551,51.6229462 L53.7859551,63.9999575 C53.7977528,64.1769405 53.7977528,64.3539235 53.7977528,64.5309065 C53.7977528,71.6574221 48.0286517,77.427068 40.902809,77.427068 C33.7769663,77.427068 28.0078652,71.6574221 28.0078652,64.5309065 L28.0078652,51.6229462 L28.0432584,51.6229462 L28.0432584,51.5875496 L28.0196629,51.5875496 L28.0196629,51.6111473 L15.6438202,51.6111473 C15.4668539,51.6229462 15.2898876,51.6229462 15.1129213,51.6229462 C7.98707865,51.6229462 2.21797753,45.8533003 2.21797753,38.7267847 C2.20617978,31.612068 7.98707865,25.8306232 15.1129213,25.8306232 Z" id="Path" fill="#F1CC1F"></path>
                    <path d="M13.5320225,47.8591076 L22.6634831,38.7267847 L13.9213483,29.9838244 C13.791573,29.8658357 13.6617978,29.747847 13.5320225,29.6180595 C8.49438202,24.5799433 8.49438202,16.4151275 13.5320225,11.3770113 C18.5696629,6.33889518 26.7337079,6.33889518 31.7713483,11.3770113 L40.902809,20.5093343 L41.5398876,19.8721955 L49.6449438,11.7663739 C49.7629213,11.6365864 49.8808989,11.5067989 50.0106742,11.3770113 C55.0483146,6.33889518 63.2123596,6.33889518 68.25,11.3770113 C73.2876404,16.4151275 73.2876404,24.5799433 68.25,29.6180595 L59.1185393,38.7503824 L67.8724719,47.5051416 C68.0022472,47.6231303 68.1320225,47.741119 68.2617978,47.8709065 C73.2994382,52.9090227 73.2994382,61.0738385 68.2617978,66.1119547 C63.2241573,71.1500708 55.0601124,71.1500708 50.0224719,66.1119547 L40.8910112,56.9796317 L40.9146067,56.956034 L40.8910112,56.9324363 L40.8792135,56.9442351 L40.902809,56.9678329 L32.1488764,65.7225921 C32.0308989,65.8523796 31.9129213,65.9821671 31.7831461,66.1119547 C26.7455056,71.1500708 18.5814607,71.1500708 13.5438202,66.1119547 C8.49438202,61.0620397 8.49438202,52.8972238 13.5320225,47.8591076 Z" id="Path" fill="#E8B313"></path>
                    <ellipse id="Oval" fill="#471873" cx="40.902809" cy="38.7385836" rx="12.8949438" ry="12.8961615"></ellipse>
                    <path d="M42.3657303,156.833442 C65.7488764,156.833442 84.6960674,137.884462 84.6960674,114.499108 C61.3129213,114.499108 42.3657303,133.448088 42.3657303,156.833442 Z" id="Path" fill="#F1CC1F"></path>
                    <path d="M42.3657303,156.833442 C18.9825843,156.833442 0.0353932584,137.884462 0.0353932584,114.499108 C23.4067416,114.499108 42.3657303,133.448088 42.3657303,156.833442 Z" id="Path" fill="#F1CC1F"></path>
                    <path d="M42.3657303,115.903173 C65.7488764,115.903173 84.6960674,96.9541926 84.6960674,73.5688385 C61.3129213,73.5688385 42.3657303,92.5296176 42.3657303,115.903173 Z" id="Path" fill="#F1CC1F"></path>
                    <path d="M42.3657303,115.903173 C18.9825843,115.903173 0.0353932584,96.9541926 0.0353932584,73.5688385 C23.4067416,73.5688385 42.3657303,92.5296176 42.3657303,115.903173 Z" id="Path" fill="#F1CC1F"></path>
                </g>
                <g id="Group-4">
                    <path d="M40.8735955,0.313852691 L40.8735955,26.9556941 C40.8735955,31.6634419 37.0629213,35.4862748 32.3438202,35.4862748 L5.39775281,35.4862748 C2.73146067,35.4862748 0.57247191,37.6454674 0.57247191,40.3120113 L0.57247191,8.84443343 C0.57247191,4.13668555 4.38314607,0.313852691 9.10224719,0.313852691 L40.8735955,0.313852691 Z" id="Path" fill="#7737B3"></path>
                    <ellipse id="Oval" fill="#A967F5" cx="9.49157303" cy="17.2216289" rx="2.93764045" ry="2.93791785"></ellipse>
                    <ellipse id="Oval" fill="#A967F5" cx="20.8646067" cy="17.2216289" rx="2.93764045" ry="2.93791785"></ellipse>
                    <ellipse id="Oval" fill="#A967F5" cx="32.2376404" cy="17.2216289" rx="2.93764045" ry="2.93791785"></ellipse>
                </g>
                <g id="Group-5" transform="translate(61.000000, 55.000000)">
                    <path d="M0.913483146,0.361005666 L0.913483146,27.002847 C0.913483146,31.7105949 4.7241573,35.5334278 9.44325843,35.5334278 L36.3893258,35.5334278 C39.055618,35.5334278 41.2146067,37.6926204 41.2146067,40.3591643 L41.2146067,8.8915864 C41.2146067,4.18383853 37.4039326,0.361005666 32.6848315,0.361005666 L0.913483146,0.361005666 Z" id="Path" fill="#BB76FC"></path>
                    <ellipse id="Oval" fill="#39105F" cx="9.86797753" cy="16.7968272" rx="2.93764045" ry="2.93791785"></ellipse>
                    <ellipse id="Oval" fill="#39105F" cx="21.2410112" cy="16.7968272" rx="2.93764045" ry="2.93791785"></ellipse>
                    <ellipse id="Oval" fill="#39105F" cx="32.6140449" cy="16.7968272" rx="2.93764045" ry="2.93791785"></ellipse>
                </g>
            </g>
        </g>
    </g>
</svg>