<?xml version="1.0" encoding="UTF-8"?>
<svg width="342px" height="260px" viewBox="0 0 342 260" version="1.1" xmlns="http://www.w3.org/2000/svg" xmlns:xlink="http://www.w3.org/1999/xlink">
    <!-- Generator: Sketch 52.6 (67491) - http://www.bohemiancoding.com/sketch -->
    <title>pc-05-thcs</title>
    <desc>Created with Sketch.</desc>
    <g id="Page-1" stroke="none" stroke-width="1" fill="none" fill-rule="evenodd">
        <g id="05_LỘ-TRÌNH-HỌC-TẬP" transform="translate(-470.000000, -2197.000000)">
            <g id="pc-05-thcs" transform="translate(470.000000, 2197.000000)">
                <g id="Group" transform="translate(162.000000, 138.000000)">
                    <path d="M87.6808989,60.9057507 C70.9162921,82.0257224 40.1949438,85.5535836 19.0769663,68.7873938 C-2.04101124,52.021204 -5.56853933,21.2969547 11.1960674,0.176983003 L87.6808989,60.9057507 Z" id="Path" fill="#8C31E1"></path>
                    <g transform="translate(9.438202, 7.079320)" fill="#39105F" id="Path">
                        <g transform="translate(42.471910, 31.856941)">
                            <path d="M19.088764,19.4799292 L22.5337079,15.1379462 C22.7696629,14.8429745 23.2061798,14.7839802 23.5011236,15.0317564 C23.7960674,15.2677337 23.8550562,15.7042918 23.6073034,15.9992635 L20.1623596,20.3412465 C19.9264045,20.6362181 19.4898876,20.6952125 19.1949438,20.4474363 C18.9,20.2114589 18.852809,19.7866997 19.088764,19.4799292 Z"></path>
                            <path d="M16.0921348,17.1083569 L19.5370787,12.7663739 C19.7730337,12.4714023 20.2095506,12.4124079 20.5044944,12.6601841 C20.7994382,12.8961615 20.858427,13.3327195 20.6106742,13.6276912 L17.1657303,17.9696742 C16.9297753,18.2646459 16.4932584,18.3236402 16.1983146,18.075864 C15.9033708,17.8398867 15.8561798,17.4033286 16.0921348,17.1083569 Z"></path>
                            <path d="M13.0955056,14.7249858 L16.5404494,10.3830028 C16.7764045,10.0880312 17.2129213,10.0290368 17.5078652,10.276813 C17.802809,10.5127904 17.8617978,10.9493484 17.6140449,11.2443201 L14.1691011,15.5863031 C13.9331461,15.8812748 13.4966292,15.9402691 13.2016854,15.6924929 C12.9185393,15.4565156 12.8595506,15.0199575 13.0955056,14.7249858 Z"></path>
                            <path d="M7.11404494,9.97004249 L10.5589888,5.62805949 C10.7949438,5.33308782 11.2314607,5.27409348 11.5264045,5.52186969 C11.8213483,5.75784703 11.8803371,6.1944051 11.6325843,6.48937677 L8.18764045,10.8313598 C7.95168539,11.1263314 7.51516854,11.1853258 7.22022472,10.9375496 C6.9252809,10.7015722 6.87808989,10.2650142 7.11404494,9.97004249 Z"></path>
                            <path d="M4.11741573,7.58667139 L7.56235955,3.24468839 C7.79831461,2.94971671 8.23483146,2.89072238 8.52977528,3.13849858 C8.8247191,3.37447592 8.88370787,3.81103399 8.63595506,4.10600567 L5.19101124,8.44798867 C4.95505618,8.74296034 4.51853933,8.80195467 4.22359551,8.55417847 C3.92865169,8.31820113 3.88146067,7.89344193 4.11741573,7.58667139 Z"></path>
                            <path d="M1.12078652,5.21509915 L4.56573034,0.873116147 C4.80168539,0.578144476 5.23820225,0.519150142 5.53314607,0.766926346 C5.82808989,1.00290368 5.88707865,1.43946176 5.63932584,1.73443343 L2.19438202,6.07641643 C1.95842697,6.3713881 1.52191011,6.43038244 1.22696629,6.18260623 C0.932022472,5.9466289 0.884831461,5.51007082 1.12078652,5.21509915 Z"></path>
                            <path d="M19.041573,25.6861331 L25.5303371,17.5213173 C25.7662921,17.2263456 26.202809,17.1673513 26.4977528,17.4151275 C26.7926966,17.6511048 26.8516854,18.0876629 26.6039326,18.3826346 L20.1151685,26.5474504 C19.8792135,26.8424221 19.4426966,26.9014164 19.1477528,26.6536402 C18.852809,26.4294618 18.805618,25.9929037 19.041573,25.6861331 Z"></path>
                            <path d="M7.06685393,16.1762465 L13.555618,8.01143059 C13.791573,7.71645892 14.2280899,7.65746459 14.5230337,7.90524079 C14.8179775,8.14121813 14.8769663,8.5777762 14.6292135,8.87274788 L8.14044944,17.0375637 C7.90449438,17.3325354 7.46797753,17.3915297 7.17303371,17.1437535 C6.87808989,16.9077762 6.83089888,16.4712181 7.06685393,16.1762465 Z"></path>
                        </g>
                        <g transform="translate(6.898876, 3.539660)">
                            <path d="M30.2168539,34.6296742 L36.705618,26.4648584 C36.941573,26.1698867 37.3780899,26.1108924 37.6730337,26.3586686 C37.9679775,26.5946459 38.0269663,27.031204 37.7792135,27.3261756 L31.2904494,35.4909915 C31.0544944,35.7859632 30.6179775,35.8449575 30.3230337,35.5971813 C30.0280899,35.361204 29.9808989,34.9246459 30.2168539,34.6296742 Z"></path>
                            <path d="M30.2640449,28.4234703 L33.7089888,24.0814873 C33.9449438,23.7865156 34.3814607,23.7275212 34.6764045,23.9752975 C34.9713483,24.2112748 35.0303371,24.6478329 34.7825843,24.9428045 L31.3376404,29.2847875 C31.1016854,29.5797592 30.6651685,29.6387535 30.3702247,29.3909773 C30.0752809,29.155 30.0280899,28.7184419 30.2640449,28.4234703 Z"></path>
                            <path d="M27.2674157,26.0400992 L30.7123596,21.6981161 C30.9483146,21.4031445 31.3848315,21.3441501 31.6797753,21.5919263 C31.9747191,21.8279037 32.0337079,22.2644618 31.7859551,22.5594334 L28.3410112,26.9014164 C28.1050562,27.1963881 27.6685393,27.2553824 27.3735955,27.0076062 C27.0786517,26.7834278 27.0314607,26.3468697 27.2674157,26.0400992 Z"></path>
                            <path d="M24.2707865,23.6685269 L27.7157303,19.3265439 C27.9516854,19.0315722 28.3882022,18.9725779 28.6831461,19.2203541 C28.9780899,19.4563314 29.0370787,19.8928895 28.7893258,20.1878612 L25.344382,24.5298442 C25.108427,24.8248159 24.6719101,24.8838102 24.3769663,24.636034 C24.0820225,24.4000567 24.0348315,23.9634986 24.2707865,23.6685269 Z"></path>
                            <path d="M18.2893258,18.9017847 L21.7342697,14.5598017 C21.9702247,14.26483 22.4067416,14.2058357 22.7016854,14.4536119 C22.9966292,14.6895892 23.055618,15.1261473 22.8078652,15.421119 L19.3629213,19.763102 C19.1269663,20.0580737 18.6904494,20.117068 18.3955056,19.8692918 C18.1005618,19.6451133 18.041573,19.2085552 18.2893258,18.9017847 Z"></path>
                            <path d="M15.2926966,16.5302125 L18.7376404,12.1882295 C18.9735955,11.8932578 19.4101124,11.8342635 19.7050562,12.0820397 C20,12.318017 20.0589888,12.7545751 19.811236,13.0495467 L16.3662921,17.3915297 C16.1303371,17.6865014 15.6938202,17.7454958 15.3988764,17.4977195 C15.1039326,17.2617422 15.0449438,16.8251841 15.2926966,16.5302125 Z"></path>
                            <path d="M12.2960674,14.1468414 L15.7410112,9.80485836 C15.9769663,9.50988669 16.4134831,9.45089235 16.708427,9.69866856 C17.0033708,9.93464589 17.0623596,10.371204 16.8146067,10.6661756 L13.3696629,15.0081586 C13.1337079,15.3031303 12.697191,15.3621246 12.4022472,15.1143484 C12.1073034,14.89017 12.0601124,14.4536119 12.2960674,14.1468414 Z"></path>
                            <path d="M6.30280899,9.39189802 L9.74775281,5.04991501 C9.98370787,4.75494334 10.4202247,4.69594901 10.7151685,4.94372521 C11.0101124,5.17970255 11.0691011,5.61626062 10.8213483,5.91123229 L7.37640449,10.2532153 C7.14044944,10.548187 6.70393258,10.6071813 6.40898876,10.3594051 C6.11404494,10.1234278 6.06685393,9.68686969 6.30280899,9.39189802 Z"></path>
                            <path d="M3.30617978,7.00852691 L6.7511236,2.66654391 C6.98707865,2.37157224 7.42359551,2.3125779 7.71853933,2.56035411 C8.01348315,2.79633144 8.07247191,3.23288952 7.8247191,3.52786119 L4.37977528,7.86984419 C4.14382022,8.16481586 3.70730337,8.2238102 3.41235955,7.97603399 C3.11741573,7.75185552 3.07022472,7.31529745 3.30617978,7.00852691 Z"></path>
                            <path d="M0.309550562,4.63695467 L3.75449438,0.294971671 C3.99044944,8.98059405e-13 4.42696629,-0.0589943343 4.72191011,0.18878187 C5.01685393,0.424759207 5.0758427,0.86131728 4.82808989,1.15628895 L1.38314607,5.49827195 C1.14719101,5.79324363 0.710674157,5.85223796 0.415730337,5.60446176 C0.120786517,5.36848442 0.0735955056,4.93192635 0.309550562,4.63695467 Z"></path>
                            <path d="M18.2421348,25.1197875 L24.7308989,16.9549717 C24.9668539,16.66 25.4033708,16.6010057 25.6983146,16.8487819 C25.9932584,17.0847592 26.0522472,17.5213173 25.8044944,17.816289 L19.3157303,25.9811048 C19.0797753,26.2760765 18.6432584,26.3350708 18.3483146,26.0872946 C18.0533708,25.8513173 17.994382,25.4147592 18.2421348,25.1197875 Z"></path>
                            <path d="M6.25561798,15.598102 L12.744382,7.43328612 C12.9803371,7.13831445 13.4168539,7.07932011 13.7117978,7.32709632 C14.0067416,7.56307365 14.0657303,7.99963173 13.8179775,8.2946034 L7.32921348,16.4594193 C7.09325843,16.7543909 6.65674157,16.8133853 6.36179775,16.5656091 C6.06685393,16.3414306 6.01966292,15.9048725 6.25561798,15.598102 Z"></path>
                        </g>
                        <path d="M0.731460674,9.27390935 L7.22022472,1.10909348 C7.45617978,0.814121813 7.89269663,0.755127479 8.18764045,1.00290368 C8.48258427,1.23888102 8.54157303,1.67543909 8.29382022,1.97041076 L1.80505618,10.1352266 C1.56910112,10.4301983 1.13258427,10.4891926 0.837640449,10.2414164 C0.554494382,10.017238 0.495505618,9.58067989 0.731460674,9.27390935 Z"></path>
                    </g>
                </g>
                <path d="M250.598104,258.988165 L251,231.957026 C251,229.270481 248.825034,227.092842 246.141787,227.092842 L229.522207,227.092842 C226.838961,227.092842 224.663994,224.915202 224.663994,222.228657 L224.663994,218.843847 C224.663994,216.157302 222.489028,213.979662 219.805781,213.979662 L216.401486,213.979662 C213.71824,213.979662 211.543273,211.802022 211.543273,209.115477 L211.543273,203.470183 C211.543273,200.783638 209.368307,198.605998 206.685061,198.605998 L190.018199,198.605998 C187.394055,198.546823 185.290011,196.392853 185.290011,193.753648 L185.290011,190.345168 C185.290011,187.658623 183.115045,185.480984 180.431798,185.480984 L163.812218,185.480984 C161.128972,185.480984 158.954006,183.303344 158.954006,180.616799 L158.954006,177.231989 C158.954006,174.545444 156.779039,172.367804 154.095793,172.367804 L150.691497,172.367804 C148.008251,172.367804 145.833285,170.190164 145.833285,167.503619 L145.833285,160.864185 C145.833285,158.17764 143.658318,156 140.975072,156 L120.643864,156 C117.960618,156 115.785652,158.17764 115.785652,160.864185 L115.785652,166.604159 C115.785652,169.278869 113.610685,171.468344 110.927439,171.468344 L107.523144,171.468344 C104.839897,171.468344 102.664931,173.645984 102.664931,176.332529 L102.664931,190.357003 C102.664931,193.043548 100.489964,195.221188 97.8067178,195.221188 L81.1871379,195.221188 C78.5038914,195.221188 76.328925,197.398828 76.328925,200.085373 L76.328925,203.493853 C76.328925,206.180398 74.1539587,208.358037 71.4707122,208.358037 L53.8582129,208.358037 C51.1749664,208.358037 49,210.535677 49,213.222222 L49,259 L250.598104,258.988165 Z" id="Path" fill="#A967F5"></path>
                <g id="Group" transform="translate(0.000000, 44.000000)">
                    <path d="M0.507303371,86.6980737 C0.660674157,75.1351841 3.03202247,63.8554674 7.53876404,53.1538952 C12.0455056,42.4523229 18.4752809,32.8834419 26.6275281,24.6950283 C35.0747191,16.2234419 45.0320225,9.61607649 56.2044944,5.06171388 C60.6758427,3.24468839 65.3123596,1.76983003 69.9842697,0.696133144 L72.0134831,9.54528329 C67.8134831,10.5127904 63.6488764,11.8342635 59.6258427,13.4625071 C39.758427,21.5565297 24.2207865,36.8950567 15.891573,56.6699575 C7.56235955,76.4448584 7.43258427,98.272762 15.5140449,118.142054 C23.6073034,138.011346 38.944382,153.550453 58.7174157,161.880453 C68.7573034,166.104448 79.3162921,168.228244 89.8988764,168.228244 C100.151124,168.228244 110.403371,166.234235 120.183708,162.258017 C124.784831,160.381997 129.208989,158.093017 133.35,155.426473 L138.257865,163.072139 C133.644944,166.033654 128.725281,168.58221 123.605056,170.65881 C117.835955,173.006785 111.913483,174.729419 105.896629,175.826714 C121.516854,182.162705 132.535955,197.465836 132.535955,215.352918 L47.2617978,215.352918 C47.2617978,197.465836 58.2808989,182.162705 73.9011236,175.826714 C67.5185393,174.658626 61.2539326,172.794405 55.1898876,170.234051 C44.4893258,165.726884 34.9213483,159.296501 26.7337079,151.143484 C18.2629213,142.695496 11.6561798,132.737252 7.10224719,121.563725 C2.57191011,110.401997 0.342134831,98.6621246 0.507303371,86.6980737 Z" id="Path" fill="#6A24AB"></path>
                    <g transform="translate(24.775281, 22.417847)" id="Path">
                        <path d="M3.5747191,85.9429462 C3.84606742,86.7452691 4.11741573,87.5357932 4.41235955,88.3263173 C12.1988764,109.033329 29.5651685,123.557734 49.7511236,128.501459 C61.2185393,131.309589 73.6061798,131.026416 85.6398876,127.026601 C106.580899,120.05347 121.599438,103.440666 127.403933,83.7601558 C131.025843,71.4893343 131.061236,58.0150283 126.707865,44.9536827 C121.363483,28.9190227 110.367978,16.3532295 96.6825843,8.73116147 C81.3455056,0.200580737 62.6106742,-2.11199717 44.6426966,3.87002833 C35.0747191,7.05572238 26.7455056,12.2590227 19.9617978,18.8427904 C8.49438202,29.9809207 1.4511236,45.0834703 0.37752809,61.1181303 C-0.165168539,69.2829462 0.825842697,77.6955382 3.5747191,85.9429462 Z" fill="#BB76FC"></path>
                        <path d="M70.0078652,50.3693626 L73.1224719,59.725864 L73.3230337,59.6550708 C74.8921348,62.7935694 78.5730337,64.3864164 82.0061798,63.2419263 L84.4365169,62.4396034 C88.2,61.1889235 92.2702247,63.2183286 93.5207865,66.9821671 L94.358427,69.5071246 C95.4202247,72.6928187 98.4994382,74.6396317 101.708427,74.4036544 C101.814607,74.3918555 101.920787,74.3800567 102.026966,74.3682578 C102.522472,74.3092635 103.017978,74.2030737 103.513483,74.0496884 L110.273596,71.7961048 C114.037079,70.5454249 118.107303,72.57483 119.357865,76.3386686 L120.195506,78.8636261 C121.245506,82.0139235 124.253933,83.9489377 127.41573,83.7601558 C131.03764,71.4893343 131.073034,58.0150283 126.719663,44.9536827 C121.375281,28.9190227 110.379775,16.3532295 96.694382,8.73116147 C97.744382,12.4124079 95.7151685,16.2942351 92.0578652,17.5095184 L85.2977528,19.763102 C84.8022472,19.9282861 84.3421348,20.1406657 83.9174157,20.3884419 C83.8230337,20.4356374 83.7286517,20.4946317 83.6460674,20.5536261 C80.9325843,22.2762606 79.6348315,25.6861331 80.6966292,28.8718272 L81.5342697,31.3967847 C82.7848315,35.1606232 80.755618,39.2312323 76.9921348,40.4819122 L74.5617978,41.2842351 C70.7865169,42.534915 68.7573034,46.6055241 70.0078652,50.3693626 Z" fill="#7737B3"></path>
                        <path d="M4.41235955,88.3263173 C12.1988764,109.033329 29.5651685,123.557734 49.7511236,128.501459 C50.3292135,126.637238 51.7567416,125.067989 53.7505618,124.407252 L55.8623596,123.69932 C59.1421348,122.613824 60.9117978,119.074164 59.8146067,115.794079 L57.1011236,107.652861 L56.9241573,107.711856 C55.555618,104.974518 52.358427,103.594051 49.3617978,104.585156 L47.25,105.293088 C43.9702247,106.378584 40.4308989,104.608754 39.3455056,101.340467 L38.6140449,99.1458782 C37.6938202,96.3731445 35.0039326,94.6741076 32.2196629,94.8864873 C32.1252809,94.8982861 32.0308989,94.8982861 31.9483146,94.910085 C31.5117978,94.9572805 31.0870787,95.0516714 30.6623596,95.1932578 L24.7752809,97.1518697 C21.4955056,98.2373654 17.9561798,96.4675354 16.8707865,93.1992493 L16.1393258,91.0046601 C15.0539326,87.7245751 11.5146067,85.954745 8.23483146,87.0520397 L4.41235955,88.3263173 Z" fill="#7737B3"></path>
                        <path d="M0.37752809,61.1181303 L7.71573034,58.6757649 C11.4792135,57.425085 13.508427,53.3544759 12.2578652,49.5906374 L11.455618,47.1600708 C10.2050562,43.3962323 12.2342697,39.3256232 15.9977528,38.0749433 L18.5224719,37.2372238 C22.2859551,35.9865439 24.3151685,31.9159348 23.0646067,28.1520963 L19.9617978,18.8309915 C8.49438202,29.9809207 1.46292135,45.0834703 0.37752809,61.1181303 Z" fill="#7737B3"></path>
                    </g>
                </g>
                <g id="Group" transform="translate(257.000000, 130.000000)" fill="#F1CC1F">
                    <path d="M42.4011236,83.2646034 C65.7842697,83.2646034 84.7314607,64.3156232 84.7314607,40.9302691 C61.3483146,40.9302691 42.4011236,59.8792493 42.4011236,83.2646034 Z" id="Path"></path>
                    <path d="M42.4011236,83.2646034 C19.0179775,83.2646034 0.0707865169,64.3156232 0.0707865169,40.9302691 C23.4421348,40.9302691 42.4011236,59.8792493 42.4011236,83.2646034 Z" id="Path"></path>
                    <path d="M42.4011236,42.3461331 C65.7842697,42.3461331 84.7314607,23.397153 84.7314607,0.0117988669 C61.3483146,0.0117988669 42.4011236,18.960779 42.4011236,42.3461331 Z" id="Path"></path>
                    <path d="M42.4011236,42.3461331 C19.0179775,42.3461331 0.0707865169,23.397153 0.0707865169,0.0117988669 C23.4421348,0.0117988669 42.4011236,18.960779 42.4011236,42.3461331 Z" id="Path"></path>
                </g>
                <path d="M180,259.466871 C180,244.847301 191.810435,233 206.384512,233 C213.281806,233 219.553147,235.653796 224.2537,240.001755 C229.013305,244.397104 236.371206,244.397104 241.130812,240.001755 C245.831365,235.653796 252.102706,233 259,233 C265.897294,233 272.168635,235.653796 276.869188,240.001755 C281.628794,244.397104 288.986695,244.397104 293.7463,240.001755 C298.446853,235.653796 304.718194,233 311.615488,233 C326.189565,233 338,244.847301 338,259.466871 L338,259.715665 L338,260 L338,259.680123 L180,259.680123" id="Path" fill="#6A24AB"></path>
                <g id="Group" transform="translate(185.000000, 0.000000)" fill="#BB76FC">
                    <path d="M16.2691011,68.2918414 C16.2691011,72.9169972 12.5292135,76.6690368 7.89269663,76.6690368 L6.32359551,76.6690368 C4.67191011,76.6690368 3.18539326,75.9965014 2.1,74.9228045 C1.40393258,74.2266714 0.884831461,73.3535552 0.58988764,72.3860482 C0.436516854,71.8433003 0.342134831,71.2769547 0.342134831,70.6988102 C0.342134831,67.4069263 3.02022472,64.7285836 6.32359551,64.7285836 L12.2814607,64.7285836 L12.2814607,61.1771246 C14.6882022,62.6401841 16.2691011,65.2831303 16.2691011,68.2918414 Z" id="Path"></path>
                    <path d="M76.4494382,12.6129887 L76.4494382,12.5893909 C76.4494382,7.39788952 73.1342697,2.97331445 68.4859551,1.33327195 C67.247191,0.896713881 65.9022472,0.648937677 64.5101124,0.648937677 L64.5101124,36.4702975 L58.5522472,36.4702975 C58.0803371,36.4702975 57.6320225,36.5174929 57.1955056,36.6236827 C57.0539326,36.6590793 56.9123596,36.6944759 56.7707865,36.7416714 C56.4876404,36.8242635 56.2162921,36.9304533 55.9567416,37.0602408 C55.9567416,37.0602408 55.9567416,37.0602408 55.9567416,37.0602408 C55.7797753,37.1428329 55.6146067,37.2372238 55.4494382,37.3316147 C55.2016854,37.485 54.9657303,37.6501841 54.741573,37.838966 C54.5882022,37.9569547 54.458427,38.0867422 54.3168539,38.2165297 C53.644382,38.8890652 53.1252809,39.7385836 52.8303371,40.6706941 C52.7831461,40.8476771 52.7241573,41.0482578 52.688764,41.2370397 C52.6061798,41.6264023 52.5589888,42.0393626 52.5589888,42.4523229 C52.5589888,42.5939093 52.5589888,42.7472946 52.5825843,42.8770822 C52.594382,43.0186686 52.6061798,43.160255 52.6297753,43.3018414 C52.6769663,43.5850142 52.7359551,43.868187 52.8067416,44.127762 C53.0898876,45.0952691 53.6207865,45.9683853 54.3168539,46.6645184 C55.4022472,47.7500142 56.888764,48.4107507 58.5404494,48.4107507 L60.1095506,48.4107507 C64.6634831,48.4107507 68.3679775,44.7766997 68.4741573,40.2577337 C68.4741573,40.1869405 68.4741573,40.1161473 68.4741573,40.0453541 C68.4741573,39.9981586 68.4741573,39.9509632 68.4741573,39.9037677 L68.4741573,12.6011898 L76.4494382,12.6011898 L76.4494382,12.6129887 Z" id="Path"></path>
                    <path d="M36.1601124,31.9749292 L36.1601124,62.3452125 C36.1601124,66.9703683 32.4202247,70.7224079 27.7837079,70.7224079 L26.2146067,70.7224079 C24.5629213,70.7224079 23.0646067,70.0498725 21.9910112,68.9761756 C21.2949438,68.2800425 20.7758427,67.4187252 20.4808989,66.4512181 C20.3275281,65.9084703 20.2331461,65.3421246 20.2331461,64.7521813 C20.2331461,61.4602975 22.911236,58.7701558 26.2146067,58.7701558 L32.1724719,58.7701558 L32.1724719,38.546898 L16.2691011,40.5173088 L16.2691011,68.3154391 C16.2691011,65.306728 14.6764045,62.6637819 12.2932584,61.1889235 L12.2932584,34.9600425 L36.1601124,31.9749292 Z" id="Path"></path>
                </g>
            </g>
        </g>
    </g>
</svg>