<svg xmlns="http://www.w3.org/2000/svg" viewBox="0 0 273.34 165.85"><defs><style>.cls-1{fill:#ffcd52;}</style></defs><g id="Layer_2" data-name="Layer 2"><g id="Layer_1-2" data-name="Layer 1"><path class="cls-1" d="M189.78,165.85H26.72A26.75,26.75,0,0,1,0,139.14V31.9A26.75,26.75,0,0,1,26.72,5.19h35.4a1.43,1.43,0,1,1,0,2.85H26.72A23.89,23.89,0,0,0,2.86,31.9V139.14A23.88,23.88,0,0,0,26.72,163H189.78a23.89,23.89,0,0,0,23.87-23.85V99.28a1.43,1.43,0,0,1,1.42-1.43h55.17a1.43,1.43,0,1,1,0,2.86H216.5v38.43A26.75,26.75,0,0,1,189.78,165.85Z"/><polygon class="cls-1" points="260.78 110.95 258.84 108.86 269.15 99.28 258.84 89.69 260.78 87.6 273.34 99.28 260.78 110.95"/><path class="cls-1" d="M69,6.85A6.85,6.85,0,1,1,62.12,0,6.85,6.85,0,0,1,69,6.85Z"/></g></g></svg>