<svg xmlns="http://www.w3.org/2000/svg" viewBox="0 0 276.24 165.85"><defs><style>.cls-1{fill:#ffcd52;}</style></defs><g id="Layer_2" data-name="Layer 2"><g id="Layer_1-2" data-name="Layer 1"><polygon class="cls-1" points="233.21 107.54 235.2 105.46 224.66 95.87 235.2 86.28 233.21 84.19 220.38 95.87 233.21 107.54"/><path class="cls-1" d="M69,6.85A6.85,6.85,0,1,1,62.12,0,6.85,6.85,0,0,1,69,6.85Z"/><path class="cls-1" d="M216.54,97.85h-1.47a1.42,1.42,0,0,0-1.42,1.43v39.86A23.9,23.9,0,0,1,189.78,163H26.72A23.9,23.9,0,0,1,2.85,139.14V31.91A23.89,23.89,0,0,1,26.72,8.05h35.4a1.43,1.43,0,0,0,0-2.86H26.72A26.75,26.75,0,0,0,0,31.91V139.14a26.75,26.75,0,0,0,26.72,26.71H189.78a26.75,26.75,0,0,0,26.72-26.71V100.71h0Z"/><rect class="cls-1" x="223.36" y="94.55" width="52.88" height="2.64"/></g></g></svg>