<svg xmlns="http://www.w3.org/2000/svg" viewBox="0 0 216.47 165.85"><defs><style>.cls-1{fill:#ffcd52;}</style></defs><g id="Layer_2" data-name="Layer 2"><g id="Layer_1-2" data-name="Layer 1"><path class="cls-1" d="M69,6.85A6.85,6.85,0,1,1,62.12,0,6.85,6.85,0,0,1,69,6.85Z"/><path class="cls-1" d="M215.07,97.85a1.43,1.43,0,0,0-1.42,1.43v39.86A23.89,23.89,0,0,1,189.78,163H26.72A23.89,23.89,0,0,1,2.85,139.14V31.9A23.9,23.9,0,0,1,26.72,8h35.4a1.43,1.43,0,1,0,0-2.85H26.72A26.74,26.74,0,0,0,0,31.9V139.14a26.75,26.75,0,0,0,26.72,26.71H189.78a26.76,26.76,0,0,0,26.69-25.39V97.85Z"/></g></g></svg>