<?xml version="1.0" encoding="UTF-8"?>
<svg width="24px" height="16px" viewBox="0 0 24 16" version="1.1" xmlns="http://www.w3.org/2000/svg" xmlns:xlink="http://www.w3.org/1999/xlink">
    <!-- Generator: Sketch 63.1 (92452) - https://sketch.com -->
    <title>Shape</title>
    <desc>Created with Sketch.</desc>
    <g id="Page-1" stroke="none" stroke-width="1" fill="none" fill-rule="evenodd">
        <g id="Mobile---TUYỂN-SINH-landing-page" transform="translate(-208.000000, -10774.000000)" fill="#000000" fill-rule="nonzero">
            <g id="Group-10" transform="translate(0.000000, 805.000000)">
                <g id="Group-8" transform="translate(0.000000, 9509.000000)">
                    <g id="Group-12-Copy" transform="translate(143.000000, 457.000000)">
                        <path d="M87.98,4.54181818 C87.329,3.41890909 86.6225,3.21236364 85.184,3.13381818 C83.747,3.03927273 80.1335,3 77.003,3 C73.8665,3 70.2515,3.03927273 68.816,3.13236364 C67.3805,3.21236364 66.6725,3.41745455 66.0155,4.54181818 C65.345,5.66327273 65,7.59490909 65,10.9956364 C65,10.9985455 65,11 65,11 C65,11.0029091 65,11.0043636 65,11.0043636 L65,11.0072727 C65,14.3934545 65.345,16.3396364 66.0155,17.4494545 C66.6725,18.5723636 67.379,18.776 68.8145,18.8705455 C70.2515,18.952 73.8665,19 77.003,19 C80.1335,19 83.747,18.952 85.1855,18.872 C86.624,18.7774545 87.3305,18.5738182 87.9815,17.4509091 C88.658,16.3410909 89,14.3949091 89,11.0087273 C89,11.0087273 89,11.0043636 89,11.0014545 C89,11.0014545 89,10.9985455 89,10.9970909 C89,7.59490909 88.658,5.66327273 87.98,4.54181818 Z M74,15.3636364 L74,6.63636364 L81.5,11 L74,15.3636364 Z" id="Shape"></path>
                    </g>
                </g>
            </g>
        </g>
    </g>
</svg>